<?xml version="1.0" encoding="UTF-8" standalone="no"?><!-- Generator: Gravit.io --><svg xmlns="http://www.w3.org/2000/svg" xmlns:xlink="http://www.w3.org/1999/xlink" style="isolation:isolate" viewBox="0 0 48.4 48.4" width="48.4pt" height="48.4pt"><defs><clipPath id="_clipPath_KSB05H2jwVFoj3LSBmv9g7VR6TzvS4k5"><rect width="48.4" height="48.4"/></clipPath></defs><g clip-path="url(#_clipPath_KSB05H2jwVFoj3LSBmv9g7VR6TzvS4k5)"><g><g><path d=" M 18.943 0 C 17.64 0.1 16.538 1 16.137 2.2 L 13.632 11 L 5.016 11 C 4.915 11 4.815 11 4.715 11 C 3.012 11.1 1.809 12.5 1.91 14.2 C 2.01 15.9 3.412 17.1 5.116 17 L 5.116 17 L 12.029 17 L 8.021 31 L 3.112 31 C 3.012 31 2.911 31 2.811 31 C 1.108 31.1 -0.094 32.5 0.006 34.2 C 0.106 35.9 1.509 37.1 3.212 37 L 3.212 37 L 6.418 37 L 4.414 44.2 C 3.813 45.8 4.615 47.5 6.218 48.1 C 7.821 48.7 9.524 47.9 10.126 46.3 C 10.226 46.2 10.226 46 10.226 45.9 L 12.731 37.1 L 28.561 37.1 L 26.557 44.3 C 25.956 45.9 26.758 47.6 28.361 48.2 C 29.964 48.8 31.667 48 32.269 46.4 C 32.369 46.3 32.369 46.1 32.369 46 L 34.874 37.2 L 43.49 37.2 C 45.194 37.2 46.496 35.9 46.496 34.2 C 46.496 32.5 45.194 31.2 43.49 31.2 C 43.49 31.2 43.39 31.2 43.39 31.2 L 36.477 31.2 L 40.485 17.2 L 45.394 17.2 C 47.097 17.2 48.4 15.9 48.4 14.2 C 48.4 12.5 47.097 11.2 45.394 11.2 C 45.394 11.2 45.294 11.2 45.294 11.2 L 42.088 11.2 L 44.192 4 C 44.693 2.4 43.791 0.7 42.188 0.3 C 41.887 0.2 41.587 0.2 41.186 0.2 C 39.883 0.3 38.781 1.2 38.381 2.4 L 35.876 11.2 L 19.844 11.2 L 21.949 4 C 22.45 2.4 21.548 0.7 19.945 0.3 C 19.544 0.1 19.243 0 18.943 0 L 18.943 0 Z  M 18.141 17.1 L 33.972 17.1 L 29.964 31.1 L 14.133 31.1 L 18.141 17.1 Z " fill="rgb(255,255,255)"/></g></g></g></svg>