<?xml version="1.0" encoding="UTF-8"?><svg id="Camada_1" xmlns="http://www.w3.org/2000/svg" viewBox="0 0 500 500"><defs><style>.cls-1{stroke-width:0px;}</style></defs><path class="cls-1" d="M220.36,107.97c-7.73.3-14.36,5.59-16.37,13.06l-14.9,52.05h-50.58c-.61-.03-1.23-.03-1.84,0-9.75.51-17.25,8.83-16.74,18.58s8.83,17.25,18.58,16.74h40.47l-23.54,82.4h-28.69c-.61-.03-1.23-.03-1.84,0-9.75.51-17.25,8.83-16.74,18.58.51,9.75,8.83,17.25,18.58,16.74h18.58l-11.96,42.12c-3.39,9.14,1.27,19.31,10.41,22.7,9.14,3.39,19.31-1.27,22.7-10.41.31-.83.55-1.68.73-2.54l14.9-51.87h92.7l-11.96,42.12c-3.39,9.14,1.27,19.31,10.41,22.7,9.14,3.39,19.31-1.27,22.7-10.41.31-.83.55-1.67.73-2.54l14.9-51.87h50.58c9.75.14,17.77-7.66,17.91-17.41.14-9.75-7.66-17.77-17.41-17.91-.17,0-.33,0-.5,0h-40.65l23.54-82.4h28.88c9.75.14,17.77-7.66,17.91-17.41.14-9.75-7.66-17.77-17.41-17.91-.17,0-.33,0-.5,0h-18.76l12.14-42.31c2.85-9.33-2.4-19.2-11.73-22.05-1.86-.57-3.8-.82-5.74-.76-7.73.3-14.36,5.59-16.37,13.06l-14.9,52.05h-92.89l12.14-42.31c2.85-9.33-2.4-19.2-11.73-22.05-1.86-.57-3.8-.82-5.74-.76h0ZM215.58,208.4h92.89l-23.54,82.4h-92.89l23.54-82.4Z"/></svg>