<svg xmlns="http://www.w3.org/2000/svg" xmlns:xlink="http://www.w3.org/1999/xlink" width="500" zoomAndPan="magnify" viewBox="0 0 500 500" height="500" preserveAspectRatio="xMidYMid meet" version="1.0"><defs><clipPath id="c8b0a721c4"><path d="M 0 9 L 375 9 L 375 366.5 L 0 366.5 Z M 0 9 " clip-rule="nonzero"/></clipPath></defs><g clip-path="url(#c8b0a721c4)"><path fill="#ffffff" d="M 175.671875 158.421875 C 183.945312 158.421875 191.597656 161.753906 197.03125 167.3125 C 202.464844 172.867188 205.796875 180.277344 205.796875 188.675781 C 205.796875 197.074219 202.464844 204.605469 197.03125 210.039062 C 191.597656 215.472656 184.066406 218.929688 175.671875 218.929688 C 167.402344 218.929688 159.871094 215.597656 154.4375 210.039062 C 149.007812 204.605469 145.550781 197.074219 145.550781 188.796875 C 145.550781 180.523438 148.882812 172.992188 154.4375 167.558594 C 159.871094 161.878906 167.402344 158.421875 175.671875 158.421875 Z M 325.304688 200.40625 C 321.351562 203.742188 315.425781 203.246094 312.09375 199.296875 C 308.761719 195.34375 309.253906 189.417969 313.203125 186.082031 L 338.144531 165.089844 C 341.722656 162 346.910156 162.125 350.367188 165.210938 L 375.179688 186.207031 C 379.132812 189.539062 379.625 195.46875 376.292969 199.417969 C 372.957031 203.371094 367.03125 203.863281 363.082031 200.53125 L 354.441406 193.246094 C 353.328125 240.910156 333.574219 283.886719 302.09375 315.253906 C 269.746094 347.605469 225.054688 367.613281 175.671875 367.613281 C 126.289062 367.613281 81.597656 347.484375 49.253906 315.003906 C 16.90625 282.652344 -3.09375 237.949219 -3.09375 188.550781 C -3.09375 139.15625 16.90625 94.574219 49.253906 62.222656 C 81.597656 29.867188 126.289062 9.863281 175.671875 9.863281 C 211.96875 9.863281 245.796875 20.730469 274.070312 39.375 C 303.082031 58.515625 326.292969 86.054688 340.117188 118.53125 C 342.09375 123.347656 339.871094 128.78125 335.179688 130.882812 C 330.367188 132.980469 324.933594 130.636719 322.835938 125.941406 C 310.488281 96.921875 289.746094 72.347656 263.699219 55.183594 C 238.511719 38.511719 208.265625 28.878906 175.671875 28.878906 C 131.476562 28.878906 91.476562 46.785156 62.585938 75.683594 C 33.695312 104.578125 15.796875 144.589844 15.796875 188.796875 C 15.796875 233.007812 33.695312 272.894531 62.585938 301.914062 C 91.476562 330.8125 131.476562 348.71875 175.671875 348.71875 C 219.871094 348.71875 259.746094 330.8125 288.761719 301.914062 C 317.03125 273.636719 334.6875 234.859375 335.550781 191.886719 Z M 274.316406 232.390625 C 270.734375 234.738281 266.90625 236.960938 262.832031 239.058594 C 254.933594 243.011719 246.042969 246.46875 236.289062 249.308594 C 233.449219 259.066406 229.996094 267.957031 226.042969 275.859375 C 223.945312 279.933594 221.722656 283.761719 219.375 287.34375 C 231.597656 281.910156 242.585938 274.253906 251.847656 264.992188 C 261.230469 255.605469 268.882812 244.617188 274.316406 232.390625 Z M 214.933594 254.125 C 202.585938 256.222656 189.375 257.460938 175.671875 257.460938 C 161.96875 257.460938 148.757812 256.347656 136.414062 254.125 C 138.140625 258.816406 139.992188 263.261719 142.09375 267.339844 C 151.226562 285.367188 163.082031 296.480469 175.671875 296.480469 C 188.265625 296.480469 200.117188 285.367188 209.253906 267.339844 C 211.351562 263.261719 213.203125 258.816406 214.933594 254.125 Z M 115.054688 249.308594 C 105.300781 246.46875 96.414062 243.011719 88.511719 239.058594 C 84.4375 236.960938 80.609375 234.738281 77.03125 232.390625 C 82.460938 244.617188 90.117188 255.605469 99.375 264.867188 C 108.636719 274.128906 119.746094 281.785156 131.84375 287.21875 C 129.5 283.640625 127.277344 279.8125 125.179688 275.734375 C 121.351562 267.957031 117.894531 259.066406 115.054688 249.308594 Z M 77.152344 144.960938 C 80.734375 142.613281 84.5625 140.390625 88.636719 138.292969 C 96.535156 134.339844 105.425781 130.882812 115.179688 128.042969 C 118.019531 118.285156 121.476562 109.394531 125.425781 101.492188 C 127.523438 97.417969 129.746094 93.589844 132.09375 90.007812 C 119.871094 95.441406 108.882812 103.097656 99.621094 112.359375 C 90.117188 121.742188 82.460938 132.734375 77.152344 144.960938 Z M 136.414062 123.101562 C 148.757812 121.003906 161.96875 119.769531 175.671875 119.769531 C 189.375 119.769531 202.585938 120.878906 214.933594 123.101562 C 213.203125 118.410156 211.351562 113.964844 209.253906 109.890625 C 200.117188 91.859375 188.265625 80.746094 175.671875 80.746094 C 163.082031 80.746094 151.226562 91.859375 142.09375 109.890625 C 139.992188 114.085938 138.140625 118.410156 136.414062 123.101562 Z M 236.289062 128.042969 C 246.042969 130.882812 254.933594 134.339844 262.832031 138.292969 C 266.90625 140.390625 270.734375 142.613281 274.316406 144.960938 C 268.882812 132.734375 261.230469 121.742188 251.96875 112.480469 C 242.710938 103.21875 231.597656 95.5625 219.5 90.128906 C 221.847656 93.710938 224.066406 97.539062 226.167969 101.613281 C 230.117188 109.394531 233.574219 118.285156 236.289062 128.042969 Z M 254.316406 222.265625 C 272.339844 213.125 283.453125 201.269531 283.453125 188.675781 C 283.453125 176.078125 272.339844 164.222656 254.316406 155.085938 C 250.242188 152.988281 245.796875 151.132812 241.105469 149.40625 C 243.203125 161.753906 244.4375 174.96875 244.4375 188.675781 C 244.4375 202.382812 243.328125 215.597656 241.105469 227.945312 C 245.921875 226.214844 250.242188 224.242188 254.316406 222.265625 Z M 220.859375 143.476562 C 207.15625 140.390625 191.847656 138.660156 175.671875 138.660156 C 159.5 138.660156 144.316406 140.390625 130.488281 143.476562 C 127.402344 157.183594 125.671875 172.5 125.671875 188.675781 C 125.671875 204.851562 127.402344 220.042969 130.488281 233.871094 C 144.316406 236.960938 159.5 238.6875 175.671875 238.6875 C 191.847656 238.6875 207.03125 236.960938 220.859375 233.871094 C 223.945312 220.164062 225.671875 204.851562 225.671875 188.675781 C 225.671875 172.5 223.945312 157.183594 220.859375 143.476562 Z M 110.242188 149.40625 C 105.550781 151.132812 101.105469 152.988281 97.03125 155.085938 C 79.003906 164.222656 67.894531 176.078125 67.894531 188.675781 C 67.894531 201.269531 79.003906 213.125 97.03125 222.265625 C 101.105469 224.363281 105.550781 226.214844 110.242188 227.945312 C 108.140625 215.597656 106.90625 202.382812 106.90625 188.675781 C 106.90625 174.96875 108.019531 161.753906 110.242188 149.40625 Z M 175.671875 61.976562 C 210.613281 61.976562 242.339844 76.175781 265.179688 99.144531 C 288.144531 122.113281 302.21875 153.726562 302.21875 188.675781 C 302.21875 223.621094 288.019531 255.359375 265.054688 278.207031 C 242.09375 301.175781 210.488281 315.253906 175.550781 315.253906 C 140.609375 315.253906 108.882812 301.050781 86.042969 278.082031 C 63.203125 255.113281 49.003906 223.5 49.003906 188.550781 C 49.003906 153.605469 63.203125 121.867188 86.042969 99.023438 C 108.882812 76.175781 140.734375 61.976562 175.671875 61.976562 Z M 183.699219 180.648438 C 181.597656 178.550781 178.882812 177.3125 175.671875 177.3125 C 172.464844 177.3125 169.746094 178.550781 167.648438 180.648438 C 165.671875 182.746094 164.316406 185.589844 164.316406 188.675781 C 164.316406 191.761719 165.550781 194.601562 167.648438 196.703125 C 169.746094 198.679688 172.585938 200.035156 175.671875 200.035156 C 178.757812 200.035156 181.597656 198.800781 183.699219 196.703125 C 185.796875 194.601562 187.03125 191.886719 187.03125 188.675781 C 187.03125 185.464844 185.796875 182.625 183.699219 180.648438 Z M 183.699219 180.648438 " fill-opacity="1" fill-rule="nonzero"/></g></svg>