<?xml version="1.0" encoding="UTF-8" standalone="no"?><!-- Generator: Gravit.io --><svg xmlns="http://www.w3.org/2000/svg" xmlns:xlink="http://www.w3.org/1999/xlink" style="isolation:isolate" viewBox="0 0 252.6 115.8" width="252.6pt" height="115.8pt"><defs><clipPath id="_clipPath_cQMwMUyENnr4JMfHmFEJsz3EBqx0IAIk"><rect width="252.6" height="115.8"/></clipPath></defs><g clip-path="url(#_clipPath_cQMwMUyENnr4JMfHmFEJsz3EBqx0IAIk)"><g><g><path d=" M 126.45 101.441 C 63.506 101.441 0 88.515 0 63.506 C 0 48.051 24.166 38.778 44.117 34.001 C 47.208 33.158 50.299 35.125 50.861 38.216 C 51.704 41.307 49.737 44.398 46.646 44.96 C 22.48 50.861 11.24 58.729 11.24 63.506 C 11.24 74.465 56.2 90.201 126.45 90.201 C 129.541 90.201 132.07 92.73 132.07 95.821 C 132.07 98.912 129.541 101.441 126.45 101.441 Z " fill="rgb(255,255,255)"/><path d=" M 166.914 99.755 C 164.104 99.755 161.575 97.507 161.294 94.697 C 161.013 91.606 163.261 88.796 166.352 88.515 C 217.775 83.457 241.66 70.812 241.66 63.506 C 241.66 58.729 230.42 50.861 205.973 44.96 C 202.882 44.117 201.196 41.307 201.758 38.216 C 202.601 35.125 205.411 33.439 208.502 34.001 C 228.734 38.778 252.619 48.051 252.619 63.506 C 252.619 89.358 187.146 97.788 167.195 99.474 C 167.195 99.755 167.195 99.755 166.914 99.755 Z " fill="rgb(255,255,255)"/><path d=" M 112.119 115.772 C 110.714 115.772 109.309 115.21 108.185 114.086 C 105.937 111.838 105.937 108.466 108.185 106.218 L 118.582 95.821 L 108.185 85.705 C 105.937 83.457 105.937 80.085 108.185 77.837 C 110.433 75.589 113.805 75.589 116.053 77.837 L 130.384 92.168 C 131.508 93.292 132.07 94.697 132.07 96.102 C 132.07 97.507 131.508 98.912 130.384 100.036 L 116.053 114.367 C 115.21 115.21 113.805 115.772 112.119 115.772 Z " fill="rgb(255,255,255)"/><path d=" M 82.052 38.778 L 75.589 38.778 C 72.498 38.778 69.969 36.249 69.969 33.158 C 69.969 30.067 72.498 27.538 75.589 27.538 L 82.052 27.538 C 85.143 27.538 87.672 25.009 87.672 21.918 C 87.672 18.827 85.143 16.298 82.052 16.298 L 70.812 16.298 C 67.721 16.298 65.192 13.769 65.192 10.678 C 65.192 7.587 67.721 5.058 70.812 5.058 L 82.052 5.058 C 91.325 5.058 98.912 12.645 98.912 21.918 C 98.912 31.191 91.325 38.778 82.052 38.778 Z " fill="rgb(255,255,255)"/><path d=" M 82.052 61.539 L 70.812 61.539 C 67.721 61.539 65.192 59.01 65.192 55.919 C 65.192 52.828 67.721 50.299 70.812 50.299 L 82.052 50.299 C 85.143 50.299 87.672 47.77 87.672 44.679 C 87.672 41.588 85.143 39.059 82.052 39.059 L 75.589 39.059 C 72.498 39.059 69.969 36.53 69.969 33.439 C 69.969 30.348 72.498 27.819 75.589 27.819 L 82.052 27.819 C 91.325 27.819 98.912 35.406 98.912 44.679 C 98.912 53.952 91.325 61.539 82.052 61.539 Z " fill="rgb(255,255,255)"/><path d=" M 122.516 61.539 C 113.243 61.539 105.656 53.952 105.656 44.679 C 105.656 35.406 113.243 27.819 122.516 27.819 C 131.789 27.819 139.376 35.406 139.376 44.679 C 139.376 53.952 131.789 61.539 122.516 61.539 Z  M 122.516 38.778 C 119.425 38.778 116.896 41.307 116.896 44.398 C 116.896 47.489 119.425 50.018 122.516 50.018 C 125.607 50.018 128.136 47.489 128.136 44.398 C 128.136 41.307 125.607 38.778 122.516 38.778 Z " fill="rgb(255,255,255)"/><path d=" M 112.4 44.679 C 111.557 44.679 110.995 44.679 110.152 44.117 C 107.342 42.993 105.937 39.621 107.061 36.811 L 119.144 8.149 C 120.268 5.339 123.64 3.934 126.45 5.058 C 129.26 6.182 130.665 9.554 129.541 12.364 L 117.458 41.026 C 116.896 43.555 114.648 44.679 112.4 44.679 Z " fill="rgb(255,255,255)"/><path d=" M 162.98 61.539 C 153.707 61.539 146.12 53.952 146.12 44.679 L 146.12 21.918 C 146.12 12.645 153.707 5.058 162.98 5.058 C 172.253 5.058 179.84 12.645 179.84 21.918 L 179.84 44.679 C 179.84 53.952 172.253 61.539 162.98 61.539 Z  M 162.98 16.017 C 159.889 16.017 157.36 18.546 157.36 21.637 L 157.36 44.398 C 157.36 47.489 159.889 50.018 162.98 50.018 C 166.071 50.018 168.6 47.489 168.6 44.398 L 168.6 21.637 C 168.6 18.546 166.071 16.017 162.98 16.017 Z " fill="rgb(255,255,255)"/><path d=" M 194.733 0 L 194.733 0 C 198.386 0 201.477 3.091 201.477 6.744 L 201.477 12.083 C 201.477 15.736 198.386 18.827 194.733 18.827 L 194.733 18.827 C 191.08 18.827 187.989 15.736 187.989 12.083 L 187.989 6.744 C 187.989 3.091 191.08 0 194.733 0 Z " fill="rgb(255,255,255)"/></g></g></g></svg>