<?xml version="1.0" encoding="UTF-8" standalone="no"?><!-- Generator: Gravit.io --><svg xmlns="http://www.w3.org/2000/svg" xmlns:xlink="http://www.w3.org/1999/xlink" style="isolation:isolate" viewBox="0 0 309.1 289.7" width="309.1pt" height="289.7pt"><defs><clipPath id="_clipPath_sNlcYcvGUB4A8x9QAbO8eurSSv9qTjs5"><rect width="309.1" height="289.7"/></clipPath></defs><g clip-path="url(#_clipPath_sNlcYcvGUB4A8x9QAbO8eurSSv9qTjs5)"><g><g><path d=" M 144.9 121.2 C 151.6 121.2 157.8 123.9 162.2 128.4 C 166.6 132.9 169.3 138.9 169.3 145.7 C 169.3 152.5 166.6 158.6 162.2 163 C 157.8 167.4 151.7 170.2 144.9 170.2 C 138.2 170.2 132.1 167.5 127.7 163 L 127.7 163 C 123.3 158.6 120.5 152.5 120.5 145.8 C 120.5 139.1 123.2 133 127.7 128.6 L 127.7 128.6 L 127.7 128.6 C 132.1 124 138.2 121.2 144.9 121.2 Z  M 266.1 155.2 C 262.9 157.9 258.1 157.5 255.4 154.3 C 252.7 151.1 253.1 146.3 256.3 143.6 L 276.5 126.6 C 279.4 124.1 283.6 124.2 286.4 126.7 L 306.5 143.7 C 309.7 146.4 310.1 151.2 307.4 154.4 C 304.7 157.6 299.9 158 296.7 155.3 L 289.7 149.4 C 288.8 188 272.8 222.8 247.3 248.2 C 221.1 274.4 184.9 290.6 144.9 290.6 C 104.9 290.6 68.7 274.3 42.5 248 C 16.3 221.8 0.1 185.6 0.1 145.6 C 0.1 105.6 16.3 69.5 42.5 43.3 C 68.7 17.1 104.9 0.9 144.9 0.9 C 174.3 0.9 201.7 9.7 224.6 24.8 C 248.1 40.3 266.9 62.6 278.1 88.9 C 279.7 92.8 277.9 97.2 274.1 98.9 C 270.2 100.6 265.8 98.7 264.1 94.9 C 254.1 71.4 237.3 51.5 216.2 37.6 C 195.8 24.1 171.3 16.3 144.9 16.3 C 109.1 16.3 76.7 30.8 53.3 54.2 C 29.9 77.6 15.4 110 15.4 145.8 C 15.4 181.6 29.9 213.9 53.3 237.4 C 76.7 260.8 109.1 275.3 144.9 275.3 C 180.7 275.3 213 260.8 236.5 237.4 C 259.4 214.5 273.7 183.1 274.4 148.3 L 266.1 155.2 L 266.1 155.2 Z  M 224.8 181.1 C 221.9 183 218.8 184.8 215.5 186.5 C 209.1 189.7 201.9 192.5 194 194.8 C 191.7 202.7 188.9 209.9 185.7 216.3 C 184 219.6 182.2 222.7 180.3 225.6 C 190.2 221.2 199.1 215 206.6 207.5 C 214.2 199.9 220.4 191 224.8 181.1 L 224.8 181.1 Z  M 176.7 198.7 C 166.7 200.4 156 201.4 144.9 201.4 C 133.8 201.4 123.1 200.5 113.1 198.7 C 114.5 202.5 116 206.1 117.7 209.4 C 125.1 224 134.7 233 144.9 233 C 155.1 233 164.7 224 172.1 209.4 C 173.8 206.1 175.3 202.5 176.7 198.7 L 176.7 198.7 Z  M 95.8 194.8 C 87.9 192.5 80.7 189.7 74.3 186.5 C 71 184.8 67.9 183 65 181.1 C 69.4 191 75.6 199.9 83.1 207.4 C 90.6 214.9 99.6 221.1 109.4 225.5 C 107.5 222.6 105.7 219.5 104 216.2 C 100.9 209.9 98.1 202.7 95.8 194.8 Z  M 65.1 110.3 C 68 108.4 71.1 106.6 74.4 104.9 C 80.8 101.7 88 98.9 95.9 96.6 C 98.2 88.7 101 81.5 104.2 75.1 C 105.9 71.8 107.7 68.7 109.6 65.8 C 99.7 70.2 90.8 76.4 83.3 83.9 C 75.6 91.5 69.4 100.4 65.1 110.3 Z  M 113.1 92.6 C 123.1 90.9 133.8 89.9 144.9 89.9 C 156 89.9 166.7 90.8 176.7 92.6 C 175.3 88.8 173.8 85.2 172.1 81.9 C 164.7 67.3 155.1 58.3 144.9 58.3 C 134.7 58.3 125.1 67.3 117.7 81.9 C 116 85.3 114.5 88.8 113.1 92.6 L 113.1 92.6 Z  M 194 96.6 C 201.9 98.9 209.1 101.7 215.5 104.9 C 218.8 106.6 221.9 108.4 224.8 110.3 C 220.4 100.4 214.2 91.5 206.7 84 C 199.2 76.5 190.2 70.3 180.4 65.9 C 182.3 68.8 184.1 71.9 185.8 75.2 C 189 81.5 191.8 88.7 194 96.6 L 194 96.6 Z  M 208.6 172.9 C 223.2 165.5 232.2 155.9 232.2 145.7 C 232.2 135.5 223.2 125.9 208.6 118.5 C 205.3 116.8 201.7 115.3 197.9 113.9 C 199.6 123.9 200.6 134.6 200.6 145.7 C 200.6 156.8 199.7 167.5 197.9 177.5 C 201.8 176.1 205.3 174.5 208.6 172.9 L 208.6 172.9 Z  M 181.5 109.1 C 170.4 106.6 158 105.2 144.9 105.2 C 131.8 105.2 119.5 106.6 108.3 109.1 C 105.8 120.2 104.4 132.6 104.4 145.7 C 104.4 158.8 105.8 171.1 108.3 182.3 C 119.5 184.8 131.8 186.2 144.9 186.2 C 158 186.2 170.3 184.8 181.5 182.3 C 184 171.2 185.4 158.8 185.4 145.7 C 185.4 132.6 184 120.2 181.5 109.1 Z  M 91.9 113.9 C 88.1 115.3 84.5 116.8 81.2 118.5 C 66.6 125.9 57.6 135.5 57.6 145.7 C 57.6 155.9 66.6 165.5 81.2 172.9 C 84.5 174.6 88.1 176.1 91.9 177.5 C 90.2 167.5 89.2 156.8 89.2 145.7 C 89.2 134.6 90.1 123.9 91.9 113.9 L 91.9 113.9 Z  M 144.9 43.1 C 173.2 43.1 198.9 54.6 217.4 73.2 C 236 91.8 247.4 117.4 247.4 145.7 C 247.4 174 235.9 199.7 217.3 218.2 C 198.7 236.8 173.1 248.2 144.8 248.2 C 116.5 248.2 90.8 236.7 72.3 218.1 C 53.8 199.5 42.3 173.9 42.3 145.6 C 42.3 117.3 53.8 91.6 72.3 73.1 C 90.8 54.6 116.6 43.1 144.9 43.1 Z  M 151.4 139.2 C 149.7 137.5 147.5 136.5 144.9 136.5 C 142.3 136.5 140.1 137.5 138.4 139.2 L 138.4 139.2 C 136.8 140.9 135.7 143.2 135.7 145.7 C 135.7 148.2 136.7 150.5 138.4 152.2 C 140.1 153.8 142.4 154.9 144.9 154.9 C 147.4 154.9 149.7 153.9 151.4 152.2 C 153.1 150.5 154.1 148.3 154.1 145.7 C 154.1 143.1 153.1 140.8 151.4 139.2 Z " fill="rgb(255,255,255)"/></g></g></g></svg>