<svg id="Camada_1" xmlns="http://www.w3.org/2000/svg" viewBox="0 0 500 500 " class="icon-white">
  <defs>
    <style>
      .cls-1 { stroke: ; } /* Altera a cor da borda para azul */
      .cls-2 { fill: #ffff; } /* Altera a cor de preenchimento para vermelho */
    </style>
  </defs>
  <g id="Grupo_827">
    <g id="noun-agenda-2927322">
      <g id="Grupo_824">
        <path id="Caminho_5267" class="cls-2" d="M357.75,125.07h-10.41v-10.41c0-5.75-4.66-10.41-10.41-10.41s-10.41,4.66-10.41,10.41v10.41h-41.64v-10.41c0-5.75-4.66-10.41-10.41-10.41s-10.41,4.66-10.41,10.41v10.41h-41.64v-10.41c0-5.75-4.66-10.41-10.41-10.41s-10.41,4.66-10.41,10.41v10.41h-41.64v-10.41c.33-5.42-3.8-10.08-9.22-10.41-.4-.02-.79-.02-1.19,0-5.42-.33-10.08,3.8-10.41,9.22-.02.4-.02.79,0,1.19v10.41h-10.41c-16.94-.31-30.92,13.17-31.23,30.11,0,.37,0,.75,0,1.12v208.22c-.31,16.94,13.17,30.92,30.11,31.23.37,0,.75,0,1.12,0h229.05c16.94.31,30.92-13.17,31.23-30.11,0-.37,0-.75,0-1.12v-208.22c.31-16.94-13.17-30.92-30.11-31.23-.37,0-.75,0-1.12,0ZM128.7,145.89h10.41v10.41c-.33,5.42,3.8,10.08,9.22,10.41.4.02.79.02,1.19,0,5.42.33,10.08-3.8,10.41-9.22.02-.4.02-.79,0-1.19v-10.41h41.64v10.41c0,5.75,4.66,10.41,10.41,10.41s10.41-4.66,10.41-10.41v-10.41h41.64v10.41c0,5.75,4.66,10.41,10.41,10.41s10.41-4.66,10.41-10.41v-10.41h41.64v10.41c0,5.75,4.66,10.41,10.41,10.41s10.41-4.66,10.41-10.41v-10.41h10.41c5.42-.33,10.08,3.8,10.41,9.22.02.4.02.79,0,1.19v31.23H118.29v-31.23c-.33-5.42,3.8-10.08,9.22-10.41.4-.02.79-.02,1.19,0ZM357.75,374.94h-229.05c-5.42.33-10.08-3.8-10.41-9.22-.02-.4-.02-.79,0-1.19v-156.17h249.87v156.17c.33,5.42-3.8,10.08-9.22,10.41-.4.02-.79.02-1.19,0Z"/>
      </g>
    </g>
  </g>
</svg>