<?xml version="1.0" encoding="UTF-8"?><svg id="Camada_1" xmlns="http://www.w3.org/2000/svg" xmlns:xlink="http://www.w3.org/1999/xlink" viewBox="0 0 1870 1160"><defs><style>.cls-1{fill:none;}.cls-1,.cls-2,.cls-3{stroke-width:0px;}.cls-2,.cls-3{fill:#fff;}.cls-3{fill-rule:evenodd;}.cls-4{clip-path:url(#clippath);}</style><clipPath id="clippath"><rect class="cls-1" x="139.29" y="321.61" width="1591.43" height="516.78"/></clipPath></defs><g id="Grupo_753"><g class="cls-4"><g id="Grupo_752"><path id="Caminho_4928" class="cls-2" d="M401.88,838.39c-2.4.06-4.77-.51-6.89-1.64-1.94-1.09-3.5-2.73-4.5-4.72-1.1-2.27-1.64-4.76-1.57-7.28v-10.05c-.07-2.52.47-5.02,1.57-7.29,1-1.98,2.56-3.63,4.5-4.72,2.11-1.15,4.48-1.72,6.89-1.66,2.08-.03,4.14.46,5.99,1.42,1.79.96,3.32,2.36,4.44,4.05,1.24,1.9,2.07,4.04,2.43,6.29h-6.2c-.26-1.12-.75-2.18-1.44-3.11-.62-.82-1.41-1.49-2.32-1.97-.91-.48-1.92-.72-2.95-.71-1.89-.09-3.72.67-4.98,2.08-1.29,1.59-1.94,3.61-1.82,5.66v10.05c-.12,2.04.53,4.05,1.82,5.64,1.27,1.4,3.09,2.16,4.98,2.07,1.53.01,3.01-.52,4.18-1.51,1.29-1.12,2.16-2.64,2.49-4.31h6.2c-.38,2.24-1.21,4.38-2.46,6.29-1.12,1.69-2.64,3.09-4.43,4.05-1.84.96-3.9,1.45-5.98,1.42"/><path id="Caminho_4929" class="cls-2" d="M424.14,801.39h6.02v36.61h-6.02v-36.61ZM426.63,801.39h21.53v5.76h-21.53v-5.76ZM426.63,816.95h18.76v5.74h-18.76v-5.74ZM426.63,832.24h21.53v5.76h-21.53v-5.76Z"/><path id="Caminho_4930" class="cls-2" d="M458.08,838v-36.59h6.55l15.74,28.18-.6.66v-28.84h5.84v36.59h-6.6l-15.74-27.76.6-.65v28.41h-5.79Z"/><path id="Caminho_4931" class="cls-2" d="M494.24,801.39h26.34v5.76h-26.34v-5.76ZM504.42,804.34h5.99v33.66h-5.96l-.03-33.66Z"/><path id="Caminho_4932" class="cls-2" d="M528.21,801.37h6.02v36.64h-6.02v-36.64ZM530.71,822.9v-5.76h12.6c1.19.05,2.33-.46,3.1-1.38.81-1.03,1.23-2.32,1.18-3.64.06-1.3-.35-2.59-1.16-3.61-.77-.91-1.92-1.41-3.11-1.38h-12.62v-5.76h12.79c1.9-.04,3.78.41,5.45,1.33,1.54.88,2.8,2.19,3.63,3.76.9,1.75,1.34,3.7,1.3,5.67.05,1.97-.4,3.92-1.31,5.67-.83,1.57-2.09,2.88-3.63,3.77-1.66.93-3.54,1.39-5.44,1.35h-12.78ZM548.19,838.01l-8.64-16.24,6.25-1.16,9.62,17.4h-7.23Z"/><path id="Caminho_4933" class="cls-2" d="M576.29,838.39c-2.4.05-4.78-.52-6.89-1.67-1.96-1.09-3.55-2.73-4.58-4.72-1.13-2.2-1.69-4.64-1.63-7.1v-10.42c-.06-2.47.5-4.91,1.63-7.11,1.04-1.98,2.63-3.62,4.58-4.71,4.34-2.24,9.49-2.24,13.83,0,1.95,1.1,3.54,2.73,4.58,4.71,1.12,2.2,1.68,4.64,1.62,7.11v10.38c.05,2.47-.5,4.9-1.62,7.1-1.04,1.98-2.63,3.63-4.58,4.72-2.11,1.15-4.48,1.72-6.89,1.67M576.35,832.38c1.88.1,3.72-.62,5.04-1.97,1.3-1.46,1.98-3.38,1.89-5.34v-10.73c.1-1.96-.58-3.89-1.89-5.35-2.82-2.67-7.24-2.67-10.06,0-1.31,1.46-2,3.39-1.9,5.35v10.73c-.09,1.96.59,3.88,1.9,5.34,1.32,1.34,3.15,2.06,5.03,1.97"/><path id="Caminho_4934" class="cls-2" d="M617.27,801.39h6.02v36.6h-6.02v-36.6ZM620.75,838.01v-5.76h8.54c2.1.13,4.17-.54,5.78-1.88,1.42-1.38,2.16-3.3,2.05-5.27v-10.82c.12-1.98-.62-3.91-2.05-5.29-1.62-1.33-3.69-2-5.78-1.87h-8.54v-5.76h8.39c3.8-.24,7.56.98,10.48,3.43,2.57,2.54,3.92,6.07,3.7,9.68v10.38c.06,2.43-.5,4.83-1.62,6.97-1.09,1.98-2.77,3.56-4.8,4.54-2.43,1.14-5.1,1.69-7.78,1.6l-8.36.05Z"/><path id="Caminho_4935" class="cls-2" d="M653.7,801.39h6.02v36.61h-6.02v-36.61ZM656.2,801.39h21.53v5.76h-21.53v-5.76ZM656.2,816.95h18.74v5.74h-18.76l.02-5.74ZM656.2,832.24h21.53v5.76h-21.53v-5.76Z"/><path id="Caminho_4936" class="cls-2" d="M716.82,838.39c-2.4.06-4.77-.51-6.89-1.64-1.94-1.09-3.5-2.73-4.5-4.72-1.1-2.27-1.64-4.76-1.57-7.28v-10.05c-.07-2.52.47-5.02,1.57-7.29,1-1.98,2.56-3.63,4.5-4.72,2.11-1.15,4.48-1.72,6.89-1.66,2.08-.03,4.14.46,5.99,1.42,1.79.96,3.32,2.36,4.44,4.05,1.24,1.9,2.07,4.04,2.43,6.29h-6.2c-.26-1.12-.75-2.18-1.44-3.11-.62-.82-1.41-1.49-2.32-1.97-.91-.48-1.92-.72-2.95-.71-1.89-.09-3.72.67-4.98,2.08-1.29,1.59-1.94,3.61-1.82,5.66v10.05c-.12,2.04.53,4.05,1.82,5.64,1.27,1.4,3.09,2.16,4.98,2.07,1.53.01,3.01-.52,4.18-1.51,1.29-1.12,2.16-2.64,2.49-4.31h6.2c-.38,2.24-1.21,4.38-2.46,6.29-1.12,1.69-2.64,3.09-4.43,4.05-1.84.96-3.9,1.45-5.98,1.42"/><path id="Caminho_4937" class="cls-2" d="M751.17,838.39c-3.58.22-7.1-1.07-9.68-3.56-2.43-2.77-3.66-6.39-3.42-10.06v-23.37h6.02v23.55c-.13,2.02.54,4,1.85,5.54,3.01,2.62,7.48,2.62,10.49,0,1.32-1.53,1.99-3.52,1.87-5.54v-23.55h6.01v23.37c.23,3.68-1.01,7.3-3.44,10.06-2.59,2.49-6.11,3.78-9.7,3.56"/><path id="Caminho_4938" class="cls-2" d="M774.97,801.39h6.02v36.61h-6.02v-36.61ZM777.8,832.25h21.21v5.76h-21.21v-5.76Z"/><path id="Caminho_4939" class="cls-2" d="M801.09,801.39h26.31v5.76h-26.34l.03-5.76ZM811.26,804.34h5.99v33.66h-5.99v-33.66Z"/><path id="Caminho_4940" class="cls-2" d="M846.64,838.39c-3.58.22-7.1-1.07-9.68-3.56-2.43-2.77-3.66-6.39-3.42-10.06v-23.37h6.02v23.55c-.13,2.02.54,4,1.85,5.54,3.01,2.62,7.48,2.62,10.49,0,1.32-1.53,1.99-3.52,1.87-5.54v-23.55h6.02v23.37c.23,3.68-1.01,7.3-3.44,10.06-2.59,2.49-6.11,3.78-9.7,3.56"/><path id="Caminho_4941" class="cls-2" d="M870.44,801.37h6.02v36.64h-6.02v-36.64ZM872.94,822.9v-5.76h12.62c1.19.05,2.33-.46,3.1-1.38.81-1.03,1.23-2.32,1.18-3.64.06-1.3-.35-2.59-1.16-3.61-.77-.91-1.92-1.41-3.11-1.38h-12.62v-5.76h12.79c1.9-.04,3.78.41,5.45,1.33,1.54.88,2.8,2.19,3.63,3.76.9,1.75,1.34,3.7,1.3,5.67.05,1.97-.4,3.92-1.31,5.67-.83,1.57-2.09,2.88-3.63,3.77-1.66.93-3.54,1.39-5.44,1.35h-12.8ZM890.42,838.01l-8.64-16.24,6.25-1.16,9.62,17.4h-7.23Z"/><path id="Caminho_4942" class="cls-2" d="M902.43,838l13.77-36.62h4.39l13.77,36.62h-6.47l-9.46-27.28-9.47,27.28h-6.52ZM908.9,825.28h19.26v5.76h-19.26v-5.76Z"/><path id="Caminho_4943" class="cls-2" d="M959.34,801.39h6.02v36.61h-6.02v-36.61ZM961.84,801.39h21.53v5.76h-21.53v-5.76ZM961.84,816.95h18.81v5.74h-18.76l-.05-5.74ZM961.84,832.24h21.53v5.76h-21.53v-5.76Z"/><path id="Caminho_4944" class="cls-2" d="M1010.21,801.39h6.02v36.61h-6.02v-36.61ZM1012.71,801.39h21.53v5.76h-21.53v-5.76ZM1012.71,816.95h18.76v5.74h-18.76v-5.74ZM1012.71,832.24h21.53v5.76h-21.53v-5.76Z"/><path id="Caminho_4945" class="cls-2" d="M1055.39,838.39c-1.71,0-3.41-.16-5.08-.51-1.57-.33-3.1-.84-4.54-1.52-1.41-.66-2.73-1.5-3.93-2.5l3.2-4.81c1.4,1.19,3.01,2.11,4.75,2.71,1.79.62,3.68.93,5.58.91,1.99.11,3.97-.34,5.71-1.31,1.3-.78,2.07-2.19,2.03-3.7h0c.08-1.04-.28-2.06-.98-2.82-.76-.7-1.68-1.19-2.69-1.45-1.2-.33-2.41-.6-3.63-.8-1.39-.22-2.8-.49-4.24-.82-1.38-.31-2.71-.83-3.93-1.53-1.21-.71-2.21-1.72-2.89-2.95-.8-1.61-1.18-3.4-1.1-5.2h0c-.17-3.09,1.11-6.09,3.46-8.11,2.82-2.08,6.29-3.09,9.79-2.87,2.01,0,4,.34,5.9.98,2.01.67,3.91,1.63,5.63,2.86l-2.95,4.92c-1.32-.97-2.77-1.75-4.31-2.3-1.37-.5-2.82-.76-4.28-.77-1.88-.11-3.75.33-5.38,1.27-1.23.77-1.95,2.14-1.9,3.59h0c-.09,1.1.32,2.19,1.12,2.95.85.72,1.86,1.23,2.95,1.48,1.2.32,2.5.63,3.93.91,1.44.29,2.74.59,4.11.98,1.32.37,2.59.93,3.75,1.66,1.14.73,2.07,1.75,2.71,2.95.72,1.54,1.06,3.22.98,4.92v.05c.17,3.1-1.17,6.09-3.59,8.03-2.96,2.06-6.52,3.06-10.11,2.83"/><path id="Caminho_4946" class="cls-2" d="M1073.96,801.39h26.34v5.76h-26.34v-5.76ZM1084.13,804.34h5.99v33.66h-5.99v-33.66Z"/><path id="Caminho_4947" class="cls-2" d="M1119.51,838.39c-3.58.22-7.1-1.07-9.68-3.56-2.43-2.77-3.66-6.39-3.42-10.06v-23.37h6.02v23.55c-.13,2.02.54,4,1.85,5.54,3.01,2.62,7.48,2.62,10.49,0,1.32-1.53,1.99-3.52,1.87-5.54v-23.55h6.02v23.37c.23,3.68-1.01,7.3-3.44,10.06-2.59,2.49-6.11,3.78-9.7,3.56"/><path id="Caminho_4948" class="cls-2" d="M1143.31,801.39h6.02v36.6h-6.02v-36.6ZM1146.79,838.01v-5.76h8.54c2.1.13,4.17-.54,5.78-1.88,1.42-1.38,2.16-3.3,2.05-5.27v-10.82c.12-1.98-.62-3.91-2.05-5.29-1.62-1.33-3.69-2-5.78-1.87h-8.54v-5.76h8.39c3.8-.24,7.56.98,10.48,3.43,2.57,2.54,3.92,6.07,3.7,9.68v10.38c.06,2.43-.5,4.83-1.62,6.97-1.09,1.98-2.77,3.56-4.8,4.54-2.43,1.14-5.1,1.69-7.78,1.6l-8.36.05Z"/><path id="Caminho_4949" class="cls-2" d="M1191.61,838.39c-2.4.05-4.78-.52-6.89-1.67-1.96-1.09-3.55-2.73-4.58-4.72-1.13-2.2-1.69-4.64-1.63-7.1v-10.42c-.06-2.47.5-4.91,1.63-7.11,1.04-1.98,2.63-3.62,4.58-4.71,4.34-2.24,9.49-2.24,13.83,0,1.95,1.1,3.54,2.73,4.58,4.71,1.12,2.2,1.68,4.64,1.62,7.11v10.38c.05,2.47-.5,4.9-1.62,7.1-1.04,1.98-2.63,3.63-4.58,4.72-2.11,1.15-4.48,1.72-6.89,1.67M1191.67,832.38c1.88.1,3.72-.62,5.04-1.97,1.31-1.46,1.99-3.38,1.9-5.34v-10.73c.1-1.96-.59-3.89-1.9-5.35-2.82-2.67-7.24-2.67-10.06,0-1.31,1.46-2,3.39-1.9,5.35v10.73c-.09,1.96.59,3.88,1.9,5.34,1.32,1.34,3.15,2.06,5.03,1.97"/><path id="Caminho_4950" class="cls-2" d="M1225.89,838.39c-1.71,0-3.41-.16-5.08-.51-1.57-.33-3.1-.84-4.54-1.52-1.41-.66-2.73-1.5-3.93-2.5l3.2-4.81c1.4,1.19,3.01,2.11,4.75,2.71,1.79.62,3.68.93,5.58.91,1.99.11,3.97-.34,5.71-1.31,1.3-.78,2.07-2.19,2.03-3.7h0c.08-1.04-.28-2.06-.98-2.82-.76-.7-1.68-1.19-2.69-1.45-1.2-.33-2.41-.6-3.63-.8-1.39-.22-2.81-.49-4.25-.82-1.38-.31-2.71-.83-3.93-1.53-1.21-.71-2.21-1.72-2.89-2.95-.8-1.61-1.18-3.4-1.1-5.2h0c-.17-3.09,1.11-6.09,3.46-8.11,2.82-2.08,6.29-3.09,9.79-2.87,2.01,0,4,.34,5.9.98,2.01.67,3.9,1.63,5.62,2.86l-2.95,4.92c-1.32-.97-2.77-1.75-4.31-2.3-1.37-.5-2.82-.76-4.28-.77-1.88-.11-3.75.33-5.38,1.27-1.23.77-1.95,2.14-1.9,3.59h0c-.09,1.1.32,2.19,1.12,2.95.85.72,1.86,1.23,2.95,1.48,1.2.32,2.5.63,3.93.91,1.44.29,2.74.59,4.11.98,1.32.37,2.59.93,3.75,1.66,1.14.74,2.07,1.75,2.71,2.95.72,1.54,1.06,3.22.98,4.92v.05c.17,3.1-1.17,6.09-3.59,8.03-2.96,2.06-6.52,3.06-10.11,2.83"/><path id="Caminho_4951" class="cls-2" d="M1266.43,801.39h6.02v36.62h-6.02v-36.62ZM1268.92,801.39h21.53v5.76h-21.53v-5.76ZM1268.92,816.95h18.76v5.74h-18.76v-5.74ZM1268.92,832.24h21.53v5.76h-21.53v-5.76ZM1279.63,798.99l-3.48-3.6,6.94-6.17,3.93,4.08-7.4,5.69Z"/><path id="Caminho_4952" class="cls-2" d="M1297.33,801.39h26.34v5.76h-26.34v-5.76ZM1307.51,804.34h5.99v33.66h-5.99v-33.66Z"/><path id="Caminho_4953" class="cls-2" d="M1331.25,838v-36.59h6.55l15.74,28.18-.6.66v-28.84h5.84v36.59h-6.6l-15.74-27.76.6-.65v28.41h-5.79Z"/><rect id="Retângulo_511" class="cls-2" x="1370.27" y="801.39" width="6.15" height="36.62"/><path id="Caminho_4954" class="cls-2" d="M1400.07,838.39c-2.4.06-4.77-.51-6.89-1.64-1.94-1.09-3.5-2.73-4.5-4.72-1.1-2.27-1.64-4.76-1.57-7.28v-10.05c-.07-2.52.47-5.02,1.57-7.29,1-1.98,2.56-3.63,4.5-4.72,2.11-1.15,4.48-1.72,6.89-1.66,2.08-.03,4.14.46,5.99,1.42,1.79.96,3.32,2.36,4.44,4.05,1.24,1.9,2.07,4.04,2.43,6.29h-6.2c-.26-1.12-.75-2.18-1.44-3.11-.62-.82-1.41-1.49-2.32-1.97-.91-.48-1.92-.72-2.95-.71-1.89-.09-3.72.67-4.98,2.08-1.29,1.59-1.94,3.61-1.82,5.66v10.05c-.12,2.04.53,4.05,1.82,5.64,1.27,1.4,3.09,2.16,4.98,2.07,1.53.01,3.01-.52,4.18-1.51,1.29-1.12,2.16-2.64,2.49-4.31h6.2c-.38,2.24-1.21,4.38-2.46,6.29-1.12,1.69-2.64,3.09-4.43,4.05-1.84.96-3.9,1.45-5.98,1.42"/><path id="Caminho_4955" class="cls-2" d="M1434.18,838.39c-2.4.05-4.78-.52-6.89-1.67-1.96-1.09-3.55-2.73-4.58-4.72-1.12-2.2-1.69-4.64-1.63-7.1v-10.42c-.06-2.47.5-4.91,1.63-7.11,1.04-1.98,2.63-3.62,4.58-4.71,4.34-2.24,9.49-2.24,13.83,0,1.95,1.1,3.54,2.73,4.58,4.71,1.12,2.2,1.68,4.64,1.62,7.11v10.38c.05,2.47-.5,4.9-1.62,7.1-1.04,1.98-2.63,3.63-4.58,4.72-2.11,1.15-4.48,1.72-6.89,1.67M1434.24,832.38c1.88.1,3.72-.62,5.04-1.97,1.31-1.46,1.99-3.38,1.9-5.34v-10.73c.1-1.96-.59-3.89-1.9-5.35-2.82-2.67-7.24-2.67-10.06,0-1.31,1.46-2,3.39-1.9,5.35v10.73c-.09,1.96.59,3.88,1.9,5.34,1.32,1.34,3.15,2.06,5.03,1.97"/><path id="Caminho_4956" class="cls-2" d="M1468.45,838.39c-1.71,0-3.41-.16-5.08-.51-1.57-.33-3.1-.84-4.54-1.52-1.41-.66-2.73-1.5-3.93-2.5l3.2-4.81c1.4,1.19,3.01,2.11,4.75,2.71,1.79.62,3.68.93,5.58.91,1.99.11,3.97-.34,5.71-1.31,1.3-.78,2.07-2.19,2.03-3.7h0c.08-1.04-.28-2.06-.98-2.82-.76-.7-1.68-1.19-2.69-1.45-1.2-.33-2.41-.6-3.63-.8-1.39-.22-2.81-.49-4.25-.82-1.38-.31-2.71-.83-3.93-1.53-1.21-.71-2.21-1.72-2.89-2.95-.8-1.61-1.18-3.4-1.1-5.2h0c-.17-3.09,1.11-6.09,3.46-8.11,2.83-2.08,6.29-3.09,9.79-2.87,2.01,0,4,.34,5.9.98,2.01.67,3.9,1.63,5.62,2.86l-2.95,4.92c-1.32-.97-2.77-1.75-4.31-2.3-1.37-.5-2.82-.76-4.28-.77-1.88-.11-3.75.33-5.38,1.27-1.23.77-1.95,2.14-1.9,3.59h0c-.09,1.1.32,2.19,1.12,2.95.85.72,1.86,1.23,2.95,1.48,1.2.32,2.51.63,3.94.91,1.42.29,2.8.62,4.12.98,1.32.37,2.59.93,3.75,1.66,1.14.74,2.07,1.75,2.71,2.95.72,1.54,1.06,3.22.98,4.92v.05c.17,3.1-1.17,6.09-3.59,8.03-2.96,2.06-6.52,3.06-10.11,2.83"/><path id="Caminho_4957" class="cls-3" d="M1446.95,551.22c-1.69,10.24-1.69,20.68,0,30.92l42.97-15.45-42.97-15.45"/><path id="Caminho_4958" class="cls-3" d="M1645.64,566.67l42.97,15.45c2.25-10.18,2.25-20.73,0-30.92l-42.97,15.45"/><path id="Caminho_4959" class="cls-3" d="M1555.42,445.08l12.61,26.14,12.61-26.14c-8.39-.55-16.82-.55-25.21,0"/><rect id="Retângulo_512" class="cls-2" x="506.61" y="409.17" width="6.64" height="319.21"/><path id="Caminho_4960" class="cls-3" d="M811.01,728.37h6.64v-319.2h-6.64v319.2Z"/><path id="Caminho_4961" class="cls-3" d="M1263.14,625.58c11.61,0,21.02-9.41,21.02-21.02,0-11.61-9.41-21.02-21.02-21.02-11.61,0-21.02,9.41-21.02,21.02h0c.03,11.6,9.42,20.99,21.02,21.02"/><path id="Caminho_4962" class="cls-3" d="M906.07,729.41l96.28-180.2,96.28,180.2h-50.17l-46.16-86.4-46.16,86.4h-50.07Z"/><path id="Caminho_4963" class="cls-3" d="M1567.83,405.32c-89.96,0-162.88,72.92-162.88,162.88s72.92,162.88,162.88,162.88c89.96,0,162.88-72.92,162.88-162.88-.17-89.88-73-162.71-162.88-162.88M1596.91,442.93l.69-1.46.69-1.46.69-1.46.69-1.46.69-1.46c47.4,10.7,85,46.73,97.71,93.63l-24.85,8.85c-.67-1.97,11.23-10.35,10.37-12.4-.87-2.06-14.5,2.19-15.56.1-1.06-2.1,10.88-8.44,9.65-10.56-1.23-2.11-15.64,0-17.04-2.14-1.4-2.14,8.11-10.14,6.57-12.24-1.53-2.1-14.14,1.73-15.81-.31-1.67-2.05,6.72-12.51,4.92-14.5-1.8-1.99-13.77,4.52-15.68,2.63-1.91-1.89,5.44-13.86,3.45-15.64-1.99-1.78-13.31,6.64-15.38,5-2.07-1.64,3.43-14.18,1.31-15.67-2.12-1.49-11.88,8.1-14.06,6.79-2.17-1.31,1.97-13.49-.25-14.59-2.21-1.1-10.76,8.85-12.98,8.01-2.22-.85,2.3-14.76.07-15.35-2.23-.59-11.21,11.96-13.44,11.61l.69-1.46.69-1.46.69-1.46.69-1.46.69-1.46.69-1.46.69-1.46.69-1.46.69-1.46.69-1.46.66-1.37ZM1567.83,605.24c-20.44,0-37.02-16.57-37.02-37.02,0-20.44,16.57-37.02,37.02-37.02,20.44,0,37.02,16.57,37.02,37.02h0c0,20.44-16.57,37.02-37.02,37.02h0M1617.47,575.73l24.49,11.4c-9.95,32.68-39.98,55.11-74.14,55.37-34.3-1.39-63.77-24.81-72.87-57.91l25.41-10.13c7.04,21.92,22.39,40.64,47.46,40.64,27.94,0,37.89-18.84,49.64-39.35M1490.72,504.03c0-3.91,2.68-7.31,6.48-8.21-2.43,3.43-1.62,8.17,1.81,10.6,2.4,1.7,5.56,1.86,8.12.43-1.54,4.4-6.35,6.72-10.75,5.18-3.4-1.19-5.67-4.4-5.66-8M1491.65,526.6c0,4.66-3.78,8.44-8.44,8.44s-8.44-3.78-8.44-8.44,3.78-8.44,8.44-8.44c4.66.01,8.43,3.78,8.44,8.44M1506.41,489.02c0-4.66,3.78-8.44,8.44-8.44s8.44,3.78,8.44,8.44-3.78,8.44-8.44,8.44c-4.66-.01-8.43-3.78-8.44-8.44M1561.43,494.24v27.54c-16.12,2.15-35.56,23.05-42.17,37.26l-23.19-10.56c8.28-29.99,34.36-51.64,65.36-54.27M1545.44,482.86c1.24.42,2.57.51,3.86.26-2.88,3.67-8.18,4.31-11.85,1.44-3.67-2.88-4.31-8.18-1.44-11.85,1.76-2.25,4.54-3.45,7.38-3.2-3.4,2.47-4.15,7.22-1.68,10.62.93,1.28,2.23,2.23,3.73,2.74M1573.97,521.78v-27.54c31.19,3.17,57.19,25.27,65.36,55.54l-24.45,9.29c-6.61-14.21-24.78-35.12-40.9-37.26M1594.63,473.49c-.5-1.5-1.46-2.81-2.74-3.74,4.65-.42,8.76,3.01,9.18,7.66.42,4.65-3.01,8.76-7.66,9.18-2.86.26-5.65-.95-7.42-3.22,4.12.79,8.11-1.91,8.9-6.04.24-1.27.16-2.57-.24-3.8M1612,489.26c0-4.66,3.78-8.44,8.44-8.44s8.44,3.78,8.44,8.44-3.78,8.44-8.44,8.44h0c-4.66-.01-8.43-3.78-8.44-8.44M1636.15,512.72c-3.58,0-6.77-2.25-7.97-5.63,3.66,2.05,8.3.75,10.35-2.91,1.44-2.56,1.27-5.72-.43-8.12,4.54,1.07,7.34,5.62,6.27,10.15-.9,3.82-4.32,6.51-8.24,6.5M1652.1,518.39c4.66,0,8.44,3.78,8.44,8.44s-3.78,8.44-8.44,8.44c-4.66,0-8.44-3.78-8.44-8.44h0c.01-4.66,3.78-8.43,8.44-8.44M1596.12,435.49l-3.3,6.84-24.8,51.41-28.09-58.24c18.67-2.2,37.52-2.2,56.19,0M1536.58,436.11l9.75,24.95c-2.34.42-11.42-11.29-13.77-10.69-2.35.6,2.14,13.54-.14,14.31s-10.02-10.18-12.27-9.25c-2.24.93,1.04,13.77-1.13,14.88-2.17,1.11-11.09-8.71-13.2-7.46-2.11,1.25,2.56,13.56.52,14.94-2.04,1.39-12.06-8.12-14.02-6.58-1.96,1.53,4.15,14.12,2.28,15.74-1.87,1.62-15.08-6.32-16.84-4.52-1.76,1.79,7.93,13.35,6.28,15.27-1.65,1.92-13.38-3.72-14.9-1.7-1.53,2.02,7.14,11.71,5.74,13.83-1.4,2.12-12.86-2.44-14.12-.22-1.26,2.22,7.69,11.26,6.59,13.58-1.1,2.32-14.38-1.22-15.33,1.19-.94,2.41,10.44,10.82,9.66,13.26l-1.53-.63-1.53-.63-1.53-.63-1.53-.63-1.53-.64-1.53-.63-1.53-.63-1.53-.63-1.53-.63-1.53-.63-1.53-.63-1.53-.64-1.53-.63-1.53-.63-1.53-.63-1.53-.63c12.41-47.28,51.21-83.01,99.35-91.48M1434.63,534.58l8.37,3.01,80.84,29.08-89.21,32.11c-2.81-21.3-2.81-42.88,0-64.18M1567.83,705.02c-61.55,0-115.53-41.11-131.9-100.45l47.3-14.76c.98,2.36-23.28,22.84-22.22,25.11,1.06,2.27,27.54-13.65,28.64-11.47,1.09,2.18-20.49,25.42-19.29,27.48,1.2,2.07,25.25-17.02,26.56-15.06,1.31,1.96-16.37,25.82-15,27.66,1.37,1.84,21.8-18.34,23.27-16.62,1.48,1.71-10.94,25.73-9.35,27.31,1.58,1.57,17.14-19.29,18.83-17.86,1.69,1.43-7.97,27.28-6.17,28.53,1.8,1.25,15.07-22.01,17-20.88,1.93,1.12-4.1,27.49-2.05,28.45,2.06.95,12.21-23.51,14.4-22.73,2.19.78.67,27.64,3.01,28.23,2.34.59,8.56-25.07,11.06-24.67,2.5.4,4.23,28.15,6.89,28.36,2.66.21,6.24-27.13,9.06-27.13s5.46,27.34,8.09,27.13c2.63-.21,5.17-27.96,7.66-28.36,2.49-.4,8.7,27.38,11.05,26.79,2.35-.59.83-29.57,3.04-30.35,2.21-.78,12.79,24.95,14.89,23.99,2.11-.95-4.34-28.6-2.38-29.72,1.96-1.12,16.53,21.73,18.36,20.44,1.83-1.29-9.06-26.72-7.34-28.16,1.72-1.45,20.66,19.42,22.27,17.82,1.61-1.59-14.17-25.64-12.69-27.37,1.49-1.73,23.61,17.16,24.97,15.29,1.36-1.87-18-24.48-16.72-26.47,1.28-1.99,27.38,14.11,28.53,12,1.15-2.11-22.62-22.44-21.64-24.66.98-2.22,27.81,12.79,28.76,10.49.95-2.3-23.89-22.02-23.04-24.44l3,.98,3.01.98,3,.98,3,.98,3,.98,3,.98,3.01.98,3,.98,3,.98,3,.98,3.01.98,3,.98,3.01.98,3,.98,3,.98,3,.98c-16.41,59.28-70.35,100.33-131.87,100.35M1611.73,566.68l14.76-5.3,74.47-26.79c2.81,21.3,2.81,42.88,0,64.18l-89.21-32.09"/><path id="Caminho_4964" class="cls-3" d="M1567.82,550.06c-10,0-18.11,8.11-18.11,18.11s8.11,18.11,18.11,18.11,18.11-8.11,18.11-18.11-8.11-18.11-18.11-18.11h0M1567.82,577.16c-4.97,0-8.99-4.03-8.99-8.99s4.03-8.99,8.99-8.99c4.97,0,8.99,4.03,8.99,8.99-.01,4.96-4.03,8.98-8.99,8.99"/><path id="Caminho_4965" class="cls-3" d="M1508.81,547.33c-2.6-.98-3.75-1.24-6.05-2.08,8.83-22.76,28.41-39.63,52.22-44.99v6.8c-20.99,5.21-38.19,20.2-46.23,40.27M1517,552.47c7.23-16.98,21.48-29.99,39.04-35.65l-.62-5.9c-19,6.71-34.44,20.9-42.71,39.27l4.29,2.28Z"/><path id="Caminho_4966" class="cls-3" d="M1626.32,548.62c2.6-.98,3.94-1.66,5.76-2.22-8.51-23.02-27.75-40.42-51.52-46.57l.1,7.23c20.97,5.79,37.92,21.22,45.64,41.56"/><path id="Caminho_4967" class="cls-3" d="M1617.03,552.75l5-2.31c-7.99-18.33-23.1-32.62-41.86-39.55l-.33,5.5c12.46,2.32,32.6,23.34,37.19,36.4"/><path id="Caminho_4968" class="cls-3" d="M1515.49,600.62c2.17,0,3.93-1.76,3.93-3.94s-1.76-3.93-3.94-3.93c-2.17,0-3.93,1.76-3.93,3.93s1.76,3.93,3.94,3.93h0"/><path id="Caminho_4969" class="cls-3" d="M1538.49,623.73c2.17,0,3.93-1.76,3.93-3.94s-1.76-3.93-3.94-3.93c-2.17,0-3.93,1.76-3.93,3.93s1.76,3.93,3.94,3.93h0"/><path id="Caminho_4970" class="cls-3" d="M1570.64,632.53c2.17,0,3.93-1.76,3.93-3.94s-1.76-3.93-3.94-3.93c-2.17,0-3.93,1.76-3.93,3.93s1.76,3.93,3.94,3.93h0"/><path id="Caminho_4971" class="cls-3" d="M1605.31,619.87c2.17,0,3.93-1.76,3.93-3.94s-1.76-3.93-3.94-3.93c-2.17,0-3.93,1.76-3.93,3.93s1.76,3.93,3.94,3.93h0"/><path id="Caminho_4972" class="cls-3" d="M1623.08,598.17c2.17,0,3.93-1.76,3.93-3.94s-1.76-3.93-3.94-3.93c-2.17,0-3.93,1.76-3.93,3.93s1.76,3.93,3.94,3.93h0"/><path id="Caminho_4973" class="cls-3" d="M1258.5,668.18c-21.82-1.6-41.42-13.95-52.28-32.94h-31.14c13.06,35.27,45.87,59.37,83.43,61.29v-28.35Z"/><path id="Caminho_4974" class="cls-3" d="M1320.85,634.38c-10.69,19.38-30.4,32.08-52.46,33.81v28.36c37.77-2.06,70.64-26.54,83.43-62.14l-30.97-.03Z"/><path id="Caminho_4975" class="cls-3" d="M1296.4,408.02v195.57c-.43,18.29-15.61,32.76-33.89,32.33-18.06-.43-32.45-15.25-32.34-33.31h-93.45c.28,69.91,57.19,126.36,127.1,126.08,69.13-.28,125.26-55.97,126.07-125.1h0v-195.57h-93.49ZM1263.29,707.55c-49.6,0-92.43-34.73-102.69-83.26h52.4c11.96,27.79,44.19,40.62,71.98,28.66,13.16-5.66,23.58-16.26,29.02-29.51h52.19c-9.9,48.97-52.93,84.17-102.88,84.17M1369.55,603.5c0,1.97-.09,4.05-.24,6.23l-.08,1.19h-53.02l.19-1.43c.23-1.77.36-3.56.41-5.31v-175.74h52.75v175.06Z"/><path id="Caminho_4976" class="cls-3" d="M1344.46,487.53c-.84-.85-2.21-.85-3.06,0-.85.84-.85,2.21,0,3.06.84.85,2.21.85,3.06,0,.41-.4.64-.95.64-1.53,0-.58-.22-1.13-.63-1.53Z"/><path id="Caminho_4977" class="cls-3" d="M1344.46,547.81c-.84-.85-2.21-.85-3.06,0-.85.84-.85,2.21,0,3.06.84.85,2.21.85,3.06,0,.41-.4.64-.95.64-1.53,0-.58-.22-1.13-.63-1.53Z"/><path id="Caminho_4978" class="cls-3" d="M1366.97,458.42l-20.53-13.55,19.81-13.93h-46.63l19.81,13.93-20.11,13.26v2.25l20.11,13.26-20.11,14.15v2.12l20.11,14.14-20.11,13.26v2.24l20.11,13.26-20.13,14.14v2.12l20.11,14.15-20.11,13.27v2.23l20.12,13.27-20.24,14.23c0,.7-.07,1.4-.14,2.1h47.8c0-.66.07-1.31.09-1.97l-20.45-14.38,20.53-13.55v-1.68l-20.53-13.55,20.53-14.44v-1.52l-20.53-14.44,20.53-13.55v-1.61l-20.53-13.55,20.53-14.44v-1.52l-20.53-14.44,20.53-13.55-.04-1.72ZM1347.07,578.65c0,2.29-1.85,4.14-4.14,4.14s-4.14-1.85-4.14-4.14,1.85-4.14,4.14-4.14h0c2.28,0,4.14,1.86,4.14,4.14M1347.63,549.35c0,2.6-2.11,4.7-4.7,4.7-1.25,0-2.44-.5-3.33-1.38h0c-1.84-1.84-1.84-4.81,0-6.65,1.84-1.84,4.81-1.84,6.65,0h0c.88.88,1.38,2.08,1.38,3.32M1347.07,519.15c0,2.29-1.85,4.14-4.14,4.14s-4.14-1.85-4.14-4.14,1.85-4.14,4.14-4.14h0c2.28,0,4.14,1.86,4.14,4.14M1347.63,489.07c0,2.6-2.11,4.7-4.7,4.7-1.25,0-2.44-.5-3.33-1.38h0c-1.9-1.77-2.02-4.74-.25-6.65,1.77-1.9,4.74-2.02,6.65-.25.09.08.17.17.25.26h0c.88.88,1.38,2.07,1.38,3.32M1342.93,463.01c-2.29,0-4.14-1.85-4.14-4.14,0-2.29,1.85-4.14,4.14-4.14,2.29,0,4.14,1.85,4.14,4.14h0c0,2.29-1.86,4.14-4.14,4.14"/><path id="Caminho_4979" class="cls-2" d="M208.78,729.45l101.93-190.7v-130.02l-171.42,320.71h69.49ZM293.95,533.7l-94.75,177.3h-30.62l125.37-234.56v57.26Z"/><path id="Caminho_4980" class="cls-2" d="M324.06,408.74v130.02l101.93,190.7h69.49l-171.42-320.71ZM340.78,533.72v-57.28l125.4,234.56h-30.62l-94.78-177.28Z"/><path id="Caminho_4981" class="cls-3" d="M254.9,703.84l26.4-7.61-11.94-22.32,26.17-6.15-12.39-24.52,26.42-4.52-10.7-25.79,35.91-.31-9.74,26.09,27.46,2.95-13.44,26.05,26.56,4.24-12.29,24.21,25.36,8.76-15.04,23.26h46.75l-93.02-173.86-92.97,173.94h46.57l-16.07-24.41Z"/><path id="Caminho_4982" class="cls-3" d="M356.82,693.1l12.54-24.71-26.48-4.24,13.53-26.22-27.9-3.05,9.84-26.48-43.28.38,11.01,26.31-26.68,4.57,12.49,24.71-26.25,6.17,12.02,22.45-26.7,7.7c6.05,9.18,12.09,18.36,18.14,27.54h3.73l44.57-83.4,44.58,83.4h3.55l16.99-26.27-25.7-8.87ZM362.42,723.79l-42.84-80.14-2.2-4.12-45.12,84.42-13.38-20.31,26.11-7.54-11.87-22.15,26.1-6.14-12.31-24.34,26.18-4.49-10.48-25.24,28.53-.26-9.59,25.69,27.03,2.95-13.36,25.88,26.56,4.25-12.04,23.72,25.04,8.66-12.36,19.15Z"/><path id="Caminho_4983" class="cls-3" d="M285.11,728.24l32.28-60.37,32.28,60.37h-64.55Z"/><rect id="Retângulo_513" class="cls-2" x="584.06" y="410.96" width="17.74" height="315.75"/><rect id="Retângulo_514" class="cls-2" x="719.82" y="407.8" width="97.84" height="3.16"/><path id="Caminho_4984" class="cls-3" d="M605.12,410.72l-98.51.25v-3.16l96.33-.26,2.17,3.17Z"/><path id="Caminho_4985" class="cls-3" d="M618.06,597.94v131.54h85.58l-85.58-131.54ZM634.74,657.53l35.93,55.28h-35.93v-55.28Z"/><path id="Caminho_4986" class="cls-3" d="M617.45,408.23l89.52,132.26v-132.26h-89.52ZM686.37,473.35l-30.14-44.54h30.14v44.54Z"/><path id="Caminho_4987" class="cls-3" d="M554.62,521.35c2.04,0,3.69-1.67,3.68-3.72,0-.97-.39-1.89-1.06-2.58h0c-1.45-1.44-3.78-1.43-5.22.02-1.44,1.45-1.43,3.78.02,5.22.69.69,1.62,1.07,2.59,1.07"/><path id="Caminho_4988" class="cls-3" d="M533.34,427.23l-23.33,15.39,23.33,15.39-23.14,16.27,23.14,16.27-23.33,15.39,23.33,15.39-23.14,16.29,23.14,16.27-23.33,15.39,23.33,15.39-23.14,16.27,23.14,16.27-23.33,15.39,23.33,15.39-23.14,16.27,23.14,16.27-23.33,15.39,23.33,14.84-23.14,15.74v-29.68l-.2-.92.2-.98v-61.37l-.2-.98.2-.98v-61.34l-.2-.98.2-.98v-61.34l-.2-.98.2-.98v-61.35l-.2-.98.2-.98v-30.64h-.2v315.77h91.8v-315.77h-91.59l23.13,16.27ZM554.62,677.57c-3.91,0-7.07-3.17-7.07-7.07s3.17-7.07,7.07-7.07c3.91,0,7.07,3.17,7.07,7.07h0c0,3.9-3.17,7.07-7.07,7.07M554.62,459.08c3.91,0,7.07,3.17,7.07,7.07s-3.17,7.07-7.07,7.07c-3.91,0-7.07-3.17-7.07-7.07h0c0-3.9,3.17-7.07,7.07-7.07M548.95,512.03c3.12-3.13,8.19-3.13,11.32,0h0c3.13,3.14,3.13,8.22,0,11.35s-8.21,3.13-11.34,0h0c-3.13-3.13-3.13-8.2,0-11.33M561.73,569.02c0,3.91-3.17,7.07-7.07,7.07s-7.07-3.17-7.07-7.07,3.17-7.07,7.07-7.07h0c3.9,0,7.07,3.17,7.07,7.07M548.94,614.87c3.13-3.13,8.2-3.13,11.33,0h0c3.13,3.13,3.13,8.21,0,11.34-3.13,3.13-8.21,3.13-11.34,0h0c-3.13-3.13-3.13-8.2,0-11.33"/><path id="Caminho_4989" class="cls-3" d="M554.62,624.19c2.04,0,3.69-1.67,3.68-3.72,0-.97-.39-1.89-1.06-2.58h0c-1.45-1.44-3.78-1.43-5.22.02-1.44,1.45-1.43,3.78.02,5.22.69.69,1.62,1.07,2.59,1.07"/><path id="Caminho_4990" class="cls-3" d="M764.65,513.76c1.44-1.45,3.79-1.45,5.23,0,1.45,1.44,1.45,3.79,0,5.23-1.44,1.45-3.79,1.45-5.23,0-.69-.69-1.08-1.63-1.08-2.61,0-.98.39-1.92,1.08-2.62Z"/><path id="Caminho_4991" class="cls-3" d="M720.08,409.66v303.14l13.2,12.6h78.6v-315.77h-.2v30.7l.2.98-.2.98v61.4l.2.98-.2.98v61.4l.2.98-.2.98v61.4l.2.98-.2.98v61.4l.2.98-.2.92v29.66l-23.16-15.91,9.62-6.14,13.71-8.74-23.33-15.41,23.14-16.27-23.14-16.27,23.33-15.39-23.33-15.39,23.14-16.27-23.14-16.27,23.33-15.39-23.33-15.39,23.14-16.27-23.14-16.26,23.33-15.39-23.33-15.39,23.14-16.27-23.14-16.31,23.33-15.39-23.33-15.35,23.14-16.27h-91.58ZM774.32,464.85c0,3.91-3.17,7.07-7.07,7.07s-7.07-3.17-7.07-7.07,3.17-7.07,7.07-7.07h0c3.9,0,7.07,3.17,7.07,7.07M760.18,669.19c0-3.91,3.17-7.07,7.07-7.07s7.07,3.17,7.07,7.07-3.17,7.07-7.07,7.07h0c-3.9,0-7.07-3.17-7.07-7.07M759.19,619.2c0-2.13.85-4.16,2.35-5.67h0c3.09-3.17,8.17-3.23,11.34-.13,3.17,3.09,3.23,8.17.13,11.34-.05.05-.09.09-.14.14h0c-3.13,3.13-8.21,3.13-11.34,0-1.5-1.5-2.35-3.54-2.35-5.67M767.26,574.71c-3.91,0-7.07-3.17-7.07-7.07s3.17-7.07,7.07-7.07,7.07,3.17,7.07,7.07h0c0,3.9-3.17,7.07-7.07,7.07M759.24,516.33c0-2.13.85-4.16,2.35-5.67h0c3.03-3.23,8.1-3.39,11.33-.36,3.23,3.03,3.39,8.1.36,11.33-.12.12-.24.25-.36.36h0c-3.13,3.13-8.21,3.13-11.34,0-1.5-1.5-2.35-3.54-2.35-5.67"/><path id="Caminho_4992" class="cls-3" d="M764.65,616.58c1.44-1.45,3.79-1.45,5.23,0,1.45,1.44,1.45,3.79,0,5.23-1.44,1.45-3.79,1.45-5.23,0-.69-.69-1.08-1.63-1.08-2.61,0-.98.39-1.92,1.08-2.62Z"/><path id="Caminho_4993" class="cls-3" d="M1508.75,382.16l53-60.55,53.81,61.47-18.8,16.45-35.01-40-34.19,39.06-18.81-16.44Z"/><path id="Caminho_4994" class="cls-3" d="M985.51,440.61l17.24-32.28,17.19,32.28h-34.43Z"/><path id="Caminho_4995" class="cls-3" d="M970.08,729.41l32.28-60.4,32.28,60.4h-64.55Z"/><path id="Caminho_4996" class="cls-3" d="M968.42,472.72l17.24-32.28,17.24,32.28h-34.49Z"/><path id="Caminho_4997" class="cls-3" d="M1037.39,472.72l-17.24-32.28-17.24,32.28h34.49Z"/><path id="Caminho_4998" class="cls-3" d="M951.34,504.81l17.24-32.28,17.24,32.28h-34.49Z"/><path id="Caminho_4999" class="cls-3" d="M1054.45,504.81l-17.24-32.28-17.24,32.28h34.49Z"/><path id="Caminho_5000" class="cls-3" d="M934.27,536.9l17.24-32.28,17.24,32.28h-34.49Z"/><path id="Caminho_5001" class="cls-3" d="M1071.53,536.9l-17.24-32.28-17.24,32.28h34.49Z"/><path id="Caminho_5002" class="cls-3" d="M917.2,569l17.24-32.28,17.24,32.28h-34.49Z"/><path id="Caminho_5003" class="cls-3" d="M1088.6,569l-17.24-32.28-17.24,32.28h34.49Z"/><path id="Caminho_5004" class="cls-3" d="M900.13,601.1l17.24-32.28,17.24,32.28h-34.49Z"/><path id="Caminho_5005" class="cls-3" d="M1105.68,601.1l-17.24-32.28-17.24,32.28h34.49Z"/><path id="Caminho_5006" class="cls-3" d="M883.05,633.2l17.24-32.28,17.24,32.28h-34.49Z"/><path id="Caminho_5007" class="cls-3" d="M1122.75,633.2l-17.24-32.28-17.24,32.28h34.49Z"/><path id="Caminho_5008" class="cls-3" d="M865.98,665.29l17.24-32.28,17.24,32.28h-34.49Z"/><path id="Caminho_5009" class="cls-3" d="M1139.83,665.29l-17.24-32.28-17.24,32.28h34.49Z"/><path id="Caminho_5010" class="cls-3" d="M848.91,697.39l17.24-32.28,17.24,32.28h-34.49Z"/><path id="Caminho_5011" class="cls-3" d="M1156.89,697.39l-17.24-32.28-17.24,32.28h34.49Z"/><path id="Caminho_5012" class="cls-3" d="M831.83,729.48l17.24-32.28,17.24,32.28h-34.49Z"/><path id="Caminho_5013" class="cls-3" d="M1173.97,729.48l-17.24-32.28-17.24,32.28h34.49Z"/><rect id="Retângulo_515" class="cls-2" x="505.51" y="726.32" width="96.28" height="3.16"/><path id="Caminho_5014" class="cls-3" d="M817.69,729.49h-87.62l-2.17-3.44,89.79.29v3.16Z"/><path id="Caminho_5015" class="cls-3" d="M810.45,710.44v15.61l-23.14-16.27,15.66-10.33-13.08-19.23-1.61,9.25-37.22-2.64-12.23-39.52h28.63l-162.04-238.17h-93.17l2.2,3.24,21.13,14.85-7.6,5.02,18.98,27.88,16.47-11.52,21.74,28.24-20.31,9.56,163.58,240.38h83.47v-14.24l-1.44-2.1Z"/></g></g></g></svg>