<?xml version="1.0" encoding="UTF-8"?><svg class="icon-white" id="Camada_1" xmlns="http://www.w3.org/2000/svg" viewBox="0 0 500 500"><defs><style>.cls-1{stroke-width:0px;}</style></defs><g id="Grupo_661"><g id="Grupo_628"><g id="Grupo_627"><path id="Caminho_3997" class="cls-1" d="M203.58,352.78c-6.44,0-12.6-2.58-17.13-7.15-9.05-8.88-9.52-23.3-1.08-32.76,12-11.83,24.6-23.03,37.76-33.55,29.23-24.55,65.57-55.18,73.35-71.95,1.03-2.26,3.7-3.26,5.96-2.22.49.22.94.54,1.32.92l22.49,22.49c1.74,1.78,1.71,4.62-.07,6.36-.36.35-.78.64-1.24.86-16.91,7.77-47.49,44.16-71.95,73.39-10.52,13.12-21.71,25.7-33.5,37.69-4.37,3.92-10.05,6.04-15.92,5.94M301.52,216.51c-12.14,18.75-44.12,45.47-72.67,69.66-12.82,10.27-25.12,21.17-36.85,32.68-5.4,6.32-4.65,15.81,1.67,21.21,5.62,4.8,13.89,4.81,19.52.02,11.51-11.72,22.42-24.01,32.69-36.83,24.02-28.56,50.96-60.52,69.7-72.74l-14.05-13.99Z"/><path id="Caminho_3998" class="cls-1" d="M322.97,236.12c-1.2,0-2.35-.49-3.19-1.35l-22.48-22.49c-1.75-1.75-1.75-4.59,0-6.34l22.48-22.49c1.76-1.75,4.6-1.75,6.36,0h0l22.48,22.49c1.75,1.75,1.75,4.59,0,6.34l-22.48,22.49c-.84.86-1.99,1.34-3.19,1.35M306.84,209.14l16.1,16.1,16.1-16.1-16.07-16.15-16.13,16.15Z"/><path id="Caminho_3999" class="cls-1" d="M345.46,213.63c-1.2,0-2.35-.49-3.19-1.35l-22.49-22.49c-1.76-1.75-1.77-4.59-.03-6.36h.03l14.08-14.03c1.75-1.74,4.59-1.74,6.34,0l22.49,22.48c1.74,1.76,1.74,4.59,0,6.35l-14.08,14.27c-.87.76-2,1.16-3.15,1.11M329.32,186.63l16.15,16.1,7.68-7.67-16.15-16.1-7.68,7.67Z"/><path id="Caminho_4000" class="cls-1" d="M301.75,214.9c-1.18,0-2.31-.47-3.15-1.3-16.21-14.44-33.32-27.84-51.22-40.11-2.05-1.41-2.56-4.21-1.15-6.26.16-.23.33-.44.52-.63,30.89-30.89,77.44,14.93,79.4,16.86,1.74,1.84,1.66,4.74-.18,6.48-1.73,1.63-4.42,1.67-6.19.09-.4-.41-37.65-37.06-62.46-20.37,16.69,11.52,32.6,24.13,47.62,37.76,1.76,1.75,1.76,4.6,0,6.35,0,0,0,0,0,0h0c-.88.77-2.02,1.17-3.19,1.11"/><path id="Caminho_4001" class="cls-1" d="M362.55,286.66h-.45c-1.33-.13-2.53-.83-3.28-1.93-12.2-17.95-25.59-35.06-40.07-51.22-1.75-1.76-1.74-4.61.03-6.36,1.75-1.74,4.58-1.74,6.33,0h0c13.55,15,26.05,30.91,37.42,47.62,16.73-24.86-19.88-62.28-20.28-62.28-1.89-1.61-2.11-4.45-.49-6.34,1.61-1.89,4.45-2.11,6.34-.49.18.15.34.31.49.49,7.78,8.06,14.44,17.14,19.79,26.99,11.11,21.23,10.12,39.31-2.93,52.34-.8.73-1.84,1.15-2.93,1.17"/><path id="Caminho_4002" class="cls-1" d="M223.15,340.99c-1.2,0-2.34-.46-3.19-1.3l-27.39-27.43c-1.79-1.72-1.84-4.57-.12-6.36l.12-.12c10.48-9.58,38.18-33.37,51.08-43.71,1.79-1.46,4.4-1.32,6.02.32l20.06,20.06c1.61,1.62,1.75,4.2.32,5.98-10.39,12.95-34.18,40.47-43.71,51.13-.84.9-2.01,1.42-3.24,1.44h.04ZM202.3,309.24l20.69,20.73c9.89-11.11,27.61-31.75,37.68-44.03l-14.34-14.35c-12.41,10.03-33.05,27.76-44.16,37.64h.13Z"/><path id="Caminho_4003" class="cls-1" d="M300.46,349.89c-5.8.02-11.4-2.13-15.69-6.02-2.49-2.3-4.87-4.73-7.11-7.29-5.94-6.56-12.32-14.79-19.11-23.47l-6.92-9c-.19-.19-.36-.4-.49-.63-1.52-1.96-1.16-4.79.81-6.31l.04-.03c1.95-1.45,4.7-1.09,6.21.81l.36.45c2.43,3.06,4.77,6.07,7.11,9,6.66,8.55,12.95,16.66,18.71,23.03,2.04,2.33,4.21,4.56,6.48,6.66,6.52,5.17,15.99,4.08,21.16-2.44,4.34-5.47,4.35-13.21.02-18.7-1.98-2.25-4.5-4.5-6.57-6.52-6.43-5.84-14.66-12.22-23.38-18.97-3.65-2.83-7.33-5.71-10.97-8.63-1.96-1.52-2.32-4.35-.79-6.31v-.03c1.54-1.95,4.37-2.28,6.32-.74,0,0,0,0,0,0h0l10.93,8.54c8.99,6.84,17.18,13.49,23.88,19.43,2.56,2.24,4.97,4.66,7.22,7.22,8.77,10.01,7.77,25.24-2.24,34.01-4.43,3.88-10.12,6-16.01,5.97"/><path id="Caminho_4004" class="cls-1" d="M233.26,280.46c-1.18,0-2.31-.47-3.15-1.3l-.56-.56c-7.15-7.6-13.49-14.08-19.43-19.3-1.9-1.6-2.15-4.43-.55-6.34,1.6-1.9,4.43-2.15,6.34-.55.02.02.04.04.06.05,6.02,5.44,12.77,12.1,20.06,19.88l.41.45c1.75,1.74,1.76,4.58.01,6.33-.85.85-2,1.33-3.2,1.32"/><path id="Caminho_4005" class="cls-1" d="M252.06,264.05c-1.14,0-2.23-.44-3.06-1.22-8.77-8.23-16.01-15.55-21.58-21.77-1.63-1.89-1.43-4.74.46-6.38,1.83-1.58,4.58-1.45,6.24.31,5.4,6.02,12.45,13.18,21.04,21.27,1.79,1.72,1.85,4.56.13,6.35-.85.88-2.02,1.38-3.24,1.38v.04Z"/><path id="Caminho_4006" class="cls-1" d="M174.44,268.99c-1.18,0-2.31-.47-3.15-1.3l-29.86-29.86c-10.1-10.31-16.2-23.87-17.21-38.27-1.44-14.33,3.5-28.57,13.49-38.95,21.04-21.04,58.11-15.38,77.22,3.73l29.86,29.82c1.75,1.76,1.75,4.6,0,6.36h0l-67.15,67.19c-.85.84-2,1.31-3.2,1.3M172.21,156.1c-10.46-.29-20.6,3.63-28.15,10.88-8.17,8.56-12.16,20.29-10.88,32.06.82,12.23,5.93,23.78,14.44,32.61l26.65,26.65,60.97-60.95-26.65-26.65c-9.79-9.36-22.8-14.6-36.35-14.63"/><path id="Caminho_4007" class="cls-1" d="M208.01,265.26c-.82,0-1.63-.22-2.34-.63l-18.53-11.2c-2.13-1.27-2.83-4.03-1.56-6.16,0,0,0,0,0,0,.18-.31.4-.59.65-.84l37.36-37.32c1.78-1.75,4.64-1.73,6.38.05.24.24.45.51.63.8l11.2,18.66c1.06,1.77.78,4.03-.68,5.49l-29.86,29.86c-.86.85-2.03,1.32-3.24,1.3M196.61,248.5l10.71,6.43,24.82-24.69-6.39-10.71-29.14,28.96Z"/></g></g></g></svg>