<?xml version="1.0" encoding="UTF-8" standalone="no"?><!-- Generator: Gravit.io --><svg xmlns="http://www.w3.org/2000/svg" xmlns:xlink="http://www.w3.org/1999/xlink" style="isolation:isolate" viewBox="0 0 360.9 294.3" width="360.9pt" height="294.3pt"><defs><clipPath id="_clipPath_1aep4rMYKzBrSAPSiwWO5uBaVkB0n3jg"><rect width="360.9" height="294.3"/></clipPath></defs><g clip-path="url(#_clipPath_1aep4rMYKzBrSAPSiwWO5uBaVkB0n3jg)"><path d=" M 113.986 294.3 C 104.767 294.3 95.937 290.61 89.447 284.06 C 76.478 271.341 75.798 250.662 87.907 237.123 C 105.087 220.183 123.136 204.144 141.985 189.075 C 183.843 153.926 235.861 110.108 247 86.07 C 248.48 82.83 252.3 81.41 255.53 82.88 C 256.24 83.2 256.88 83.65 257.43 84.2 L 289.628 116.398 C 292.128 118.918 292.108 122.998 289.588 125.498 C 289.058 126.018 288.438 126.448 287.768 126.768 C 263.559 137.907 219.781 189.995 184.763 231.833 C 169.694 250.622 153.684 268.621 136.795 285.79 C 130.545 291.4 122.406 294.44 114.006 294.29 M 254.25 99.199 C 236.86 126.048 191.093 164.286 150.204 198.924 C 131.855 213.624 114.256 229.243 97.477 245.722 C 89.807 254.812 90.947 268.401 100.037 276.071 C 108.046 282.841 119.776 282.851 127.795 276.091 C 144.275 259.312 159.894 241.712 174.593 223.363 C 208.952 182.515 247.52 136.737 274.369 119.238 L 254.23 99.189 L 254.25 99.199 Z " fill="rgb(255,255,255)"/><path d=" M 284.918 127.288 C 283.198 127.288 281.548 126.588 280.348 125.358 L 248.16 93.159 C 245.65 90.649 245.65 86.59 248.16 84.08 L 280.348 51.881 C 282.858 49.361 286.928 49.341 289.458 51.851 C 289.458 51.851 289.458 51.851 289.458 51.851 L 289.488 51.881 L 321.677 84.08 C 324.186 86.59 324.186 90.649 321.677 93.159 L 289.488 125.358 C 288.278 126.588 286.638 127.278 284.918 127.288 M 261.869 88.629 L 284.918 111.678 L 307.967 88.629 L 284.918 65.541 L 261.869 88.629 Z " fill="rgb(255,255,255)"/><path d=" M 317.117 95.099 C 315.397 95.099 313.747 94.399 312.547 93.169 L 280.378 60.971 C 277.849 58.471 277.829 54.391 280.338 51.861 C 280.338 51.861 280.338 51.861 280.338 51.861 L 280.378 51.831 L 300.528 31.742 C 303.037 29.242 307.097 29.242 309.607 31.742 L 341.806 63.931 C 344.306 66.44 344.306 70.5 341.806 73.01 L 321.637 93.479 C 320.397 94.579 318.787 95.149 317.127 95.089 M 294.008 56.441 L 317.127 79.49 L 328.136 68.48 L 305.017 45.451 L 294.008 56.441 L 294.008 56.441 Z " fill="rgb(255,255,255)"/><path d=" M 254.53 96.899 C 252.84 96.899 251.22 96.219 250.02 95.029 C 228.321 73.33 177.203 37.992 176.693 37.612 C 173.763 35.592 173.033 31.582 175.043 28.652 C 175.263 28.332 175.513 28.032 175.793 27.752 C 220.021 -16.476 286.658 49.131 289.488 51.891 C 291.988 54.501 291.908 58.651 289.288 61.161 C 286.798 63.541 282.898 63.591 280.348 61.281 C 279.799 60.691 226.461 8.223 190.923 32.112 C 214.821 48.591 237.6 66.63 259.099 86.13 C 261.619 88.629 261.639 92.699 259.139 95.229 C 259.139 95.229 259.139 95.229 259.139 95.229 L 259.109 95.259 C 257.849 96.369 256.21 96.949 254.54 96.869" fill="rgb(255,255,255)"/><path d=" M 341.576 199.664 L 340.936 199.664 C 339.036 199.484 337.316 198.474 336.236 196.904 C 336.236 196.384 300.498 145.397 278.869 123.578 C 276.349 121.068 276.349 116.988 278.869 114.468 C 281.378 111.948 285.458 111.948 287.978 114.468 L 288.008 114.498 C 307.397 135.977 325.296 158.756 341.576 182.675 C 365.525 147.077 313.117 93.509 312.537 93.509 C 309.827 91.199 309.507 87.13 311.817 84.42 C 314.127 81.71 318.197 81.39 320.907 83.7 C 321.157 83.91 321.397 84.15 321.617 84.4 C 332.756 95.949 342.286 108.959 349.945 123.058 C 365.845 153.426 364.435 179.335 345.755 197.994 C 344.606 199.034 343.116 199.624 341.566 199.654" fill="rgb(255,255,255)"/><path d=" M 141.995 277.431 C 140.285 277.431 138.635 276.771 137.425 275.561 L 98.217 236.283 C 95.657 233.813 95.577 229.743 98.047 227.183 C 98.047 227.183 98.047 227.183 98.047 227.183 L 98.217 227.013 C 113.216 213.294 152.884 179.235 171.353 164.436 C 173.913 162.346 177.643 162.536 179.983 164.886 L 208.702 193.605 C 211.012 195.925 211.212 199.614 209.162 202.174 C 194.292 220.713 160.224 260.122 146.585 275.381 C 145.385 276.671 143.715 277.421 141.955 277.441 L 142.015 277.441 L 141.995 277.431 Z  M 112.116 231.973 L 141.735 261.652 C 155.894 245.742 181.263 216.194 195.682 198.624 L 175.153 178.085 C 157.384 192.445 127.835 217.804 111.926 231.973 L 112.116 231.973 L 112.116 231.973 Z " fill="rgb(255,255,255)"/><path d=" M 252.73 290.17 C 244.43 290.21 236.41 287.13 230.261 281.541 C 226.691 278.241 223.291 274.761 220.091 271.111 C 211.592 261.721 202.452 249.932 192.732 237.513 L 182.823 224.633 C 182.553 224.363 182.313 224.053 182.113 223.723 C 179.943 220.913 180.453 216.874 183.263 214.694 L 183.333 214.644 C 186.123 212.564 190.053 213.084 192.223 215.804 L 192.732 216.444 C 196.212 220.823 199.562 225.133 202.902 229.323 C 212.432 241.562 221.441 253.142 229.681 262.281 C 232.611 265.611 235.701 268.801 238.96 271.811 C 248.31 279.191 261.869 277.601 269.259 268.251 C 275.439 260.422 275.449 249.382 269.289 241.552 C 266.449 238.323 262.849 235.113 259.899 232.213 C 250.69 223.843 238.91 214.704 226.421 205.044 C 221.201 200.984 215.931 196.864 210.712 192.675 C 207.902 190.495 207.402 186.445 209.582 183.645 L 209.612 183.605 C 211.822 180.815 215.871 180.345 218.661 182.545 C 218.661 182.545 218.661 182.545 218.661 182.545 L 218.691 182.575 L 234.341 194.805 C 247.21 204.594 258.929 214.134 268.519 222.623 C 272.199 225.823 275.659 229.263 278.889 232.933 C 291.448 247.262 290.008 269.061 275.679 281.611 C 269.339 287.17 261.179 290.21 252.75 290.16" fill="rgb(255,255,255)"/><path d=" M 156.494 190.765 C 154.804 190.765 153.184 190.085 151.984 188.895 L 151.214 188.125 C 140.975 177.245 131.885 167.976 123.396 160.516 C 120.586 158.336 120.066 154.286 122.246 151.477 C 124.426 148.667 128.475 148.147 131.285 150.327 C 131.455 150.457 131.605 150.587 131.765 150.737 C 140.395 158.526 150.044 168.056 160.484 179.195 L 161.034 179.835 C 163.544 182.335 163.554 186.385 161.054 188.895 C 159.834 190.115 158.184 190.795 156.464 190.785" fill="rgb(255,255,255)"/><path d=" M 183.383 167.266 C 181.753 167.266 180.193 166.636 179.003 165.526 C 166.444 153.746 156.084 143.247 148.075 134.367 C 145.675 131.717 145.875 127.628 148.525 125.228 C 151.174 122.828 155.264 123.028 157.664 125.678 L 157.664 125.678 C 165.394 134.307 175.493 144.547 187.793 156.126 C 190.353 158.586 190.433 162.656 187.973 165.226 C 186.773 166.476 185.113 167.196 183.373 167.206 L 183.373 167.276 L 183.383 167.266 Z " fill="rgb(255,255,255)"/><path d=" M 72.268 174.346 C 70.578 174.346 68.958 173.666 67.758 172.476 L 25.02 129.738 C 10.551 114.978 1.811 95.559 0.351 74.94 C -1.709 54.411 5.361 34.012 19.68 19.163 C 49.799 -10.946 102.857 -2.836 130.215 24.522 L 172.973 67.21 C 175.493 69.72 175.513 73.79 173.003 76.32 C 173.003 76.32 173.003 76.32 173.003 76.32 L 172.973 76.35 L 76.848 172.476 C 75.628 173.686 73.988 174.356 72.268 174.346 Z  M 69.118 12.703 C 54.139 12.283 39.61 17.903 28.81 28.282 C 17.131 40.542 11.441 57.321 13.261 74.16 C 14.441 91.669 21.76 108.199 33.93 120.838 L 72.078 159.046 L 159.314 71.79 L 121.136 33.602 C 107.126 20.203 88.497 12.713 69.118 12.673" fill="rgb(255,255,255)"/><path d=" M 120.366 169.006 C 119.186 169.006 118.036 168.686 117.016 168.106 L 90.507 152.087 C 87.457 150.257 86.467 146.307 88.287 143.267 C 88.287 143.267 88.287 143.267 88.287 143.257 C 88.547 142.817 88.857 142.407 89.217 142.047 L 142.625 88.599 C 145.165 86.1 149.254 86.13 151.764 88.669 C 152.104 89.019 152.414 89.409 152.664 89.819 L 168.684 116.538 C 170.194 119.068 169.794 122.308 167.714 124.398 L 124.976 167.136 C 123.746 168.356 122.076 169.026 120.346 169.006 M 103.987 144.987 L 119.316 154.196 L 154.854 118.858 L 145.735 103.509 L 103.997 144.997 L 103.987 144.987 Z " fill="rgb(255,255,255)"/></g></svg>