<?xml version="1.0" encoding="UTF-8" standalone="no"?><!-- Generator: Gravit.io --><svg xmlns="http://www.w3.org/2000/svg" xmlns:xlink="http://www.w3.org/1999/xlink" style="isolation:isolate" viewBox="0 0 173.8 132.4" width="173.8pt" height="132.4pt"><defs><clipPath id="_clipPath_b4uDMt6Dyaa9azDdfnkWdLErnxbtsqQd"><rect width="173.8" height="132.4"/></clipPath></defs><g clip-path="url(#_clipPath_b4uDMt6Dyaa9azDdfnkWdLErnxbtsqQd)"><clipPath id="_clipPath_25HCTLTC4cKLegRJRJ3FfMtUvkHaPkxh"><rect x="0" y="0" width="173.8" height="132.38" transform="matrix(1,0,0,1,0,0)" /></clipPath><g clip-path="url(#_clipPath_25HCTLTC4cKLegRJRJ3FfMtUvkHaPkxh)"><g><g><path d=" M 83.99 0.92 L 34.37 35.64 L 5.09 35.64 C 2.28 35.64 0 37.92 0 40.73 L 0 91.63 C 0 94.44 2.28 96.72 5.09 96.72 L 34.37 96.72 L 83.99 131.44 C 86.3 133.05 89.48 132.49 91.09 130.18 C 91.69 129.33 92.01 128.31 92.01 127.27 L 92.01 5.08 C 92.01 2.26 89.72 -0.02 86.9 -0.01 C 85.86 -0.01 84.85 0.31 83.99 0.91 M 10.21 45.82 L 30.92 45.82 L 30.92 86.56 L 10.21 86.56 L 10.21 45.82 L 10.21 45.82 Z  M 81.81 117.51 L 41.07 88.99 L 41.07 43.37 L 81.81 14.86 L 81.81 117.51 Z "/><path d=" M 127.65 25.434 C 124.84 25.434 122.56 27.714 122.56 30.524 L 122.56 101.814 C 122.56 104.624 124.84 106.914 127.65 106.914 C 130.46 106.914 132.75 104.634 132.75 101.824 L 132.75 101.824 L 132.75 30.534 C 132.74 27.724 130.46 25.454 127.66 25.444" /><path d=" M 107.27 50.914 C 104.46 50.914 102.18 53.194 102.18 56.004 L 102.18 76.354 C 102.18 79.164 104.46 81.454 107.27 81.454 C 110.08 81.454 112.37 79.174 112.37 76.364 L 112.37 76.364 L 112.37 56.004 C 112.37 53.194 110.1 50.914 107.29 50.914 C 107.29 50.914 107.29 50.914 107.28 50.914" /><path d=" M 148 45.824 C 145.19 45.824 142.91 48.104 142.91 50.914 L 142.91 81.464 C 142.91 84.274 145.19 86.564 148 86.564 C 150.81 86.564 153.1 84.284 153.1 81.474 L 153.1 81.474 L 153.1 50.924 C 153.1 48.114 150.83 45.834 148.02 45.834 C 148.02 45.834 148.02 45.834 148.01 45.834" /><path d=" M 168.71 35.624 C 165.9 35.624 163.62 37.904 163.61 40.714 L 163.61 91.614 C 163.61 94.424 165.89 96.714 168.7 96.714 C 171.51 96.714 173.8 94.434 173.8 91.624 L 173.8 91.624 L 173.8 40.714 C 173.8 37.904 171.52 35.624 168.71 35.624 Z " /></g></g></g></g></svg>