<?xml version="1.0" encoding="UTF-8"?><svg class="icon-white" id="Camada_1" xmlns="http://www.w3.org/2000/svg" viewBox="0 0 500 500"><defs><style>.cls-1{stroke-width:0px;}</style></defs><g id="Grupo_278"><path id="Caminho_1964" class="cls-1" d="M244.46,146.54l-94.47,66.12h-55.74c-5.35.01-9.69,4.35-9.7,9.7v96.92c.01,5.35,4.35,9.69,9.7,9.7h55.74l94.47,66.11c4.4,3.07,10.45,1.99,13.52-2.41,1.13-1.63,1.74-3.56,1.75-5.54v-232.65c0-5.37-4.37-9.71-9.73-9.7-1.98,0-3.91.61-5.54,1.74M103.98,232.05h39.42v77.57h-39.42v-77.57ZM240.31,368.56l-77.56-54.31v-86.86l77.56-54.28v195.45Z"/><path id="Caminho_1965" class="cls-1" d="M327.57,193.25c-5.35.01-9.69,4.35-9.7,9.7v135.73c0,5.36,4.34,9.7,9.7,9.71s9.7-4.34,9.71-9.7h0v-135.74c-.02-5.35-4.35-9.68-9.7-9.7"/><path id="Caminho_1966" class="cls-1" d="M288.76,241.76c-5.35.01-9.69,4.35-9.7,9.7v38.75c0,5.36,4.34,9.7,9.7,9.71s9.7-4.34,9.71-9.7h0v-38.76c0-5.35-4.33-9.69-9.68-9.7,0,0-.01,0-.02,0"/><path id="Caminho_1967" class="cls-1" d="M366.32,232.06c-5.35.02-9.68,4.35-9.69,9.7v58.16c0,5.36,4.34,9.7,9.7,9.71,5.36,0,9.7-4.34,9.71-9.7h0v-58.17c0-5.35-4.33-9.69-9.68-9.7,0,0-.01,0-.02,0"/><path id="Caminho_1968" class="cls-1" d="M405.76,212.66c-5.35,0-9.69,4.35-9.71,9.7v96.92c0,5.36,4.34,9.7,9.7,9.71s9.7-4.34,9.71-9.7h0v-96.93c-.01-5.35-4.35-9.69-9.7-9.7"/></g></svg>