<?xml version="1.0" encoding="UTF-8"?><svg id="Camada_1" xmlns="http://www.w3.org/2000/svg" viewBox="0 0 500 500"><defs><style>.cls-1{stroke-width:0px;}</style></defs><path class="cls-1" d="M250,130.8c-65.6,0-118.8,53.2-118.8,118.8s53.2,118.8,118.8,118.8,118.8-53.2,118.8-118.8-53.2-118.8-118.8-118.8ZM225.96,250.59h14.59v-65.03c0-1.52,1.24-2.78,2.78-2.78h13.38c1.52,0,2.78,1.24,2.78,2.78v65.03h14.59c1.97,0,3.18,2.11,2.21,3.83l-24.07,41.65c-.97,1.71-3.45,1.71-4.42,0l-24.04-41.65c-.97-1.71.24-3.83,2.21-3.83ZM323.84,309.66c0,3.73-3.02,6.72-6.72,6.72h-134.22c-3.73,0-6.72-3.02-6.72-6.72v-1.78c0-3.73,3.02-6.72,6.72-6.72h134.22c3.73,0,6.72,3.02,6.72,6.72v1.78Z"/></svg>