<?xml version="1.0" encoding="UTF-8" standalone="no"?><!-- Generator: Gravit.io --><svg xmlns="http://www.w3.org/2000/svg" xmlns:xlink="http://www.w3.org/1999/xlink" style="isolation:isolate" viewBox="0 0 100 100" width="100pt" height="100pt"><defs><clipPath id="_clipPath_MqiszyTU2yoBem0vcpThSiODIdojefT6"><rect width="100" height="100"/></clipPath></defs><g clip-path="url(#_clipPath_MqiszyTU2yoBem0vcpThSiODIdojefT6)"><g><path d=" M 50 0 C 22.4 0 0 22.4 0 50 C 0 77.6 22.4 100 50 100 C 77.6 100 100 77.6 100 50 C 100 22.4 77.6 0 50 0 Z  M 39.9 50.4 L 46 50.4 L 46 23 C 46 22.4 46.5 21.8 47.2 21.8 L 52.8 21.8 C 53.4 21.8 54 22.3 54 23 L 54 50.4 L 60.1 50.4 C 60.9 50.4 61.4 51.3 61 52 L 50.9 69.6 C 50.5 70.3 49.4 70.3 49 69.6 L 39 52 C 38.5 51.3 39 50.4 39.9 50.4 Z  M 81.1 75.3 C 81.1 76.9 79.8 78.1 78.3 78.1 L 21.8 78.1 C 20.2 78.1 19 76.8 19 75.3 L 19 74.5 C 19 72.9 20.3 71.7 21.8 71.7 L 78.3 71.7 C 79.9 71.7 81.1 73 81.1 74.5 L 81.1 75.3 Z " fill="rgb(255,255,255)"/></g></g></svg>