<?xml version="1.0" encoding="UTF-8"?><svg id="Camada_1" xmlns="http://www.w3.org/2000/svg" viewBox="0 0 500 500"><defs><style>.cls-1{fill:#FFBF00;stroke-width:0px;}</style></defs><path id="Caminho_5360" class="cls-1" d="M250,35.54c-118.44,0-214.46,96.02-214.46,214.46s96.02,214.46,214.46,214.46,214.46-96.02,214.46-214.46c-.39-118.28-96.18-214.07-214.46-214.46ZM308.92,278.28h-117.85c-15.62,1.28-29.32-10.35-30.59-25.96-1.28-15.62,10.35-29.32,25.96-30.59,1.54-.13,3.09-.13,4.63,0h117.82c15.6.17,28.21,12.77,28.37,28.37.15,15.42-12.24,28.04-27.66,28.19-.23,0-.46,0-.69,0Z"/></svg>