<?xml version="1.0" encoding="UTF-8"?><svg id="Camada_1" xmlns="http://www.w3.org/2000/svg" viewBox="0 0 500 500"><defs><style>.cls-1{fill:#FFBF00;stroke-width:0px;}</style></defs><g id="noun-quantity-2366912"><g id="Grupo_929"><path id="Caminho_5354" class="cls-1" d="M463.19,250c0-117.74-95.45-213.19-213.19-213.19-117.74,0-213.19,95.45-213.19,213.19s95.45,213.19,213.19,213.19c117.58-.39,212.81-95.61,213.19-213.19ZM317.95,278.21h-41.02v40.9c-1.27,15.53-14.89,27.08-30.41,25.81-13.76-1.13-24.69-12.05-25.81-25.81v-40.99h-40.99c-15.53,1.27-29.14-10.29-30.41-25.81-1.27-15.53,10.29-29.14,25.81-30.41,1.53-.13,3.07-.13,4.6,0h40.99v-40.99c1.27-15.53,14.89-27.08,30.41-25.81,13.76,1.13,24.69,12.05,25.81,25.81v40.99h40.99c15.51.17,28.04,12.7,28.21,28.21.14,15.33-12.17,27.88-27.5,28.02-.24,0-.47,0-.71,0l.02.09Z"/></g></g></svg>