<?xml version="1.0" encoding="UTF-8" standalone="no"?><!-- Generator: Gravit.io --><svg xmlns="http://www.w3.org/2000/svg" xmlns:xlink="http://www.w3.org/1999/xlink" style="isolation:isolate" viewBox="0 0 57.8 92.7" width="57.8pt" height="92.7pt"><defs><clipPath id="_clipPath_T2GEus1oovdfuDujUDhdtj1SyFWMOwg3"><rect width="57.8" height="92.7"/></clipPath></defs><g clip-path="url(#_clipPath_T2GEus1oovdfuDujUDhdtj1SyFWMOwg3)"><rect width="57.8" height="92.7" style="fill:rgb(140,123,123)" fill-opacity="0"/><g><path d=" M 30.947 25.828 C 32.701 25.197 34.3 24.17 35.64 22.831 C 38.143 20.327 39.555 16.914 39.555 13.373 C 39.555 9.832 38.143 6.419 35.64 3.916 C 33.136 1.412 29.723 0 26.182 0 C 22.641 0 19.228 1.412 16.725 3.916 C 14.221 6.419 12.809 9.832 12.809 13.373 C 12.809 16.914 14.221 20.327 16.725 22.831 C 18.056 24.163 19.646 25.186 21.389 25.816 L 21.389 22.356 C 20.519 21.875 19.708 21.278 18.993 20.563 C 17.088 18.658 16.018 16.069 16.018 13.373 C 16.018 10.677 17.088 8.088 18.993 6.184 C 20.897 4.279 23.486 3.21 26.182 3.21 C 28.878 3.21 31.467 4.279 33.371 6.184 C 35.276 8.088 36.346 10.677 36.346 13.373 C 36.346 16.069 35.276 18.658 33.371 20.563 C 32.649 21.285 31.829 21.887 30.947 22.368 L 30.947 25.828 L 30.947 25.828 Z " fill="rgb(255,255,255)"/><path d=" M 30.952 24.351 Q 33.595 22.918 34.684 21.829 C 36.935 19.578 38.204 16.51 38.204 13.327 C 38.204 10.143 36.935 7.075 34.684 4.825 C 32.434 2.574 29.366 1.305 26.182 1.305 C 22.999 1.305 19.93 2.574 17.68 4.825 C 15.429 7.075 14.16 10.143 14.16 13.327 C 14.16 16.51 15.429 19.578 17.68 21.829 Q 18.757 22.906 21.38 24.331 L 21.38 21.116 Q 20.231 20.302 19.719 19.79 C 18.007 18.078 17.045 15.75 17.045 13.327 C 17.045 10.903 18.007 8.576 19.719 6.864 C 21.431 5.152 23.758 4.19 26.182 4.19 C 28.606 4.19 30.933 5.152 32.645 6.864 C 34.357 8.576 35.319 10.903 35.319 13.327 C 35.319 15.75 34.357 18.078 32.645 19.79 Q 32.137 20.298 30.952 21.116 L 30.952 24.351 Z " fill="rgb(255,255,255)"/><path d=" M 30.947 19.807 C 31.271 19.586 31.571 19.326 31.852 19.043 C 33.361 17.546 34.206 15.502 34.206 13.373 C 34.206 11.244 33.361 9.201 31.852 7.703 C 30.354 6.194 28.311 5.349 26.182 5.349 C 24.053 5.349 22.01 6.194 20.512 7.703 C 19.003 9.201 18.158 11.244 18.158 13.373 C 18.158 15.502 19.003 17.546 20.512 19.043 C 20.785 19.318 21.076 19.571 21.389 19.788 L 21.368 13.701 C 21.37 13.57 21.37 13.48 21.368 13.373 C 21.368 12.1 21.871 10.87 22.78 9.971 C 23.679 9.062 24.909 8.559 26.182 8.559 C 27.455 8.559 28.685 9.062 29.584 9.971 C 30.494 10.87 30.996 12.1 30.996 13.373 C 30.996 13.623 30.991 13.851 30.996 14.118 L 30.947 19.807 L 30.947 19.807 Z " fill="rgb(255,255,255)"/><path d=" M 55.282 88.843 C 55.282 90.943 53.882 92.743 52.282 92.743 L 24.482 92.743 C 22.782 92.743 21.482 91.043 21.482 88.843 L 21.482 86.743 C 21.482 85.143 22.182 83.843 23.282 83.243 L 23.382 83.243 C 23.482 83.243 23.582 83.143 23.682 83.143 C 23.682 83.143 23.682 83.143 23.682 83.143 C 23.782 83.143 23.882 83.043 23.882 83.043 C 23.882 83.043 23.982 83.043 23.982 83.043 C 23.982 83.043 24.082 83.043 24.082 83.043 C 24.182 83.043 24.282 83.043 24.382 83.043 L 52.182 83.043 C 52.282 83.043 52.382 83.043 52.482 83.043 C 52.482 83.043 52.582 83.043 52.582 83.043 C 52.682 83.043 52.682 83.043 52.782 83.043 C 52.782 83.043 52.882 83.043 52.882 83.043 C 52.882 83.043 52.982 83.043 52.982 83.043 C 53.282 83.143 53.682 83.343 53.982 83.643 L 54.082 83.743 C 54.782 84.443 55.282 85.543 55.282 86.843 C 55.282 86.643 55.282 88.843 55.282 88.843 Z " fill="rgb(255,255,255)"/><path d=" M 57.764 70.499 C 57.764 73.799 56.564 78.899 54.164 82.399 C 54.164 82.399 54.164 82.399 54.064 82.399 C 53.964 82.299 53.864 82.299 53.664 82.199 C 53.564 82.199 53.564 82.099 53.464 82.099 C 53.364 82.099 53.264 81.999 53.164 81.999 C 53.064 81.999 53.064 81.999 52.964 81.899 C 52.864 81.899 52.764 81.799 52.664 81.799 C 52.564 81.799 52.564 81.799 52.464 81.799 C 52.264 81.799 52.164 81.799 51.964 81.799 L 24.464 81.799 C 24.364 81.799 24.164 81.799 24.064 81.799 C 24.064 81.799 23.964 81.799 23.964 81.799 C 23.864 81.799 23.764 81.799 23.664 81.899 C 23.664 81.899 23.564 81.899 23.564 81.899 C 23.464 81.899 23.364 81.999 23.264 81.999 C 23.264 81.999 23.264 81.999 23.264 81.999 C 23.264 81.999 23.264 81.999 23.264 81.999 C 14.564 73.899 1.764 56.799 1.664 56.699 C 0.264 54.599 -0.836 51.599 0.864 49.999 C 1.664 49.199 2.664 48.799 3.664 48.799 C 4.764 48.799 5.764 49.199 6.464 49.999 L 8.064 51.599 L 8.064 51.599 L 16.364 59.899 C 17.064 60.499 17.864 60.899 18.764 60.899 C 19.264 60.899 19.664 60.799 20.064 60.599 C 21.364 60.099 22.164 58.799 22.164 57.399 L 22.164 26.499 L 22.164 19.499 L 22.164 13.499 C 22.164 11.299 23.964 9.499 26.164 9.499 C 28.364 9.499 30.164 11.299 30.164 13.499 L 30.164 18.999 L 30.164 26.299 L 30.164 38.899 L 30.164 42.699 L 31.364 42.699 L 31.364 38.899 C 31.364 36.699 33.164 34.899 35.364 34.899 C 37.564 34.899 39.364 36.699 39.364 38.899 L 39.364 42.999 L 39.364 45.799 L 40.564 45.799 L 40.564 42.999 C 40.564 40.799 42.364 38.999 44.564 38.999 C 46.764 38.999 48.564 40.799 48.564 42.999 L 48.564 47.099 L 48.564 49.699 L 49.764 49.699 L 49.764 47.099 C 49.764 44.899 51.564 43.099 53.764 43.099 C 55.964 43.099 57.764 44.899 57.764 47.099 L 57.764 70.499 L 57.764 70.499 Z " fill="rgb(255,255,255)"/></g></g></svg>