<?xml version="1.0" encoding="UTF-8" standalone="no"?><!-- Generator: Gravit.io --><svg xmlns="http://www.w3.org/2000/svg" xmlns:xlink="http://www.w3.org/1999/xlink" style="isolation:isolate" viewBox="0 0 522 1064.2" width="522pt" height="1064.2pt"><defs><clipPath id="_clipPath_xrm79hXEWLVxjuth3JWWbnoSID2VYbFs"><rect width="522" height="1064.2"/></clipPath></defs><g clip-path="url(#_clipPath_xrm79hXEWLVxjuth3JWWbnoSID2VYbFs)"><clipPath id="_clipPath_anppJq4Lb6WSu2HjC9INlGqz9qFoBSTw"><rect x="0" y="0" width="522.04" height="1064.2" transform="matrix(1,0,0,1,0,0)" fill="rgb(255,255,255)"/></clipPath><g clip-path="url(#_clipPath_anppJq4Lb6WSu2HjC9INlGqz9qFoBSTw)"><g><g><path d=" M 511.49 375.997 C 493.889 399.297 460.779 403.998 437.378 386.527 L 348.227 319.586 C 324.846 302.036 320.126 268.845 337.676 245.465 C 355.227 222.084 388.417 217.364 411.798 234.914 L 411.798 234.914 L 500.949 301.866 C 524.24 319.476 528.95 352.587 511.48 375.987" fill="rgb(125,88,66)"/><path d=" M 511.49 512.33 C 493.889 535.63 460.779 540.33 437.378 522.86 L 348.227 455.899 C 325.096 438.018 320.836 404.778 338.716 381.647 C 356.247 358.967 388.647 354.367 411.798 371.267 L 500.949 438.218 C 524.24 455.829 528.95 488.939 511.48 512.34" fill="rgb(125,88,66)"/><path d=" M 511.49 648.672 C 493.889 671.973 460.779 676.673 437.378 659.202 L 348.227 592.241 C 324.746 574.831 319.826 541.68 337.236 518.2 C 354.647 494.719 387.797 489.799 411.278 507.21 C 411.448 507.34 411.628 507.47 411.798 507.6 L 500.949 574.551 C 524.24 592.161 528.95 625.272 511.48 648.672" fill="rgb(125,88,66)"/><path d=" M 416.838 609.371 L 416.838 670.243 C 416.838 731.534 359.157 814.175 265.705 814.175 L 273.325 1064.2 C 200.704 1053.64 76.291 1037.399 -0.01 1026.149 L -0.01 609.371 L 416.828 609.371 L 416.838 609.371 Z " fill="rgb(167,107,70)"/><path d=" M 245.305 772.184 C 172.073 849.596 15.16 820.305 15.16 820.305 L 125.612 655.822 L 416.848 655.822 L 416.848 673.463 C 416.848 705.463 401.078 743.324 372.707 772.174 L 245.305 772.174 L 245.305 772.184 Z " fill="rgb(125,88,66)"/><path d=" M 416.978 0 L 129.742 0 C 102.452 0.1 80.342 22.2 80.252 49.491 L 80.252 660.172 C 80.331 687.483 102.442 709.603 129.742 709.693 L 416.978 709.693 C 444.278 709.603 466.369 687.473 466.409 660.172 L 466.409 49.491 C 466.349 22.2 444.258 0.09 416.978 0 Z " fill="rgb(32,32,32)"/><rect x="114.252" y="110.122" width="318.146" height="489.439" transform="matrix(1,0,0,1,0,0)" fill="rgb(255,255,255)"/><path d=" M 285.785 53.621 C 285.775 60.491 280.195 66.051 273.325 66.041 C 266.455 66.031 260.895 60.451 260.905 53.581 C 260.915 46.721 266.475 41.161 273.335 41.161 C 280.205 41.161 285.785 46.721 285.785 53.591 C 285.785 53.601 285.785 53.611 285.785 53.621 Z " fill="rgb(69,68,68)"/><path d=" M 242.735 671.683 C 235.234 671.673 229.164 665.583 229.184 658.082 L 229.184 658.082 L 229.184 654.022 C 229.174 646.532 235.234 640.452 242.725 640.442 L 303.966 640.442 C 311.466 640.442 317.536 646.522 317.546 654.022 L 317.546 658.082 C 317.546 665.583 311.466 671.663 303.966 671.683 L 242.745 671.683 L 242.735 671.683 Z " fill="rgb(69,68,68)"/><path d=" M 145.358 490.175 C 157.438 471.425 178.5 459.009 202.464 459.009 L 351.727 459.009 L 351.727 490.339 C 351.727 537.75 313.296 576.171 265.885 576.171 L 224.364 576.171 L 224.364 670.233 C 224.364 829.546 50.731 814.175 0.01 814.175 L 0.01 416.758 C 0.01 416.758 1.87 263.325 80.442 243.805 L 80.442 243.805 L 80.442 576.171 L 145.358 490.175 Z " fill="rgb(167,107,70)"/><path d=" M 274.475 381.247 C 274.425 381.187 274.345 381.167 274.265 381.187 C 274.175 381.187 274.095 381.207 274.025 381.247 C 273.925 381.397 273.875 381.567 273.875 381.747 L 272.195 397.917 C 272.155 398.098 272.195 398.278 272.315 398.417 C 272.435 398.578 272.545 398.588 272.645 398.477 C 273.635 392.777 274.255 387.017 274.485 381.237 M 328.926 394.287 C 329.026 394.397 329.136 394.517 329.256 394.637 C 329.486 394.857 329.816 394.947 330.126 394.867 C 329.696 394.727 329.296 394.527 328.926 394.277 M 338.636 395.667 C 338.636 395.667 338.656 395.707 338.656 395.727 C 338.786 395.487 338.956 395.277 339.156 395.107 C 338.496 394.307 337.656 393.667 336.716 393.237 L 338.626 395.667 M 255.555 321.866 C 255.655 321.726 255.745 321.576 255.825 321.426 C 255.715 321.446 255.605 321.456 255.495 321.456 C 254.955 321.516 254.495 321.556 254.055 321.566 C 254.105 321.846 254.185 322.116 254.295 322.366 C 254.785 322.506 255.305 322.306 255.555 321.866 M 258.235 308.306 C 258.395 308.326 258.545 308.286 258.685 308.216 C 258.825 308.096 258.875 307.986 258.835 307.896 C 258.655 308.056 258.455 308.196 258.235 308.306 M 231.704 266.065 C 231.564 265.575 231.224 265.165 230.774 264.935 C 229.994 264.505 228.844 264.765 227.344 265.705 L 218.914 271.235 C 218.304 271.605 217.754 272.065 217.294 272.595 C 217.014 273.045 216.794 273.385 216.634 273.595 C 216.274 273.945 215.964 274.345 215.734 274.785 C 215.474 275.305 215.514 275.935 215.824 276.415 C 216.084 276.925 216.574 277.275 217.144 277.335 C 216.984 277.475 216.714 277.685 216.334 277.955 C 216.064 278.155 215.794 278.375 215.554 278.605 C 215.294 278.845 215.104 279.135 214.984 279.465 C 214.874 279.795 214.904 280.155 215.074 280.465 C 215.354 280.965 215.914 281.245 216.484 281.145 C 217.054 281.045 217.604 280.855 218.114 280.575 C 221.184 278.855 224.004 276.725 226.514 274.245 C 227.374 273.355 228.594 271.975 230.184 270.115 C 230.644 269.565 230.954 269.165 231.114 268.925 C 231.384 268.495 231.594 268.035 231.744 267.565 C 231.884 267.075 231.874 266.555 231.714 266.065 M 199.014 222.954 C 198.784 222.944 198.554 222.984 198.354 223.074 C 198.144 223.124 197.974 223.284 197.904 223.484 C 197.904 223.664 197.984 223.834 198.104 223.954 C 198.224 224.104 198.384 224.234 198.554 224.304 C 199.294 224.654 200.084 224.874 200.894 224.954 C 201.354 225.014 202.004 225.054 202.844 225.074 C 202.784 225.234 202.754 225.404 202.754 225.574 C 202.734 225.574 202.714 225.574 202.694 225.604 C 202.434 225.624 202.164 225.664 201.914 225.724 C 201.584 225.844 201.404 225.984 201.374 226.164 L 201.374 226.274 C 201.374 226.274 201.304 226.324 201.284 226.364 C 201.064 226.664 200.924 227.004 200.864 227.364 C 200.024 227.334 199.514 227.534 199.364 227.984 C 199.244 228.324 199.344 228.694 199.604 228.934 C 199.854 229.214 200.174 229.414 200.534 229.494 C 200.574 229.494 200.924 229.574 201.584 229.674 C 201.934 229.724 202.274 229.844 202.584 230.024 C 202.554 230.274 202.614 230.534 202.764 230.734 C 202.894 230.924 203.064 231.084 203.264 231.204 C 203.194 231.234 203.124 231.264 203.054 231.294 C 202.794 231.404 202.604 231.644 202.554 231.914 C 202.504 232.274 202.714 232.614 203.054 232.744 C 203.404 232.914 203.784 233.004 204.164 233.004 C 206.874 233.064 209.574 232.844 212.234 232.354 C 217.404 231.564 222.504 230.384 227.504 228.824 C 227.274 228.684 227.004 228.604 226.734 228.604 C 226.494 228.604 226.254 228.634 226.014 228.664 C 225.014 228.774 224.014 228.884 223.064 228.984 C 223.164 228.794 223.164 228.574 223.064 228.394 C 222.924 228.354 221.844 227.964 219.844 227.214 C 220.784 226.714 221.344 226.444 221.474 226.384 C 221.464 226.054 221.344 225.744 221.144 225.494 C 220.954 225.254 220.704 225.074 220.424 224.964 C 220.134 224.784 219.824 224.664 219.494 224.604 C 219.454 224.604 219.414 224.604 219.374 224.574 C 219.744 224.394 220.014 224.054 220.094 223.654 C 219.924 223.384 219.654 223.194 219.344 223.124 C 219.024 223.054 218.704 223.024 218.384 223.034 L 199.024 222.884 M 224.794 178.983 C 224.404 178.923 224.014 178.913 223.624 178.953 C 223.234 178.983 222.854 179.123 222.544 179.363 C 222.244 179.573 222.034 179.893 221.974 180.253 C 221.844 180.603 221.914 181.003 222.154 181.293 C 222.404 181.593 222.764 181.793 223.154 181.853 C 223.794 182.053 224.194 182.183 224.354 182.243 C 224.434 182.313 224.504 182.393 224.564 182.473 C 224.124 182.343 223.484 182.163 222.644 181.943 L 221.924 181.763 C 221.694 181.743 221.464 181.743 221.234 181.763 C 221.134 181.783 221.044 181.823 220.964 181.883 L 220.934 181.883 C 220.824 181.693 220.684 181.523 220.514 181.383 C 220.304 181.233 220.054 181.153 219.794 181.143 C 219.524 181.123 219.254 181.143 218.984 181.173 C 218.634 181.213 218.294 181.313 217.984 181.473 C 217.654 181.573 217.404 181.833 217.324 182.153 C 217.274 182.453 217.344 182.773 217.534 183.013 C 217.734 183.273 217.964 183.503 218.224 183.693 C 218.584 183.993 218.954 184.283 219.334 184.583 C 219.084 184.593 218.844 184.733 218.704 184.933 C 218.584 185.143 218.574 185.403 218.674 185.613 C 218.774 185.854 218.954 186.053 219.174 186.173 C 219.394 186.303 219.644 186.384 219.894 186.414 C 220.134 186.463 220.374 186.493 220.614 186.504 C 221.434 186.654 222.224 186.893 222.984 187.214 C 223.174 187.284 223.354 187.364 223.524 187.454 C 224.684 188.184 225.874 188.884 227.074 189.564 C 228.434 190.334 229.864 190.964 231.344 191.434 C 232.344 191.754 233.394 191.924 234.444 191.934 C 235.104 192.134 235.784 192.324 236.494 192.494 C 236.834 192.584 237.194 192.624 237.544 192.614 C 237.724 192.614 237.894 192.544 238.044 192.434 L 238.104 192.434 C 238.324 192.614 238.565 192.804 238.824 193.024 C 239.355 193.414 239.935 193.754 240.535 194.024 C 241.155 194.274 241.825 194.384 242.485 194.324 C 243.135 194.304 243.755 194.054 244.235 193.614 C 244.005 192.984 243.595 192.434 243.065 192.044 C 242.545 191.624 241.925 191.364 241.265 191.304 C 241.495 190.084 241.165 188.834 240.365 187.884 C 240.014 187.574 239.584 187.354 239.134 187.234 L 237.774 186.934 C 236.544 186.583 235.384 185.993 234.374 185.213 C 233.794 184.773 232.794 183.933 231.374 182.683 C 230.414 181.813 229.394 181.013 228.304 180.313 C 227.254 179.613 226.054 179.143 224.804 178.953 M 343.626 276.315 C 343.126 276.075 342.586 275.955 342.036 275.965 C 334.146 275.705 325.296 275.675 315.476 275.875 C 309.256 275.995 300.406 276.285 288.915 276.765 C 276.715 277.265 267.865 277.565 262.355 277.685 C 252.475 277.945 243.625 277.975 235.794 277.775 C 235.414 277.775 235.134 277.775 234.954 277.805 C 234.684 277.875 234.434 278.005 234.234 278.195 C 234.054 278.365 233.954 278.605 233.934 278.845 C 233.934 279.105 233.984 279.355 234.084 279.585 C 234.404 280.285 235.024 280.815 235.764 281.005 L 235.944 281.065 L 235.884 281.175 C 235.864 281.455 235.864 281.725 235.884 282.005 L 235.884 282.095 C 235.824 281.995 235.724 281.905 235.614 281.865 C 235.474 281.735 235.254 281.735 235.114 281.865 C 234.984 281.925 234.894 282.045 234.874 282.185 C 234.824 282.325 234.804 282.475 234.814 282.625 C 234.814 282.645 234.814 282.665 234.844 282.685 C 234.824 282.705 234.804 282.715 234.784 282.715 C 234.654 282.825 234.574 282.965 234.544 283.125 C 234.524 283.255 234.524 283.385 234.544 283.515 L 234.144 283.515 C 234.184 282.725 234.204 282.015 234.204 281.465 C 234.264 281.025 234.134 280.585 233.844 280.245 C 233.614 280.085 233.324 280.045 233.064 280.125 C 232.774 280.185 232.514 280.365 232.374 280.625 C 232.234 280.875 232.134 281.145 232.074 281.425 L 231.624 281.255 L 231.624 281.405 C 231.514 281.405 231.404 281.425 231.294 281.465 C 231.284 281.145 231.244 280.825 231.174 280.515 C 231.144 280.355 231.054 280.205 230.934 280.105 C 230.734 279.935 230.474 279.865 230.214 279.925 C 229.954 279.985 229.704 280.065 229.464 280.165 C 229.294 279.905 229.214 279.585 229.264 279.275 C 229.284 278.975 229.194 278.685 229.024 278.445 C 228.854 278.325 228.634 278.305 228.454 278.385 C 228.244 278.425 228.064 278.535 227.954 278.715 C 227.834 278.865 227.744 279.055 227.714 279.245 C 227.714 279.385 227.674 279.585 227.654 279.835 C 227.564 279.655 227.394 279.525 227.204 279.485 C 226.994 279.425 226.774 279.445 226.574 279.545 C 226.514 279.565 226.334 279.655 226.034 279.815 C 225.854 279.935 225.644 280.015 225.434 280.045 L 224.934 280.045 C 224.774 280.045 224.624 280.115 224.514 280.225 C 224.374 280.415 224.314 280.645 224.334 280.875 C 224.274 285.415 224.244 288.335 224.244 289.645 C 224.244 292.936 224.294 295.856 224.394 298.416 C 224.394 298.536 224.394 298.716 224.424 298.946 L 224.424 304.086 C 224.364 304.266 224.304 304.446 224.244 304.616 L 224.244 328.936 C 224.304 329.096 224.364 329.266 224.424 329.436 L 224.424 339.696 C 224.484 339.896 224.534 340.086 224.604 340.256 L 224.604 346.207 C 224.664 346.377 224.714 346.557 224.784 346.737 L 224.784 350.507 L 225.324 350.507 L 225.324 351.787 C 225.384 351.957 225.444 352.127 225.504 352.287 L 225.504 353.917 C 225.564 354.097 225.624 354.277 225.684 354.447 L 226.764 354.627 L 226.944 354.277 C 227.004 354.097 227.064 353.917 227.124 353.747 C 227.184 353.577 227.124 353.387 227.124 353.187 L 227.124 352.117 C 227.124 351.917 227.244 351.767 227.304 351.587 C 227.364 351.407 227.304 351.247 227.304 351.057 L 227.304 345.656 C 227.304 345.577 227.304 345.496 227.304 345.426 L 227.484 345.306 L 227.844 344.776 C 227.904 344.616 227.954 344.446 228.024 344.246 C 228.094 344.046 228.134 343.896 228.174 343.716 L 228.174 343.166 L 228.384 342.956 L 228.384 342.456 C 228.444 342.286 228.504 342.096 228.564 341.896 L 228.564 339.726 C 228.624 339.566 228.684 339.396 228.744 339.226 L 228.744 323.016 L 228.804 323.316 C 228.844 323.526 228.884 323.706 228.924 323.846 L 228.924 333.066 C 228.984 333.226 229.044 333.396 229.104 333.596 L 229.104 339.006 C 229.164 339.166 229.224 339.336 229.284 339.506 L 229.284 342.206 C 229.224 342.386 229.164 342.566 229.104 342.766 C 229.164 342.946 229.224 343.126 229.284 343.296 L 229.464 343.296 L 229.464 359.107 C 229.524 359.287 229.584 359.467 229.644 359.667 C 229.704 359.867 229.764 360.017 229.824 360.197 L 230.724 360.017 C 230.784 359.847 230.834 359.667 230.904 359.487 L 230.904 358.927 C 230.964 358.747 231.014 358.587 231.084 358.427 L 231.084 324.856 C 231.284 324.776 231.474 324.656 231.624 324.506 C 232.234 323.856 232.534 322.986 232.464 322.096 L 232.964 322.096 C 233.024 321.966 233.074 321.836 233.114 321.716 C 233.154 321.576 233.204 321.446 233.264 321.326 L 233.264 320.916 C 233.284 320.786 233.324 320.646 233.374 320.526 L 233.374 319.336 L 233.494 318.926 L 233.494 318.836 C 233.494 318.836 233.504 318.786 233.524 318.776 C 233.564 318.716 233.594 318.656 233.614 318.596 L 233.614 335.216 C 233.674 335.416 233.724 335.606 233.794 335.786 L 233.794 339.026 C 233.854 339.186 233.904 339.356 233.944 339.526 C 234.024 339.706 234.084 339.906 234.124 340.096 L 234.874 340.096 C 234.934 339.906 234.984 339.716 235.024 339.526 C 235.144 339.346 235.274 339.186 235.414 339.026 L 235.414 335.786 C 235.474 335.606 235.534 335.416 235.594 335.216 L 235.594 329.866 C 235.594 329.866 235.594 329.796 235.624 329.776 C 235.664 329.666 235.704 329.526 235.744 329.386 L 235.744 325.436 L 235.624 325.016 L 235.624 319.566 C 235.914 318.666 236.144 317.756 236.314 316.836 C 236.274 317.246 236.234 317.686 236.194 318.146 C 236.064 319.816 236.134 321.496 236.404 323.146 L 236.464 323.146 L 236.464 325.516 C 236.544 325.676 236.614 325.846 236.674 326.016 L 236.674 327.116 C 236.794 327.476 236.914 327.836 237.034 328.186 L 237.724 328.186 C 237.864 328.006 237.994 327.836 238.114 327.656 C 238.154 327.476 238.214 327.296 238.294 327.126 L 238.294 326.026 C 238.354 325.866 238.404 325.696 238.444 325.526 L 238.444 320.476 C 238.464 320.546 238.495 320.616 238.534 320.676 L 238.805 321.066 C 239.014 320.996 239.224 320.946 239.435 320.916 C 239.534 320.796 239.625 320.666 239.704 320.526 C 239.764 320.396 239.815 320.256 239.855 320.116 L 239.855 319.346 C 239.884 319.206 239.925 319.076 239.964 318.936 L 239.964 317.776 C 240.005 317.916 240.045 318.036 240.084 318.166 L 240.625 318.166 C 240.685 318.046 240.725 317.916 240.745 317.776 C 240.805 317.616 240.855 317.476 240.895 317.366 C 240.935 317.256 240.975 317.096 241.015 316.976 C 241.065 316.846 241.105 316.716 241.135 316.586 L 241.135 315.396 C 241.195 315.256 241.245 315.126 241.285 314.986 L 241.285 300.686 C 241.245 300.566 241.195 300.446 241.135 300.336 L 241.135 293.596 L 261.305 293.706 L 282.115 293.826 L 299.006 293.826 L 299.006 293.976 L 293.116 293.976 L 293.116 294.086 L 291.825 294.086 C 291.645 294.166 291.465 294.256 291.285 294.346 C 291.205 294.486 291.115 294.616 291.015 294.736 L 291.015 295.146 C 291.155 295.286 291.285 295.426 291.405 295.566 L 284.005 295.566 C 284.005 294.636 283.785 294.066 283.285 293.896 C 282.765 293.846 282.245 294.026 281.875 294.396 L 280.405 295.556 L 242.765 295.556 L 242.765 295.636 L 242.405 295.636 L 242.105 295.786 C 242.025 295.886 241.935 295.976 241.835 296.056 L 241.835 296.856 C 241.975 296.976 242.105 297.106 242.225 297.236 C 254.195 297.256 266.155 297.286 278.125 297.326 L 276.765 298.326 C 275.595 299.206 274.505 300.196 273.515 301.266 C 272.525 302.296 271.855 303.596 271.615 305.006 L 271.615 305.686 C 271.535 305.796 271.455 305.936 271.375 306.076 C 270.045 308.456 269.335 309.676 269.265 309.756 C 269.195 309.876 269.105 310.006 269.025 310.146 C 267.955 310.396 266.955 310.916 266.135 311.646 C 264.695 312.976 263.455 314.506 262.465 316.196 C 261.345 317.996 258.555 322.546 254.095 329.836 L 253.825 330.226 C 253.605 330.576 253.325 331.056 252.985 331.656 C 251.465 334.106 249.765 336.866 247.905 339.916 C 245.495 343.066 243.255 346.086 241.195 348.957 C 240.585 349.757 240.194 350.697 240.084 351.697 C 240.045 351.957 240.055 352.217 240.115 352.467 C 233.194 362.437 226.234 372.967 219.244 384.037 C 217.314 387.107 215.354 390.287 213.344 393.577 C 212.944 394.207 212.534 394.837 212.114 395.477 C 210.984 397.197 209.844 398.987 208.684 400.828 C 207.014 403.408 205.004 406.578 202.634 410.328 L 203.744 410.328 C 203.424 410.718 203.034 411.058 202.604 411.328 C 201.634 411.998 201.154 412.328 201.154 412.328 C 200.454 412.948 199.834 413.658 199.324 414.438 C 198.814 415.228 198.254 415.988 197.644 416.698 C 197.394 416.918 197.154 417.158 196.924 417.408 C 196.684 417.658 196.524 417.968 196.474 418.298 C 196.364 418.778 196.524 419.278 196.894 419.608 C 197.244 419.968 197.754 420.118 198.244 420.018 C 198.244 420.058 197.974 420.458 197.494 421.238 C 197.214 421.578 197.084 422.018 197.134 422.458 C 197.214 422.738 197.394 422.978 197.634 423.138 C 197.884 423.298 198.184 423.388 198.474 423.378 C 199.044 423.368 199.604 423.158 200.034 422.788 C 200.744 422.128 201.364 421.398 201.894 420.588 C 202.424 419.798 203.084 419.088 203.834 418.508 C 204.344 418.898 204.974 419.078 205.604 419.008 L 208.944 415.118 C 209.234 414.678 209.664 414.348 210.154 414.168 C 210.514 414.028 210.904 413.968 211.294 413.988 C 212.064 413.718 212.744 413.228 213.244 412.588 C 213.804 411.958 214.424 411.208 215.104 410.328 L 215.194 410.328 C 214.954 410.858 214.754 411.358 214.594 411.828 C 214.084 413.228 213.814 414.708 213.814 416.198 C 213.774 416.698 213.964 417.188 214.314 417.538 C 214.704 417.778 215.204 417.728 215.544 417.418 C 215.844 417.208 216.084 416.918 216.234 416.588 L 217.074 416.698 C 217.664 415.628 218.354 414.618 219.124 413.668 C 219.904 412.738 220.604 411.728 221.204 410.668 C 221.414 410.258 221.594 409.828 221.744 409.398 L 222.164 409.458 L 224.214 406.518 C 223.854 406.238 223.814 405.688 224.104 404.848 C 224.264 404.438 224.424 404.018 224.604 403.608 C 225.224 402.898 225.844 402.158 226.464 401.408 C 226.484 401.508 226.534 401.598 226.614 401.668 C 226.664 401.758 226.724 401.838 226.794 401.908 C 226.414 402.798 226.054 403.668 225.714 404.518 C 225.524 404.988 225.404 405.478 225.354 405.968 C 223.814 408.468 222.544 410.588 221.564 412.328 C 221.084 412.908 220.934 413.688 221.144 414.408 C 221.254 414.708 221.474 414.958 221.774 415.088 C 221.664 415.428 221.624 415.798 221.654 416.158 C 221.724 416.708 221.994 417.208 222.404 417.558 C 222.774 417.938 223.314 418.068 223.814 417.908 C 224.424 417.688 224.894 417.208 225.104 416.598 C 225.564 415.668 225.854 414.658 225.944 413.628 L 225.404 413.948 C 225.884 413.438 226.314 412.888 226.694 412.318 C 228.384 409.878 229.944 407.448 231.394 405.038 C 231.394 405.068 231.424 405.098 231.454 405.118 C 231.094 405.788 230.784 406.488 230.524 407.198 C 230.154 408.078 230.014 409.038 230.104 409.988 L 231.514 409.928 L 232.834 407.258 C 233.044 407.388 233.264 407.488 233.494 407.558 C 233.984 407.728 234.534 407.558 234.844 407.148 C 235.084 406.828 235.114 406.398 234.904 406.048 C 234.754 405.668 234.384 405.418 233.974 405.428 C 234.074 405.118 234.184 404.798 234.304 404.478 C 234.414 404.338 234.504 404.188 234.574 404.038 C 234.554 403.988 234.534 403.938 234.514 403.888 C 234.534 403.788 234.564 403.688 234.604 403.598 C 235.344 402.048 236.094 400.498 236.834 398.927 C 236.774 399.227 236.734 399.537 236.714 399.848 C 237.684 399.848 238.534 399.008 239.274 397.327 C 240.175 395.327 241.095 393.327 242.015 391.327 C 241.735 392.017 241.435 392.697 241.115 393.377 C 240.985 393.577 240.935 393.817 240.965 394.057 C 241.025 394.257 241.185 394.407 241.385 394.447 C 241.595 394.507 241.835 394.477 242.015 394.357 C 242.195 394.267 242.345 394.137 242.465 393.977 C 242.305 394.247 242.155 394.527 242.015 394.807 C 241.125 396.467 240.315 398.177 239.605 399.917 C 238.925 401.638 238.594 403.478 238.644 405.328 L 240.295 405.498 C 240.465 403.828 240.875 402.198 241.525 400.658 C 241.905 399.708 242.635 398.158 243.715 396.027 C 246.105 391.307 248.515 386.057 250.945 380.267 C 250.565 381.237 250.225 382.187 249.945 383.117 C 249.665 383.917 249.525 384.767 249.525 385.617 C 249.495 386.427 249.865 387.197 250.525 387.667 C 250.975 386.797 251.355 385.887 251.665 384.967 C 252.715 382.237 254.035 379.037 255.635 375.367 C 254.155 380.287 252.655 385.117 251.135 389.867 C 248.855 394.077 246.295 398.137 243.475 402.008 C 243.145 402.438 242.915 402.928 242.815 403.458 C 242.695 404.048 242.845 404.458 243.265 404.638 C 243.885 404.958 244.545 404.598 245.265 403.568 C 246.285 402.078 247.305 400.518 248.305 398.898 C 248.145 399.388 248.015 399.888 247.915 400.398 C 247.735 401.128 247.705 401.888 247.805 402.628 L 248.915 402.868 C 250.585 398.088 252.045 393.867 253.305 390.197 C 255.335 386.427 257.315 382.407 259.265 378.127 C 260.245 376.007 261.355 373.507 262.575 370.627 L 261.615 374.197 C 259.645 381.397 257.995 387.887 256.655 393.697 C 256.195 394.867 256.285 396.177 256.895 397.267 C 257.485 396.307 257.985 395.287 258.365 394.237 C 258.645 393.467 258.975 392.377 259.365 390.967 L 261.435 383.567 C 261.325 384.237 261.235 384.847 261.165 385.407 L 261.465 385.427 C 261.465 385.727 261.425 386.027 261.405 386.347 C 261.545 386.077 261.695 385.797 261.855 385.517 L 262.035 385.537 C 262.155 385.167 262.265 384.807 262.365 384.467 C 263.045 382.917 263.655 381.327 264.175 379.707 C 264.715 377.987 265.325 375.667 266.005 372.757 C 266.405 370.997 267.015 368.207 267.845 364.407 C 269.685 357.527 271.525 350.667 273.345 343.806 L 276.175 336.556 C 276.175 336.726 276.135 336.906 276.115 337.086 L 263.775 386.787 C 263.325 388.747 262.725 390.677 262.005 392.557 C 261.735 393.137 261.515 393.727 261.345 394.337 C 261.155 394.917 261.195 395.547 261.455 396.087 C 262.515 394.977 263.365 393.667 263.955 392.247 C 264.535 390.827 265.015 389.367 265.395 387.877 C 265.815 386.257 266.695 382.777 268.015 377.447 C 268.515 375.407 269.015 373.347 269.515 371.267 C 270.415 367.937 271.235 364.907 271.955 362.177 C 272.255 361.047 272.545 359.927 272.825 358.817 C 272.505 360.777 272.255 362.277 272.075 363.317 C 271.375 367.117 270.225 372.807 268.615 380.377 C 267.435 386.057 266.725 391.827 266.505 397.617 C 267.085 397.717 267.425 397.767 267.505 397.767 C 268.075 395.697 268.475 393.577 268.675 391.437 C 268.955 388.557 269.185 386.397 269.365 384.937 C 269.585 383.187 269.935 381.167 270.415 378.877 C 270.535 378.337 270.985 376.327 271.765 372.847 C 271.785 372.697 271.815 372.547 271.855 372.407 C 271.755 373.317 271.655 374.257 271.555 375.227 C 271.045 379.647 270.715 383.047 270.555 385.427 C 270.295 388.827 270.265 392.247 270.445 395.657 L 272.005 395.827 C 273.845 375.517 275.955 355.207 278.325 334.886 C 278.625 333.456 278.865 332.396 279.045 331.686 C 279.375 330.276 279.725 328.946 280.095 327.686 L 279.975 332.136 C 279.715 335.406 279.465 338.766 279.225 342.216 C 279.185 342.516 279.145 342.806 279.115 343.106 L 277.615 356.157 C 277.415 357.027 277.545 357.937 277.975 358.707 L 279.355 358.587 C 279.115 368.797 279.015 376.947 279.055 383.057 L 280.775 383.057 C 281.175 369.857 281.405 356.577 281.465 343.216 C 281.545 342.666 281.615 342.116 281.675 341.586 C 281.755 343.106 281.855 344.656 281.975 346.217 C 282.435 352.577 283.235 360.497 284.385 369.967 C 284.965 375.277 285.825 382.117 286.945 390.467 C 287.145 390.087 287.265 389.677 287.305 389.247 C 287.305 389.007 287.335 388.577 287.335 387.937 C 287.135 382.027 286.355 371.697 284.995 356.937 C 285.095 357.667 285.195 358.407 285.325 359.167 C 285.945 363.117 286.855 368.607 288.035 375.637 L 288.155 375.667 L 288.215 376.197 L 289.085 376.017 L 289.085 375.787 L 289.195 375.787 C 289.355 374.667 289.315 373.537 289.085 372.427 C 289.065 372.167 289.025 371.907 288.965 371.657 C 288.845 368.527 288.665 365.237 288.425 361.787 C 288.545 362.557 288.675 363.337 288.815 364.137 L 292.316 383.997 C 292.525 383.527 292.595 383.007 292.525 382.497 C 292.296 376.627 291.675 370.787 290.685 364.997 C 289.505 358.457 288.565 353.297 287.885 349.537 C 287.705 346.207 287.455 341.816 287.135 336.366 L 286.935 333.156 L 288.345 337.916 C 288.675 341.126 288.915 343.246 289.065 344.276 C 289.825 349.867 291.215 357.487 293.216 367.137 L 297.286 387.137 C 297.386 387.247 297.486 387.237 297.586 387.077 C 297.716 386.947 297.776 386.757 297.736 386.577 C 296.766 378.177 295.856 371.807 294.996 367.467 C 294.696 366.017 294.156 363.587 293.376 360.157 C 292.595 356.377 291.845 352.137 291.145 347.437 C 294.946 360.177 297.946 369.857 300.146 376.477 C 300.286 376.597 300.466 376.637 300.646 376.587 C 300.826 376.537 300.966 376.407 301.036 376.237 C 301.096 375.877 301.086 375.517 301.006 375.167 C 299.056 368.307 296.366 358.697 292.936 346.327 C 295.786 354.727 298.816 363.277 302.026 371.987 C 302.356 371.747 302.396 371.247 302.146 370.487 C 300.036 363.117 296.736 352.487 292.236 338.586 C 292.285 338.686 292.325 338.786 292.355 338.886 L 294.356 343.076 C 294.776 344.076 295.206 345.106 295.646 346.137 C 302.176 361.717 307.646 374.007 312.066 383.007 C 312.226 383.377 312.496 383.677 312.846 383.867 C 313.226 384.087 313.506 384.047 313.686 383.757 L 302.066 356.707 C 302.246 356.707 302.426 356.647 302.566 356.537 C 302.846 356.317 302.896 355.967 302.716 355.467 C 303.136 356.007 303.536 356.537 303.916 357.067 C 305.746 360.697 306.876 362.997 307.316 363.967 L 308.396 366.427 C 308.836 367.427 309.216 368.267 309.536 368.927 C 310.376 370.557 311.386 372.347 312.576 374.307 L 323.086 392.007 C 323.276 391.557 323.216 391.037 322.936 390.647 C 322.316 389.387 321.616 388.177 320.826 387.027 C 319.706 385.257 318.976 384.077 318.656 383.487 C 318.156 382.617 317.406 381.137 316.406 379.057 C 315.486 377.157 314.716 375.697 314.116 374.687 C 313.856 374.247 313.366 373.487 312.646 372.397 C 312.736 372.247 312.786 372.077 312.796 371.897 C 312.856 371.447 312.786 370.997 312.596 370.587 C 312.036 369.367 311.486 368.127 310.936 366.907 L 318.406 377.457 C 319.456 378.927 320.326 380.147 321.026 381.117 C 321.146 380.837 321.376 380.617 321.656 380.497 C 321.976 380.377 322.316 380.347 322.656 380.407 C 318.146 373.177 312.646 364.537 306.156 354.487 C 305.876 353.987 305.606 353.457 305.346 352.947 C 304.926 352.097 304.406 351.047 303.786 349.797 C 303.856 349.857 303.916 349.927 303.966 349.997 C 304.066 350.157 304.156 350.327 304.236 350.497 C 304.266 350.497 304.296 350.487 304.326 350.467 C 306.396 353.697 308.396 356.727 310.326 359.557 C 310.666 360.057 311.076 360.507 311.536 360.897 C 312.396 362.187 313.036 363.127 313.456 363.717 C 313.696 364.157 314.036 364.527 314.456 364.787 C 314.746 364.997 315.106 365.077 315.456 364.987 L 316.176 365.987 C 316.496 366.417 316.826 366.877 317.176 367.357 L 318.376 368.987 C 319.996 371.227 321.656 373.467 323.336 375.707 C 323.296 375.257 323.276 374.807 323.276 374.367 C 323.276 374.307 323.276 374.267 323.306 374.257 L 322.736 373.637 C 322.296 373.137 321.876 372.637 321.476 372.187 C 321.776 372.267 322.086 372.257 322.376 372.167 C 321.496 370.667 320.506 369.227 319.426 367.857 L 317.566 365.357 C 318.656 366.647 319.746 367.927 320.846 369.197 C 322.636 371.277 323.876 372.757 324.576 373.647 C 325.806 375.157 326.916 376.757 327.886 378.437 C 328.196 379.027 328.566 379.587 328.996 380.097 C 329.366 380.577 329.896 380.907 330.496 381.017 C 330.556 380.917 330.606 380.807 330.646 380.697 C 331.246 381.587 331.836 382.457 332.416 383.307 C 332.716 383.707 333.056 384.087 333.416 384.437 C 333.756 384.767 334.216 384.927 334.676 384.877 C 332.616 380.987 330.246 377.267 327.576 373.757 C 327.666 373.177 327.556 372.577 327.276 372.067 C 327.036 371.597 326.756 371.147 326.436 370.737 C 327.336 371.867 328.296 373.027 329.296 374.237 L 335.136 381.237 L 336.136 381.027 C 335.946 380.477 335.716 379.937 335.446 379.427 L 335.476 379.447 C 336.326 380.497 337.226 381.497 338.186 382.447 C 338.606 382.847 339.256 383.417 340.136 384.167 C 341.166 385.087 342.136 386.057 343.056 387.077 C 343.556 387.627 344.226 388.497 345.127 389.667 C 345.807 390.537 346.557 391.367 347.357 392.127 C 347.837 392.587 348.417 392.937 349.037 393.167 C 349.377 393.307 349.727 393.387 350.087 393.397 C 350.427 393.447 350.767 393.537 351.087 393.667 C 351.487 393.927 351.827 394.267 352.087 394.667 C 352.267 394.917 352.537 395.327 352.897 395.887 C 353.337 396.467 353.837 396.997 354.397 397.457 C 355.277 398.227 355.837 398.727 356.057 398.958 C 356.807 399.857 357.497 400.808 358.107 401.808 C 358.697 402.808 359.397 403.728 360.207 404.548 C 360.427 404.748 361.017 405.208 361.977 405.948 C 362.587 406.368 363.137 406.878 363.607 407.448 C 364.147 408.128 364.487 408.938 364.607 409.798 C 364.647 409.968 364.667 410.148 364.667 410.328 L 366.227 410.328 C 361.347 404.098 357.477 399.158 354.607 395.487 C 351.817 391.957 349.957 389.587 349.037 388.377 C 339.416 376.007 331.006 364.767 323.806 354.637 C 323.526 354.247 323.256 353.837 322.996 353.417 C 322.556 352.807 322.126 352.177 321.696 351.547 C 319.936 348.987 318.226 346.527 316.576 344.146 C 315.286 342.266 314.046 340.426 312.846 338.616 C 312.266 337.766 311.706 336.916 311.166 336.066 C 305.126 326.826 299.666 317.876 294.786 309.196 C 296.486 312.866 298.326 316.546 300.286 320.256 C 299.286 318.826 298.326 317.446 297.396 316.096 C 294.306 311.266 291.365 306.546 288.575 301.946 C 288.135 301.246 287.585 300.626 286.945 300.106 C 287.005 299.996 287.055 299.876 287.095 299.756 C 287.285 299.136 287.205 298.476 286.895 297.916 C 286.735 297.696 286.555 297.496 286.355 297.326 L 306.626 297.386 C 308.936 297.326 311.236 297.276 313.516 297.236 C 313.696 297.176 313.876 297.136 314.056 297.126 C 314.096 297.076 314.136 297.026 314.176 296.976 C 314.226 296.886 314.276 296.796 314.326 296.716 L 314.326 296.326 C 314.266 296.196 314.216 296.066 314.176 295.936 L 313.846 295.786 L 327.426 295.786 L 327.426 296.586 C 327.386 296.706 327.346 296.836 327.306 296.976 L 327.306 304.106 C 327.266 304.236 327.216 304.366 327.156 304.496 L 327.156 319.526 C 327.216 319.686 327.266 319.826 327.306 319.936 L 327.306 321.126 L 327.426 321.536 C 327.526 321.656 327.616 321.786 327.696 321.926 L 328.626 321.926 C 328.686 321.996 328.756 322.096 328.836 322.226 L 328.836 338.956 C 328.886 339.126 328.946 339.296 329.016 339.456 C 329.056 339.646 329.106 339.836 329.166 340.026 C 329.246 340.196 329.306 340.376 329.346 340.556 L 330.246 340.386 C 330.306 340.206 330.356 340.036 330.426 339.856 C 330.506 339.686 330.566 339.506 330.606 339.326 L 330.606 338.766 C 330.686 338.606 330.746 338.436 330.786 338.266 L 330.786 323.206 C 330.956 323.206 331.126 323.186 331.286 323.146 C 331.346 323.026 331.386 322.896 331.396 322.756 C 331.456 322.596 331.506 322.456 331.546 322.346 C 331.586 322.236 331.626 322.076 331.666 321.956 L 331.666 313.996 C 331.796 313.976 331.926 313.946 332.056 313.906 L 332.056 322.226 C 332.116 322.346 332.176 322.486 332.206 322.616 C 332.246 322.756 332.286 322.876 332.316 323.006 C 332.416 323.136 332.506 323.276 332.586 323.416 L 333.126 323.306 L 333.126 333.766 C 333.186 333.946 333.236 334.116 333.306 334.296 L 333.306 335.926 C 333.366 336.106 333.436 336.286 333.516 336.456 C 333.556 336.616 333.606 336.796 333.666 336.986 L 334.386 336.986 C 334.466 336.896 334.536 336.796 334.596 336.686 L 334.596 339.146 C 334.636 339.316 334.686 339.486 334.746 339.646 L 334.746 340.206 C 334.806 340.386 334.866 340.556 334.926 340.736 L 335.646 340.846 L 335.646 341.256 C 335.706 341.436 335.776 341.606 335.846 341.786 L 335.846 343.976 C 335.886 344.156 335.936 344.336 335.996 344.506 C 336.056 344.676 336.106 344.866 336.176 345.066 L 336.896 345.066 C 336.956 344.866 337.016 344.676 337.076 344.506 C 337.136 344.336 337.196 344.156 337.256 343.976 C 337.316 343.796 337.376 343.626 337.436 343.446 L 337.436 341.816 C 337.496 341.636 337.556 341.466 337.616 341.286 L 337.616 340.576 C 337.676 340.756 337.736 340.926 337.796 341.106 C 337.976 341.216 338.156 341.356 338.336 341.496 C 338.516 341.356 338.696 341.226 338.876 341.106 L 338.876 352.457 C 338.936 352.617 338.986 352.797 339.056 352.987 L 339.056 355.157 C 339.176 355.327 339.296 355.497 339.416 355.657 C 339.786 355.617 340.146 355.557 340.506 355.477 C 340.566 355.307 340.626 355.127 340.686 354.947 L 340.686 352.807 C 340.746 352.607 340.806 352.417 340.866 352.247 L 340.866 349.487 L 341.046 349.377 C 341.106 349.177 341.156 348.987 341.226 348.817 C 341.296 348.647 341.336 348.477 341.406 348.317 L 341.406 318.166 C 341.696 318.186 341.986 318.226 342.276 318.286 C 342.626 317.206 342.746 316.056 342.636 314.926 C 342.496 313.416 342.426 312.276 342.436 311.506 C 342.436 310.746 342.496 309.996 342.586 309.246 C 342.746 308.246 342.846 307.516 342.886 307.016 C 342.986 306.206 343.056 305.286 343.096 304.256 L 343.096 301.506 C 343.096 299.406 343.096 297.446 343.066 295.646 L 343.306 295.586 C 343.566 295.546 343.836 295.516 344.116 295.506 C 344.186 295.446 344.266 295.396 344.356 295.356 C 344.396 295.276 344.446 295.186 344.507 295.086 L 344.627 294.676 C 344.486 294.556 344.356 294.426 344.236 294.286 C 343.916 294.186 343.606 294.096 343.306 294.026 C 343.226 294.026 343.146 294.026 343.066 293.996 C 343.026 290.465 342.996 287.625 342.976 285.465 C 342.976 285.315 342.976 285.165 342.946 285.025 C 342.926 284.875 342.876 284.735 342.796 284.615 C 342.636 284.485 342.456 284.395 342.256 284.355 L 341.626 284.155 C 341.276 283.955 341.006 283.645 340.876 283.265 C 340.736 282.875 340.706 282.455 340.786 282.045 C 340.866 281.625 340.976 281.225 341.116 280.825 C 341.246 280.425 341.336 280.015 341.386 279.605 C 341.426 279.335 341.406 279.065 341.326 278.805 C 341.306 278.745 341.276 278.685 341.236 278.635 L 342.006 278.635 C 342.516 278.665 343.026 278.585 343.506 278.405 C 343.926 278.245 344.226 277.855 344.256 277.405 C 344.276 276.915 343.966 276.465 343.506 276.305 M 338.566 279.965 L 338.566 281.215 C 337.996 280.985 337.396 280.825 336.796 280.715 C 336.816 280.645 336.826 280.575 336.826 280.515 L 337.186 280.455 C 337.656 280.325 338.126 280.155 338.566 279.955 M 329.836 277.995 C 329.396 277.995 328.936 277.965 328.456 277.965 C 327.976 277.965 327.486 278.015 326.806 278.055 C 325.416 278.075 323.766 278.075 321.866 278.085 C 305.586 278.065 293.366 278.045 285.215 278.025 C 301.996 277.565 319.426 277.385 337.486 277.465 C 335.216 277.745 332.666 277.915 329.836 277.995 M 335.336 282.185 C 335.256 282.525 335.196 282.875 335.156 283.225 C 334.866 283.085 334.536 283.095 334.256 283.255 C 333.946 283.385 333.696 283.615 333.536 283.905 C 333.456 284.095 333.386 284.295 333.326 284.495 L 332.996 284.495 L 332.996 281.995 L 335.346 282.175 M 331.796 283.095 L 331.796 284.135 L 331.526 284.285 C 331.466 284.365 331.416 284.445 331.376 284.525 C 330.416 284.525 329.426 284.575 328.376 284.615 L 328.376 284.285 C 328.286 284.025 328.136 283.785 327.926 283.605 C 327.426 283.305 326.856 283.155 326.276 283.165 L 312.776 282.095 C 319.106 281.585 325.466 281.525 331.806 281.925 L 331.806 283.105 M 333.126 286.195 L 333.216 286.195 L 333.216 287.975 C 333.216 287.975 333.146 287.975 333.126 287.945 L 333.126 286.195 Z  M 333.126 289.315 L 333.126 289.205 L 333.236 289.205 L 333.236 289.675 C 333.196 289.565 333.166 289.445 333.126 289.325 M 336.286 286.145 L 336.436 286.145 L 336.436 288.195 C 336.456 288.455 336.406 288.705 336.286 288.935 L 336.286 288.765 C 336.316 288.715 336.346 288.665 336.376 288.615 L 336.376 287.015 C 336.376 287.015 336.306 286.945 336.286 286.905 L 336.286 286.165 M 327.676 287.495 L 327.676 287.705 C 326.416 287.705 325.136 287.655 323.856 287.615 L 312.106 287.615 C 314.356 287.295 316.686 287.045 319.106 286.845 C 321.736 286.615 324.646 286.445 327.836 286.345 L 327.776 286.465 L 327.776 286.845 C 327.746 286.945 327.706 287.035 327.656 287.115 L 327.656 287.495 M 331.116 287.115 L 331.116 287.825 C 330.766 287.825 330.416 287.805 330.066 287.765 L 329.916 287.765 L 329.916 287.495 C 329.876 287.365 329.836 287.235 329.796 287.115 C 329.736 286.985 329.696 286.835 329.686 286.695 C 329.626 286.735 329.576 286.785 329.536 286.845 L 329.416 286.845 C 329.366 286.885 329.316 286.925 329.266 286.965 C 329.226 286.825 329.186 286.695 329.146 286.575 C 329.186 286.475 329.216 286.375 329.236 286.275 L 331.236 286.215 L 331.236 286.305 C 331.176 286.425 331.136 286.555 331.116 286.685 L 331.116 287.085 M 330.066 289.315 C 330.396 289.295 330.746 289.295 331.116 289.285 L 331.116 290.855 L 329.916 290.915 L 329.916 289.345 C 329.916 289.345 330.016 289.315 330.066 289.315 M 327.556 291.075 L 327.556 291.075 L 318.406 291.875 C 317.406 291.875 316.436 291.875 315.456 291.905 C 315.426 291.875 315.396 291.855 315.366 291.845 C 313.366 291.785 311.376 291.735 309.406 291.705 L 282.475 291.705 C 275.545 291.745 268.615 291.785 261.665 291.845 L 241.105 291.845 L 241.105 291.575 C 241.085 291.435 241.045 291.305 240.985 291.185 L 240.985 290.095 L 241.485 290.095 C 241.535 290.095 241.585 290.095 241.635 290.125 C 242.615 290.165 243.595 290.215 244.555 290.275 L 248.405 290.385 C 251.475 290.425 254.565 290.475 257.675 290.535 L 318.556 290.535 L 318.556 290.385 C 318.636 290.315 318.736 290.225 318.856 290.125 C 318.876 289.985 318.916 289.845 318.976 289.715 L 318.976 289.455 L 324.396 289.455 C 325.496 289.455 326.596 289.425 327.706 289.425 L 327.706 289.455 C 327.666 289.585 327.626 289.725 327.596 289.865 L 327.596 291.085 M 327.446 293.846 L 327.446 293.996 L 316.596 293.996 C 317.256 293.936 317.966 293.866 318.736 293.786 L 323.736 293.846 L 327.436 293.846 M 322.646 285.045 C 321.646 285.125 320.626 285.225 319.576 285.345 C 317.466 285.565 314.636 285.895 311.076 286.345 C 310.656 286.405 310.246 286.455 309.846 286.495 L 308.126 286.325 C 307.286 286.265 306.436 286.225 305.596 286.205 C 304.096 286.145 302.596 286.095 301.096 286.055 L 294.476 285.945 L 259.575 285.945 L 259.575 286.055 L 254.505 286.055 C 253.505 286.095 252.505 286.145 251.465 286.205 C 250.945 286.225 250.415 286.265 249.875 286.325 C 249.545 286.365 249.195 286.415 248.825 286.475 C 248.725 286.495 248.635 286.535 248.555 286.585 C 248.395 286.625 248.215 286.665 248.015 286.695 C 247.935 286.795 247.845 286.885 247.745 286.965 C 247.885 287.005 248.025 287.055 248.165 287.115 L 249.885 287.115 C 250.325 287.115 250.765 287.175 251.205 287.225 C 252.305 287.265 253.405 287.315 254.515 287.375 C 256.205 287.395 257.885 287.425 259.575 287.485 L 294.446 287.485 C 296.676 287.425 298.876 287.385 301.066 287.375 C 301.846 287.375 302.616 287.325 303.386 287.285 C 303.096 287.345 302.806 287.375 302.516 287.375 C 302.196 287.415 301.956 287.455 301.796 287.485 L 301.406 287.605 L 257.165 287.605 L 257.165 287.755 L 240.995 287.755 L 240.995 287.225 C 240.955 287.085 240.915 286.965 240.875 286.835 L 240.875 286.515 C 241.375 286.595 241.875 286.635 242.375 286.625 C 243.485 286.625 244.585 286.575 245.685 286.455 C 250.425 286.035 254.105 285.635 256.735 285.265 L 258.565 284.965 C 261.565 284.965 265.945 284.945 271.695 284.905 C 274.065 284.905 276.085 284.855 277.775 284.755 C 277.855 284.755 277.935 284.745 278.015 284.725 L 278.705 284.725 L 289.365 284.845 L 294.996 284.845 C 298.426 284.845 301.906 284.845 305.416 284.875 C 309.556 284.935 313.806 284.985 318.186 285.025 L 322.636 285.025 M 337.936 283.865 C 337.936 283.645 337.966 283.415 338.056 283.215 C 338.116 283.025 338.286 282.895 338.476 282.895 C 338.316 283.745 338.216 284.395 338.176 284.855 L 338.176 284.915 C 338.106 284.885 338.036 284.855 337.966 284.825 C 337.966 284.485 337.966 284.175 337.936 283.875 M 337.996 285.925 C 337.996 285.925 338.056 285.875 338.086 285.865 C 338.086 285.985 338.086 286.105 338.116 286.215 C 338.076 286.235 338.046 286.265 338.026 286.305 L 338.026 286.745 C 338.026 286.445 338.006 286.175 338.006 285.915 M 276.395 283.395 C 273.785 283.455 271.175 283.495 268.565 283.505 C 268.385 283.505 268.205 283.535 268.025 283.535 C 277.305 282.815 286.615 282.715 295.906 283.235 L 290.565 283.235 L 290.565 283.385 L 276.385 283.385 M 283.885 303.246 C 283.785 303.326 283.695 303.406 283.615 303.486 C 283.115 302.736 282.645 301.986 282.205 301.256 C 282.395 301.136 282.615 301.056 282.835 301.016 C 283.115 301.686 283.465 302.426 283.885 303.246 Z  M 279.185 307.556 L 280.385 305.926 L 280.745 306.076 C 280.695 306.146 280.655 306.226 280.625 306.306 C 280.585 306.306 280.545 306.306 280.505 306.336 C 280.005 306.406 279.725 306.866 279.605 307.696 C 279.585 307.956 279.535 308.216 279.455 308.466 C 279.295 308.706 279.135 308.936 278.955 309.146 C 279.015 308.516 279.075 307.976 279.155 307.546 M 286.155 307.196 C 286.105 307.246 286.065 307.306 286.035 307.376 C 285.715 306.876 285.395 306.376 285.075 305.876 L 285.105 305.816 C 285.005 305.506 284.835 305.236 284.605 305.016 C 284.665 304.966 284.715 304.906 284.755 304.846 C 284.755 304.876 284.755 304.906 284.785 304.926 C 285.305 305.796 285.765 306.566 286.165 307.216 M 284.815 309.116 C 284.655 309.326 284.495 309.556 284.315 309.796 C 284.255 309.566 284.105 309.366 283.895 309.266 L 283.115 308.046 L 283.685 307.396 C 284.065 307.966 284.435 308.546 284.795 309.116 M 287.795 310.156 C 287.685 309.946 287.555 309.746 287.405 309.566 C 287.415 309.536 287.435 309.506 287.465 309.476 C 287.495 309.556 287.535 309.636 287.585 309.716 C 287.665 309.856 287.735 310.006 287.785 310.156 M 288.985 306.946 C 288.985 306.946 289.045 307.026 289.075 307.056 C 289.035 307.096 289.005 307.156 288.985 307.206 C 288.965 307.166 288.965 307.126 288.955 307.096 C 288.955 307.046 288.955 306.996 288.985 306.946 Z  M 290.825 318.506 C 290.645 318.296 290.475 318.076 290.325 317.856 L 289.825 316.966 C 290.145 317.466 290.485 317.996 290.825 318.506 M 291.485 313.746 L 291.035 312.296 C 292.145 313.986 293.385 315.816 294.766 317.796 C 295.246 318.466 297.036 321.006 300.126 325.436 C 301.566 327.496 303.026 329.556 304.486 331.616 C 306.196 334.566 307.856 337.556 309.456 340.566 C 305.376 334.526 299.376 325.586 291.455 313.746 M 290.345 328.346 L 291.395 332.116 C 291.316 332.016 291.245 331.906 291.195 331.796 L 288.665 325.936 C 289.225 326.746 289.785 327.556 290.345 328.346 M 294.226 335.156 C 294.366 335.366 294.516 335.586 294.676 335.806 C 295.136 336.806 295.566 337.746 295.966 338.626 L 294.796 336.966 C 294.596 336.356 294.406 335.746 294.226 335.156 M 295.576 339.656 L 296.116 340.306 C 295.996 340.246 295.866 340.216 295.726 340.216 C 295.686 340.036 295.636 339.856 295.576 339.656 Z  M 287.835 313.906 C 287.495 313.456 287.145 313.006 286.785 312.566 C 286.505 312.166 286.165 311.806 285.785 311.496 C 285.885 311.386 285.975 311.256 286.055 311.146 C 286.655 312.056 287.255 312.976 287.855 313.906 M 280.525 312.856 L 279.745 313.926 C 279.885 313.516 280.055 313.076 280.245 312.616 C 280.295 312.526 280.345 312.436 280.395 312.346 C 280.395 312.326 280.395 312.306 280.425 312.286 C 280.425 312.466 280.485 312.656 280.515 312.856 M 277.295 314.576 C 277.295 314.576 277.285 314.636 277.265 314.666 C 277.225 314.826 277.155 315.066 277.065 315.406 L 277.065 315.466 C 276.245 316.376 275.425 317.296 274.595 318.226 C 275.515 316.996 276.425 315.776 277.305 314.566 M 281.095 318.426 C 281.065 318.306 280.975 318.216 280.855 318.186 L 281.245 317.476 L 281.095 318.426 Z  M 279.925 320.506 C 279.945 320.306 279.935 320.106 279.895 319.916 C 279.995 319.726 280.105 319.536 280.225 319.356 L 280.195 320.276 C 280.095 320.336 280.005 320.416 279.925 320.506 M 284.425 325.056 L 284.695 326.006 C 284.775 327.236 284.905 329.206 285.085 331.916 L 285.085 331.996 C 285.045 331.706 285.015 331.426 284.975 331.166 C 284.645 328.526 284.355 326.266 284.105 324.386 C 284.205 324.596 284.315 324.816 284.435 325.036 M 273.475 316.266 L 273.445 316.266 C 274.475 314.596 275.535 312.916 276.605 311.216 C 276.585 311.516 276.585 311.806 276.605 312.106 L 273.475 316.266 Z  M 264.805 315.916 L 265.255 315.266 C 264.405 316.886 263.655 318.556 262.995 320.266 C 262.875 320.516 262.775 320.776 262.695 321.036 L 260.165 324.566 C 259.385 325.516 258.665 326.386 257.995 327.156 C 257.055 328.286 256.145 329.406 255.285 330.516 C 255.425 330.206 255.575 329.886 255.735 329.566 C 256.085 328.916 256.375 328.226 256.575 327.516 C 258.845 324.286 261.585 320.426 264.795 315.926 M 266.175 331.596 C 266.295 331.436 266.405 331.296 266.505 331.156 C 266.325 331.476 266.135 331.826 265.935 332.196 L 266.175 331.606 M 269.365 334.156 L 269.715 333.566 L 270.715 332.256 C 270.435 332.686 270.145 333.146 269.845 333.616 C 269.625 333.996 269.395 334.356 269.155 334.716 C 269.235 334.526 269.305 334.326 269.365 334.126 M 276.955 330.236 C 276.955 330.336 276.915 330.436 276.895 330.556 L 276.235 332.126 C 276.335 331.756 276.435 331.376 276.535 330.996 C 276.675 330.716 276.815 330.466 276.955 330.226 M 283.425 332.506 C 283.545 333.236 283.665 334.006 283.785 334.856 C 284.115 337.886 284.485 341.476 284.895 345.616 L 285.525 351.327 C 285.325 350.117 285.145 349.007 284.985 347.997 C 284.175 342.866 283.655 337.686 283.425 332.496 M 267.585 343.936 L 266.655 345.336 C 267.195 344.406 267.725 343.486 268.245 342.596 C 268.025 343.016 267.805 343.466 267.585 343.936 M 265.665 347.887 C 265.665 347.887 265.615 347.957 265.605 347.997 L 265.605 347.977 C 265.605 347.977 265.645 347.917 265.665 347.887 M 268.975 346.387 L 267.145 353.847 L 262.545 364.987 C 260.875 368.897 259.405 372.347 258.115 375.357 C 259.805 369.967 261.275 364.937 262.545 360.257 C 264.975 355.047 267.125 350.437 269.015 346.426 M 309.246 345.896 C 309.106 345.697 308.916 345.526 308.706 345.396 C 308.656 345.356 308.596 345.326 308.546 345.297 C 308.146 344.716 307.786 344.216 307.466 343.796 C 307.406 343.746 307.356 343.686 307.316 343.626 L 304.456 339.406 C 306.266 341.846 308.086 344.276 309.906 346.717 C 309.846 346.667 309.776 346.627 309.696 346.607 C 309.536 346.366 309.386 346.107 309.246 345.896 M 298.976 345.396 L 299.726 346.667 L 301.076 349.457 L 298.976 345.386 M 298.676 345.146 C 298.516 345.066 298.416 345.076 298.376 345.166 C 299.066 347.057 300.016 349.277 301.236 351.827 C 300.756 351.277 300.266 350.727 299.786 350.197 C 299.706 350.037 299.636 349.887 299.576 349.727 L 299.696 349.547 C 298.656 347.587 297.616 345.607 296.596 343.606 C 296.626 343.186 296.576 342.756 296.446 342.356 C 296.326 341.946 296.216 341.546 296.116 341.166 C 296.896 342.196 297.706 343.376 298.546 344.706 C 298.656 344.916 298.776 345.106 298.906 345.297 C 298.836 345.226 298.756 345.166 298.666 345.146 M 238.274 281.895 C 238.255 281.725 238.244 281.565 238.244 281.395 L 241.135 281.455 C 240.295 281.575 239.334 281.715 238.274 281.895 Z  M 239.355 283.615 L 239.355 283.315 C 239.475 283.275 239.594 283.255 239.714 283.255 C 241.565 282.955 242.965 282.755 243.925 282.695 C 245.255 282.575 246.835 282.515 248.645 282.515 C 249.685 282.515 251.255 282.515 253.345 282.575 C 256.235 282.615 259.145 282.515 262.075 282.275 C 262.715 282.215 263.305 282.165 263.845 282.105 L 264.505 282.135 C 263.645 282.255 262.805 282.365 261.975 282.465 L 245.655 283.465 C 244.375 283.555 243.365 283.655 242.615 283.755 L 241.865 283.755 C 241.775 283.815 241.685 283.865 241.595 283.905 C 241.505 283.905 241.415 283.935 241.325 283.965 C 240.865 283.925 240.405 283.905 239.944 283.905 L 239.444 283.845 C 239.415 283.775 239.384 283.715 239.355 283.645 M 238.694 283.445 L 238.584 283.765 L 238.315 283.765 L 238.315 283.505 L 238.704 283.445 M 238.594 285.315 L 238.594 287.755 L 238.354 287.755 C 238.354 286.885 238.324 286.065 238.324 285.295 C 238.414 285.295 238.505 285.295 238.594 285.325 M 239.524 285.625 C 239.524 285.535 239.524 285.445 239.524 285.365 C 239.745 285.365 239.975 285.365 240.215 285.395 C 240.175 285.395 240.134 285.395 240.095 285.425 C 239.894 285.495 239.694 285.595 239.524 285.725 C 239.524 285.695 239.524 285.665 239.524 285.635 M 234.024 285.045 C 234.304 285.045 234.584 285.065 234.864 285.105 C 234.864 285.995 234.914 286.905 234.954 287.845 C 234.604 287.845 234.254 287.865 233.904 287.905 C 233.964 286.855 234.004 285.905 234.014 285.055 M 239.514 286.485 C 239.514 286.405 239.514 286.325 239.514 286.245 L 240.055 286.425 L 239.905 286.485 C 239.865 286.595 239.824 286.735 239.795 286.865 L 239.795 287.785 L 239.524 287.785 C 239.524 287.785 239.524 287.685 239.524 287.635 L 239.524 286.475 M 231.584 288.045 C 231.524 286.895 231.474 285.785 231.434 284.715 L 231.524 284.715 C 231.644 284.815 231.794 284.875 231.944 284.865 C 231.944 285.945 231.914 287.015 231.914 288.045 L 231.564 288.045 M 231.674 292.266 C 231.674 291.535 231.674 290.815 231.644 290.095 L 231.884 290.095 L 231.884 291.665 C 231.884 291.665 231.824 291.715 231.794 291.725 C 231.834 291.765 231.864 291.815 231.884 291.865 C 231.884 292.976 231.854 294.026 231.854 295.016 C 231.844 295.066 231.824 295.116 231.794 295.166 L 231.794 297.546 C 231.794 297.546 231.794 297.606 231.764 297.626 C 231.724 295.386 231.694 293.596 231.674 292.245 M 233.674 293.676 L 233.674 304.996 L 233.614 305.176 C 233.534 301.686 233.504 299.246 233.524 297.866 C 233.544 296.756 233.584 295.306 233.644 293.526 L 233.674 293.526 L 233.674 293.676 Z  M 238.435 290.135 L 238.435 291.855 L 238.344 291.855 L 238.344 290.105 L 238.435 290.105 L 238.435 290.135 Z  M 239.605 290.395 L 239.605 290.105 L 239.755 290.105 L 239.755 291.195 C 239.714 291.325 239.654 291.455 239.605 291.585 L 239.605 290.395 M 226.874 284.395 C 226.974 284.435 227.024 284.565 227.024 284.805 L 227.024 289.035 L 226.874 289.035 L 226.874 284.365 M 236.594 366.707 L 236.144 367.477 L 233.344 371.337 C 234.474 369.697 235.554 368.147 236.594 366.707 Z  M 257.595 352.797 L 260.725 347.797 C 259.985 349.497 259.315 351.027 258.725 352.377 C 257.295 354.937 255.895 357.497 254.515 360.077 C 255.285 358.327 256.315 355.907 257.615 352.797 M 254.055 342.146 C 253.655 342.876 253.245 343.646 252.825 344.496 C 251.375 346.477 249.795 348.687 248.065 351.127 C 249.185 349.297 250.355 347.417 251.565 345.476 L 254.035 342.146 M 241.385 360.257 C 242.325 358.787 243.305 357.307 244.305 355.827 C 244.425 355.827 244.555 355.797 244.665 355.747 C 243.605 357.187 242.505 358.687 241.385 360.247 M 243.555 369.867 C 244.395 368.617 245.235 367.397 246.055 366.207 L 244.705 368.557 L 242.895 371.937 C 239.964 376.577 237.314 380.757 234.954 384.477 C 237.904 379.617 240.775 374.747 243.565 369.857 M 248.505 367.627 L 247.965 368.877 C 247.245 370.577 246.545 372.247 245.865 373.877 C 244.955 375.007 244.155 376.027 243.455 376.937 C 243.955 375.857 244.515 374.727 245.075 373.577 C 245.495 372.827 245.915 372.077 246.335 371.347 L 248.495 367.597 M 260.495 358.557 C 260.385 358.797 260.255 359.057 260.135 359.297 C 257.585 364.547 255.745 368.467 254.595 371.037 C 254.435 371.417 254.275 371.777 254.095 372.137 C 254.915 370.037 255.835 367.597 256.865 364.827 L 261.135 356.207 C 260.915 356.977 260.695 357.757 260.475 358.547 M 240.694 385.577 C 240.565 385.797 240.454 386.017 240.365 386.257 C 240.084 386.647 239.795 387.077 239.495 387.537 C 236.924 391.427 234.944 394.597 233.564 397.027 C 235.564 393.047 237.384 389.397 239.014 386.087 C 240.305 384.387 241.525 382.737 242.685 381.157 C 242.015 382.677 241.365 384.167 240.735 385.617 M 231.134 403.338 C 230.674 403.808 230.234 404.308 229.834 404.838 C 229.534 405.248 229.224 405.708 228.904 406.198 L 231.904 400.258 C 231.504 401.238 231.244 402.268 231.124 403.318 M 218.304 409.528 C 218.404 409.288 218.514 409.028 218.634 408.788 C 219.014 408.158 219.394 407.538 219.774 406.948 L 218.304 409.538 M 345.257 266.755 C 344.226 266.215 343.256 265.565 342.366 264.825 C 342.146 264.625 341.366 263.865 340.016 262.545 C 339.256 261.755 338.396 261.075 337.466 260.525 C 336.516 259.985 335.406 259.805 334.336 260.025 C 333.806 260.185 333.336 260.495 332.986 260.915 C 332.626 261.325 332.446 261.865 332.486 262.415 C 332.516 263.005 332.766 263.565 333.176 263.985 C 333.416 264.225 333.876 264.635 334.566 265.235 C 335.026 265.625 335.886 266.505 337.156 267.875 C 337.996 268.785 338.926 269.615 339.926 270.335 C 340.926 271.095 342.106 271.575 343.356 271.735 C 344.556 271.955 345.797 271.645 346.757 270.905 C 347.507 271.815 348.777 272.115 349.857 271.645 C 350.127 271.415 350.277 271.075 350.277 270.725 C 350.297 270.375 350.207 270.025 350.007 269.725 C 349.577 269.155 349.007 268.705 348.357 268.415 C 346.977 267.725 345.937 267.185 345.257 266.785 M 333.786 225.884 C 333.386 225.984 333.006 226.154 332.676 226.384 C 332.326 226.644 332.076 227.024 331.986 227.454 C 331.866 227.854 331.966 228.294 332.226 228.614 C 332.486 228.924 332.866 229.114 333.276 229.114 C 333.446 229.134 333.606 229.134 333.776 229.114 C 333.906 229.394 334.146 229.624 334.436 229.734 C 334.826 229.864 335.236 229.924 335.636 229.904 C 336.096 229.904 336.666 229.944 337.356 229.964 C 337.276 230.114 337.246 230.294 337.266 230.464 C 337.266 230.654 337.296 230.854 337.376 231.024 C 335.946 231.024 334.396 231.034 332.706 231.054 C 332.286 231.024 331.876 231.104 331.506 231.284 C 331.306 231.384 331.166 231.564 331.116 231.784 C 331.016 231.964 331.046 232.194 331.176 232.344 C 331.846 232.584 332.546 232.714 333.246 232.754 C 333.706 232.794 334.426 232.814 335.416 232.814 L 337.946 232.874 C 337.946 233.054 338.006 233.224 338.096 233.374 C 338.246 233.704 338.516 233.974 338.846 234.114 C 339.186 234.234 339.536 234.304 339.896 234.314 C 340.156 234.314 340.516 234.314 340.976 234.254 C 341.596 234.154 342.186 234.074 342.746 234.014 C 343.056 234.144 343.376 234.234 343.706 234.274 C 344.166 234.294 344.636 234.274 345.086 234.214 L 346.537 234.024 C 348.047 234.074 349.557 234.244 351.037 234.524 C 352.497 234.834 354.017 234.804 355.457 234.434 C 355.877 233.694 356.017 232.834 355.847 232.004 L 356.717 231.764 C 357.007 231.644 357.297 231.504 357.557 231.344 C 357.807 231.174 358.017 230.954 358.157 230.694 C 358.327 230.444 358.397 230.134 358.337 229.834 C 356.107 229.574 353.877 229.374 351.627 229.214 C 352.027 229.004 352.517 228.714 353.097 228.444 C 353.337 228.314 353.557 228.154 353.757 227.974 C 353.977 227.824 354.117 227.584 354.147 227.324 C 354.177 227.084 354.127 226.844 353.997 226.644 C 353.877 226.444 353.707 226.274 353.497 226.174 C 353.037 225.994 352.547 225.914 352.057 225.934 C 351.457 225.894 350.897 225.874 350.377 225.874 C 350.437 225.784 350.467 225.684 350.467 225.574 C 350.457 225.294 350.297 225.044 350.047 224.924 C 349.787 224.774 349.497 224.664 349.207 224.624 C 347.867 224.424 346.497 224.364 345.146 224.454 C 344.226 224.494 342.846 224.624 341.026 224.864 L 335.026 225.634 C 334.596 225.694 334.176 225.774 333.766 225.874 M 348.647 228.904 L 347.987 228.994 C 347.627 228.994 347.277 228.964 346.937 228.964 L 348.657 228.904 M 269.465 190.104 C 269.145 190.024 268.815 190.024 268.505 190.104 C 266.835 190.434 265.215 190.984 263.695 191.734 C 262.155 192.474 260.705 193.404 259.395 194.494 C 259.055 194.764 258.725 195.054 258.395 195.354 C 257.165 196.034 256.035 196.894 255.055 197.904 C 254.445 198.544 253.875 199.224 253.375 199.954 C 253.275 200.094 253.175 200.244 253.045 200.394 C 252.315 200.804 251.655 201.324 251.095 201.934 C 250.635 202.434 250.145 203.014 249.625 203.684 L 248.265 205.584 C 247.665 206.474 247.185 207.234 246.825 207.844 C 246.345 208.604 245.935 209.394 245.595 210.224 C 245.595 210.254 245.585 210.284 245.565 210.304 C 245.025 211.044 244.485 211.834 243.945 212.684 C 243.205 213.834 242.595 214.824 242.135 215.654 C 241.595 216.654 241.135 217.684 240.755 218.744 C 240.215 220.474 239.875 222.254 239.755 224.064 C 239.654 225.334 239.615 227.134 239.634 229.474 C 239.654 233.674 239.785 236.854 240.024 239.015 C 240.255 242.155 240.965 245.245 242.125 248.175 C 242.765 249.715 243.535 251.205 244.405 252.635 C 245.005 253.635 245.925 255.025 247.145 256.795 C 248.105 258.155 248.835 259.135 249.345 259.735 C 250.085 260.695 250.915 261.575 251.845 262.345 C 252.715 263.065 253.665 263.695 254.675 264.215 C 255.515 264.645 256.535 265.125 257.745 265.635 C 262.045 267.455 266.515 268.835 271.085 269.765 C 275.645 270.705 280.285 271.105 284.935 270.955 C 289.595 270.755 294.206 269.905 298.636 268.435 C 303.056 266.955 307.196 264.765 310.896 261.935 C 313.026 260.315 314.956 258.455 316.646 256.375 C 319.516 252.755 321.516 248.525 322.496 244.015 C 323.526 239.455 323.736 234.744 323.126 230.104 C 322.446 225.524 321.186 221.044 319.366 216.784 C 317.556 212.504 315.376 208.384 312.866 204.474 C 311.576 202.394 310.156 200.414 308.596 198.524 C 307.076 196.634 305.306 194.964 303.326 193.564 C 300.286 191.534 296.866 190.124 293.265 189.434 C 289.625 188.744 285.915 188.414 282.215 188.434 C 280.535 188.384 278.855 188.434 277.185 188.584 C 275.535 188.724 273.905 189.074 272.335 189.614 C 271.525 189.904 270.725 190.234 269.955 190.614 C 269.955 190.514 269.915 190.404 269.865 190.324 C 269.775 190.194 269.635 190.094 269.475 190.054 M 267.975 191.774 C 267.335 192.184 266.555 192.704 265.655 193.314 C 265.155 193.454 264.655 193.604 264.155 193.754 C 264.135 193.754 264.105 193.754 264.095 193.724 L 264.035 193.664 C 265.295 192.914 266.615 192.284 267.975 191.764 M 270.025 193.074 C 271.245 192.194 272.645 191.604 274.115 191.354 C 275.595 191.084 277.105 190.934 278.615 190.914 C 281.445 190.834 283.875 190.844 285.905 190.944 C 288.325 191.054 290.725 191.354 293.096 191.834 C 295.476 192.314 297.786 193.094 299.966 194.154 C 302.146 195.194 304.156 196.554 305.926 198.194 C 306.826 199.054 307.666 199.974 308.426 200.964 C 307.916 200.474 307.346 200.044 306.746 199.684 C 306.606 199.524 306.466 199.384 306.326 199.244 C 304.616 197.574 302.586 196.274 300.366 195.414 C 298.096 194.564 295.756 193.904 293.366 193.454 C 289.505 192.644 285.585 192.154 281.655 192.004 C 277.745 191.854 273.845 192.224 270.035 193.104 M 304.666 207.134 C 304.206 206.624 303.736 206.134 303.256 205.684 C 303.896 206.214 304.536 206.814 305.176 207.464 C 306.416 208.784 307.496 210.234 308.396 211.804 C 308.396 211.904 308.436 212.004 308.456 212.104 C 308.436 212.094 308.426 212.064 308.426 212.044 C 307.316 210.304 306.056 208.664 304.666 207.144 M 311.986 207.734 C 311.806 207.164 311.616 206.604 311.416 206.074 C 311.276 205.634 311.126 205.214 310.966 204.794 C 310.986 204.844 311.016 204.884 311.056 204.914 C 311.616 205.884 312.286 207.054 313.056 208.414 C 313.456 209.444 313.686 210.034 313.746 210.194 C 314.066 211.044 314.326 211.794 314.526 212.454 C 314.566 212.514 314.596 212.584 314.616 212.654 C 314.336 212.104 314.056 211.534 313.776 210.964 C 313.336 210.114 312.746 209.034 312.006 207.724 M 289.205 201.844 C 289.705 201.944 290.175 202.054 290.705 202.194 C 290.045 202.074 289.375 201.994 288.705 201.924 C 288.505 201.824 288.305 201.744 288.105 201.664 C 288.205 201.684 288.305 201.694 288.405 201.694 C 288.685 201.754 288.965 201.804 289.245 201.844 M 293.746 204.514 C 293.836 204.514 293.926 204.514 294.016 204.544 C 294.556 204.734 295.156 204.714 295.676 204.484 C 295.976 204.684 296.276 204.904 296.576 205.134 C 298.006 206.164 299.356 207.284 300.636 208.494 C 300.976 208.834 301.296 209.194 301.596 209.564 C 301.716 210.064 301.836 210.564 301.956 211.104 C 301.956 211.164 301.996 211.234 302.016 211.314 C 300.026 209.144 297.796 207.204 295.366 205.544 C 294.826 205.164 294.286 204.814 293.736 204.504 M 312.236 214.734 C 312.336 214.814 312.426 214.904 312.506 214.994 C 312.546 215.274 312.576 215.554 312.596 215.854 C 312.486 215.504 312.356 215.124 312.236 214.724 M 304.856 214.874 C 304.736 214.374 304.626 213.934 304.526 213.474 C 305.356 214.784 306.106 216.144 306.756 217.544 C 307.206 218.524 307.616 219.524 307.956 220.544 C 307.796 220.164 307.626 219.784 307.456 219.384 C 306.716 217.814 305.856 216.314 304.866 214.884 M 303.066 216.064 C 303.526 218.504 303.846 220.704 304.026 222.664 C 304.406 226.534 304.206 230.444 303.426 234.254 C 302.716 237.544 301.486 240.705 299.786 243.615 C 298.156 246.355 296.146 248.855 293.825 251.045 C 292.916 251.395 291.975 251.685 291.025 251.905 C 289.285 252.315 287.505 252.515 285.725 252.475 C 281.065 252.585 276.425 251.765 272.085 250.065 C 268.145 248.515 264.625 246.075 261.785 242.935 C 261.235 242.345 260.705 241.735 260.225 241.095 C 259.555 240.245 259.055 239.605 258.725 239.195 L 257.615 237.694 C 257.515 236.964 257.395 236.154 257.255 235.264 C 256.895 233.144 256.735 230.994 256.755 228.844 C 257.095 224.514 258.505 220.344 260.855 216.684 C 261.835 215.014 262.985 213.444 264.285 212.014 C 266.305 209.994 268.585 208.244 271.055 206.814 L 271.865 206.374 C 273.925 205.544 276.065 204.904 278.245 204.474 C 280.215 204.044 282.225 203.784 284.245 203.704 C 285.105 203.704 285.835 203.754 286.415 203.794 C 287.025 203.814 287.625 203.864 288.225 203.944 C 289.775 204.654 291.275 205.474 292.726 206.374 C 296.776 208.894 300.286 212.184 303.056 216.064 M 308.956 217.964 C 309.076 218.204 309.186 218.464 309.286 218.704 C 309.386 218.944 309.526 219.344 309.646 219.704 C 309.646 219.934 309.646 220.174 309.676 220.414 C 309.496 219.654 309.276 218.894 309.016 218.154 C 308.996 218.134 308.986 218.114 308.986 218.094 C 308.976 218.054 308.966 218.014 308.956 217.974 M 276.585 195.974 C 275.225 196.654 273.905 197.414 272.645 198.264 C 271.915 198.494 271.255 198.744 270.645 199.004 C 270.165 199.184 269.685 199.394 269.235 199.624 C 268.495 199.814 267.765 200.074 267.075 200.394 C 266.685 200.434 266.305 200.514 265.935 200.634 C 265.035 200.944 264.175 201.384 263.405 201.944 C 262.805 202.194 262.225 202.474 261.665 202.774 C 262.585 201.934 263.595 201.204 264.665 200.574 C 265.115 200.274 265.535 199.934 265.925 199.574 C 266.895 199.144 267.905 198.774 268.925 198.474 L 269.105 197.794 C 269.755 197.514 270.425 197.264 271.105 197.054 C 272.895 196.484 274.735 196.124 276.605 195.984 M 267.155 206.084 C 267.715 205.814 268.525 205.364 269.595 204.754 C 270.395 204.304 271.185 203.874 271.965 203.474 C 272.125 203.524 272.305 203.534 272.465 203.524 C 269.245 204.934 266.135 206.554 263.135 208.374 C 262.875 208.514 262.625 208.674 262.385 208.844 C 262.925 208.214 263.495 207.624 264.105 207.064 L 264.215 206.954 C 264.675 206.564 265.145 206.184 265.625 205.824 C 265.225 206.244 264.855 206.704 264.545 207.184 C 265.415 206.894 266.265 206.524 267.075 206.084 M 311.246 229.454 C 311.446 227.704 311.556 225.944 311.576 224.194 C 311.776 224.944 312.006 225.764 312.266 226.634 L 312.266 228.054 C 312.266 229.414 312.116 230.764 311.846 232.094 C 311.696 232.874 311.486 233.634 311.216 234.384 C 311.176 234.544 311.056 234.934 310.826 235.574 C 311.076 234.304 311.226 233.004 311.276 231.714 C 311.316 230.964 311.306 230.204 311.246 229.454 M 308.356 234.034 C 308.276 234.304 308.206 234.584 308.146 234.864 C 307.596 236.954 306.886 238.985 306.006 240.955 C 305.646 241.505 305.266 242.045 304.866 242.555 C 304.366 243.165 304.066 243.555 303.966 243.685 C 303.676 244.075 303.466 244.525 303.336 244.995 C 303.456 244.995 303.576 245.005 303.696 245.025 C 302.206 247.155 300.466 249.105 298.516 250.825 C 298.886 250.305 299.216 249.755 299.516 249.195 C 299.026 249.325 298.556 249.505 298.106 249.725 C 298.946 248.695 299.746 247.645 300.486 246.575 C 302.416 243.715 303.886 240.585 304.846 237.274 C 306.296 231.954 306.636 226.384 305.846 220.924 C 307.356 223.934 308.246 227.224 308.466 230.584 C 308.526 231.734 308.486 232.894 308.346 234.034 M 311.896 237.924 C 311.956 238.084 312.116 238.184 312.286 238.184 C 312.386 238.184 312.486 238.184 312.586 238.154 C 312.566 238.174 312.556 238.214 312.556 238.244 C 312.276 238.774 311.986 239.304 311.686 239.815 C 310.936 241.155 310.106 242.445 309.186 243.675 C 309.486 242.785 309.716 241.865 309.876 240.945 C 309.936 240.445 309.986 239.945 310.056 239.404 C 311.166 236.734 312.046 233.964 312.676 231.144 C 312.536 233.414 312.276 235.674 311.896 237.924 M 312.556 242.675 L 312.606 242.675 C 312.686 242.575 312.766 242.465 312.846 242.355 C 311.386 244.705 309.716 246.915 307.846 248.955 C 306.126 250.875 304.206 252.615 302.126 254.125 C 302.326 253.895 302.516 253.645 302.696 253.385 C 304.356 252.165 305.916 250.815 307.366 249.345 C 309.356 247.345 311.096 245.105 312.546 242.685 M 306.826 246.635 L 306.326 247.195 C 306.586 246.665 306.826 246.125 307.106 245.595 C 307.386 245.065 307.556 244.625 307.796 244.175 C 307.496 245.025 307.176 245.845 306.836 246.635 M 301.686 251.805 C 301.686 251.805 301.726 251.775 301.746 251.775 C 301.606 251.975 301.466 252.165 301.326 252.345 C 301.046 252.555 300.776 252.775 300.516 252.995 C 300.916 252.575 301.306 252.185 301.686 251.805 Z  M 313.036 247.615 C 312.796 247.865 312.616 248.065 312.496 248.205 C 312.326 248.415 312.176 248.645 312.076 248.885 C 311.816 249.345 311.676 249.585 311.656 249.625 C 311.426 250.145 310.956 250.525 310.396 250.625 C 310.356 250.375 310.536 250.085 310.936 249.765 C 311.336 249.375 311.686 248.935 311.986 248.455 C 312.186 248.155 312.486 247.705 312.886 247.095 C 313.066 246.915 313.206 246.825 313.306 246.825 C 313.326 247.105 313.226 247.385 313.036 247.595 M 311.316 247.295 C 311.276 247.355 311.236 247.405 311.196 247.465 C 311.226 247.395 311.266 247.325 311.316 247.265 L 311.316 247.295 Z  M 308.316 252.375 C 308.456 252.255 308.576 252.125 308.676 251.985 C 308.796 251.845 308.926 251.715 309.066 251.605 C 309.336 251.385 309.686 251.285 310.026 251.335 C 309.576 251.495 309.206 251.835 309.026 252.285 C 308.856 252.715 308.656 253.135 308.426 253.535 C 308.146 253.875 307.836 254.185 307.496 254.455 C 306.436 255.285 305.696 255.855 305.266 256.145 C 304.646 256.725 303.876 257.105 303.036 257.245 C 304.256 256.335 305.426 255.345 306.536 254.305 L 307.466 253.385 C 307.796 253.085 308.086 252.755 308.336 252.385 M 318.836 219.034 C 319.356 220.104 319.816 221.204 320.216 222.324 C 320.486 223.194 320.706 224.084 320.876 224.974 C 320.996 225.504 321.166 226.384 321.376 227.614 C 321.716 229.514 321.956 230.954 322.096 231.954 C 322.286 233.404 322.376 234.864 322.366 236.324 C 322.346 238.004 322.186 239.674 321.866 241.325 C 321.556 242.995 321.156 244.635 320.666 246.255 C 320.256 247.735 319.766 249.195 319.196 250.625 C 318.636 252.055 317.916 253.425 317.056 254.695 C 315.586 256.805 313.766 258.665 311.696 260.195 C 309.616 261.735 307.416 263.105 305.106 264.265 C 303.266 265.255 301.386 266.135 299.446 266.905 C 293.646 268.935 287.455 269.635 281.345 268.955 C 293.765 267.815 305.146 261.545 312.756 251.655 C 313.716 250.375 314.566 249.005 315.286 247.585 C 315.766 246.485 316.146 245.355 316.426 244.195 C 316.646 243.225 316.876 242.035 317.116 240.625 C 317.766 236.764 318.126 232.854 318.166 228.944 C 318.206 225.294 317.726 221.664 316.756 218.154 C 316.696 217.724 316.626 217.284 316.546 216.844 C 316.366 215.684 316.116 214.534 315.796 213.404 C 316.196 214.174 316.646 215.014 317.156 215.924 C 317.836 217.134 318.386 218.164 318.806 219.014 M 314.476 226.114 C 314.526 226.424 314.626 226.734 314.776 227.004 C 315.046 227.754 315.166 228.554 315.136 229.354 C 314.956 228.354 314.726 227.354 314.446 226.354 C 314.346 225.784 314.236 225.124 314.116 224.394 C 314.256 224.844 314.396 225.324 314.536 225.814 C 314.496 225.914 314.476 226.014 314.476 226.114 M 317.396 233.154 C 317.436 234.224 317.436 235.054 317.396 235.654 C 317.316 236.464 317.106 237.264 316.766 238.004 C 316.726 237.504 316.706 236.794 316.706 235.804 C 316.706 235.274 316.766 234.604 316.816 233.804 C 316.906 233.144 316.956 232.474 316.966 231.804 C 317.086 230.154 317.146 227.684 317.146 224.374 C 317.186 226.334 317.266 229.264 317.386 233.144 M 313.566 235.404 C 313.526 235.604 313.466 235.794 313.386 235.974 C 313.466 235.534 313.526 235.094 313.566 234.634 L 313.566 235.404 Z  M 314.736 238.705 L 314.736 239.265 C 314.736 239.265 314.656 239.314 314.616 239.355 C 314.656 239.114 314.696 238.904 314.736 238.705 Z  M 295.876 255.115 C 295.716 255.225 295.546 255.355 295.376 255.465 C 295.446 255.395 295.536 255.335 295.616 255.295 C 295.706 255.225 295.796 255.165 295.886 255.115 M 297.446 256.835 C 297.046 257.075 296.636 257.305 296.216 257.515 C 295.296 257.935 294.336 258.285 293.356 258.555 C 293.416 258.515 293.486 258.475 293.546 258.455 C 295.086 257.785 296.576 257.075 297.996 256.315 C 297.796 256.485 297.606 256.665 297.426 256.845 M 291.465 263.605 C 291.695 263.445 291.806 263.165 291.735 262.895 C 291.715 262.645 291.605 262.415 291.435 262.245 C 292.726 261.865 293.996 261.405 295.236 260.885 C 296.656 260.285 298.016 259.575 299.326 258.775 C 300.336 258.395 301.386 258.125 302.456 257.975 C 301.446 258.985 300.286 259.835 299.026 260.495 C 298.196 260.935 296.886 261.535 295.086 262.305 C 293.756 262.855 292.856 263.215 292.405 263.375 C 291.515 263.695 290.595 263.955 289.665 264.145 C 289.315 264.225 288.965 264.285 288.615 264.325 C 287.085 264.385 285.665 264.385 284.365 264.325 C 283.925 264.325 283.485 264.275 283.045 264.235 L 284.305 264.235 C 286.005 264.195 288.395 263.985 291.465 263.615 M 286.495 259.035 C 286.655 258.975 286.825 258.925 286.995 258.885 C 287.495 258.885 287.955 258.825 288.435 258.775 C 287.795 258.915 287.135 258.995 286.485 259.035 M 284.225 257.535 L 283.835 257.475 L 284.555 257.355 L 284.225 257.535 Z  M 284.255 255.015 C 283.895 255.075 283.525 255.125 283.145 255.165 C 279.065 255.655 274.915 255.205 271.045 253.825 C 269.175 253.155 267.375 252.295 265.685 251.275 C 264.125 249.615 262.725 247.815 261.505 245.895 C 264.405 248.805 267.845 251.125 271.625 252.725 C 274.715 253.895 277.965 254.625 281.255 254.895 C 282.295 254.975 283.305 255.015 284.255 255.015 Z  M 276.915 257.715 C 276.795 257.775 276.695 257.885 276.645 258.015 C 275.755 257.895 274.865 257.725 273.995 257.485 C 272.795 257.115 271.625 256.655 270.495 256.125 L 268.835 255.295 C 269.455 255.545 270.095 255.795 270.735 255.975 C 273.865 257.025 277.135 257.595 280.425 257.665 L 281.095 257.665 L 281.595 257.845 C 281.815 257.945 282.015 258.015 282.195 258.085 C 281.915 258.115 281.625 258.155 281.325 258.165 C 280.585 258.205 279.825 258.225 279.095 258.225 L 278.595 257.965 C 278.425 257.855 278.245 257.765 278.055 257.695 C 277.875 257.595 277.685 257.555 277.485 257.555 C 277.295 257.535 277.095 257.585 276.945 257.695 M 269.895 264.145 C 269.615 263.895 269.325 263.665 269.015 263.465 C 269.105 263.445 269.195 263.445 269.285 263.465 C 270.615 263.865 271.965 264.195 273.315 264.465 C 273.175 264.505 273.055 264.535 272.955 264.575 C 272.325 264.565 271.705 264.505 271.095 264.405 C 270.695 264.345 270.295 264.265 269.895 264.165 M 268.515 261.315 C 267.755 261.055 267.085 260.805 266.515 260.545 C 265.035 259.945 263.645 259.145 262.395 258.165 L 261.575 257.475 C 261.075 256.895 260.515 256.235 259.895 255.475 L 259.595 255.565 C 259.595 255.565 259.585 255.515 259.565 255.505 C 257.675 253.575 256.585 252.445 256.285 252.115 C 255.565 251.405 255.005 250.895 254.605 250.575 C 254.425 250.615 254.265 250.735 254.185 250.905 C 254.085 251.075 254.045 251.275 254.075 251.465 C 254.125 251.855 254.285 252.225 254.525 252.535 C 255.125 253.385 255.775 254.205 256.475 254.975 C 256.935 255.485 257.655 256.235 258.635 257.205 C 259.415 257.985 260.005 258.545 260.405 258.895 C 261.015 259.455 261.675 259.975 262.355 260.435 L 262.595 260.585 C 262.515 260.565 262.435 260.545 262.355 260.525 C 260.855 259.645 259.425 258.675 258.055 257.615 C 256.645 256.515 255.435 255.195 254.475 253.695 C 253.935 252.815 253.485 251.875 253.155 250.905 C 252.855 250.075 252.555 249.075 252.255 247.905 C 253.745 248.775 255.175 249.735 256.525 250.785 C 258.225 252.605 259.195 253.615 259.415 253.815 C 260.505 254.845 261.645 255.805 262.845 256.695 C 262.985 256.855 263.135 257.025 263.295 257.195 C 263.975 257.885 264.725 258.515 265.525 259.065 C 267.105 259.995 268.825 260.655 270.615 261.025 L 270.825 261.175 C 270.045 261.245 269.285 261.285 268.535 261.285 M 256.225 205.084 C 255.545 205.384 254.945 205.844 254.485 206.424 C 253.995 207.004 253.565 207.634 253.195 208.294 C 252.105 210.194 251.275 211.724 250.695 212.874 C 250.575 213.044 250.455 213.214 250.335 213.374 C 250.405 213.024 250.495 212.664 250.605 212.304 C 251.205 211.004 251.875 209.734 252.605 208.504 C 254.035 206.714 255.675 205.094 257.485 203.694 C 257.045 204.164 256.635 204.654 256.255 205.144 C 256.235 205.124 256.225 205.104 256.225 205.084 M 260.675 204.374 C 259.955 205.194 259.305 206.064 258.725 206.984 C 258.295 207.414 257.925 207.764 257.645 208.024 C 257.505 208.164 257.285 208.374 256.985 208.644 C 257.455 207.764 257.975 206.924 258.545 206.124 C 259.065 205.394 259.625 204.704 260.225 204.044 C 260.225 204.144 260.245 204.254 260.285 204.344 C 260.415 204.364 260.545 204.374 260.675 204.374 M 243.945 216.104 C 243.765 216.734 243.575 217.324 243.375 217.884 C 243.205 218.304 243.065 218.724 242.955 219.154 C 242.905 219.584 242.805 220.004 242.655 220.404 C 242.515 220.644 242.405 220.824 242.325 220.934 C 242.235 221.114 242.175 221.304 242.145 221.494 C 242.125 221.644 242.125 221.794 242.145 221.934 C 242.175 222.104 242.175 222.264 242.145 222.434 C 242.075 222.654 241.955 222.864 241.815 223.054 C 241.675 223.244 241.565 223.454 241.485 223.674 C 241.225 222.154 241.525 220.594 242.325 219.274 C 242.545 219.034 242.715 218.744 242.825 218.444 C 242.845 218.304 242.855 218.164 242.855 218.034 C 242.855 217.884 242.855 217.734 242.885 217.594 C 242.985 217.204 243.175 216.844 243.425 216.524 C 243.555 216.344 243.725 216.194 243.925 216.114 M 247.865 220.214 C 247.905 220.884 247.955 221.534 248.015 222.174 C 247.955 222.554 247.875 222.934 247.775 223.334 C 247.575 224.464 247.405 225.564 247.275 226.634 C 247.235 226.794 247.205 226.964 247.185 227.134 C 247.125 226.634 247.065 226.104 247.005 225.594 C 246.885 224.524 246.785 223.134 246.705 221.434 C 246.705 221.184 246.705 220.934 246.735 220.724 L 246.735 220.484 C 246.815 220.244 246.925 219.984 247.065 219.624 C 247.065 220.054 247.125 220.494 247.185 220.934 C 247.495 220.804 247.745 220.564 247.875 220.254 M 250.375 222.864 C 250.605 221.894 250.905 220.944 251.245 220.014 C 251.615 219.114 252.095 218.254 252.655 217.464 C 252.585 218.314 252.505 219.324 252.455 220.494 L 252.455 220.514 C 251.515 222.604 250.765 224.784 250.225 227.014 L 249.985 228.204 C 249.985 228.094 249.945 227.964 249.925 227.854 C 249.845 227.084 249.785 226.314 249.745 225.564 C 249.925 224.654 250.135 223.754 250.375 222.864 M 259.555 212.764 C 259.655 212.564 259.765 212.384 259.885 212.204 C 260.025 212.144 260.165 212.094 260.305 212.054 C 260.025 212.304 259.775 212.554 259.555 212.764 Z  M 254.975 214.814 C 255.135 214.674 255.315 214.524 255.515 214.374 C 255.475 214.514 255.445 214.644 255.425 214.784 C 255.195 215.124 254.995 215.484 254.825 215.854 C 254.865 215.474 254.915 215.124 254.975 214.814 M 257.505 218.614 C 257.505 218.474 257.545 218.344 257.565 218.224 C 257.585 218.104 257.725 217.924 257.805 217.784 C 258.065 217.334 258.345 216.884 258.645 216.444 C 258.565 216.624 258.475 216.804 258.375 216.974 C 258.055 217.504 257.765 218.054 257.505 218.604 M 256.505 220.834 C 256.435 221.034 256.355 221.224 256.305 221.394 C 256.255 221.464 256.225 221.544 256.215 221.634 C 256.235 221.444 256.265 221.254 256.305 221.074 C 256.345 220.894 256.405 220.714 256.485 220.544 C 256.485 220.644 256.485 220.744 256.515 220.844 M 252.695 232.344 C 252.695 232.444 252.705 232.544 252.725 232.644 L 252.695 232.644 C 252.585 232.784 252.515 232.964 252.515 233.144 C 252.545 233.504 252.655 233.844 252.845 234.144 C 252.895 234.264 252.955 234.384 253.025 234.494 C 253.245 235.744 253.535 237.194 253.895 238.834 C 253.895 238.894 253.935 238.964 253.955 239.034 C 253.875 238.934 253.815 238.874 253.775 238.834 C 253.115 237.824 252.555 236.764 252.095 235.654 C 251.625 234.554 251.225 233.434 250.895 232.294 C 251.095 229.784 251.585 227.314 252.365 224.924 C 252.295 227.394 252.405 229.874 252.695 232.324 M 241.435 226.084 C 241.475 226.664 241.475 227.884 241.435 229.744 C 241.375 230.974 241.455 232.194 241.675 233.404 C 241.795 233.874 241.945 234.344 242.125 234.804 C 242.225 235.074 242.395 235.514 242.625 236.114 C 242.855 236.714 243.085 237.564 243.405 238.614 C 244.165 241.005 245.005 243.745 245.905 246.815 C 246.445 248.635 246.905 249.955 247.225 250.765 C 247.675 251.785 248.205 252.775 248.815 253.705 C 249.075 254.135 249.685 255.065 250.645 256.465 C 251.405 257.515 251.935 258.215 252.235 258.575 C 252.745 259.265 253.315 259.925 253.915 260.535 C 254.975 261.495 256.135 262.335 257.375 263.035 C 258.195 263.495 259.465 264.115 261.195 264.905 C 259.565 264.625 257.955 264.185 256.405 263.595 C 254.995 263.075 253.685 262.295 252.555 261.305 C 252.115 260.865 251.715 260.385 251.355 259.885 C 251.195 259.625 250.855 259.095 250.305 258.285 L 248.555 255.905 C 247.735 254.875 247.185 254.165 246.905 253.765 C 246.505 253.165 246.145 252.535 245.825 251.895 C 245.225 250.865 244.695 249.905 244.235 249.015 C 243.475 247.815 242.825 246.535 242.305 245.215 C 242.015 244.415 241.795 243.585 241.645 242.755 C 241.535 242.025 241.465 241.295 241.435 240.555 C 241.115 235.744 241.105 230.914 241.405 226.104 M 249.205 234.394 C 249.005 233.864 248.825 233.364 248.665 232.894 C 248.705 232.364 248.755 231.824 248.815 231.294 C 249.015 232.214 249.275 233.114 249.595 233.994 C 249.595 234.394 249.615 234.784 249.655 235.174 L 249.475 235.174 L 249.475 235.204 C 249.375 234.934 249.285 234.654 249.205 234.374 M 248.605 244.725 C 248.585 244.465 248.515 244.215 248.395 243.985 C 248.215 243.485 248.075 243.085 247.975 242.825 C 247.835 242.455 247.835 242.035 247.975 241.665 C 248.115 242.035 248.295 242.375 248.515 242.695 C 248.725 243.025 248.915 243.375 249.055 243.735 C 249.165 244.005 249.255 244.285 249.295 244.565 C 249.405 245.035 249.485 245.325 249.495 245.425 C 249.635 245.945 249.845 246.455 250.095 246.925 C 250.275 247.265 250.555 247.745 250.935 248.375 C 251.145 248.695 251.325 249.025 251.475 249.375 C 251.625 249.725 251.705 250.095 251.715 250.475 C 251.605 250.425 251.525 250.345 251.475 250.235 L 251.295 249.975 C 250.625 248.825 250.115 247.975 249.755 247.425 C 249.555 247.105 249.375 246.775 249.215 246.425 C 249.035 246.105 248.885 245.765 248.765 245.425 C 248.725 245.295 248.665 245.045 248.585 244.685 M 251.355 243.465 C 251.295 243.505 251.245 243.555 251.205 243.615 C 249.965 242.215 249.165 240.495 248.885 238.654 C 249.385 239.154 249.925 239.755 250.505 240.405 C 250.705 241.275 250.985 242.295 251.345 243.465 M 252.935 244.805 L 252.845 244.715 C 252.725 244.535 252.625 244.345 252.545 244.155 C 252.545 244.085 252.545 244.015 252.515 243.955 C 252.505 243.845 252.475 243.735 252.425 243.625 C 252.395 243.515 252.315 243.425 252.215 243.385 C 252.055 242.935 251.905 242.445 251.765 241.935 C 252.565 242.935 253.435 244.065 254.355 245.325 C 254.635 245.695 254.915 246.065 255.195 246.425 C 254.645 245.965 254.065 245.545 253.455 245.175 L 252.955 244.825 M 256.955 242.035 C 257.035 242.175 257.115 242.325 257.195 242.475 C 258.195 244.365 259.145 245.985 260.055 247.345 C 259.535 246.945 259.045 246.545 258.585 246.125 C 258.075 245.035 257.625 243.915 257.225 242.765 C 257.145 242.525 257.055 242.275 256.955 242.025 M 279.875 222.614 C 279.615 222.724 279.365 222.854 279.125 222.994 C 278.875 223.144 278.645 223.304 278.435 223.494 C 277.775 223.944 277.135 224.414 276.515 224.894 C 276.155 225.194 275.885 225.424 275.705 225.604 C 275.355 225.944 275.055 226.324 274.805 226.734 C 274.665 226.974 274.555 227.154 274.475 227.294 C 274.395 227.434 274.285 227.674 274.205 227.824 C 274.125 228.134 274.055 228.454 274.025 228.774 C 274.025 229.024 273.995 229.364 273.995 229.774 C 273.995 230.524 274.045 231.084 274.085 231.464 C 274.125 232.024 274.255 232.574 274.475 233.094 C 274.565 233.394 274.695 233.674 274.865 233.924 L 275.365 234.664 C 275.545 234.894 275.675 235.064 275.755 235.164 C 275.865 235.354 276.025 235.514 276.205 235.634 C 276.365 235.764 276.525 235.884 276.705 235.984 L 277.245 236.224 C 278.015 236.564 278.825 236.814 279.655 236.964 C 280.465 237.134 281.295 237.204 282.115 237.164 C 282.955 237.154 283.795 237.004 284.585 236.724 C 285.375 236.464 286.115 236.074 286.775 235.564 C 287.165 235.274 287.515 234.934 287.825 234.564 C 288.325 233.904 288.665 233.144 288.825 232.334 C 289.025 231.504 289.075 230.654 288.975 229.814 C 288.835 228.994 288.605 228.194 288.285 227.434 C 287.945 226.674 287.555 225.934 287.115 225.234 C 286.885 224.854 286.635 224.484 286.365 224.144 C 286.075 223.814 285.755 223.514 285.405 223.254 C 284.855 222.914 284.235 222.674 283.595 222.564 C 282.935 222.434 282.265 222.374 281.595 222.384 C 281.235 222.384 280.945 222.384 280.725 222.414 C 280.425 222.444 280.115 222.504 279.825 222.594 M 282.255 222.824 C 282.705 222.854 283.145 222.904 283.585 222.994 C 284.015 223.084 284.425 223.224 284.815 223.404 C 285.215 223.584 285.585 223.834 285.895 224.144 C 286.185 224.394 286.425 224.704 286.615 225.034 C 286.715 225.194 286.835 225.394 286.975 225.654 C 286.925 225.594 286.865 225.534 286.795 225.504 C 286.755 225.434 286.715 225.374 286.675 225.304 C 286.575 225.134 286.465 224.964 286.345 224.804 C 286.245 224.624 286.105 224.464 285.955 224.334 C 285.645 224.034 285.275 223.804 284.875 223.654 C 284.475 223.494 284.065 223.364 283.645 223.264 C 282.955 223.114 282.245 223.024 281.535 223.004 C 280.835 223.004 280.135 223.074 279.465 223.244 C 279.675 223.074 279.915 222.954 280.185 222.914 C 280.445 222.864 280.705 222.834 280.965 222.824 L 282.285 222.824 M 288.185 227.874 C 288.335 228.224 288.465 228.584 288.575 228.944 C 288.575 229.044 288.625 229.194 288.665 229.444 C 288.725 229.774 288.765 230.044 288.785 230.244 C 288.805 230.524 288.815 230.774 288.815 231.014 C 288.815 231.324 288.795 231.634 288.755 231.934 C 288.705 232.224 288.635 232.514 288.545 232.794 C 288.445 233.114 288.355 233.364 288.275 233.564 C 287.995 234.264 287.525 234.874 286.925 235.314 C 286.545 235.574 286.155 235.814 285.755 236.024 C 285.435 236.214 285.105 236.384 284.755 236.524 C 283.715 236.884 282.605 237.014 281.505 236.874 C 282.605 236.794 283.675 236.474 284.635 235.924 C 285.435 235.484 286.165 234.914 286.775 234.234 L 287.015 234.064 C 287.225 233.914 287.435 233.744 287.615 233.564 C 287.795 233.394 287.935 233.184 288.005 232.944 C 288.065 232.694 288.025 232.424 287.895 232.204 C 287.895 232.184 287.885 232.174 287.865 232.174 L 287.865 232.174 C 287.885 232.044 287.915 231.914 287.955 231.794 C 288.065 231.094 288.125 230.394 288.135 229.684 C 288.135 229.204 288.095 228.724 288.015 228.254 L 288.015 227.424 C 288.095 227.594 288.165 227.754 288.225 227.894 M 287.595 230.124 L 287.595 230.394 C 287.555 230.614 287.535 230.834 287.535 231.044 C 287.505 231.164 287.495 231.284 287.505 231.394 L 287.505 231.744 C 287.505 231.744 287.505 231.824 287.475 231.854 C 287.425 231.834 287.375 231.834 287.325 231.824 C 287.345 231.314 287.425 230.814 287.565 230.324 C 287.585 230.254 287.595 230.184 287.595 230.114 M 287.925 230.204 C 287.925 229.954 287.955 229.574 287.955 229.074 C 287.955 229.424 287.995 229.884 288.015 230.434 L 288.015 230.874 C 288.005 231.024 287.945 231.164 287.865 231.284 L 287.865 230.894 C 287.865 230.774 287.875 230.654 287.895 230.544 C 287.905 230.424 287.915 230.304 287.925 230.194 M 276.875 225.764 C 276.875 225.764 276.815 225.804 276.815 225.824 C 276.375 226.284 276.055 226.844 275.885 227.454 L 275.795 227.604 C 275.715 227.744 275.655 227.894 275.615 228.044 C 275.555 228.234 275.505 228.434 275.465 228.634 C 275.425 228.834 275.415 229.024 275.375 229.224 C 275.315 229.694 275.295 230.174 275.315 230.654 C 275.275 230.574 275.255 230.474 275.255 230.384 C 275.235 230.284 275.225 230.184 275.225 230.084 L 275.225 229.054 C 275.205 228.904 275.205 228.754 275.225 228.614 C 275.225 228.444 275.245 228.274 275.285 228.114 C 275.305 228.044 275.335 227.974 275.375 227.914 C 275.425 227.844 275.455 227.764 275.465 227.674 C 275.495 227.584 275.515 227.494 275.525 227.414 C 275.565 227.314 275.595 227.214 275.615 227.114 C 275.705 226.894 275.825 226.694 275.945 226.494 C 276.255 226.024 276.635 225.604 277.055 225.244 C 276.995 225.354 276.955 225.474 276.935 225.594 C 276.915 225.644 276.895 225.694 276.875 225.744 M 277.875 236.084 C 277.575 236.054 277.275 235.964 277.005 235.844 C 276.735 235.774 276.495 235.644 276.285 235.464 C 276.225 235.364 276.155 235.274 276.075 235.194 C 276.045 235.074 275.985 234.974 275.895 234.894 L 275.595 234.454 C 275.515 234.324 275.415 234.204 275.295 234.104 C 275.255 234.024 275.195 233.904 275.115 233.754 C 275.035 233.604 274.915 233.414 274.815 233.254 C 274.685 233.034 274.565 232.804 274.455 232.574 C 274.415 232.424 274.385 232.284 274.365 232.134 C 274.345 231.994 274.335 231.854 274.335 231.724 C 274.255 230.864 274.255 229.994 274.335 229.134 L 274.335 229.784 C 274.305 230.004 274.315 230.224 274.365 230.444 C 274.365 230.534 274.395 230.624 274.425 230.704 C 274.425 230.744 274.485 230.814 274.545 230.944 C 274.575 231.094 274.615 231.244 274.655 231.384 C 274.795 231.804 274.945 232.284 275.105 232.834 C 275.205 233.154 275.285 233.394 275.345 233.544 C 275.425 233.734 275.525 233.914 275.645 234.074 L 275.975 234.574 C 276.055 234.704 276.145 234.824 276.245 234.934 C 276.345 235.064 276.445 235.194 276.545 235.314 C 276.745 235.484 276.955 235.624 277.175 235.754 L 277.865 236.054 M 282.535 235.994 L 282.205 235.994 C 282.365 235.944 282.515 235.874 282.655 235.794 L 283.285 235.734 C 283.665 235.654 284.035 235.554 284.395 235.434 C 284.245 235.504 284.095 235.564 283.945 235.604 C 283.705 235.704 283.545 235.764 283.445 235.804 C 283.285 235.874 283.115 235.934 282.945 235.954 C 282.795 235.974 282.645 235.984 282.495 235.984 M 286.735 232.894 C 286.735 232.894 286.765 232.974 286.765 233.014 C 286.645 233.144 286.505 233.294 286.345 233.454 C 286.165 233.594 285.945 233.674 285.715 233.694 C 285.765 233.624 285.795 233.544 285.805 233.454 C 285.825 233.384 285.855 233.314 285.895 233.254 C 285.955 233.174 286.005 233.084 286.045 232.994 C 286.055 232.954 286.065 232.914 286.075 232.884 C 286.075 232.824 286.135 232.794 286.165 232.794 C 286.195 232.754 286.235 232.734 286.285 232.734 C 286.415 232.714 286.555 232.734 286.675 232.794 C 286.705 232.824 286.725 232.864 286.735 232.904 M 274.515 227.554 C 274.535 227.494 274.565 227.434 274.605 227.374 C 274.645 227.334 274.685 227.304 274.725 227.284 C 274.695 227.394 274.655 227.504 274.605 227.614 C 274.565 227.714 274.535 227.784 274.515 227.854 C 274.515 227.934 274.515 228.014 274.485 228.084 L 274.395 228.174 C 274.395 228.174 274.375 228.234 274.365 228.264 C 274.365 228.294 274.375 228.324 274.395 228.354 C 274.395 228.384 274.395 228.414 274.365 228.434 C 274.365 228.474 274.335 228.524 274.305 228.554 C 274.285 228.594 274.275 228.624 274.275 228.664 C 274.225 228.394 274.265 228.104 274.395 227.864 C 274.465 227.804 274.505 227.764 274.505 227.754 L 274.505 227.554 M 288.795 153.313 C 288.845 153.003 288.875 152.683 288.885 152.363 C 288.885 152.073 288.805 151.783 288.685 151.533 C 288.525 151.253 288.265 151.053 287.965 150.973 C 287.675 150.903 287.365 150.993 287.155 151.203 C 287.005 151.413 286.925 151.663 286.915 151.913 L 286.645 154.143 C 286.615 154.003 286.555 153.863 286.495 153.733 C 286.365 153.303 286.095 152.933 285.745 152.663 C 285.415 152.393 284.995 152.263 284.575 152.283 C 284.295 153.983 283.885 156.563 283.345 160.013 L 283.285 150.853 C 283.285 150.653 283.265 150.453 283.225 150.263 C 283.205 150.063 283.095 149.883 282.925 149.763 C 282.685 149.583 282.355 149.583 282.115 149.763 C 281.835 149.913 281.605 150.143 281.455 150.413 C 281.155 150.933 280.945 151.493 280.825 152.073 L 280.765 152.253 C 280.415 152.423 280.115 152.673 279.895 152.993 C 279.565 153.423 279.365 153.943 279.325 154.493 C 279.255 153.763 279.145 153.093 279.025 152.493 L 278.845 151.933 C 278.755 151.743 278.655 151.563 278.545 151.403 C 278.395 151.253 278.215 151.153 278.005 151.103 C 277.815 151.003 277.585 151.003 277.405 151.103 C 277.125 151.233 276.935 151.503 276.905 151.813 C 276.845 152.143 276.845 152.483 276.905 152.813 C 277.375 155.803 277.705 158.823 277.865 161.853 C 277.945 163.753 278.025 164.983 278.105 165.533 C 278.245 166.753 278.555 167.943 279.035 169.073 C 279.235 169.073 279.435 169.073 279.635 169.103 C 279.825 168.593 279.955 168.063 280.025 167.533 L 280.025 168.303 C 280.025 168.693 280.055 168.993 280.085 169.193 C 280.135 169.463 280.225 169.723 280.355 169.963 C 280.515 170.213 280.745 170.413 281.015 170.533 L 281.045 170.563 C 281.125 171.733 281.085 172.903 280.925 174.063 C 281.575 174.263 282.245 174.403 282.925 174.483 C 282.925 173.033 282.965 171.623 282.985 170.233 L 283.405 170.143 L 284.125 167.563 C 284.065 167.913 284.095 168.263 284.215 168.593 C 284.355 168.973 284.575 169.153 284.875 169.123 C 285.165 169.103 285.405 168.923 285.505 168.653 C 285.635 168.393 285.725 168.113 285.745 167.823 C 285.785 167.233 285.825 166.663 285.865 166.133 C 285.965 166.633 286.155 167.113 286.405 167.563 C 286.655 167.563 286.885 167.463 287.065 167.293 C 287.235 167.123 287.365 166.923 287.455 166.703 C 287.545 166.483 287.605 166.253 287.635 166.023 C 287.635 165.863 287.665 165.633 287.695 165.313 C 287.875 161.423 288.235 157.423 288.775 153.313 M 284.325 161.183 L 284.325 162.403 C 284.345 162.633 284.295 162.863 284.175 163.053 L 284.175 161.183 L 284.325 161.183 Z  M 322.336 188.494 L 321.796 189.384 C 321.296 189.814 320.796 190.194 320.386 190.514 C 320.026 190.744 319.776 191.104 319.666 191.514 C 319.646 191.634 319.656 191.754 319.686 191.864 L 318.846 192.364 C 318.426 192.594 318.026 192.854 317.646 193.134 C 317.266 193.404 316.966 193.774 316.776 194.204 C 316.556 194.614 316.526 195.104 316.686 195.534 C 317.536 195.554 318.386 195.374 319.146 195.004 C 319.946 194.614 320.786 194.304 321.646 194.084 C 321.826 194.044 322.216 193.994 322.816 193.934 C 323.026 193.934 323.236 193.914 323.446 193.874 C 323.546 193.924 323.666 193.954 323.776 193.964 L 320.226 196.464 C 319.976 196.594 319.756 196.794 319.596 197.024 C 319.516 197.144 319.466 197.274 319.446 197.414 C 319.426 197.554 319.446 197.694 319.506 197.824 C 319.986 198.104 320.566 198.144 321.076 197.934 C 321.266 197.524 321.596 197.194 322.006 197.014 C 322.866 196.474 323.686 195.914 324.466 195.324 C 324.516 195.634 324.676 195.924 324.916 196.124 C 325.186 196.444 325.646 196.524 325.996 196.304 C 327.146 194.754 328.556 193.404 330.146 192.304 L 332.496 190.524 C 333.286 189.934 334.026 189.284 334.726 188.594 C 335.046 188.274 335.506 187.774 336.106 187.094 C 336.586 186.583 337.116 186.113 337.666 185.693 C 337.876 185.543 338.066 185.373 338.236 185.193 C 338.416 185.033 338.496 184.783 338.446 184.543 C 338.406 184.363 338.266 184.213 338.086 184.153 C 338.056 184.113 338.016 184.093 337.966 184.093 C 338.046 183.913 338.116 183.753 338.176 183.593 C 337.676 183.203 337.346 182.923 337.126 182.763 C 337.446 182.663 337.716 182.423 337.846 182.113 C 338.006 181.793 338.036 181.423 337.936 181.073 C 337.736 180.393 337.236 179.843 336.586 179.573 C 336.146 179.333 335.636 179.233 335.136 179.273 C 334.696 179.363 334.286 179.573 333.966 179.893 C 333.506 180.343 333.156 180.683 332.916 180.893 C 332.576 181.173 332.216 181.423 331.836 181.633 C 331.456 181.833 331.156 182.003 330.936 182.133 C 329.946 182.543 328.986 182.993 328.046 183.503 C 325.776 184.693 323.816 186.414 322.326 188.504" fill="rgb(113,31,34)"/></g></g></g></g></svg>