<?xml version="1.0" encoding="UTF-8" standalone="no"?><!-- Generator: Gravit.io --><svg xmlns="http://www.w3.org/2000/svg" xmlns:xlink="http://www.w3.org/1999/xlink" style="isolation:isolate" viewBox="0 0 24 24" width="24pt" height="24pt"><defs><clipPath id="_clipPath_okKhm7WDKYzDaopI5m6uKGswpIPlf5Qk"><rect width="24" height="24"/></clipPath></defs><g clip-path="url(#_clipPath_okKhm7WDKYzDaopI5m6uKGswpIPlf5Qk)"><path d=" M 1 6 C 1.6 6 2 5.6 2 5 L 2 3 C 2 2.4 2.4 2 3 2 L 5 2 C 5.6 2 6 1.6 6 1 C 6 0.4 5.6 0 5 0 L 3 0 C 1.3 0 0 1.3 0 3 L 0 5 C 0 5.6 0.4 6 1 6 L 1 6 L 1 6 L 1 6 L 1 6 L 1 6 Z  M 5 22 L 3 22 C 2.4 22 2 21.6 2 21 L 2 19 C 2 18.4 1.6 18 1 18 C 0.4 18 0 18.4 0 19 L 0 21 C 0 22.7 1.3 24 3 24 L 5 24 C 5.6 24 6 23.6 6 23 C 6 22.4 5.6 22 5 22 L 5 22 L 5 22 L 5 22 L 5 22 L 5 22 Z  M 23 18 C 22.4 18 22 18.4 22 19 L 22 21 C 22 21.6 21.6 22 21 22 L 19 22 C 18.4 22 18 22.4 18 23 C 18 23.6 18.4 24 19 24 L 21 24 C 22.7 24 24 22.7 24 21 L 24 19 C 24 18.4 23.6 18 23 18 L 23 18 L 23 18 L 23 18 L 23 18 Z  M 21 0 L 19 0 C 18.4 0 18 0.4 18 1 C 18 1.6 18.4 2 19 2 L 21 2 C 21.6 2 22 2.4 22 3 L 22 5 C 22 5.6 22.4 6 23 6 C 23.6 6 24 5.6 24 5 L 24 3 C 24 1.3 22.7 0 21 0 L 21 0 L 21 0 L 21 0 Z  M 1 12 C 1 12.6 1.4 13 2 13 L 22 13 C 22.6 13 23 12.6 23 12 C 23 11.4 22.6 11 22 11 L 2 11 C 1.4 11 1 11.4 1 12 L 1 12 L 1 12 Z  M 7.5 10 C 8.1 10 8.5 9.6 8.5 9 L 8.5 6 L 15.5 6 L 15.5 9 C 15.5 9.6 15.9 10 16.5 10 C 17.1 10 17.5 9.6 17.5 9 L 17.5 5 C 17.5 4.4 17.1 4 16.5 4 L 7.5 4 C 6.9 4 6.5 4.4 6.5 5 L 6.5 9 C 6.5 9.6 6.9 10 7.5 10 L 7.5 10 Z  M 16.5 14 C 15.9 14 15.5 14.4 15.5 15 L 15.5 18 L 8.5 18 L 8.5 15 C 8.5 14.4 8.1 14 7.5 14 C 6.9 14 6.5 14.4 6.5 15 L 6.5 19 C 6.5 19.6 6.9 20 7.5 20 L 16.5 20 C 17.1 20 17.5 19.6 17.5 19 L 17.5 15 C 17.5 14.4 17.1 14 16.5 14 Z " fill-rule="evenodd" fill="rgb(255,255,255)"/></g></svg>