<?xml version="1.0" encoding="UTF-8"?><svg class="icon-white" id="Camada_1" xmlns="http://www.w3.org/2000/svg" viewBox="0 0 500 500"><defs><style>.cls-1{stroke-width:0px;}</style></defs><g id="Grupo_767"><g id="Grupo_644"><g id="Grupo_643"><path id="Caminho_4049" class="cls-1" d="M131.29,178.86c6.55,0,11.86-5.3,11.86-11.85,0,0,0,0,0-.01v-23.71c0-6.55,5.3-11.86,11.85-11.86h23.72c6.55,0,11.86-5.31,11.86-11.85,0-6.55-5.31-11.86-11.85-11.86,0,0,0,0,0,0h-23.72c-19.64,0-35.57,15.93-35.57,35.57v23.71c0,6.55,5.3,11.86,11.85,11.86h.01"/><path id="Caminho_4050" class="cls-1" d="M178.71,368.58h-23.71c-6.55,0-11.86-5.3-11.86-11.85,0,0,0,0,0-.01v-23.72c-.14-6.55-5.57-11.74-12.11-11.6-6.35.14-11.46,5.25-11.6,11.6v23.72c0,19.64,15.93,35.57,35.58,35.56h23.71c6.55,0,11.85-5.31,11.85-11.85s-5.31-11.85-11.85-11.85"/><path id="Caminho_4051" class="cls-1" d="M392.14,321.15c-6.55,0-11.86,5.3-11.86,11.85h0v23.72c0,6.55-5.31,11.86-11.85,11.86h-23.71c-6.55,0-11.86,5.29-11.87,11.84,0,6.55,5.29,11.86,11.84,11.87h23.75c19.64,0,35.57-15.93,35.57-35.57v-23.71c0-6.55-5.3-11.86-11.85-11.86h-.01"/><path id="Caminho_4052" class="cls-1" d="M368.43,107.71h-23.71c-6.55,0-11.86,5.31-11.86,11.85,0,6.55,5.31,11.86,11.85,11.86h23.71c6.55,0,11.86,5.31,11.86,11.86v23.72c0,6.55,5.31,11.85,11.85,11.85s11.85-5.31,11.85-11.85v-23.72c0-19.64-15.93-35.57-35.57-35.57"/><path id="Caminho_4053" class="cls-1" d="M131.29,250c0,6.54,5.29,11.84,11.83,11.85h237.17c6.55-.14,11.74-5.57,11.6-12.11-.14-6.35-5.25-11.46-11.6-11.6h-237.17c-6.55,0-11.86,5.3-11.86,11.85,0,0,0,0,0,.01"/><path id="Caminho_4054" class="cls-1" d="M214.29,226.29c6.55,0,11.86-5.3,11.86-11.85h0v-35.58h83v35.57c0,6.55,5.31,11.85,11.85,11.85s11.85-5.31,11.85-11.85v-47.43c0-6.55-5.31-11.86-11.85-11.86h-106.71c-6.55,0-11.86,5.31-11.86,11.86v47.43c0,6.55,5.3,11.86,11.85,11.86h.01"/><path id="Caminho_4055" class="cls-1" d="M321,273.72c-6.55,0-11.86,5.3-11.86,11.85v35.55h-83v-35.54c0-6.55-5.31-11.85-11.85-11.85s-11.85,5.31-11.85,11.85v47.42c0,6.55,5.31,11.86,11.85,11.86h106.72c6.55,0,11.86-5.31,11.86-11.86h0v-47.42c0-6.55-5.3-11.86-11.85-11.86h-.01"/></g></g></g></svg>