<?xml version="1.0" standalone="no"?>
<!DOCTYPE svg PUBLIC "-//W3C//DTD SVG 20010904//EN"
 "http://www.w3.org/TR/2001/REC-SVG-20010904/DTD/svg10.dtd">
<svg version="1.0" xmlns="http://www.w3.org/2000/svg"
 width="300.000000pt" height="301.000000pt" viewBox="0 0 300.000000 301.000000"
 preserveAspectRatio="xMidYMid meet">

<g transform="translate(0.000000,301.000000) scale(0.100000,-0.100000)"
fill="#000000" stroke="none">
<path d="M1507 2688 c-9 -7 -23 -38 -31 -68 -8 -31 -46 -132 -85 -225 -55
-130 -91 -199 -155 -295 -45 -69 -119 -199 -164 -290 -44 -91 -108 -211 -143
-268 -60 -99 -61 -103 -44 -122 10 -11 23 -20 30 -20 14 0 70 -59 78 -82 5
-13 -4 -22 -36 -36 -58 -26 -271 -151 -363 -213 -96 -64 -140 -105 -194 -175
-24 -30 -78 -79 -120 -109 -100 -71 -128 -105 -211 -255 -61 -113 -66 -126
-52 -137 9 -7 23 -13 31 -13 24 0 114 90 242 239 106 124 132 148 223 208 181
118 245 144 432 172 63 9 140 14 187 12 21 -1 114 -117 165 -203 20 -35 67
-106 104 -158 54 -77 66 -101 62 -123 -7 -33 16 -44 82 -39 41 4 48 8 63 38 8
19 19 34 23 34 4 0 13 16 19 35 6 19 33 67 59 107 26 40 54 87 63 103 8 17 38
67 66 113 29 46 52 86 52 90 0 13 55 62 69 62 32 -1 156 -50 215 -86 34 -21
114 -76 178 -123 64 -47 141 -103 171 -123 41 -28 61 -51 84 -95 32 -63 87
-105 133 -100 21 2 34 -12 88 -93 79 -121 97 -140 133 -140 42 0 48 35 15 102
-52 106 -167 243 -391 468 -244 245 -232 237 -447 320 -38 15 -58 28 -58 39 0
44 87 216 120 236 29 18 -18 118 -146 315 -23 36 -58 99 -78 140 -48 101 -86
170 -114 208 -13 18 -43 81 -67 140 -70 174 -89 213 -150 302 -80 119 -101
135 -138 108z m23 -172 c0 -19 -56 -152 -76 -178 -16 -23 -16 -23 -10 9 7 41
68 183 78 183 4 0 8 -6 8 -14z m113 -147 c66 -85 126 -197 191 -354 24 -61 77
-164 116 -230 38 -65 75 -137 81 -160 6 -22 18 -62 26 -88 15 -47 15 -49 -6
-78 -12 -17 -34 -56 -49 -87 -42 -87 -33 -83 -115 -62 -190 48 -444 59 -618
26 -122 -23 -150 -20 -169 19 -26 55 -17 129 33 255 58 148 270 581 312 640
18 25 47 74 65 110 38 77 49 92 64 87 6 -2 37 -37 69 -78z m-698 -1182 c-44
-24 -136 -75 -204 -115 -69 -40 -127 -70 -129 -67 -7 6 -11 2 78 62 98 65 287
163 314 163 13 0 -11 -18 -59 -43z m650 13 c131 -11 222 -27 230 -39 2 -5 -75
-14 -173 -21 -165 -11 -298 -29 -371 -50 -27 -8 -33 -5 -52 21 -25 35 -20 55
18 70 77 29 165 34 348 19z m-503 -95 c6 -14 8 -28 5 -31 -7 -7 -114 -22 -212
-30 -51 -4 -57 -3 -40 8 29 19 186 75 213 77 15 1 26 -7 34 -24z m738 -29 c0
-7 -39 -69 -86 -137 -48 -68 -111 -161 -140 -206 -30 -46 -57 -83 -62 -83 -20
0 -136 147 -166 211 -9 19 -32 56 -51 84 -34 49 -43 79 -27 89 17 10 169 39
242 46 41 4 123 8 183 8 84 2 107 -1 107 -12z"/>
</g>
</svg>
