<?xml version="1.0" standalone="no"?>
<!DOCTYPE svg PUBLIC "-//W3C//DTD SVG 20010904//EN"
 "http://www.w3.org/TR/2001/REC-SVG-20010904/DTD/svg10.dtd">
<svg version="1.0" xmlns="http://www.w3.org/2000/svg"
 width="300.000000pt" height="301.000000pt" viewBox="0 0 300.000000 301.000000"
 preserveAspectRatio="xMidYMid meet">

<g transform="translate(0.000000,301.000000) scale(0.100000,-0.100000)"
fill="#000000" stroke="none">
<path d="M1498 2963 c-119 -178 -166 -254 -251 -405 -189 -332 -240 -424 -304
-550 -63 -124 -64 -128 -53 -165 22 -65 91 -196 135 -253 23 -30 54 -74 70
-97 l27 -43 -26 -62 c-47 -114 -76 -275 -76 -422 0 -110 5 -152 30 -261 42
-181 66 -248 107 -297 19 -23 44 -59 55 -81 11 -22 43 -67 72 -101 28 -33 61
-77 73 -97 23 -36 80 -82 142 -114 l35 -17 20 27 c11 15 43 38 72 51 89 39
164 127 238 279 35 72 67 144 71 160 30 117 40 222 40 400 -1 254 -16 409 -50
506 -21 59 -19 91 11 135 32 47 102 173 151 273 37 74 37 74 19 105 -10 17
-38 78 -63 136 -25 58 -66 143 -91 190 -26 47 -68 128 -95 180 -83 163 -125
242 -140 259 -7 9 -19 34 -25 57 -7 22 -30 69 -52 103 -23 35 -48 81 -57 102
-20 52 -50 53 -85 2z m-32 -199 c-4 -9 -9 -15 -11 -12 -3 3 -3 13 1 22 4 9 9
15 11 12 3 -3 3 -13 -1 -22z m106 -82 c34 -54 228 -432 228 -446 0 -3 36 -73
80 -154 44 -82 80 -156 80 -166 0 -26 -105 -215 -138 -248 -8 -8 -17 0 -32 24
-26 45 -244 246 -275 254 -13 3 -36 -1 -52 -10 -35 -18 -179 -173 -217 -233
-14 -24 -30 -43 -34 -43 -4 0 -16 17 -27 37 -11 21 -43 65 -71 99 -56 66 -84
113 -84 141 0 10 16 44 35 76 19 32 35 60 35 63 0 3 10 20 22 37 12 17 36 57
53 88 40 78 134 232 189 312 25 36 54 83 64 104 30 57 80 123 95 123 6 0 28
-26 49 -58z m-595 -824 c24 -26 69 -113 106 -206 14 -34 35 -75 46 -91 22 -31
26 -41 14 -41 -20 0 -175 240 -203 316 -18 45 4 58 37 22z m648 -159 c51 -48
125 -156 125 -182 0 -21 -165 -341 -177 -345 -10 -3 -13 40 -13 190 0 106 -3
237 -7 291 -4 73 -3 97 6 97 7 0 36 -23 66 -51z m-172 -66 c10 -150 9 -351 -2
-357 -12 -8 -96 120 -121 184 -12 30 -26 59 -31 65 -17 17 -9 52 22 96 41 58
100 119 115 119 7 0 13 -37 17 -107z m-166 -267 c54 -74 85 -137 97 -191 6
-27 3 -25 -26 18 -18 26 -59 84 -90 129 -56 79 -71 118 -45 118 6 0 36 -33 64
-74z m571 -20 c22 -45 52 -213 52 -289 -1 -156 -25 -284 -79 -430 -66 -181
-158 -346 -214 -387 l-42 -31 -8 48 c-4 26 -4 80 0 118 4 39 8 167 8 285 l0
215 74 160 c89 192 172 345 186 341 6 -1 16 -15 23 -30z m-615 -65 c25 -33 53
-74 63 -93 9 -18 30 -52 46 -75 16 -24 51 -94 79 -155 l50 -113 -10 -115 c-6
-63 -15 -191 -21 -285 -7 -93 -15 -174 -20 -178 -14 -15 -90 88 -126 173 -20
47 -54 115 -76 152 -22 36 -58 122 -80 190 -33 101 -40 136 -40 195 2 131 51
363 77 363 7 0 32 -27 58 -59z m-7 -806 c49 -102 54 -145 11 -80 -23 35 -67
144 -67 167 0 23 15 -1 56 -87z m539 -204 c-6 -20 -102 -107 -110 -99 -2 2 21
32 52 66 57 63 70 70 58 33z m-310 -157 c20 -13 31 -14 55 -6 33 12 41 -1 11
-18 -30 -15 -47 -12 -78 15 -32 28 -25 33 12 9z"/>
</g>
</svg>
