<?xml version="1.0" standalone="no"?>
<!DOCTYPE svg PUBLIC "-//W3C//DTD SVG 20010904//EN"
 "http://www.w3.org/TR/2001/REC-SVG-20010904/DTD/svg10.dtd">
<svg version="1.0" xmlns="http://www.w3.org/2000/svg"
 width="300.000000pt" height="301.000000pt" viewBox="0 0 300.000000 301.000000"
 preserveAspectRatio="xMidYMid meet">

<g transform="translate(0.000000,301.000000) scale(0.100000,-0.100000)"
fill="#000000" stroke="none">
<path d="M1465 2978 c-4 -13 -33 -70 -64 -128 -32 -58 -74 -143 -94 -190 -36
-86 -116 -317 -137 -400 -7 -25 -17 -51 -22 -57 -12 -15 -68 -42 -162 -78 -86
-33 -127 -61 -252 -173 -98 -88 -101 -92 -191 -258 -50 -93 -101 -199 -112
-236 -45 -149 -49 -357 -11 -558 59 -311 230 -567 493 -737 90 -59 163 -90
274 -119 281 -71 538 -47 788 76 55 27 129 71 165 98 90 69 236 223 294 310
208 314 230 801 51 1140 -51 98 -191 280 -249 323 -27 21 -79 50 -115 64 -36
15 -123 55 -193 88 l-128 60 0 80 c0 59 -8 110 -31 191 -38 140 -41 147 -94
226 -25 36 -59 106 -76 155 -39 113 -61 145 -99 145 -21 0 -30 -6 -35 -22z
m92 -319 c69 -139 86 -201 87 -308 l1 -93 -125 -2 c-69 -2 -141 -6 -161 -10
-35 -8 -37 -7 -43 20 -11 52 63 316 110 391 38 60 67 94 78 90 6 -2 30 -41 53
-88z m73 -573 c52 -17 64 -49 51 -144 -22 -162 -42 -280 -61 -350 -20 -71
-100 -245 -119 -256 -5 -4 -13 4 -17 16 -3 13 -22 48 -40 78 -49 81 -61 124
-99 354 -40 241 -43 290 -17 302 52 23 231 23 302 0z m289 -67 c54 -26 89 -54
192 -159 210 -212 228 -252 236 -505 4 -119 1 -187 -10 -260 -29 -179 -92
-365 -169 -492 -107 -178 -342 -379 -490 -419 -86 -22 -212 -18 -313 11 -220
64 -380 171 -505 337 -191 253 -254 565 -176 873 35 138 87 234 224 415 96
127 126 160 167 182 28 15 53 28 58 28 4 0 7 -15 7 -32 0 -18 5 -51 10 -73 5
-22 18 -92 29 -156 25 -139 69 -269 160 -474 72 -162 151 -295 176 -295 17 0
45 49 45 80 0 11 27 71 60 134 49 93 68 142 100 267 61 234 80 347 80 465 l0
104 26 0 c14 0 56 -14 93 -31z m525 -440 c30 -104 17 -105 -27 -1 -15 35 -27
73 -27 85 0 22 1 22 20 -3 10 -14 26 -50 34 -81z m-1939 -276 c-9 -113 -24
-151 -24 -65 -1 59 15 152 26 152 3 0 2 -39 -2 -87z m1025 -164 c0 -11 -4 -17
-10 -14 -5 3 -10 13 -10 21 0 8 5 14 10 14 6 0 10 -9 10 -21z m870 -347 c-44
-160 -134 -308 -211 -348 -42 -21 -43 -18 -10 23 80 101 139 230 190 420 16
59 33 122 38 138 6 23 9 7 11 -63 2 -71 -2 -112 -18 -170z m-1560 -382 c12
-16 19 -30 16 -30 -2 0 -14 14 -26 30 -12 17 -19 30 -16 30 2 0 14 -13 26 -30z
m75 -100 c10 -11 14 -20 9 -20 -5 0 -15 9 -22 20 -7 11 -11 20 -9 20 2 0 12
-9 22 -20z"/>
</g>
</svg>
