<?xml version="1.0" standalone="no"?>
<!DOCTYPE svg PUBLIC "-//W3C//DTD SVG 20010904//EN"
 "http://www.w3.org/TR/2001/REC-SVG-20010904/DTD/svg10.dtd">
<svg version="1.0" xmlns="http://www.w3.org/2000/svg"
 width="300.000000pt" height="301.000000pt" viewBox="0 0 300.000000 301.000000"
 preserveAspectRatio="xMidYMid meet">

<g transform="translate(0.000000,301.000000) scale(0.100000,-0.100000)"
fill="#000000" stroke="none">
<path d="M1257 2985 c-26 -7 -58 -20 -71 -29 -66 -43 -174 -233 -212 -371 -8
-27 -14 -96 -14 -151 l0 -102 -65 -61 c-36 -33 -74 -61 -85 -61 -36 0 -265
-59 -351 -90 -52 -18 -103 -45 -128 -66 -38 -33 -127 -158 -166 -234 -40 -78
-59 -446 -30 -595 47 -249 238 -442 476 -480 36 -6 55 -18 109 -71 48 -47 82
-70 129 -89 35 -13 87 -40 115 -58 28 -19 63 -41 78 -50 16 -10 29 -29 33 -49
12 -57 77 -169 127 -219 66 -66 166 -112 343 -158 197 -52 238 -56 360 -36
213 34 299 79 460 240 156 157 183 200 201 322 8 54 21 123 29 154 26 101 14
203 -36 301 -17 34 -17 40 -4 79 9 24 18 72 20 108 4 52 9 69 26 81 215 154
267 268 276 606 8 262 -11 313 -173 480 -70 71 -93 87 -194 137 -179 87 -227
100 -338 92 -86 -6 -97 -10 -139 -42 -45 -34 -47 -35 -90 -23 -24 7 -46 17
-49 22 -4 6 -15 48 -25 95 -55 251 -173 335 -469 332 -52 0 -117 -7 -143 -14z
m98 -34 c3 -6 40 -8 88 -4 l82 5 90 -59 c138 -92 168 -132 191 -255 11 -63
-18 -46 -54 31 -62 135 -175 213 -361 253 -73 15 -99 24 -85 29 27 11 42 11
49 0z m25 -71 c58 -12 125 -30 150 -42 57 -28 134 -99 167 -155 24 -41 23 -69
-1 -60 -7 3 -87 2 -177 -2 l-164 -8 -110 -47 c-75 -32 -123 -60 -150 -87 -50
-48 -66 -50 -59 -6 11 68 47 194 65 229 11 21 19 47 19 59 0 29 44 104 72 124
29 20 62 19 188 -5z m787 -316 c37 -10 16 -24 -35 -24 -46 1 -46 1 -22 15 29
17 28 17 57 9z m-424 -53 c26 -10 31 -25 42 -142 6 -61 5 -67 -20 -97 -25 -29
-84 -179 -85 -212 0 -18 -73 -92 -107 -109 -31 -16 -137 -14 -178 3 -27 12
-40 27 -63 78 -39 85 -116 147 -205 163 -28 6 -44 17 -62 44 -14 19 -25 40
-25 45 0 5 15 28 34 51 57 69 192 129 381 170 70 16 253 19 288 6z m475 -33
c23 -22 24 -23 37 -4 12 16 23 18 78 13 144 -13 239 -76 293 -192 47 -104 83
-224 94 -322 12 -105 -1 -250 -29 -324 -26 -68 -83 -160 -96 -156 -5 2 -14 26
-18 53 -5 27 -17 87 -27 134 -10 47 -22 110 -25 140 -4 30 -16 82 -26 115 -35
116 -179 325 -308 448 -39 38 -71 73 -71 78 0 8 53 37 69 39 3 0 15 -10 29
-22z m-391 -65 c-2 -16 -4 -5 -4 22 0 28 2 40 4 28 2 -13 2 -35 0 -50z m103
57 c0 -5 -4 -10 -10 -10 -5 0 -10 5 -10 10 0 6 5 10 10 10 6 0 10 -4 10 -10z
m193 -102 c49 -50 182 -253 261 -398 19 -36 49 -108 66 -160 31 -92 32 -98 28
-243 -4 -170 -8 -180 -94 -193 -41 -6 -47 -3 -87 29 -23 20 -82 70 -132 112
-104 88 -183 138 -274 175 l-66 27 -32 79 c-44 108 -43 128 11 184 48 49 83
132 110 260 9 46 23 81 38 97 28 31 97 83 110 83 5 0 33 -24 61 -52z m566 -57
c47 -74 88 -194 101 -295 8 -65 -1 -311 -16 -416 -8 -56 -33 -107 -75 -148
-32 -31 -66 -49 -76 -39 -2 3 16 40 41 83 81 139 91 182 90 389 0 170 -2 185
-28 265 -15 47 -43 118 -62 159 -50 109 -44 110 25 2z m-1719 -95 c0 -3 -4 -8
-10 -11 -5 -3 -10 -1 -10 4 0 6 5 11 10 11 6 0 10 -2 10 -4z m1859 -96 c0 -33
-14 -8 -23 40 -7 35 -7 35 8 10 9 -14 15 -36 15 -50z m-1000 -17 c-20 -59 -52
-103 -66 -89 -4 3 1 22 10 41 23 49 68 118 73 113 2 -3 -5 -32 -17 -65z m-844
2 c11 -13 36 -49 55 -81 29 -47 53 -68 140 -126 58 -38 109 -77 114 -86 17
-29 35 -144 36 -218 l0 -71 -86 -92 c-72 -76 -90 -90 -109 -85 -30 8 -42 -14
-61 -114 -8 -42 -25 -111 -39 -152 -14 -41 -29 -99 -35 -129 -5 -30 -15 -59
-20 -66 -12 -15 -117 -38 -150 -33 -14 1 -30 14 -37 28 -32 66 -53 118 -53
132 0 9 -16 67 -36 130 -43 137 -48 230 -21 418 23 161 110 431 168 520 39 61
40 62 77 56 21 -4 46 -17 57 -31z m232 8 c45 -30 110 -135 74 -121 -10 4 -113
138 -105 138 2 0 16 -8 31 -17z m-511 -28 c-127 -194 -177 -336 -201 -570 -10
-94 -14 -187 -10 -225 14 -141 37 -256 65 -323 42 -100 29 -110 -74 -52 -93
52 -196 156 -236 239 -42 84 -43 124 -11 331 40 257 60 297 238 481 90 92 116
113 158 126 28 9 58 17 69 17 17 1 17 0 2 -24z m-279 -37 c-9 -24 -219 -333
-228 -336 -41 -15 59 187 138 282 40 48 103 85 90 54z m1210 -136 c-32 -35
-124 -73 -168 -70 -68 5 -56 23 23 36 40 7 91 23 113 36 45 25 56 25 32 -2z
m-962 -148 c-14 -44 -28 -118 -32 -167 -3 -48 -10 -90 -16 -94 -13 -8 1 179
18 238 15 52 44 113 51 106 3 -2 -7 -40 -21 -83z m975 17 c0 -43 -5 -72 -12
-79 -26 -20 -182 -82 -189 -75 -9 11 -18 128 -10 140 3 6 25 14 49 18 23 4 66
20 95 35 29 16 55 29 60 29 4 1 7 -30 7 -68z m-280 -33 c0 -36 -4 -35 -14 5
-4 16 -2 27 4 27 5 0 10 -14 10 -32z m350 -5 c0 -7 -4 -13 -10 -13 -5 0 -10
12 -10 28 0 21 2 24 10 12 5 -8 10 -21 10 -27z m-331 -126 c0 -27 -2 -29 -9
-12 -12 28 -12 57 0 50 6 -3 10 -21 9 -38z m341 -92 c84 -131 163 -182 319
-205 35 -5 100 -18 145 -29 45 -11 93 -23 108 -26 29 -6 98 -103 98 -139 0
-11 -17 -56 -39 -101 -21 -44 -51 -106 -66 -138 -31 -67 -122 -149 -243 -218
-138 -79 -200 -96 -529 -146 -108 -17 -116 -17 -185 1 -40 10 -99 30 -131 44
-74 32 -92 62 -82 141 10 88 23 118 71 160 70 61 231 284 249 344 9 31 15 91
15 152 0 56 3 105 8 109 4 4 7 17 7 28 0 32 106 88 167 88 l48 0 40 -65z
m-1531 18 c0 -16 -4 -46 -8 -68 -8 -37 -9 -35 -10 28 -1 39 3 67 9 67 6 0 10
-12 9 -27z m1782 -12 c70 -25 211 -113 240 -147 35 -42 -103 -20 -171 28 -70
48 -169 148 -147 148 1 0 36 -13 78 -29z m-598 -190 c-21 -111 -111 -294 -163
-331 l-30 -21 19 43 c10 24 39 75 65 113 42 63 76 144 76 184 0 9 5 33 11 55
8 28 14 35 22 27 8 -8 8 -27 0 -70z m-765 -179 c13 -59 39 -145 58 -192 39
-96 41 -113 17 -108 -27 5 -61 77 -78 164 -8 43 -19 99 -24 124 -12 54 -14
120 -3 120 4 0 17 -48 30 -108z m657 77 c-9 -17 -19 -28 -22 -25 -6 6 23 56
32 56 3 0 -2 -14 -10 -31z m1235 -21 c0 -40 -14 -66 -25 -48 -9 15 3 80 15 80
6 0 10 -15 10 -32z m-1374 -54 c-4 -9 -9 -15 -11 -12 -3 3 -3 13 1 22 4 9 9
15 11 12 3 -3 3 -13 -1 -22z m1304 -147 c0 -12 -6 -29 -13 -38 -37 -48 -68
-81 -73 -76 -3 3 11 37 31 76 34 69 55 84 55 38z m120 -118 c10 -39 8 -69 -9
-169 -12 -67 -21 -137 -21 -154 0 -71 -31 -128 -118 -221 -56 -61 -108 -87
-75 -37 10 15 42 72 70 127 63 123 123 346 123 459 0 78 11 76 30 -5z m-2002
-69 c23 -7 42 -17 42 -22 0 -21 -137 33 -180 71 -21 18 -16 17 35 -7 33 -17
79 -35 103 -42z m1897 -42 c-8 -127 -26 -192 -88 -318 -39 -78 -47 -89 -112
-132 -48 -33 -102 -58 -170 -79 -92 -29 -112 -31 -250 -32 -145 -1 -154 0
-272 36 -168 50 -196 64 -204 104 l-6 33 51 0 c29 0 86 9 127 20 41 11 95 20
120 20 57 0 208 32 319 67 146 46 345 200 435 337 21 31 42 56 48 56 6 0 7
-40 2 -112z m-1470 -59 c9 -49 2 -58 -32 -39 -41 24 -52 48 -29 66 35 26 54
18 61 -27z m1169 -60 c-20 -22 -113 -73 -120 -66 -4 3 124 85 135 86 2 1 -4
-8 -15 -20z m-794 -380 c255 -99 349 -114 578 -90 119 12 193 34 278 80 30 16
54 27 54 24 0 -11 -44 -78 -77 -121 -78 -97 -243 -131 -473 -98 -107 16 -237
49 -284 73 -81 41 -173 105 -189 132 -32 54 -24 54 113 0z"/>
</g>
</svg>
