<?xml version="1.0" standalone="no"?>
<!DOCTYPE svg PUBLIC "-//W3C//DTD SVG 20010904//EN"
 "http://www.w3.org/TR/2001/REC-SVG-20010904/DTD/svg10.dtd">
<svg version="1.0" xmlns="http://www.w3.org/2000/svg"
 width="300.000000pt" height="301.000000pt" viewBox="0 0 300.000000 301.000000"
 preserveAspectRatio="xMidYMid meet">

<g transform="translate(0.000000,301.000000) scale(0.100000,-0.100000)"
fill="#000000" stroke="none">
<path d="M1380 2956 c-47 -25 -123 -77 -170 -116 -47 -39 -119 -94 -160 -122
-88 -61 -186 -145 -285 -243 -115 -115 -213 -323 -254 -539 -66 -344 -50 -577
60 -909 90 -270 120 -320 332 -542 54 -57 102 -118 109 -135 10 -30 13 -32 48
-26 31 5 54 -1 122 -33 164 -78 421 -181 496 -200 128 -33 282 -51 428 -51
105 0 160 -5 224 -20 72 -18 92 -19 133 -9 64 15 74 37 53 109 -19 64 -20 93
-5 135 10 28 9 36 -10 62 -32 43 -50 238 -61 663 -7 283 -13 383 -36 550 -15
113 -31 215 -35 227 -5 13 -20 25 -36 28 -15 3 -48 12 -73 21 l-45 15 -45 -51
c-25 -28 -48 -50 -52 -50 -4 0 -30 48 -58 108 -28 59 -84 168 -125 242 -86
158 -124 247 -205 482 -32 95 -73 212 -89 259 -26 71 -29 91 -21 120 15 51 13
54 -32 56 -24 1 -61 4 -83 7 -34 5 -53 -1 -125 -38z m62 -226 c-1 -41 -9 -111
-17 -155 -8 -44 -24 -145 -35 -225 -10 -80 -37 -266 -59 -415 -21 -148 -44
-313 -51 -365 -19 -154 -50 -279 -90 -370 -44 -97 -72 -193 -95 -330 -22 -122
-54 -252 -67 -267 -7 -9 -15 -10 -30 -2 -91 49 -211 248 -285 472 -26 81 -26
85 -25 343 1 260 17 460 47 608 26 124 167 364 292 497 112 118 359 294 403
286 12 -2 14 -17 12 -77z m207 -332 c26 -57 60 -141 76 -188 15 -47 47 -134
71 -193 25 -60 60 -159 78 -220 19 -62 41 -130 50 -152 32 -84 34 -82 -170
-279 -113 -109 -220 -224 -272 -291 -95 -123 -210 -255 -222 -255 -10 0 36
261 60 335 10 33 26 103 35 155 8 52 34 160 56 238 22 79 47 184 55 233 8 49
32 180 53 292 22 111 45 249 50 305 10 99 16 122 27 122 3 0 27 -46 53 -102z
m-990 -300 c-12 -24 -24 -45 -27 -48 -10 -10 8 63 19 77 24 28 28 11 8 -29z
m-59 -251 c0 -18 -6 -41 -12 -50 -11 -15 -12 -9 -10 33 4 55 22 69 22 17z
m-33 -279 c-2 -13 -4 -3 -4 22 0 25 2 35 4 23 2 -13 2 -33 0 -45z m1707 15
c38 -123 57 -362 37 -483 -9 -58 -14 -44 -46 136 -13 76 -33 166 -45 198 -26
77 -25 107 5 140 28 30 42 33 49 9z m-290 -179 c9 -24 7 -62 -4 -69 -5 -3 -49
-52 -97 -108 -121 -142 -204 -227 -220 -227 -35 0 -1 55 132 210 45 52 101
121 124 153 44 60 55 67 65 41z m64 -254 c12 -47 34 -119 48 -160 30 -89 94
-307 129 -438 37 -139 77 -384 64 -397 -16 -15 -196 -10 -264 8 -33 9 -132 32
-220 50 -302 65 -567 166 -589 224 -8 20 74 106 249 261 159 140 418 401 478
480 64 84 76 81 105 -28z m-646 -347 c-44 -56 -82 -89 -82 -73 0 16 89 110
103 110 5 0 -5 -17 -21 -37z"/>
</g>
</svg>
