<?xml version="1.0" standalone="no"?>
<!DOCTYPE svg PUBLIC "-//W3C//DTD SVG 20010904//EN"
 "http://www.w3.org/TR/2001/REC-SVG-20010904/DTD/svg10.dtd">
<svg version="1.0" xmlns="http://www.w3.org/2000/svg"
 width="300.000000pt" height="301.000000pt" viewBox="0 0 300.000000 301.000000"
 preserveAspectRatio="xMidYMid meet">

<g transform="translate(0.000000,301.000000) scale(0.100000,-0.100000)"
fill="#000000" stroke="none">
<path d="M1315 2985 c-33 -7 -91 -25 -130 -40 -38 -15 -122 -45 -185 -67 -63
-21 -151 -57 -195 -78 -139 -67 -441 -327 -528 -455 -23 -33 -55 -91 -72 -130
-17 -38 -50 -106 -72 -150 -76 -150 -113 -325 -113 -542 0 -202 61 -456 150
-623 43 -79 80 -157 130 -266 17 -37 50 -96 74 -133 59 -88 212 -235 308 -294
82 -52 267 -138 361 -168 149 -48 350 -46 597 7 265 56 319 81 569 261 128 92
396 357 463 458 44 67 223 442 246 515 6 19 14 71 17 115 4 44 16 107 26 140
25 80 24 127 -7 286 -14 74 -26 174 -28 224 l-2 90 -61 50 c-33 27 -79 61
-101 74 -33 19 -51 43 -88 113 -40 75 -64 105 -151 188 -186 177 -196 184
-374 259 -219 91 -379 147 -479 165 -98 19 -272 19 -355 1z m85 -279 c0 -21
-17 -31 -132 -76 -194 -75 -478 -232 -592 -326 -88 -74 -133 -138 -219 -309
-91 -183 -88 -178 -131 -350 -54 -217 -60 -253 -60 -360 -1 -96 1 -103 37
-179 20 -43 35 -81 33 -84 -3 -3 -16 3 -30 11 -19 13 -33 44 -61 134 -69 221
-79 321 -49 495 30 179 93 315 226 493 253 340 536 504 971 564 4 1 7 -5 7
-13z m504 -102 c49 -8 105 -22 124 -30 19 -8 94 -72 167 -144 103 -101 145
-136 196 -160 35 -16 69 -30 75 -30 5 0 31 -13 56 -29 37 -24 53 -44 82 -103
51 -102 58 -160 35 -275 -34 -163 -66 -235 -173 -391 -110 -158 -197 -248
-303 -311 -184 -109 -451 -158 -630 -116 -269 63 -366 217 -284 452 36 104 93
200 166 280 61 67 196 163 258 183 35 11 41 10 63 -11 36 -34 73 -116 80 -180
6 -54 6 -57 -25 -78 -18 -13 -49 -25 -69 -28 -32 -4 -45 1 -100 41 -80 59
-109 60 -138 5 -13 -26 -12 -34 5 -85 26 -73 62 -119 114 -146 36 -19 56 -21
141 -20 168 4 213 27 266 137 57 119 49 246 -22 357 -46 73 -143 157 -228 197
-74 36 -76 36 -205 36 -166 0 -178 -6 -347 -175 -103 -102 -134 -140 -158
-192 -49 -105 -64 -192 -64 -373 0 -146 2 -167 26 -238 29 -85 71 -148 167
-245 78 -79 137 -117 225 -144 59 -18 85 -20 190 -15 202 8 404 62 610 163
152 74 224 132 307 247 29 40 69 91 90 114 l38 41 17 -25 c13 -21 15 -40 11
-91 -8 -83 -44 -159 -116 -247 -31 -38 -104 -132 -160 -207 -115 -154 -163
-201 -260 -254 -36 -20 -114 -65 -173 -101 -137 -82 -156 -89 -299 -118 -298
-61 -428 -57 -578 16 -92 45 -180 127 -333 309 -145 173 -210 287 -285 505
-35 103 -37 118 -38 230 0 97 4 132 22 185 12 36 27 92 33 125 16 82 60 190
126 307 66 117 135 203 207 257 109 82 495 288 593 316 32 10 76 26 98 37 96
49 208 55 400 22z"/>
</g>
</svg>
