<?xml version="1.0" encoding="UTF-8" standalone="no"?><!-- Generator: Gravit.io --><svg xmlns="http://www.w3.org/2000/svg" xmlns:xlink="http://www.w3.org/1999/xlink" style="isolation:isolate" viewBox="0 0 182 182" width="182pt" height="182pt"><defs><clipPath id="_clipPath_FQoxTtHJ4FMbpq3zRCrklgtcmCimqqGO"><rect width="182" height="182"/></clipPath></defs><g clip-path="url(#_clipPath_FQoxTtHJ4FMbpq3zRCrklgtcmCimqqGO)"><clipPath id="_clipPath_3UapiAjwlProrL5k3nQjIsgVDpHAz0gt"><rect x="0" y="0" width="182" height="182.05" transform="matrix(1,0,0,1,0,0)" fill="rgb(255,255,255)"/></clipPath><g clip-path="url(#_clipPath_3UapiAjwlProrL5k3nQjIsgVDpHAz0gt)"><g><g><path d=" M 91.005 146.6 C 91.795 146.6 92.565 146.42 93.274 146.07 L 138.762 123.36 C 140.481 122.5 141.561 120.75 141.561 118.83 L 141.561 63.21 C 141.561 62.76 141.491 62.31 141.371 61.87 C 141.331 61.73 141.251 61.6 141.201 61.46 C 140.931 60.78 140.531 60.15 140.022 59.61 C 139.732 59.38 139.442 59.14 139.162 58.91 C 139.092 58.86 139.012 58.85 138.942 58.81 C 138.872 58.77 138.822 58.72 138.762 58.69 L 93.264 35.99 C 91.845 35.28 90.175 35.28 88.756 35.99 L 43.248 58.69 C 43.178 58.72 43.128 58.78 43.068 58.81 C 43.008 58.84 42.918 58.87 42.848 58.91 L 41.978 59.61 C 41.439 60.12 41.039 60.75 40.799 61.46 C 40.749 61.6 40.679 61.73 40.639 61.87 C 40.519 62.31 40.449 62.76 40.449 63.21 L 40.449 118.83 C 40.449 120.75 41.529 122.5 43.248 123.36 L 88.756 146.06 C 89.455 146.41 90.235 146.6 91.025 146.59 M 131.484 115.7 L 96.064 133.37 L 96.064 89.04 L 131.454 71.38 L 131.484 115.7 L 131.484 115.7 Z  M 91.025 46.15 L 125.206 63.2 L 91.015 80.26 L 56.844 63.2 L 91.025 46.14 L 91.025 46.15 Z  M 50.566 71.38 L 85.956 89.03 L 85.956 133.35 L 50.566 115.7 L 50.566 71.38 Z " fill="rgb(232,236,224)"/><path d=" M 158.696 30.34 L 161.786 30.34 C 164.575 30.28 166.794 27.97 166.734 25.17 C 166.674 22.47 164.515 20.3 161.826 20.22 L 146.61 20.22 C 146.35 20.25 146.09 20.31 145.84 20.38 C 145.75 20.38 145.66 20.42 145.56 20.44 C 145.16 20.51 144.76 20.63 144.39 20.8 L 144.35 20.8 C 143.88 21.02 143.441 21.32 143.051 21.67 C 143.011 21.72 142.971 21.76 142.931 21.81 C 141.971 22.77 141.431 24.07 141.441 25.42 L 141.551 40.49 C 141.571 43.27 143.83 45.51 146.6 45.51 L 146.64 45.51 C 149.429 45.49 151.678 43.21 151.658 40.42 C 151.658 40.42 151.658 40.42 151.658 40.42 L 151.638 37.48 C 181.19 70.99 177.991 122.13 144.49 151.69 C 129.714 164.73 110.69 171.92 90.995 171.93 C 88.206 172 85.996 174.32 86.066 177.11 C 86.136 179.8 88.296 181.97 90.995 182.04 C 141.191 182.1 181.93 141.44 181.99 91.22 C 182.01 68.74 173.712 47.06 158.696 30.34" fill="rgb(232,236,224)"/><path d=" M 40.449 141.56 C 40.429 138.78 38.17 136.54 35.39 136.54 L 35.35 136.54 C 32.561 136.56 30.312 138.84 30.332 141.63 C 30.332 141.63 30.332 141.63 30.332 141.63 L 30.352 144.57 C 0.79 111.06 3.979 59.93 37.48 30.36 C 52.256 17.31 71.29 10.11 90.995 10.11 C 93.784 10.18 96.104 7.97 96.174 5.18 C 96.244 2.39 94.034 0.07 91.245 0 C 91.155 0 91.075 0 90.985 0 C 40.789 -0.06 0.04 40.59 -0.02 90.8 C -0.05 113.29 8.258 134.98 23.284 151.7 L 20.194 151.7 C 17.405 151.62 15.076 153.82 14.996 156.61 C 14.916 159.4 17.115 161.73 19.905 161.81 C 19.985 161.81 20.074 161.81 20.154 161.81 L 35.37 161.81 C 36.15 161.8 36.91 161.6 37.59 161.24 L 37.62 161.24 C 38.1 161.02 38.529 160.72 38.919 160.36 C 38.959 160.32 38.989 160.27 39.029 160.23 C 39.999 159.28 40.549 157.98 40.549 156.62 L 40.419 141.54 L 40.449 141.56 Z " fill="rgb(232,236,224)"/></g></g></g></g></svg>