<?xml version="1.0" encoding="UTF-8"?><svg class="icon-white" id="Camada_1" xmlns="http://www.w3.org/2000/svg" viewBox="0 0 500 500"><defs><style>.cls-1{stroke-width:0px;}</style></defs><g id="Grupo_583"><g id="Grupo_277"><g id="Grupo_276"><path id="Caminho_1961" class="cls-1" d="M266.46,349.11c1.35,0,2.68-.31,3.89-.92l78.04-38.95c2.95-1.47,4.8-4.48,4.8-7.77v-95.38c0-.78-.11-1.55-.32-2.3-.07-.24-.2-.46-.28-.71-.46-1.17-1.15-2.25-2.02-3.17-.49-.4-.99-.8-1.48-1.2-.12-.08-.26-.1-.38-.17s-.2-.16-.31-.21l-78.05-38.94c-2.44-1.21-5.3-1.21-7.74,0l-78.06,38.94c-.12.06-.2.15-.32.21s-.25.11-.37.17l-1.49,1.2c-.92.87-1.62,1.96-2.02,3.17-.09.24-.21.47-.28.71-.21.75-.32,1.52-.32,2.3v95.38c0,3.29,1.85,6.3,4.8,7.77l78.06,38.94c1.21.6,2.54.92,3.89.92M335.89,296.12l-60.76,30.3v-76.03l60.71-30.28.05,76.02ZM266.49,176.84l58.63,29.24-58.65,29.26-58.62-29.25,58.64-29.25ZM197.08,220.12l60.71,30.27v76.02l-60.71-30.27v-76.02Z"/><path id="Caminho_1962" class="cls-1" d="M382.59,149.72h5.29c4.79-.1,8.59-4.07,8.49-8.86-.1-4.62-3.81-8.36-8.43-8.49h-26.1c-.45.06-.89.15-1.32.27-.16,0-.31.07-.47.09-.69.12-1.37.33-2.01.61h-.06c-.81.38-1.56.89-2.22,1.5-.06.08-.13.16-.2.23-1.65,1.64-2.57,3.87-2.55,6.2l.19,25.85c.03,4.76,3.9,8.61,8.67,8.61h.06c4.79-.03,8.65-3.94,8.61-8.73,0,0,0,0,0,0l-.04-5.04c50.7,57.47,45.21,145.17-12.27,195.87-25.34,22.36-57.98,34.7-91.77,34.7-4.79.12-8.57,4.1-8.45,8.89.12,4.62,3.83,8.33,8.45,8.45,86.11.1,156-69.63,156.09-155.75.04-38.55-14.19-75.74-39.96-104.41"/><path id="Caminho_1963" class="cls-1" d="M179.74,340.46c-.03-4.77-3.91-8.61-8.67-8.61h-.07c-4.79.04-8.64,3.95-8.6,8.73,0,0,0,0,0,.01l.03,5.04c-50.71-57.46-45.24-145.16,12.22-195.87,25.35-22.37,58-34.72,91.81-34.72,4.79.12,8.77-3.66,8.89-8.45.12-4.79-3.66-8.77-8.45-8.89-.15,0-.29,0-.44,0-86.11-.11-156,69.61-156.11,155.73-.05,38.56,14.2,75.78,39.98,104.45h-5.29c-4.79-.14-8.78,3.64-8.92,8.42-.14,4.79,3.64,8.78,8.42,8.92.15,0,.29,0,.44,0h26.1c1.33-.02,2.64-.35,3.81-.97h.04c.82-.38,1.56-.89,2.22-1.5.07-.07.12-.16.19-.23,1.67-1.62,2.61-3.86,2.6-6.19l-.22-25.86Z"/></g></g></g></svg>