<?xml version="1.0" encoding="utf-8"?>
<!-- Generator: Adobe Illustrator 28.2.0, SVG Export Plug-In . SVG Version: 6.00 Build 0)  -->
<svg version="1.1" id="Camada_1" xmlns="http://www.w3.org/2000/svg" xmlns:xlink="http://www.w3.org/1999/xlink" x="0px" y="0px"
	 viewBox="0 0 179 164" style="enable-background:new 0 0 179 164;" xml:space="preserve">
<style type="text/css">
	.st0{clip-path:url(#SVGID_00000116913702187886410840000012911292756455502498_);}
	.st1{fill:#E7EBE0;}
</style>
<g id="Grupo_888" transform="translate(-0.392 0.303)">
	<g>
		<defs>
			<rect id="SVGID_1_" x="20.1" y="17" width="140.3" height="121"/>
		</defs>
		<clipPath id="SVGID_00000114058822355635716710000015288095402915481512_">
			<use xlink:href="#SVGID_1_"  style="overflow:visible;"/>
		</clipPath>
		
			<g id="Grupo_887" transform="translate(0.169 -0.056)" style="clip-path:url(#SVGID_00000114058822355635716710000015288095402915481512_);">
			<path id="Caminho_5320" class="st1" d="M43.6,53.3c5.9,0,10.6-4.7,10.6-10.6s-4.7-10.6-10.6-10.6S33,36.8,33,42.7
				S37.7,53.3,43.6,53.3L43.6,53.3 M43.6,39.1c2,0,3.5,1.6,3.5,3.5s-1.6,3.5-3.5,3.5c-2,0-3.5-1.6-3.5-3.5l0,0
				C40.1,40.7,41.6,39.1,43.6,39.1"/>
			<path id="Caminho_5321" class="st1" d="M149.6,39.1h-31.8V28.5c0-5.9-4.7-10.6-10.6-10.6H29.5c-5.9,0-10.6,4.7-10.6,10.6
				c0,0,0,0,0,0v77.8c0,5.9,4.7,10.6,10.6,10.6h31.8v10.6c0,5.9,4.7,10.6,10.6,10.6h77.8c5.9,0,10.6-4.7,10.6-10.6V49.7
				C160.2,43.9,155.5,39.1,149.6,39.1 M149.6,46.2c2,0,3.5,1.6,3.5,3.5v63.6H68.3V49.7c0-2,1.6-3.5,3.5-3.5L149.6,46.2z M25.9,86.9
				l29.3-20.5c1.3-0.9,3.2-0.8,4.4,0.2l1.7,1.5v23.9H25.9V86.9z M29.5,25h77.8c2,0,3.5,1.6,3.5,3.5v10.6H71.9
				c-5.9,0-10.6,4.7-10.6,10.6l0,0v9.8c-3.4-1.4-7.2-1-10.1,1.1L25.9,78.3V28.5C25.9,26.6,27.5,25,29.5,25 M29.5,109.8
				c-2,0-3.5-1.6-3.5-3.5v-7.1h35.3v10.6H29.5z M153.2,127.5c0,2-1.6,3.5-3.5,3.5H71.9c-2,0-3.5-1.6-3.5-3.5v-7.1h84.8V127.5z"/>
			<path id="Caminho_5322" class="st1" d="M96.6,102.7c1.1,0.6,2.3,1,3.5,1c1.2,0,2.3-0.3,3.3-0.8l28.3-15.1
				c3.4-1.8,4.7-6.1,2.9-9.6c-0.7-1.2-1.7-2.3-2.9-2.9l-28.3-15c-3.4-1.8-7.7-0.5-9.6,2.9c-0.5,1-0.8,2.2-0.8,3.3v30.1
				C93.1,99.2,94.4,101.5,96.6,102.7 M100.1,66.6l28.3,14.9l-28.3,15V66.6z"/>
		</g>
	</g>
</g>
</svg>
