<?xml version="1.0" encoding="UTF-8"?><svg id="Camada_1" xmlns="http://www.w3.org/2000/svg" viewBox="0 0 500 500"><defs><style>.cls-1{stroke-width:0px;}</style></defs><g id="Grupo_579"><g id="Grupo_888"><g id="Grupo_887"><path id="Caminho_5320" class="cls-1" d="M157.25,200.05c11.82,0,21.41-9.58,21.41-21.41s-9.58-21.41-21.41-21.41-21.41,9.58-21.41,21.41,9.58,21.41,21.41,21.41h0M157.25,171.51c3.94,0,7.14,3.19,7.14,7.14s-3.19,7.14-7.14,7.14-7.14-3.19-7.14-7.14h0c0-3.94,3.2-7.13,7.14-7.14"/><path id="Caminho_5321" class="cls-1" d="M371.31,171.51h-64.22v-21.41c0-11.82-9.58-21.41-21.41-21.41h-156.98c-11.82,0-21.41,9.58-21.41,21.41h0v156.98c0,11.82,9.58,21.41,21.41,21.41h64.22v21.41c0,11.82,9.58,21.41,21.41,21.41h156.98c11.81,0,21.39-9.59,21.39-21.4v-156.98c0-11.82-9.57-21.4-21.39-21.41M371.31,185.78c3.94,0,7.13,3.2,7.14,7.14v128.46h-171.25v-128.46c0-3.94,3.2-7.13,7.14-7.14h156.98ZM121.57,267.99l59.08-41.32c2.71-1.91,6.37-1.7,8.85.5l3.43,3.07v48.31h-71.36v-10.56ZM128.7,142.97h156.98c3.94,0,7.13,3.2,7.14,7.14v21.41h-78.49c-11.82,0-21.41,9.58-21.41,21.41h0v19.77c-6.77-2.79-14.49-1.93-20.48,2.28l-50.88,35.61v-100.47c0-3.94,3.2-7.13,7.14-7.14M128.7,314.22c-3.94,0-7.13-3.2-7.14-7.14v-14.27h71.36v21.41h-64.22ZM378.45,349.9c0,3.94-3.2,7.13-7.14,7.14h-156.98c-3.94,0-7.13-3.2-7.14-7.14v-14.27h171.25v14.27Z"/><path id="Caminho_5322" class="cls-1" d="M264.28,299.95c2.16,1.28,4.62,1.97,7.14,2,2.34-.02,4.63-.59,6.71-1.67l57.09-30.4c6.96-3.71,9.59-12.35,5.88-19.31-1.33-2.5-3.38-4.55-5.88-5.88l-57.09-30.31c-6.96-3.7-15.6-1.07-19.3,5.89-1.09,2.05-1.67,4.34-1.67,6.67v60.72c.03,5.07,2.75,9.74,7.14,12.27M271.42,226.96l57.09,30.18-57.09,30.32v-60.51Z"/></g></g></g></svg>