<?xml version="1.0" encoding="UTF-8"?><svg class="icon-white" id="Camada_1" xmlns="http://www.w3.org/2000/svg" viewBox="0 0 500 500"><defs><style>.cls-1{stroke-width:0px;}</style></defs><g id="Grupo_650"><g id="Grupo_640"><g id="Grupo_639"><path id="Caminho_4047" class="cls-1" d="M264.75,94.32l-125.04,93.77c-2.33,1.8-3.7,4.58-3.71,7.52v168.8c.19,5.1,4.28,9.19,9.38,9.38h84.4c5.1-.19,9.19-4.28,9.38-9.38v-96.9h62.52v96.9c.19,5.1,4.28,9.19,9.38,9.38h84.4c5.1-.19,9.19-4.28,9.38-9.38v-168.8c-.02-2.94-1.38-5.72-3.71-7.52l-125.04-93.77c-3.37-2.48-7.96-2.48-11.33,0M270.42,113.56l115.66,86.74v154.74h-65.64v-96.9c0-4.91-4.44-15.63-9.38-15.63h-81.27c-4.91,0-9.38,10.72-9.38,15.63v96.9h-65.64v-154.73l115.66-86.75Z"/></g></g></g></svg>