<?xml version="1.0" encoding="UTF-8" standalone="no"?><!-- Generator: Gravit.io --><svg xmlns="http://www.w3.org/2000/svg" xmlns:xlink="http://www.w3.org/1999/xlink" style="isolation:isolate" viewBox="0 0 86 90" width="86pt" height="90pt"><defs><clipPath id="_clipPath_vBuetiMuXHs6lhrt7nPQbjR9u06fFWTW"><rect width="86" height="90"/></clipPath></defs><g clip-path="url(#_clipPath_vBuetiMuXHs6lhrt7nPQbjR9u06fFWTW)"><g><g><path d=" M 41.2 0.6 L 1.2 30.6 C 0.5 31.2 0 32.1 0 33 L 0 87 C 0 88.6 1.4 90 3 90 L 30 90 C 31.6 90 33 88.6 33 87 L 33 56 L 53 56 L 53 87 C 53 88.6 54.4 90 56 90 L 83 90 C 84.6 90 86 88.6 86 87 L 86 33 C 86 32.1 85.6 31.2 84.8 30.6 L 44.8 0.6 C 43.5 -0.3 42.4 -0.2 41.2 0.6 Z  M 43 6.7 L 80 34.4 L 80 83.9 L 59 83.9 L 59 52.9 C 59 51.3 57.6 47.9 56 47.9 L 30 47.9 C 28.4 47.9 27 51.3 27 52.9 L 27 83.9 L 6 83.9 L 6 34.4 L 43 6.7 Z " fill="rgb(255,255,255)"/></g></g></g></svg>