<?xml version="1.0" encoding="UTF-8" standalone="no"?><!-- Generator: Gravit.io --><svg xmlns="http://www.w3.org/2000/svg" xmlns:xlink="http://www.w3.org/1999/xlink" style="isolation:isolate" viewBox="0 0 88 58" width="88pt" height="58pt"><defs><clipPath id="_clipPath_cO2wEhFlPit2gFl4QPKFfZiuhrtUIAIy"><rect width="88" height="58"/></clipPath></defs><g clip-path="url(#_clipPath_cO2wEhFlPit2gFl4QPKFfZiuhrtUIAIy)"><path d=" M 6 0 C 2.7 0 0 2.7 0 6 L 0 52 C 0 55.3 2.7 58 6 58 L 82 58 C 85.3 58 88 55.3 88 52 L 88 6 C 88 2.7 85.3 0 82 0 L 6 0 Z  M 6 4 L 82 4 C 83.1 4 84 4.9 84 6 L 84 43.2 C 81 41.2 78.4 39.3 76.1 37.9 C 73.1 36.1 70.2 35 67 35 C 62.3 35 57.1 37.2 50.2 41.5 C 45.2 37.3 41.2 34 37.8 31.7 C 34 29.3 30.6 28 27 28 C 20.5 28 14.2 32.1 4 39.9 L 4 6 C 4 4.9 4.9 4 6 4 Z  M 65 12 C 60.1 12 56 16.1 56 21 C 56 25.9 60.1 30 65 30 C 69.9 30 74 25.9 74 21 C 74 16.1 69.9 12 65 12 Z  M 65 16 C 67.8 16 70 18.2 70 21 C 70 23.8 67.8 26 65 26 C 62.2 26 60 23.8 60 21 C 60 18.2 62.2 16 65 16 Z  M 27 32 C 29.6 32 32.2 32.9 35.6 35.1 C 39 37.3 43.2 40.8 48.7 45.5 C 49.4 46.1 50.4 46.1 51.1 45.7 C 58.4 40.9 63.3 39 67 39 C 69.3 39 71.4 39.8 74.1 41.4 C 76.7 43 79.9 45.3 84 48.1 L 84 52 C 84 53.1 83.1 54 82 54 L 6 54 C 4.9 54 4 53.1 4 52 L 4 45 C 15.6 35.9 21.9 32 27 32 Z " fill="rgb(255,255,255)"/></g></svg>