<?xml version="1.0" encoding="UTF-8"?><svg class="icon-white" id="Camada_1" xmlns="http://www.w3.org/2000/svg" viewBox="0 0 500 500"><defs><style>.cls-1{stroke-width:0px;}</style></defs><g id="Grupo_584"><g id="Grupo_284"><g id="Grupo_283"><path id="Caminho_1972" class="cls-1" d="M101.41,141.17c-12.41.06-22.45,10.11-22.52,22.52v172.61c.05,12.42,10.1,22.47,22.52,22.54h285.18c12.41-.06,22.45-10.11,22.52-22.52v-172.63c-.06-12.41-10.11-22.45-22.52-22.52H101.41ZM101.41,156.16h285.18c4.05-.1,7.41,3.1,7.51,7.15,0,.12,0,.24,0,.36v139.68c-11.07-7.68-20.83-14.65-29.55-19.82-10.18-6.76-22.03-10.57-34.24-11.02-17.66,0-37.2,8.11-63.09,24.51-14.77-13.2-30.34-25.45-46.64-36.7-11.77-8.55-25.8-13.45-40.34-14.07-24.3,0-47.94,15.21-86.3,44.79v-127.34c-.11-4.05,3.08-7.41,7.13-7.52.12,0,.23,0,.35,0M322.8,186.19c-18.65,0-33.77,15.12-33.77,33.77s15.12,33.77,33.77,33.77,33.77-15.12,33.77-33.77c-.05-18.63-15.14-33.72-33.77-33.77M322.8,201.19c10.36,0,18.76,8.4,18.76,18.76s-8.4,18.76-18.76,18.76c-10.36,0-18.76-8.4-18.76-18.76-.06-10.3,8.24-18.7,18.54-18.76.07,0,.15,0,.22,0M180.21,261.24c9.81,0,19.43,3.47,32.25,11.73,17.16,11.99,33.56,25.03,49.12,39.05,2.54,2.19,6.23,2.43,9.03.59,27.51-17.98,45.77-25.1,59.69-25.1,9.49.41,18.68,3.49,26.5,8.88,9.84,5.84,21.79,14.64,37.29,25.09v14.78c.1,4.05-3.1,7.41-7.15,7.51-.12,0-.24,0-.36,0H101.41c-4.05.11-7.41-3.08-7.52-7.13,0-.11,0-.23,0-.34v-26.39c43.66-34.07,67.19-48.67,86.3-48.66"/></g></g></g></svg>