<?xml version="1.0" encoding="UTF-8" standalone="no"?><!-- Generator: Gravit.io --><svg xmlns="http://www.w3.org/2000/svg" xmlns:xlink="http://www.w3.org/1999/xlink" style="isolation:isolate" viewBox="0 0 91 91" width="91pt" height="91pt"><defs><clipPath id="_clipPath_hkTW2XgvYsuGLHC2Gwo1PJJ8ypKZHmqE"><rect width="91" height="91"/></clipPath></defs><g clip-path="url(#_clipPath_hkTW2XgvYsuGLHC2Gwo1PJJ8ypKZHmqE)"><g><g><g><g><path d=" M 45.5 0 C 20.4 0 0 20.4 0 45.5 C 0 70.6 20.4 91 45.5 91 C 70.6 91 91 70.6 91 45.5 C 91 20.4 70.6 0 45.5 0 Z  M 45.5 85 C 23.7 85 6 67.3 6 45.5 C 6 23.7 23.7 6 45.5 6 C 67.3 6 85 23.7 85 45.5 C 85 67.3 67.3 85 45.5 85 Z " /><path d=" M 45.5 18.8 C 42.9 18.8 40.9 20.9 40.9 23.4 C 40.9 24.6 41.4 25.8 42.3 26.7 C 43.2 27.6 44.3 28.1 45.6 28.1 C 48.2 28.1 50.2 26 50.2 23.5 C 50.2 21 48.1 18.8 45.5 18.8 Z " /><path d=" M 45.5 35.7 C 43.3 35.7 41.6 37.5 41.6 39.6 L 41.6 69.3 C 41.6 71.5 43.4 73.2 45.5 73.2 C 47.7 73.2 49.4 71.4 49.4 69.3 L 49.4 39.6 C 49.4 37.4 47.7 35.7 45.5 35.7 Z " /></g></g></g></g></g></svg>