<?xml version="1.0" encoding="UTF-8"?><svg class="icon-white" id="Camada_1" xmlns="http://www.w3.org/2000/svg" viewBox="0 0 500 500"><defs><style>.cls-1{stroke-width:0px;}</style></defs><g id="Grupo_259"><g id="Grupo_258"><path id="Caminho_1819" class="cls-1" d="M249.99,125.66c-68.67,0-124.33,55.68-124.33,124.35,0,68.67,55.68,124.33,124.35,124.33,68.66,0,124.33-55.67,124.33-124.34.03-68.64-55.58-124.3-124.21-124.34-.05,0-.09,0-.14,0M249.76,192.69c9.3,0,16.85,7.54,16.85,16.85s-7.54,16.85-16.85,16.85-16.85-7.54-16.85-16.85c.02-9.3,7.55-16.83,16.85-16.85M264.01,321.42h-14.02c-6.23-.02-11.28-5.07-11.3-11.3v-45.65h-3.16c-6.24,0-11.3-5.06-11.3-11.3s5.06-11.3,11.3-11.3h14.47c6.23.02,11.28,5.07,11.3,11.3v45.66h2.71c6.24,0,11.3,5.06,11.3,11.3s-5.06,11.3-11.3,11.3"/></g></g></svg>