<?xml version="1.0" encoding="UTF-8"?><svg id="Camada_1" xmlns="http://www.w3.org/2000/svg" viewBox="0 0 500 500"><defs><style>.cls-1{fill-rule:evenodd;}.cls-1,.cls-2{stroke-width:0px;}</style></defs><g id="Grupo_625"><g id="Grupo_623"><g id="Grupo_622"><path id="Caminho_3994" class="cls-1" d="M242.77,210.94c-4.52,0-8.18,3.66-8.18,8.18v68.21c0,4.52,3.66,8.18,8.18,8.18s8.18-3.66,8.18-8.18v-68.21c0-4.52-3.66-8.18-8.18-8.18h0"/><path id="Caminho_3995" class="cls-1" d="M242.77,118.18c-63.29,0-114.59,51.3-114.6,114.58,0,63.29,51.3,114.59,114.58,114.6,63.29,0,114.59-51.3,114.6-114.58h0c0-63.29-51.3-114.59-114.58-114.6M111.81,232.77c0-72.33,58.64-130.96,130.96-130.95,72.33,0,130.96,58.64,130.95,130.96,0,72.32-58.63,130.95-130.96,130.95s-130.96-58.63-130.96-130.96c0,0,0,0,0,0"/><path id="Caminho_3996" class="cls-2" d="M256.42,178.21c0,7.53-6.11,13.64-13.64,13.64-7.53,0-13.64-6.11-13.64-13.64s6.11-13.64,13.64-13.64,13.64,6.11,13.64,13.64h0"/></g></g></g></svg>