<?xml version="1.0" encoding="UTF-8" standalone="no"?><!-- Generator: Gravit.io --><svg xmlns="http://www.w3.org/2000/svg" xmlns:xlink="http://www.w3.org/1999/xlink" style="isolation:isolate" viewBox="0 0 142.4 192.3" width="142.4pt" height="192.3pt"><defs><clipPath id="_clipPath_zLH9Kub2ZlCS5SMqpBbaSIyaNopbXsBM"><rect width="142.4" height="192.3"/></clipPath></defs><g clip-path="url(#_clipPath_zLH9Kub2ZlCS5SMqpBbaSIyaNopbXsBM)"><path d=" M 71.127 50.003 C 81.707 49.953 90.327 58.493 90.377 69.073 C 90.427 79.653 81.887 88.273 71.307 88.323 C 60.727 88.373 52.107 79.833 52.057 69.253 C 52.057 69.193 52.057 69.133 52.057 69.073 C 52.117 58.563 60.617 50.063 71.127 50.003 L 71.127 50.003 Z  M 71.127 100.513 C 88.447 100.563 102.517 86.573 102.567 69.253 C 102.617 51.933 88.627 37.863 71.307 37.813 C 53.987 37.763 39.917 51.753 39.867 69.073 C 39.867 69.073 39.867 69.073 39.867 69.073 C 39.887 86.363 53.837 100.393 71.127 100.513 L 71.127 100.513 Z  M 19.217 43.533 C 29.237 24.113 49.337 11.983 71.187 12.183 C 103.727 12.263 130.097 38.623 130.177 71.173 C 130.117 82.993 126.487 94.513 119.757 104.223 L 71.197 175.433 L 22.607 104.223 C 10.117 86.253 8.807 62.783 19.227 43.533 L 19.217 43.533 L 19.217 43.533 Z  M 66.137 189.693 C 68.047 192.473 71.847 193.183 74.627 191.273 C 75.247 190.853 75.777 190.313 76.207 189.693 L 129.817 111.103 C 152.047 78.903 143.967 34.773 111.757 12.543 C 99.837 4.313 85.677 -0.067 71.187 0.003 C 44.807 -0.237 20.537 14.403 8.437 37.853 C -4.133 61.083 -2.563 89.423 12.517 111.113 L 66.137 189.703 L 66.137 189.693 L 66.137 189.693 Z " fill-rule="evenodd" fill="rgb(255,255,255)"/></g></svg>