<?xml version="1.0" encoding="UTF-8"?><svg id="Camada_1" xmlns="http://www.w3.org/2000/svg" viewBox="0 0 500 500"><defs><style>.cls-1{stroke-width:px;}</style></defs><g id="Grupo_664"><g id="Grupo_621"><g id="Grupo_620"><path id="Caminho_3992" class="cls-1" d="M242.44,372.86c2.86,4.16,8.55,5.22,12.72,2.37.93-.64,1.73-1.44,2.37-2.37l80.3-117.72c33.3-48.24,21.19-114.33-27.05-147.63-17.86-12.33-39.07-18.89-60.77-18.79-39.52-.36-75.87,21.57-93.99,56.69-18.83,34.8-16.47,77.24,6.11,109.73l80.32,117.71ZM172.17,153.94c15-29.09,45.11-47.25,77.84-46.95,48.75.12,88.23,39.61,88.35,88.35-.08,17.7-5.53,34.96-15.61,49.5l-72.74,106.66-72.77-106.66c-18.7-26.92-20.66-62.07-5.06-90.9"/><path id="Caminho_3993" class="cls-1" d="M249.92,239.28c25.93.08,47.02-20.89,47.1-46.82.08-25.93-20.89-47.02-46.82-47.1-25.93-.08-47.02,20.89-47.1,46.82,0,0,0,0,0,0,.03,25.89,20.93,46.92,46.82,47.09M249.92,163.61c15.85-.08,28.76,12.71,28.84,28.56.08,15.85-12.71,28.76-28.56,28.84-15.85.08-28.76-12.71-28.84-28.56,0-.09,0-.18,0-.27.09-15.74,12.83-28.47,28.56-28.57"/></g></g></g></svg>