<?xml version="1.0" encoding="UTF-8"?><svg id="Camada_1" xmlns="http://www.w3.org/2000/svg" xmlns:xlink="http://www.w3.org/1999/xlink" viewBox="0 0 245.11 271.66"><defs><style>.cls-1{fill:none;}.cls-1,.cls-2{stroke-width:0px;}.cls-2{fill:#fff;}.cls-3{clip-path:url(#clippath);}</style><clipPath id="clippath"><rect class="cls-1" x="62.62" y="33.15" width="142.36" height="192.35"/></clipPath></defs><g id="Grupo_621"><g class="cls-3"><g id="Grupo_620"><path id="Caminho_3992" class="cls-2" d="m128.75,222.85c1.91,2.78,5.71,3.49,8.49,1.58.62-.42,1.15-.96,1.58-1.58l53.61-78.59c22.23-32.2,14.15-76.33-18.06-98.56-11.92-8.23-26.08-12.61-40.57-12.54-26.38-.24-50.65,14.4-62.75,37.85-12.57,23.23-11,51.57,4.08,73.26l53.62,78.59Zm-46.92-146.16c10.02-19.42,30.12-31.55,51.97-31.35,32.54.08,58.91,26.44,58.99,58.99-.06,11.82-3.69,23.34-10.42,33.05l-48.56,71.21-48.59-71.21c-12.49-17.97-13.8-41.44-3.38-60.69"/><path id="Caminho_3993" class="cls-2" d="m133.74,133.67c17.32.05,31.39-13.94,31.44-31.26.05-17.32-13.94-31.39-31.26-31.44-17.32-.05-31.39,13.94-31.44,31.26,0,0,0,0,0,0,.02,17.29,13.97,31.32,31.26,31.44m0-50.51c10.58-.05,19.2,8.49,19.25,19.07.05,10.58-8.49,19.2-19.07,19.25-10.58.05-19.2-8.49-19.25-19.07,0-.06,0-.12,0-.18.06-10.51,8.56-19.01,19.07-19.07"/></g></g></g></svg>