<?xml version="1.0" encoding="utf-8"?>
<svg viewBox="0 0 1331.63 464.7" xmlns="http://www.w3.org/2000/svg">
  <defs>
    <style>.cls-1{fill:#fff;stroke-width:0px;}</style>
  </defs>
  <g id="Grupo_765" transform="matrix(1, 0, 0, 1, -5.684341886080802e-14, -2.842170943040401e-14)">
    <g id="Grupo_764">
      <path id="Caminho_5158" class="cls-1" d="m379,162.17l.83-.3c-.12.24-.29.49-.42.71-1.57,2.5-3.35,4.86-5.31,7.07-.79.91-1.62,1.78-2.46,2.64-1.71,1.71-3.54,3.3-5.46,4.77-.93.73-1.88,1.4-2.85,2.04-2.38,1.62-4.9,3.04-7.52,4.25-1.07.5-2.18.97-3.29,1.4-2.61,1.03-5.31,1.85-8.06,2.43-1.3.3-2.59.55-3.9.75-2.06.3-4.14.49-6.22.55-.67.04-1.35.06-2.02.06s-1.35,0-2.02-.06c-2.01-.04-4.01-.22-6-.53-1.33-.18-2.63-.42-3.92-.71-2.75-.6-5.44-1.41-8.06-2.43-1.13-.42-2.22-.89-3.31-1.41-2.62-1.19-5.14-2.6-7.53-4.2-.99-.65-1.94-1.33-2.87-2.04-1.93-1.46-3.75-3.06-5.46-4.77-.87-.85-1.7-1.73-2.51-2.64-1.96-2.2-3.74-4.56-5.31-7.05-.18-.28-.36-.56-.53-.85l.99.36,9.01,3.31,2.61.95,6.53,2.43,1.82.67,8.1,2.97,1.64.61,7.92,2.91,2.12.76,5.51,2.04,1.29.46,1.29-.46,5.72-2.1,2.12-.79,7.92-2.91,1.64-.61,8.08-2.97,1.82-.67,6.53-2.43,2.58-.95,8.95-3.23Z"/>
      <path id="Caminho_5159" class="cls-1" d="m384.69,113.79l-52.4,18.5-52.4-18.5c10.5-28.94,42.48-43.88,71.42-33.38,15.52,5.63,27.75,17.86,33.38,33.38"/>
      <path id="Caminho_5160" class="cls-1" d="m338.28,239.94h-11.96l3.98-51.48.73-9.61,1.3.47,1.29-.47.73,9.61,3.93,51.48Z"/>
      <path id="Caminho_5161" class="cls-1" d="m357.97,237.46l-11.77,2.23-5.66-51.74-1.21-11.17,2.12-.78,3.03,11.21,13.49,50.26Z"/>
      <path id="Caminho_5162" class="cls-1" d="m377.97,233.5l-11.29,4-14.18-52.77-3.15-11.68,1.64-.61,4.81,10.87,22.18,50.19Z"/>
      <path id="Caminho_5163" class="cls-1" d="m396.17,223.84l-10.57,5.68-22.3-50.43-4.25-9.6,1.82-.67,5.27,8.23,30.02,46.79Z"/>
      <path id="Caminho_5164" class="cls-1" d="m412.56,208.61l-9.15,7.74-31.78-44.06-4.25-5.86,2.59-.95,4.1,4.16,38.48,38.97Z"/>
      <path id="Caminho_5165" class="cls-1" d="m426.72,193.52l-7.89,9.03-39.43-39.98-.41-.4.83-.3,2.81-1.03,44.08,32.68Z"/>
      <path id="Caminho_5166" class="cls-1" d="m438.41,174.69l-6,10.36-40.42-27.65,5.82-2.14,40.61,19.43Z"/>
      <path id="Caminho_5167" class="cls-1" d="m446.25,155l-4.06,11.28-33.41-15.04,10.24-3.76,27.24,7.52Z"/>
      <path id="Caminho_5168" class="cls-1" d="m450.59,135.91l-1.21,11.07-19.29-3.55,20.5-7.52Z"/>
      <path id="Caminho_5169" class="cls-1" d="m325.48,176.82l-1.21,11.13-5.66,51.71-11.79-2.2,13.51-50.22,3.03-11.19,2.11.76Z"/>
      <path id="Caminho_5170" class="cls-1" d="m315.45,173.14l-3.15,11.7-14.16,52.66-11.29-4,22.14-50.08,4.85-10.89,1.61.61Z"/>
      <path id="Caminho_5171" class="cls-1" d="m305.72,169.57l-4.25,9.66-22.26,50.29-10.57-5.68,29.94-46.67,5.31-8.29,1.82.69Z"/>
      <path id="Caminho_5172" class="cls-1" d="m297.37,166.49l-4.25,5.92-31.71,43.94-9.15-7.74,38.34-38.82,4.16-4.25,2.61.95Z"/>
      <path id="Caminho_5173" class="cls-1" d="m285.75,162.23l-.46.49-39.33,39.84-7.89-9.03,44-32.62,2.67.97,1.01.36Z"/>
      <path id="Caminho_5174" class="cls-1" d="m272.74,157.46l-40.32,27.61-6-10.36,40.47-19.41,5.85,2.16Z"/>
      <path id="Caminho_5175" class="cls-1" d="m255.9,151.28l-33.29,14.99-4.06-11.28,27.11-7.47,10.24,3.76Z"/>
      <path id="Caminho_5176" class="cls-1" d="m234.53,143.45l-19.11,3.54-1.17-10.99,20.28,7.46Z"/>
      <path id="Caminho_5177" class="cls-1" d="m557.18,181.12c-6.91-6.93-16.3-10.82-26.08-10.81h-41.18v118.77h26.56v-44.95h14.59c20.39-.02,36.9-16.56,36.89-36.95,0-9.78-3.89-19.15-10.8-26.07m-17.89,36.61c-2.83,2.83-6.67,4.42-10.67,4.42h-12.13v-30.18h12.13c8.34,0,15.09,6.76,15.09,15.1,0,4-1.59,7.84-4.42,10.67"/>
      <path id="Caminho_5178" class="cls-1" d="m537.47,289.09l60.7-118.77,57.75,118.77h-29.2l-30.02-66.93-30.33,66.93h-28.89Z"/>
      <path id="Caminho_5179" class="cls-1" d="m799.82,289.09l59.93-118.77,57.02,118.77h-28.84l-29.64-66.93-29.97,66.93h-28.5Z"/>
      <path id="Caminho_5180" class="cls-1" d="m660.18,289.09l-21.98-45.93v-69.23h27.9v91.21h27.56l-4.92,23.95h-28.56Z"/>
      <path id="Caminho_5181" class="cls-1" d="m692.01,289.08l24.26-118.77,42,73.16,39.7-74.81,16.38,81.37-18.59,35.26-9.62-41.49-27.9,50.2-31.83-51.18-8.86,46.26h-25.54Z"/>
      <path id="Caminho_5182" class="cls-1" d="m894.11,233.31l27.23,54.14v-91.21h14.44c7.24.16,12.99,6.16,12.83,13.4,0,.24-.02.47-.03.71.04,8.22-5.98,15.2-14.11,16.38h-9.19v16.38l30.18,45.93h96.45l4.59-23.29h-45.6v-21.27h32.81l4.25-23.95h-36.71v-24.26h41.67l3.61-21.66h-71.86v110.55l-32.15-44.28s20.99-10.83,20.99-32.81-22.64-33.47-40.04-33.47h-39.37v58.72Z"/>
      <path id="Caminho_5183" class="cls-1" d="m1056.52,289.09l5.25-23.95s29.53,3.28,35.44,3.64c5.38.14,10.26-3.16,12.13-8.21.66-3.61,3.28-7.89-6.23-13.45-9.51-5.57-47.58-21.32-42-50.86,5.57-29.54,41.34-30.51,65.29-19.03v26.25s-17.39-14.11-30.84-11.81c-13.45,2.3-13.12,14.11-.98,20.35,12.14,6.24,50.2,21.66,40.04,52.49-10.17,30.84-36.4,27.56-45.94,27.56s-32.15-2.95-32.15-2.95"/>
      <path id="Caminho_5184" class="cls-1" d="m454.02,94.15v35.61l-121.73,44.68-121.73-44.68v-35.61l121.73,43,121.73-43Z"/>
      <path id="Caminho_5185" class="cls-1" d="m310.51,188.53v164.87h-28.8v-117.13l-71.36,26.33v-35.18l100.15-38.88Z"/>
      <path id="Caminho_5186" class="cls-1" d="m354.07,188.53v164.87h28.8v-117.13l71.36,26.33v-35.18l-100.15-38.88Z"/>
      <path id="Caminho_5187" class="cls-1" d="m511.21,328.97h-15.04v6.9h13.17v5.21h-13.17v12.58h-6.23v-29.97h21.27v5.28Z"/>
      <path id="Caminho_5188" class="cls-1" d="m542.95,342.09v-18.44h6.37v18.44c.13,2.57-.38,5.13-1.49,7.45-4.97,5.84-13.73,6.54-19.57,1.57-.57-.48-1.09-1.01-1.57-1.57-1.11-2.32-1.62-4.88-1.49-7.45v-18.44h6.37v18.44c-.09,1.54.16,3.09.73,4.52,1.99,2.74,5.82,3.34,8.56,1.35.52-.38.98-.83,1.35-1.35.58-1.43.83-2.98.73-4.52"/>
      <path id="Caminho_5189" class="cls-1" d="m589.37,353.66h-6.25l-12.25-21.31v21.31h-5.84v-30h6.57l11.95,20.95v-20.95h5.84v30Z"/>
      <path id="Caminho_5190" class="cls-1" d="m617.94,353.66h-12.93v-30h12.93c1.57-.02,3.13.2,4.64.65,2.08.67,3.87,2.01,5.11,3.8,1.03,1.46,1.76,3.11,2.14,4.85.37,1.63.56,3.29.57,4.96.1,3.53-.73,7.03-2.43,10.14-2,3.64-5.91,5.81-10.06,5.6m4.66-22.35c-1.32-1.8-3.51-2.73-5.72-2.43h-5.78v19.58h5.78c2.81.11,5.35-1.69,6.19-4.38.68-1.83,1-3.77.96-5.72.14-2.43-.36-4.86-1.43-7.04"/>
      <path id="Caminho_5191" class="cls-1" d="m662.47,347.49h-11.06l-2.07,6.17h-6.55l10.71-30h7.09l10.63,30h-6.8l-1.93-6.17Zm-1.75-5.17l-3.75-11.8-3.87,11.8h7.62Z"/>
      <path id="Caminho_5192" class="cls-1" d="m695.99,361.11c.63.06,1.25-.13,1.75-.52.32-.27.51-.67.53-1.09.05-.49-.19-.96-.61-1.21-.38-.23-.82-.35-1.26-.35-.27,0-.53.03-.79.09-.27.06-.61.15-.92.25l-.87-.81,1.91-2.99c-3.32-.05-6.45-1.57-8.53-4.16-5.12-7.08-4.91-16.7.51-23.55,5.82-5.29,14.83-4.87,20.12.95.09.1.18.21.27.31,1.21,1.63,1.93,3.57,2.07,5.6h-6.27c-.28-1.19-.81-2.3-1.56-3.26-1.31-1.38-3.17-2.09-5.07-1.96-2.15-.06-4.19.98-5.39,2.76-1.45,2.33-2.14,5.06-1.98,7.81-.2,2.69.54,5.36,2.09,7.56,1.28,1.62,3.24,2.55,5.3,2.51,1.92.12,3.79-.68,5.03-2.16.76-1.04,1.3-2.22,1.58-3.48h6.21c-.43,3.06-1.9,5.87-4.16,7.98-2.17,2.03-5.04,3.13-8.01,3.08l-1.21,1.82.96-.19c.2-.04.4-.05.61-.05.94-.05,1.87.24,2.63.81.67.58,1.03,1.43.98,2.31.03,1.18-.55,2.3-1.53,2.96-1.16.77-2.54,1.15-3.93,1.09-.85-.02-1.69-.17-2.51-.42-.45-.13-1.08-.36-1.89-.66l.77-1.75c.77.23,1.3.38,1.59.45.52.14,1.05.22,1.58.24"/>
      <path id="Caminho_5193" class="cls-1" d="m742.28,347.49h-11.05l-2.07,6.17h-6.55l10.71-30h7.09l10.63,30h-6.8l-1.94-6.17Zm-2.48-26.81c-.62-.03-1.23-.13-1.82-.3-.44-.11-.87-.23-1.28-.37l-1.65-.55c-.22-.08-.44-.14-.67-.18-.21-.03-.43-.05-.65-.05-.46-.02-.91.14-1.26.45-.35.35-.59.8-.69,1.28h-2.64c.19-1.12.59-2.19,1.16-3.17.86-1.29,2.33-2.02,3.87-1.94.36,0,.73.04,1.08.12.3.07.6.15.9.26l1.91.72,1.12.36c.2.06.4.08.61.08.51.05,1.02-.14,1.37-.52.28-.36.49-.77.61-1.21h2.71c-.19,1.29-.69,2.52-1.46,3.58-.76.98-1.95,1.52-3.18,1.44m.73,21.64l-3.75-11.8-3.87,11.8h7.62Z"/>
      <path id="Caminho_5194" class="cls-1" d="m777.9,354.49c-3.62.25-7.18-1.02-9.83-3.5-3.21-3.29-4.87-7.79-4.56-12.37-.35-4.59,1.32-9.11,4.56-12.37,5.72-4.67,13.94-4.67,19.66,0,3.23,3.27,4.89,7.79,4.54,12.37.31,4.58-1.34,9.08-4.54,12.37-2.65,2.48-6.21,3.75-9.83,3.5m5.92-8.06c2.91-4.8,2.91-10.82,0-15.63-1.41-1.82-3.61-2.84-5.91-2.76-2.31-.08-4.51.94-5.94,2.75-2.96,4.79-2.96,10.84,0,15.63,2.78,3.28,7.69,3.68,10.97.9.32-.27.62-.57.9-.9"/>
      <path id="Caminho_5195" class="cls-1" d="m866.68,351.42c-2.36,2.09-5.44,3.2-8.59,3.08-3.84.2-7.57-1.32-10.18-4.15-5.12-7.08-4.91-16.7.51-23.55,5.82-5.29,14.83-4.87,20.12.95.09.1.18.21.27.31,1.21,1.63,1.92,3.57,2.07,5.6h-6.27c-.28-1.19-.82-2.3-1.56-3.26-1.31-1.38-3.17-2.09-5.07-1.95-2.15-.06-4.19.98-5.39,2.76-1.45,2.34-2.14,5.06-1.97,7.81-.2,2.69.53,5.36,2.08,7.56,1.28,1.63,3.24,2.56,5.31,2.52,1.92.12,3.79-.68,5.03-2.16.76-1.04,1.3-2.22,1.59-3.48h6.21c-.43,3.06-1.89,5.87-4.15,7.98"/>
      <path id="Caminho_5196" class="cls-1" d="m903.51,342.09v-18.44h6.37v18.44c.13,2.57-.38,5.13-1.49,7.45-4.97,5.84-13.73,6.54-19.57,1.57-.57-.48-1.09-1.01-1.57-1.57-1.11-2.32-1.62-4.88-1.49-7.45v-18.44h6.37v18.44c-.1,1.54.16,3.09.73,4.52,1.99,2.74,5.82,3.34,8.56,1.35.52-.38.98-.83,1.35-1.35.58-1.43.83-2.98.73-4.52"/>
      <path id="Caminho_5197" class="cls-1" d="m925.98,323.66h6.27v24.61h14.86v5.39h-21.13v-30Z"/>
      <path id="Caminho_5198" class="cls-1" d="m980.27,323.66v5.31h-8.98v24.69h-6.31v-24.69h-8.98v-5.31h24.26Z"/>
      <path id="Caminho_5199" class="cls-1" d="m1011.84,342.09v-18.44h6.38v18.44c.13,2.57-.38,5.13-1.49,7.45-4.97,5.84-13.73,6.54-19.57,1.57-.57-.48-1.09-1.01-1.57-1.57-1.11-2.32-1.62-4.88-1.49-7.45v-18.44h6.37v18.44c-.09,1.54.16,3.09.73,4.52,1.99,2.74,5.82,3.34,8.56,1.35.52-.38.98-.83,1.35-1.35.58-1.43.83-2.98.73-4.52"/>
      <path id="Caminho_5200" class="cls-1" d="m1047.07,341.89h-6.47v11.77h-6.13v-30.01h14.72c1.65-.04,3.29.22,4.85.77,1.11.46,2.1,1.18,2.88,2.1.65.75,1.17,1.61,1.55,2.52.4,1,.59,2.08.57,3.15,0,1.47-.38,2.91-1.07,4.2-.75,1.41-2.04,2.46-3.57,2.92,1.22.43,2.26,1.27,2.94,2.37.67,1.47.96,3.08.86,4.7v2.01c-.03.93.02,1.87.16,2.79.12.71.53,1.33,1.14,1.71v.75h-6.9c-.19-.67-.33-1.21-.41-1.61-.16-.85-.25-1.72-.27-2.58l-.04-2.79c.14-1.36-.23-2.73-1.05-3.83-1.1-.76-2.44-1.1-3.77-.95m3.8-5.46c1.28-.61,2.03-1.97,1.87-3.38.17-1.47-.55-2.89-1.82-3.64-.96-.4-2-.59-3.03-.53h-7.28v8.06h7.1c1.08.05,2.16-.11,3.17-.49"/>
      <path id="Caminho_5201" class="cls-1" d="m1092.13,347.49h-11.05l-2.07,6.17h-6.55l10.71-30h7.07l10.63,30h-6.8l-1.93-6.17Zm-1.75-5.17l-3.75-11.8-3.87,11.8h7.62Z"/>
      <path id="Caminho_5202" class="cls-1" d="m1114.8,323.66h6.25v24.61h14.86v5.39h-21.13v-30Z"/>
      <path id="Caminho_5203" class="cls-1" d="m497.87,113.88c-.7,1.02-1.03,2.25-.93,3.48h-5.41c.04-1.42.3-2.83.75-4.17.52-1.21,1.28-2.3,2.24-3.2.78-.71,1.71-1.25,2.71-1.58,1.24-.4,2.54-.58,3.85-.55,2.47-.12,4.89.66,6.83,2.19,1.73,1.45,2.69,3.62,2.6,5.87.05,1.61-.5,3.17-1.55,4.4-.54.67-1.24,1.19-2.03,1.52.89.2,1.69.67,2.28,1.36,1.52,1.46,2.33,3.51,2.22,5.62.02,2.45-.91,4.81-2.6,6.58-2.03,2.01-4.83,3.05-7.68,2.84-3.44.36-6.8-1.21-8.72-4.09-.93-1.75-1.42-3.71-1.43-5.7h5.7c-.03,1.01.16,2.01.57,2.93.72,1.43,2.25,2.28,3.85,2.14,1.11.01,2.18-.41,2.98-1.17.89-.89,1.35-2.11,1.27-3.37.16-1.68-.8-3.26-2.36-3.89-1.37-.44-2.81-.62-4.25-.55v-4.15c1.34.06,2.68-.13,3.95-.55,1.32-.62,2.1-2.01,1.94-3.46.04-1.01-.31-2-.99-2.75-.73-.73-1.74-1.12-2.78-1.06-1.17-.1-2.3.39-3.03,1.3"/>
      <path id="Caminho_5204" class="cls-1" d="m528.99,122.86c-.62-.01-1.23.08-1.82.27-.9.31-1.63.97-2.06,1.82l-5.21-.24,2.07-16.31h16.26v4.93h-12.07l-1.06,6.45c.66-.45,1.36-.84,2.1-1.16.99-.34,2.03-.49,3.08-.47,4.92-.12,9,3.76,9.13,8.68,0,.32,0,.63-.03.95.01,2.66-.92,5.24-2.63,7.28-1.97,2.24-4.88,3.43-7.86,3.21-2.51.1-4.97-.7-6.93-2.26-1.87-1.61-2.97-3.94-3.03-6.41h5.77c.15,1.08.61,2.1,1.33,2.92.76.73,1.8,1.11,2.85,1.03,1.28.07,2.51-.5,3.29-1.52.79-1.11,1.19-2.45,1.13-3.82.04-1.35-.33-2.68-1.06-3.82-.75-1.06-2-1.65-3.29-1.56"/>
      <path id="Caminho_5205" class="cls-1" d="m581.44,131.35h-11.05l-2.07,6.17h-6.55l10.7-30h7.1l10.63,30h-6.8l-1.95-6.17Zm-1.75-5.17l-3.75-11.8-3.87,11.8h7.62Z"/>
      <path id="Caminho_5206" class="cls-1" d="m623.03,137.54h-6.27l-12.25-21.31v21.31h-5.84v-30.03h6.58l11.95,20.95v-20.95h5.84v30.03Z"/>
      <path id="Caminho_5207" class="cls-1" d="m646.95,138.35c-3.62.25-7.18-1.02-9.83-3.5-3.21-3.29-4.87-7.79-4.56-12.37-.35-4.59,1.32-9.11,4.56-12.37,5.72-4.67,13.94-4.67,19.66,0,3.23,3.27,4.89,7.79,4.54,12.37.3,4.58-1.35,9.08-4.54,12.37-2.65,2.48-6.21,3.75-9.83,3.5m5.92-8.06c1.59-2.28,2.35-5.04,2.18-7.81.17-2.77-.6-5.53-2.19-7.81-1.41-1.82-3.61-2.85-5.91-2.76-2.3-.08-4.51.94-5.94,2.75-1.62,2.27-2.4,5.03-2.22,7.82-.18,2.78.6,5.54,2.22,7.81,2.78,3.28,7.69,3.68,10.97.9.32-.27.62-.57.9-.9"/>
      <path id="Caminho_5208" class="cls-1" d="m681.78,133.18c1.22.04,2.44-.13,3.6-.49,1.58-.4,2.68-1.85,2.63-3.48.03-.95-.48-1.83-1.3-2.3-1.28-.68-2.67-1.15-4.09-1.41l-3.17-.71c-2.27-.39-4.46-1.17-6.47-2.3-2.08-1.49-3.23-3.95-3.03-6.5-.05-2.55,1.02-4.99,2.93-6.67,2.43-1.94,5.51-2.89,8.61-2.67,2.9-.08,5.75.8,8.09,2.52,2.26,1.73,3.56,4.43,3.51,7.28h-6.05c0-1.62-.91-3.11-2.36-3.85-1.14-.54-2.38-.8-3.64-.75-1.36-.07-2.71.27-3.87.98-.93.59-1.48,1.63-1.44,2.73-.05,1.02.51,1.97,1.42,2.43,1.25.56,2.57.96,3.91,1.21l5.17,1.21c1.84.36,3.59,1.1,5.13,2.18,1.83,1.49,2.83,3.77,2.69,6.13.05,2.64-1.11,5.15-3.15,6.83-2.53,1.96-5.69,2.92-8.89,2.72-3.29.19-6.54-.76-9.22-2.68-2.22-1.77-3.46-4.5-3.34-7.33h5.99c.09,1.11.47,2.17,1.12,3.08,1.37,1.37,3.3,2.05,5.23,1.85"/>
    </g>
  </g>
</svg>