<?xml version="1.0" encoding="UTF-8" standalone="no"?><!-- Generator: Gravit.io --><svg xmlns="http://www.w3.org/2000/svg" xmlns:xlink="http://www.w3.org/1999/xlink" style="isolation:isolate" viewBox="0 0 618.5 200.9" width="618.5pt" height="200.9pt"><defs><clipPath id="_clipPath_SuRFX95OKpSuH3rvN6OQo9SPtUC6rP6H"><rect width="618.5" height="200.9"/></clipPath></defs><g clip-path="url(#_clipPath_SuRFX95OKpSuH3rvN6OQo9SPtUC6rP6H)"><g><path d=" M 102.02 200.88 C 100.98 200.88 100.08 200.67 99.33 200.24 C 98.58 199.81 97.99 199.2 97.58 198.4 C 97.17 197.6 96.97 196.66 96.97 195.57 L 96.97 191.66 C 96.97 190.56 97.17 189.62 97.58 188.83 C 97.99 188.04 98.57 187.43 99.33 186.99 C 100.09 186.55 100.99 186.34 102.02 186.34 C 102.88 186.34 103.66 186.52 104.35 186.89 C 105.04 187.26 105.62 187.78 106.08 188.47 C 106.54 189.15 106.85 189.97 107.03 190.91 L 104.62 190.91 C 104.5 190.44 104.32 190.04 104.06 189.7 C 103.81 189.36 103.5 189.1 103.16 188.92 C 102.81 188.74 102.43 188.65 102.03 188.65 C 101.21 188.65 100.57 188.92 100.1 189.46 C 99.63 190 99.39 190.73 99.39 191.66 L 99.39 195.57 C 99.39 196.5 99.62 197.23 100.1 197.76 C 100.57 198.3 101.22 198.56 102.03 198.56 C 102.64 198.56 103.18 198.36 103.65 197.97 C 104.13 197.58 104.45 197.02 104.62 196.3 L 107.03 196.3 C 106.85 197.25 106.53 198.06 106.07 198.74 C 105.61 199.42 105.04 199.95 104.35 200.32 C 103.66 200.69 102.88 200.87 102.03 200.87 L 102.02 200.88 Z " fill="rgb(255,255,255)"/><path d=" M 110.67 200.73 L 110.67 186.5 L 113.01 186.5 L 113.01 200.73 L 110.67 200.73 Z  M 111.64 188.74 L 111.64 186.5 L 120.01 186.5 L 120.01 188.74 L 111.64 188.74 Z  M 111.64 194.78 L 111.64 192.55 L 118.93 192.55 L 118.93 194.78 L 111.64 194.78 Z  M 111.64 200.73 L 111.64 198.49 L 120.01 198.49 L 120.01 200.73 L 111.64 200.73 Z " fill="rgb(255,255,255)"/><path d=" M 123.85 200.72 L 123.85 186.5 L 126.4 186.5 L 132.53 197.45 L 132.3 197.71 L 132.3 186.5 L 134.57 186.5 L 134.57 200.72 L 132.01 200.72 L 125.9 189.93 L 126.13 189.68 L 126.13 200.72 L 123.86 200.72 L 123.85 200.72 Z " fill="rgb(255,255,255)"/><path d=" M 137.92 188.74 L 137.92 186.5 L 148.16 186.5 L 148.16 188.74 L 137.92 188.74 Z  M 141.87 200.73 L 141.87 187.66 L 144.2 187.66 L 144.2 200.73 L 141.87 200.73 Z " fill="rgb(255,255,255)"/><path d=" M 151.12 200.73 L 151.12 186.49 L 153.46 186.49 L 153.46 200.73 L 151.12 200.73 Z  M 152.09 194.86 L 152.09 192.62 L 156.99 192.62 C 157.49 192.62 157.89 192.44 158.19 192.09 C 158.49 191.74 158.64 191.26 158.65 190.68 C 158.65 190.1 158.5 189.63 158.2 189.28 C 157.9 188.93 157.49 188.75 156.99 188.75 L 152.09 188.75 L 152.09 186.51 L 157.06 186.51 C 157.87 186.51 158.58 186.68 159.18 187.03 C 159.78 187.38 160.25 187.86 160.59 188.49 C 160.92 189.12 161.09 189.85 161.09 190.69 C 161.09 191.53 160.92 192.26 160.58 192.89 C 160.24 193.52 159.77 194 159.17 194.35 C 158.57 194.7 157.87 194.87 157.06 194.87 L 152.09 194.87 L 152.09 194.86 Z  M 158.88 200.73 L 155.52 194.42 L 157.95 193.97 L 161.69 200.73 L 158.88 200.73 Z " fill="rgb(255,255,255)"/><path d=" M 169.81 200.88 C 168.78 200.88 167.89 200.66 167.12 200.23 C 166.35 199.8 165.76 199.19 165.34 198.4 C 164.92 197.61 164.71 196.69 164.71 195.64 L 164.71 191.61 C 164.71 190.55 164.92 189.63 165.34 188.85 C 165.76 188.06 166.35 187.45 167.12 187.02 C 167.88 186.59 168.78 186.37 169.81 186.37 C 170.84 186.37 171.73 186.59 172.5 187.02 C 173.27 187.45 173.86 188.06 174.28 188.85 C 174.7 189.64 174.91 190.56 174.91 191.61 L 174.91 195.64 C 174.91 196.69 174.7 197.61 174.28 198.4 C 173.86 199.19 173.27 199.8 172.5 200.23 C 171.73 200.66 170.84 200.88 169.81 200.88 Z  M 169.81 198.56 C 170.63 198.56 171.28 198.3 171.77 197.78 C 172.26 197.26 172.51 196.57 172.51 195.7 L 172.51 191.53 C 172.51 190.66 172.26 189.97 171.77 189.45 C 171.28 188.93 170.63 188.67 169.81 188.67 C 168.99 188.67 168.35 188.93 167.86 189.45 C 167.37 189.97 167.12 190.66 167.12 191.53 L 167.12 195.7 C 167.12 196.56 167.37 197.25 167.86 197.78 C 168.35 198.3 169 198.56 169.81 198.56 Z " fill="rgb(255,255,255)"/><path d=" M 185.73 200.73 L 185.73 186.5 L 188.07 186.5 L 188.07 200.73 L 185.73 200.73 Z  M 187.08 200.73 L 187.08 198.49 L 190.4 198.49 C 191.37 198.49 192.12 198.25 192.65 197.76 C 193.18 197.28 193.45 196.59 193.45 195.71 L 193.45 191.52 C 193.45 190.63 193.18 189.95 192.65 189.46 C 192.12 188.98 191.37 188.74 190.4 188.74 L 187.08 188.74 L 187.08 186.5 L 190.34 186.5 C 192.1 186.5 193.45 186.95 194.41 187.84 C 195.37 188.73 195.85 189.99 195.85 191.6 L 195.85 195.63 C 195.85 196.67 195.64 197.58 195.22 198.34 C 194.8 199.1 194.18 199.69 193.36 200.11 C 192.54 200.53 191.53 200.73 190.33 200.73 L 187.08 200.73 L 187.08 200.73 Z " fill="rgb(255,255,255)"/><path d=" M 199.9 200.73 L 199.9 186.5 L 202.24 186.5 L 202.24 200.73 L 199.9 200.73 Z  M 200.87 188.74 L 200.87 186.5 L 209.24 186.5 L 209.24 188.74 L 200.87 188.74 Z  M 200.87 194.78 L 200.87 192.55 L 208.16 192.55 L 208.16 194.78 L 200.87 194.78 Z  M 200.87 200.73 L 200.87 198.49 L 209.24 198.49 L 209.24 200.73 L 200.87 200.73 Z " fill="rgb(255,255,255)"/><path d=" M 224.43 200.88 C 223.39 200.88 222.49 200.67 221.74 200.24 C 220.99 199.81 220.4 199.2 219.99 198.4 C 219.58 197.6 219.38 196.66 219.38 195.57 L 219.38 191.66 C 219.38 190.56 219.58 189.62 219.99 188.83 C 220.4 188.04 220.98 187.43 221.74 186.99 C 222.5 186.55 223.4 186.34 224.43 186.34 C 225.29 186.34 226.07 186.52 226.76 186.89 C 227.45 187.26 228.03 187.78 228.49 188.47 C 228.95 189.15 229.26 189.97 229.44 190.91 L 227.03 190.91 C 226.91 190.44 226.73 190.04 226.47 189.7 C 226.22 189.36 225.91 189.1 225.57 188.92 C 225.22 188.74 224.84 188.65 224.44 188.65 C 223.62 188.65 222.98 188.92 222.51 189.46 C 222.04 190 221.8 190.73 221.8 191.66 L 221.8 195.57 C 221.8 196.5 222.03 197.23 222.51 197.76 C 222.98 198.3 223.63 198.56 224.44 198.56 C 225.05 198.56 225.59 198.36 226.06 197.97 C 226.54 197.58 226.86 197.02 227.03 196.3 L 229.44 196.3 C 229.26 197.25 228.94 198.06 228.48 198.74 C 228.02 199.42 227.45 199.95 226.76 200.32 C 226.07 200.69 225.29 200.87 224.44 200.87 L 224.43 200.88 Z " fill="rgb(255,255,255)"/><path d=" M 237.78 200.88 C 236.16 200.88 234.91 200.42 234.02 199.5 C 233.13 198.58 232.69 197.27 232.69 195.59 L 232.69 186.51 L 235.03 186.51 L 235.03 195.66 C 235.03 196.59 235.27 197.3 235.75 197.81 C 236.23 198.32 236.91 198.57 237.78 198.57 C 238.65 198.57 239.34 198.32 239.83 197.81 C 240.32 197.3 240.55 196.58 240.55 195.66 L 240.55 186.51 L 242.89 186.51 L 242.89 195.59 C 242.89 197.27 242.44 198.58 241.55 199.5 C 240.66 200.42 239.4 200.88 237.78 200.88 L 237.78 200.88 Z " fill="rgb(255,255,255)"/><path d=" M 247.03 200.73 L 247.03 186.5 L 249.37 186.5 L 249.37 200.73 L 247.03 200.73 Z  M 248.13 200.73 L 248.13 198.49 L 256.37 198.49 L 256.37 200.73 L 248.13 200.73 Z " fill="rgb(255,255,255)"/><path d=" M 257.18 188.74 L 257.18 186.5 L 267.42 186.5 L 267.42 188.74 L 257.18 188.74 Z  M 261.13 200.73 L 261.13 187.66 L 263.46 187.66 L 263.46 200.73 L 261.13 200.73 Z " fill="rgb(255,255,255)"/><path d=" M 274.89 200.88 C 273.27 200.88 272.02 200.42 271.13 199.5 C 270.24 198.58 269.8 197.27 269.8 195.59 L 269.8 186.51 L 272.14 186.51 L 272.14 195.66 C 272.14 196.59 272.38 197.3 272.86 197.81 C 273.34 198.32 274.02 198.57 274.89 198.57 C 275.76 198.57 276.45 198.32 276.94 197.81 C 277.43 197.3 277.66 196.58 277.66 195.66 L 277.66 186.51 L 280 186.51 L 280 195.59 C 280 197.27 279.55 198.58 278.66 199.5 C 277.77 200.42 276.51 200.88 274.89 200.88 L 274.89 200.88 Z " fill="rgb(255,255,255)"/><path d=" M 284.14 200.73 L 284.14 186.49 L 286.48 186.49 L 286.48 200.73 L 284.14 200.73 Z  M 285.11 194.86 L 285.11 192.62 L 290.01 192.62 C 290.51 192.62 290.91 192.44 291.21 192.09 C 291.51 191.74 291.66 191.26 291.67 190.68 C 291.67 190.1 291.52 189.63 291.22 189.28 C 290.92 188.93 290.51 188.75 290.01 188.75 L 285.11 188.75 L 285.11 186.51 L 290.08 186.51 C 290.89 186.51 291.6 186.68 292.2 187.03 C 292.8 187.38 293.27 187.86 293.61 188.49 C 293.94 189.12 294.11 189.85 294.11 190.69 C 294.11 191.53 293.94 192.26 293.6 192.89 C 293.26 193.52 292.79 194 292.19 194.35 C 291.59 194.7 290.89 194.87 290.08 194.87 L 285.11 194.87 L 285.11 194.86 Z  M 291.9 200.73 L 288.54 194.42 L 290.97 193.97 L 294.71 200.73 L 291.9 200.73 Z " fill="rgb(255,255,255)"/><path d=" M 296.55 200.73 L 301.89 186.5 L 303.6 186.5 L 308.94 200.73 L 306.42 200.73 L 302.74 190.13 L 299.06 200.73 L 296.54 200.73 L 296.55 200.73 Z  M 299.07 198.03 L 299.07 195.79 L 306.56 195.79 L 306.56 198.03 L 299.07 198.03 Z " fill="rgb(255,255,255)"/><path d=" M 318.69 200.73 L 318.69 186.5 L 321.03 186.5 L 321.03 200.73 L 318.69 200.73 Z  M 319.66 188.74 L 319.66 186.5 L 328.03 186.5 L 328.03 188.74 L 319.66 188.74 Z  M 319.66 194.78 L 319.66 192.55 L 326.95 192.55 L 326.95 194.78 L 319.66 194.78 Z  M 319.66 200.73 L 319.66 198.49 L 328.03 198.49 L 328.03 200.73 L 319.66 200.73 Z " fill="rgb(255,255,255)"/><path d=" M 338.46 200.73 L 338.46 186.5 L 340.8 186.5 L 340.8 200.73 L 338.46 200.73 Z  M 339.43 188.74 L 339.43 186.5 L 347.8 186.5 L 347.8 188.74 L 339.43 188.74 Z  M 339.43 194.78 L 339.43 192.55 L 346.72 192.55 L 346.72 194.78 L 339.43 194.78 Z  M 339.43 200.73 L 339.43 198.49 L 347.8 198.49 L 347.8 200.73 L 339.43 200.73 Z " fill="rgb(255,255,255)"/><path d=" M 356.03 200.88 C 355.34 200.88 354.69 200.81 354.06 200.68 C 353.43 200.55 352.84 200.35 352.29 200.09 C 351.74 199.83 351.24 199.51 350.77 199.12 L 352.01 197.25 C 352.56 197.71 353.17 198.06 353.85 198.3 C 354.53 198.54 355.25 198.66 356.02 198.66 C 356.97 198.66 357.71 198.49 358.24 198.15 C 358.76 197.81 359.03 197.33 359.03 196.71 L 359.03 196.71 C 359.03 196.22 358.9 195.86 358.63 195.6 C 358.36 195.35 358.02 195.16 357.59 195.04 C 357.16 194.92 356.69 194.82 356.18 194.73 C 355.64 194.65 355.09 194.54 354.53 194.41 C 353.97 194.28 353.46 194.08 352.99 193.81 C 352.52 193.54 352.15 193.15 351.86 192.65 C 351.57 192.15 351.43 191.47 351.43 190.63 L 351.43 190.63 C 351.43 189.26 351.88 188.21 352.78 187.47 C 353.68 186.73 354.95 186.36 356.58 186.36 C 357.34 186.36 358.11 186.49 358.87 186.74 C 359.63 186.99 360.36 187.36 361.05 187.85 L 359.91 189.78 C 359.36 189.38 358.8 189.08 358.24 188.88 C 357.67 188.68 357.12 188.58 356.57 188.58 C 355.67 188.58 354.97 188.74 354.48 189.07 C 353.99 189.4 353.74 189.86 353.74 190.47 L 353.74 190.47 C 353.74 190.97 353.88 191.35 354.17 191.61 C 354.46 191.87 354.84 192.06 355.31 192.18 C 355.78 192.31 356.28 192.42 356.82 192.53 C 357.36 192.63 357.89 192.76 358.42 192.91 C 358.95 193.06 359.44 193.28 359.87 193.56 C 360.3 193.84 360.66 194.23 360.92 194.72 C 361.18 195.21 361.32 195.85 361.32 196.64 L 361.32 196.66 C 361.32 198 360.86 199.04 359.93 199.78 C 359 200.52 357.69 200.88 356 200.88 L 356.03 200.88 Z " fill="rgb(255,255,255)"/><path d=" M 363.24 188.74 L 363.24 186.5 L 373.48 186.5 L 373.48 188.74 L 363.24 188.74 Z  M 367.19 200.73 L 367.19 187.66 L 369.52 187.66 L 369.52 200.73 L 367.19 200.73 Z " fill="rgb(255,255,255)"/><path d=" M 380.94 200.88 C 379.32 200.88 378.07 200.42 377.18 199.5 C 376.29 198.58 375.85 197.27 375.85 195.59 L 375.85 186.51 L 378.19 186.51 L 378.19 195.66 C 378.19 196.59 378.43 197.3 378.91 197.81 C 379.39 198.32 380.07 198.57 380.94 198.57 C 381.81 198.57 382.5 198.32 382.99 197.81 C 383.48 197.3 383.71 196.58 383.71 195.66 L 383.71 186.51 L 386.05 186.51 L 386.05 195.59 C 386.05 197.27 385.6 198.58 384.71 199.5 C 383.82 200.42 382.56 200.88 380.94 200.88 Z " fill="rgb(255,255,255)"/><path d=" M 390.2 200.73 L 390.2 186.5 L 392.54 186.5 L 392.54 200.73 L 390.2 200.73 Z  M 391.55 200.73 L 391.55 198.49 L 394.87 198.49 C 395.84 198.49 396.59 198.25 397.12 197.76 C 397.65 197.28 397.92 196.59 397.92 195.71 L 397.92 191.52 C 397.92 190.63 397.65 189.95 397.12 189.46 C 396.59 188.98 395.84 188.74 394.87 188.74 L 391.55 188.74 L 391.55 186.5 L 394.81 186.5 C 396.57 186.5 397.92 186.95 398.88 187.84 C 399.84 188.73 400.32 189.99 400.32 191.6 L 400.32 195.63 C 400.32 196.67 400.11 197.58 399.69 198.34 C 399.27 199.1 398.65 199.69 397.83 200.11 C 397.01 200.53 396 200.73 394.8 200.73 L 391.55 200.73 L 391.55 200.73 Z " fill="rgb(255,255,255)"/><path d=" M 408.97 200.88 C 407.94 200.88 407.05 200.66 406.28 200.23 C 405.51 199.8 404.92 199.19 404.5 198.4 C 404.08 197.61 403.87 196.69 403.87 195.64 L 403.87 191.61 C 403.87 190.55 404.08 189.63 404.5 188.85 C 404.92 188.06 405.51 187.45 406.28 187.02 C 407.04 186.59 407.94 186.37 408.97 186.37 C 410 186.37 410.89 186.59 411.66 187.02 C 412.43 187.45 413.02 188.06 413.44 188.85 C 413.86 189.64 414.07 190.56 414.07 191.61 L 414.07 195.64 C 414.07 196.69 413.86 197.61 413.44 198.4 C 413.02 199.19 412.43 199.8 411.66 200.23 C 410.89 200.66 410 200.88 408.97 200.88 Z  M 408.97 198.56 C 409.79 198.56 410.44 198.3 410.93 197.78 C 411.42 197.26 411.67 196.57 411.67 195.7 L 411.67 191.53 C 411.67 190.66 411.42 189.97 410.93 189.45 C 410.44 188.93 409.79 188.67 408.97 188.67 C 408.15 188.67 407.51 188.93 407.02 189.45 C 406.53 189.97 406.28 190.66 406.28 191.53 L 406.28 195.7 C 406.28 196.56 406.53 197.25 407.02 197.78 C 407.51 198.3 408.16 198.56 408.97 198.56 Z " fill="rgb(255,255,255)"/><path d=" M 422.29 200.88 C 421.6 200.88 420.95 200.81 420.32 200.68 C 419.69 200.55 419.1 200.35 418.55 200.09 C 418 199.83 417.5 199.51 417.03 199.12 L 418.27 197.25 C 418.82 197.71 419.43 198.06 420.11 198.3 C 420.79 198.54 421.51 198.66 422.28 198.66 C 423.23 198.66 423.97 198.49 424.5 198.15 C 425.02 197.81 425.29 197.33 425.29 196.71 L 425.29 196.71 C 425.29 196.22 425.16 195.86 424.89 195.6 C 424.62 195.35 424.28 195.16 423.85 195.04 C 423.42 194.92 422.95 194.82 422.44 194.73 C 421.9 194.65 421.35 194.54 420.79 194.41 C 420.23 194.28 419.72 194.08 419.25 193.81 C 418.78 193.54 418.41 193.15 418.12 192.65 C 417.83 192.15 417.69 191.47 417.69 190.63 L 417.69 190.63 C 417.69 189.26 418.14 188.21 419.04 187.47 C 419.94 186.73 421.21 186.36 422.84 186.36 C 423.6 186.36 424.37 186.49 425.13 186.74 C 425.89 186.99 426.62 187.36 427.31 187.85 L 426.17 189.78 C 425.62 189.38 425.06 189.08 424.5 188.88 C 423.93 188.68 423.38 188.58 422.83 188.58 C 421.93 188.58 421.23 188.74 420.74 189.07 C 420.25 189.4 420 189.86 420 190.47 L 420 190.47 C 420 190.97 420.14 191.35 420.43 191.61 C 420.72 191.87 421.1 192.06 421.57 192.18 C 422.04 192.31 422.54 192.42 423.08 192.53 C 423.62 192.63 424.15 192.76 424.68 192.91 C 425.21 193.06 425.7 193.28 426.13 193.56 C 426.56 193.84 426.92 194.23 427.18 194.72 C 427.44 195.21 427.58 195.85 427.58 196.64 L 427.58 196.66 C 427.58 198 427.12 199.04 426.19 199.78 C 425.26 200.52 423.95 200.88 422.26 200.88 L 422.29 200.88 Z " fill="rgb(255,255,255)"/><path d=" M 438.05 200.73 L 438.05 186.5 L 440.39 186.5 L 440.39 200.73 L 438.05 200.73 Z  M 439.02 188.74 L 439.02 186.5 L 447.39 186.5 L 447.39 188.74 L 439.02 188.74 Z  M 439.02 194.78 L 439.02 192.55 L 446.31 192.55 L 446.31 194.78 L 439.02 194.78 Z  M 439.02 200.73 L 439.02 198.49 L 447.39 198.49 L 447.39 200.73 L 439.02 200.73 Z  M 443.18 185.57 L 441.83 184.17 L 444.53 181.77 L 446.07 183.36 L 443.18 185.57 Z " fill="rgb(255,255,255)"/><path d=" M 450.06 188.74 L 450.06 186.5 L 460.3 186.5 L 460.3 188.74 L 450.06 188.74 Z  M 454.01 200.73 L 454.01 187.66 L 456.34 187.66 L 456.34 200.73 L 454.01 200.73 Z " fill="rgb(255,255,255)"/><path d=" M 463.26 200.72 L 463.26 186.5 L 465.81 186.5 L 471.94 197.45 L 471.71 197.71 L 471.71 186.5 L 473.98 186.5 L 473.98 200.72 L 471.42 200.72 L 465.31 189.93 L 465.54 189.68 L 465.54 200.72 L 463.27 200.72 L 463.26 200.72 Z " fill="rgb(255,255,255)"/><path d=" M 480.8 186.5 L 480.8 200.73 L 478.41 200.73 L 478.41 186.5 L 480.8 186.5 Z " fill="rgb(255,255,255)"/><path d=" M 489.99 200.88 C 488.95 200.88 488.05 200.67 487.3 200.24 C 486.55 199.81 485.96 199.2 485.55 198.4 C 485.14 197.6 484.94 196.66 484.94 195.57 L 484.94 191.66 C 484.94 190.56 485.14 189.62 485.55 188.83 C 485.96 188.04 486.54 187.43 487.3 186.99 C 488.06 186.55 488.96 186.34 489.99 186.34 C 490.85 186.34 491.63 186.52 492.32 186.89 C 493.01 187.26 493.59 187.78 494.05 188.47 C 494.51 189.15 494.82 189.97 495 190.91 L 492.59 190.91 C 492.47 190.44 492.29 190.04 492.03 189.7 C 491.78 189.36 491.47 189.1 491.13 188.92 C 490.78 188.74 490.4 188.65 490 188.65 C 489.18 188.65 488.54 188.92 488.07 189.46 C 487.6 190 487.36 190.73 487.36 191.66 L 487.36 195.57 C 487.36 196.5 487.59 197.23 488.07 197.76 C 488.54 198.3 489.19 198.56 490 198.56 C 490.61 198.56 491.15 198.36 491.62 197.97 C 492.1 197.58 492.42 197.02 492.59 196.3 L 495 196.3 C 494.82 197.25 494.5 198.06 494.04 198.74 C 493.58 199.42 493.01 199.95 492.32 200.32 C 491.63 200.69 490.85 200.87 490 200.87 L 489.99 200.88 Z " fill="rgb(255,255,255)"/><path d=" M 503.25 200.88 C 502.22 200.88 501.33 200.66 500.56 200.23 C 499.79 199.8 499.2 199.19 498.78 198.4 C 498.36 197.61 498.15 196.69 498.15 195.64 L 498.15 191.61 C 498.15 190.55 498.36 189.63 498.78 188.85 C 499.2 188.06 499.79 187.45 500.56 187.02 C 501.32 186.59 502.22 186.37 503.25 186.37 C 504.28 186.37 505.17 186.59 505.94 187.02 C 506.71 187.45 507.3 188.06 507.72 188.85 C 508.14 189.64 508.35 190.56 508.35 191.61 L 508.35 195.64 C 508.35 196.69 508.14 197.61 507.72 198.4 C 507.3 199.19 506.71 199.8 505.94 200.23 C 505.17 200.66 504.28 200.88 503.25 200.88 Z  M 503.25 198.56 C 504.07 198.56 504.72 198.3 505.21 197.78 C 505.7 197.26 505.95 196.57 505.95 195.7 L 505.95 191.53 C 505.95 190.66 505.7 189.97 505.21 189.45 C 504.72 188.93 504.07 188.67 503.25 188.67 C 502.43 188.67 501.79 188.93 501.3 189.45 C 500.81 189.97 500.56 190.66 500.56 191.53 L 500.56 195.7 C 500.56 196.56 500.81 197.25 501.3 197.78 C 501.79 198.3 502.44 198.56 503.25 198.56 Z " fill="rgb(255,255,255)"/><path d=" M 516.57 200.88 C 515.88 200.88 515.23 200.81 514.6 200.68 C 513.97 200.55 513.38 200.35 512.83 200.09 C 512.28 199.83 511.78 199.51 511.31 199.12 L 512.55 197.25 C 513.1 197.71 513.71 198.06 514.39 198.3 C 515.07 198.54 515.79 198.66 516.56 198.66 C 517.51 198.66 518.25 198.49 518.78 198.15 C 519.3 197.81 519.57 197.33 519.57 196.71 L 519.57 196.71 C 519.57 196.22 519.44 195.86 519.17 195.6 C 518.9 195.35 518.56 195.16 518.13 195.04 C 517.7 194.92 517.23 194.82 516.72 194.73 C 516.18 194.65 515.63 194.54 515.07 194.41 C 514.51 194.28 514 194.08 513.53 193.81 C 513.06 193.54 512.69 193.15 512.4 192.65 C 512.11 192.15 511.97 191.47 511.97 190.63 L 511.97 190.63 C 511.97 189.26 512.42 188.21 513.32 187.47 C 514.22 186.73 515.49 186.36 517.12 186.36 C 517.88 186.36 518.65 186.49 519.41 186.74 C 520.17 186.99 520.9 187.36 521.59 187.85 L 520.45 189.78 C 519.9 189.38 519.34 189.08 518.78 188.88 C 518.21 188.68 517.66 188.58 517.11 188.58 C 516.21 188.58 515.51 188.74 515.02 189.07 C 514.53 189.4 514.28 189.86 514.28 190.47 L 514.28 190.47 C 514.28 190.97 514.42 191.35 514.71 191.61 C 515 191.87 515.38 192.06 515.85 192.18 C 516.32 192.31 516.82 192.42 517.36 192.53 C 517.9 192.63 518.43 192.76 518.96 192.91 C 519.49 193.06 519.98 193.28 520.41 193.56 C 520.84 193.84 521.2 194.23 521.46 194.72 C 521.72 195.21 521.86 195.85 521.86 196.64 L 521.86 196.66 C 521.86 198 521.4 199.04 520.47 199.78 C 519.54 200.51 518.23 200.88 516.54 200.88 L 516.57 200.88 Z " fill="rgb(255,255,255)"/><path d=" M 508.21 89.26 C 507.52 93.69 507.59 97.65 508.21 101.28 L 524.91 95.27 C 519.34 93.27 513.78 91.26 508.21 89.26 L 508.21 89.26 Z " fill-rule="evenodd" fill="rgb(255,255,255)"/><path d=" M 585.44 95.27 C 591.01 97.27 596.57 99.28 602.14 101.28 C 603.04 97.27 602.99 93.27 602.14 89.26 C 596.57 91.26 591.01 93.27 585.44 95.27 L 585.44 95.27 Z " fill-rule="evenodd" fill="rgb(255,255,255)"/><path d=" M 550.37 48.01 C 552 51.4 553.64 54.78 555.27 58.17 C 556.9 54.78 558.54 51.4 560.17 48.01 C 557.13 47.79 553.85 47.8 550.37 48.01 Z " fill-rule="evenodd" fill="rgb(255,255,255)"/><rect x="142.73" y="34.05" width="2.58" height="124.07" transform="matrix(1,0,0,1,0,0)" fill="rgb(255,255,255)"/><path d=" M 261.04 158.12 L 263.62 158.12 L 263.62 34.05 L 261.04 34.05 L 261.04 155.96 L 261.04 158.12 L 261.04 158.12 Z " fill-rule="evenodd" fill="rgb(255,255,255)"/><path d=" M 436.77 118.17 C 441.27 118.17 444.94 114.5 444.94 110 C 444.94 105.5 441.27 101.83 436.77 101.83 C 432.27 101.83 428.6 105.5 428.6 110 C 428.6 114.5 432.27 118.17 436.77 118.17 Z " fill-rule="evenodd" fill="rgb(255,255,255)"/><path d=" M 297.98 158.52 L 335.41 88.48 L 372.83 158.52 L 353.35 158.52 L 335.41 124.94 L 317.46 158.52 L 297.98 158.52 L 297.98 158.52 Z " fill-rule="evenodd" fill="rgb(255,255,255)"/><path d=" M 555.19 32.55 C 520.32 32.55 491.88 60.99 491.88 95.86 C 491.88 130.73 520.32 159.17 555.19 159.17 C 590.06 159.17 618.5 130.73 618.5 95.86 C 618.5 60.99 590.06 32.55 555.19 32.55 L 555.19 32.55 Z  M 566.49 47.17 L 566.76 46.61 L 567.03 46.05 L 567.3 45.49 L 567.57 44.93 L 567.84 44.37 C 586.43 49.17 600.6 61.78 605.82 80.76 L 596.16 84.21 C 595.9 83.44 600.53 80.19 600.19 79.39 C 599.85 78.59 594.55 80.24 594.14 79.43 C 593.73 78.61 598.37 76.15 597.89 75.33 C 597.41 74.51 591.81 75.33 591.27 74.5 C 590.73 73.68 594.42 70.56 593.82 69.74 C 593.22 68.93 588.33 70.41 587.68 69.62 C 587.03 68.82 590.29 64.76 589.59 63.98 C 588.89 63.21 584.24 65.74 583.5 65 C 582.76 64.26 585.62 59.61 584.84 58.92 C 584.07 58.23 579.67 61.5 578.87 60.86 C 578.07 60.22 580.21 55.35 579.38 54.77 C 578.55 54.19 574.76 57.92 573.92 57.41 C 573.08 56.9 574.68 52.17 573.83 51.74 C 572.97 51.31 569.65 55.19 568.78 54.85 C 567.92 54.51 569.67 49.13 568.81 48.89 C 567.94 48.65 564.45 53.54 563.59 53.4 L 563.86 52.84 L 564.13 52.28 L 564.4 51.72 L 564.67 51.16 L 564.94 50.6 L 565.21 50.04 L 565.48 49.48 L 565.75 48.92 L 566.02 48.36 L 566.29 47.8 L 566.56 47.24 L 566.49 47.17 Z  M 555.19 110.24 C 547.24 110.24 540.8 103.8 540.8 95.85 C 540.8 87.9 547.24 81.46 555.19 81.46 C 563.14 81.46 569.58 87.9 569.58 95.85 C 569.58 103.8 563.14 110.24 555.19 110.24 Z  M 574.48 98.77 L 584 103.2 C 580.64 115.42 568.47 124.72 555.18 124.72 C 541.89 124.72 530.22 114.43 526.86 102.21 L 536.74 98.27 C 539.48 106.79 545.44 114.06 555.19 114.06 C 566.05 114.06 569.92 106.74 574.48 98.76 L 574.48 98.77 Z  M 525.22 70.89 C 525.22 69.34 526.29 68.04 527.74 67.7 C 527.39 68.18 527.19 68.78 527.19 69.42 C 527.19 71.05 528.51 72.37 530.14 72.37 C 530.67 72.37 531.16 72.23 531.59 71.99 C 531.14 73.26 529.92 74.18 528.5 74.18 C 526.69 74.18 525.22 72.71 525.22 70.9 L 525.22 70.89 Z  M 525.58 79.66 C 525.58 81.47 524.11 82.94 522.3 82.94 C 520.49 82.94 519.02 81.47 519.02 79.66 C 519.02 77.85 520.49 76.38 522.3 76.38 C 524.11 76.38 525.58 77.85 525.58 79.66 Z  M 531.32 65.06 C 531.32 63.25 532.79 61.78 534.6 61.78 C 536.41 61.78 537.88 63.25 537.88 65.06 C 537.88 66.87 536.41 68.34 534.6 68.34 C 532.79 68.34 531.32 66.87 531.32 65.06 Z  M 552.71 67.09 L 552.71 77.8 C 546.44 78.64 538.89 86.76 536.32 92.28 L 527.31 88.18 C 530.46 76.72 540.51 68.11 552.71 67.09 Z  M 546.5 62.67 C 547 62.84 547.52 62.86 548 62.77 C 547.17 63.84 545.73 64.31 544.37 63.86 C 542.65 63.28 541.72 61.42 542.3 59.71 C 542.79 58.24 544.22 57.35 545.7 57.48 C 545.22 57.83 544.84 58.33 544.63 58.93 C 544.11 60.48 544.95 62.15 546.49 62.67 L 546.5 62.67 Z  M 557.57 77.8 L 557.57 67.09 C 569.77 68.11 579.82 77.21 582.97 88.68 L 573.47 92.29 C 570.9 86.77 563.84 78.64 557.57 77.81 L 557.57 77.8 Z  M 565.6 59.02 C 565.4 58.41 565.02 57.92 564.53 57.57 C 566.01 57.44 567.44 58.33 567.93 59.8 C 568.51 61.52 567.58 63.38 565.86 63.95 C 564.51 64.4 563.06 63.92 562.23 62.86 C 562.71 62.95 563.23 62.93 563.73 62.76 C 565.28 62.24 566.11 60.57 565.59 59.02 L 565.6 59.02 Z  M 572.35 65.15 C 572.35 63.34 573.82 61.87 575.63 61.87 C 577.44 61.87 578.91 63.34 578.91 65.15 C 578.91 66.96 577.44 68.43 575.63 68.43 C 573.82 68.43 572.35 66.96 572.35 65.15 Z  M 581.74 74.27 C 580.31 74.27 579.1 73.36 578.65 72.08 C 579.08 72.32 579.58 72.46 580.1 72.46 C 581.73 72.46 583.05 71.14 583.05 69.51 C 583.05 68.87 582.85 68.28 582.5 67.79 C 583.94 68.13 585.02 69.43 585.02 70.98 C 585.02 72.79 583.55 74.26 581.74 74.26 L 581.74 74.27 Z  M 587.94 76.48 C 589.75 76.48 591.22 77.95 591.22 79.76 C 591.22 81.57 589.75 83.04 587.94 83.04 C 586.13 83.04 584.66 81.57 584.66 79.76 C 584.66 77.95 586.13 76.48 587.94 76.48 Z  M 566.19 44.27 C 565.76 45.16 565.34 46.04 564.91 46.93 C 561.7 53.59 558.48 60.25 555.27 66.91 C 551.63 59.36 547.99 51.82 544.35 44.27 C 552.08 43.39 559.34 43.44 566.19 44.27 L 566.19 44.27 Z  M 543.05 44.52 L 546.82 54.24 C 545.91 54.41 542.38 49.85 541.48 50.08 C 540.58 50.32 542.31 55.34 541.43 55.64 C 540.54 55.94 537.53 51.68 536.66 52.05 C 535.79 52.42 537.07 57.41 536.22 57.83 C 535.37 58.26 531.91 54.45 531.09 54.93 C 530.27 55.42 532.08 60.2 531.29 60.74 C 530.5 61.28 526.6 57.59 525.84 58.18 C 525.08 58.78 527.45 63.66 526.73 64.31 C 526.01 64.96 520.87 61.86 520.18 62.55 C 519.5 63.25 523.26 67.74 522.62 68.48 C 521.98 69.22 517.42 67.03 516.83 67.82 C 516.24 68.61 519.6 72.37 519.06 73.2 C 518.52 74.03 514.06 72.25 513.57 73.12 C 513.08 73.99 516.56 77.5 516.13 78.4 C 515.7 79.3 510.54 77.93 510.17 78.86 C 509.8 79.8 514.23 83.05 513.92 84.01 L 513.33 83.76 L 512.73 83.51 L 512.14 83.26 L 511.54 83.01 L 510.94 82.76 L 510.34 82.51 L 509.74 82.26 L 509.14 82.01 L 508.54 81.76 L 507.94 81.51 L 507.34 81.26 L 506.74 81.01 L 506.14 80.76 L 505.55 80.51 L 504.95 80.26 L 504.36 80.01 C 509.58 61.02 523.59 48.58 542.99 44.44 L 543.05 44.52 Z  M 503.42 82.8 C 504.51 83.19 505.59 83.58 506.68 83.97 L 538.1 95.27 C 526.54 99.43 514.98 103.58 503.43 107.74 C 502.38 99.43 502.3 91.11 503.43 82.8 L 503.42 82.8 Z  M 555.19 149.04 C 530.72 149.04 510.11 132.5 503.92 110 L 522.3 104.26 C 522.69 105.18 513.25 113.14 513.66 114.02 C 514.07 114.9 524.35 108.71 524.79 109.56 C 525.23 110.41 516.82 119.44 517.29 120.24 C 517.76 121.05 527.11 113.63 527.61 114.39 C 528.11 115.15 521.25 124.42 521.78 125.14 C 522.32 125.86 530.25 118.01 530.83 118.68 C 531.4 119.35 526.58 128.68 527.19 129.29 C 527.8 129.9 533.85 121.79 534.51 122.35 C 535.17 122.91 531.41 132.95 532.11 133.45 C 532.81 133.95 537.97 124.9 538.72 125.33 C 539.47 125.77 537.13 136.02 537.93 136.39 C 538.73 136.76 542.67 127.25 543.53 127.56 C 544.38 127.86 543.79 138.3 544.7 138.54 C 545.61 138.77 548.03 128.79 549 128.95 C 549.97 129.11 550.64 139.89 551.67 139.97 C 552.7 140.05 554.09 129.42 555.19 129.42 C 556.29 129.42 557.31 140.05 558.33 139.97 C 559.35 139.89 560.34 129.1 561.31 128.95 C 562.28 128.79 564.69 139.59 565.6 139.36 C 566.51 139.13 565.92 127.87 566.78 127.56 C 567.64 127.26 571.76 137.26 572.57 136.89 C 573.38 136.52 570.88 125.78 571.65 125.34 C 572.41 124.9 578.07 133.79 578.78 133.29 C 579.49 132.79 575.26 122.9 575.93 122.34 C 576.6 121.78 583.97 129.89 584.59 129.27 C 585.21 128.65 579.08 119.31 579.66 118.63 C 580.24 117.96 588.83 125.3 589.36 124.57 C 589.89 123.84 582.36 115.05 582.85 114.28 C 583.34 113.51 593.49 119.76 593.94 118.94 C 594.39 118.12 585.14 110.22 585.55 109.36 C 585.96 108.5 596.36 114.34 596.73 113.43 C 597.1 112.53 587.44 104.87 587.78 103.93 L 588.95 104.31 L 590.12 104.69 L 591.29 105.07 L 592.46 105.45 L 593.63 105.83 L 594.8 106.21 L 595.97 106.59 L 597.14 106.97 L 598.31 107.35 L 599.48 107.73 L 600.65 108.11 L 601.82 108.49 L 602.99 108.87 L 604.16 109.25 L 605.33 109.63 L 606.5 110.01 C 600.31 132.52 579.7 149.05 555.23 149.05 L 555.19 149.04 Z  M 572.25 95.27 C 574.16 94.58 576.07 93.9 577.98 93.21 C 587.63 89.74 597.28 86.27 606.92 82.8 C 608.04 91.32 607.99 99.63 606.92 107.74 C 595.36 103.58 583.8 99.43 572.25 95.27 L 572.25 95.27 Z " fill-rule="evenodd" fill="rgb(255,255,255)"/><path d=" M 555.19 88.82 C 551.3 88.82 548.15 91.97 548.15 95.86 C 548.15 99.75 551.3 102.9 555.19 102.9 C 559.08 102.9 562.23 99.75 562.23 95.86 C 562.23 91.97 559.08 88.82 555.19 88.82 Z  M 555.19 99.35 C 553.27 99.35 551.7 97.78 551.7 95.86 C 551.7 93.94 553.27 92.37 555.19 92.37 C 557.11 92.37 558.68 93.94 558.68 95.86 C 558.68 97.78 557.11 99.35 555.19 99.35 Z " fill-rule="evenodd" fill="rgb(255,255,255)"/><path d=" M 532.26 87.75 C 531.25 87.37 530.8 87.27 529.91 86.94 C 532.99 78.37 540.45 72.01 550.21 69.45 L 550.23 72.09 C 543.5 73.02 534.31 80.73 532.27 87.74 L 532.27 87.74 L 532.26 87.75 Z  M 535.46 89.75 C 537.41 83.91 545.01 77.02 550.64 75.89 L 550.4 73.59 C 543.48 75.77 536.27 82.39 533.8 88.85 L 535.46 89.75 L 535.46 89.75 Z " fill-rule="evenodd" fill="rgb(255,255,255)"/><path d=" M 577.93 88.25 C 578.94 87.87 579.44 87.6 580.17 87.39 C 577.09 78.82 569.57 71.68 560.15 69.29 L 560.19 72.1 C 566.92 73.03 575.89 81.24 577.93 88.25 Z " fill-rule="evenodd" fill="rgb(255,255,255)"/><path d=" M 574.34 89.86 L 576.28 88.96 C 573.81 82.5 566.82 75.76 560.01 73.59 L 559.88 75.73 C 564.72 76.63 572.55 84.8 574.33 89.86 L 574.34 89.86 Z " fill-rule="evenodd" fill="rgb(255,255,255)"/><circle vector-effect="non-scaling-stroke" cx="534.8500000000001" cy="106.94999999999999" r="1.509999999999991" fill="rgb(255,255,255)"/><circle vector-effect="non-scaling-stroke" cx="543.7900000000001" cy="115.92999999999998" r="1.509999999999991" fill="rgb(255,255,255)"/><path d=" M 556.29 120.87 C 557.12 120.87 557.8 120.19 557.8 119.36 C 557.8 118.53 557.12 117.85 556.29 117.85 C 555.46 117.85 554.78 118.53 554.78 119.36 C 554.78 120.19 555.46 120.87 556.29 120.87 Z " fill-rule="evenodd" fill="rgb(255,255,255)"/><circle vector-effect="non-scaling-stroke" cx="569.7600000000002" cy="114.42999999999998" r="1.509999999999991" fill="rgb(255,255,255)"/><path d=" M 576.67 107.51 C 577.5 107.51 578.18 106.83 578.18 106 C 578.18 105.17 577.5 104.49 576.67 104.49 C 575.84 104.49 575.16 105.17 575.16 106 C 575.16 106.83 575.84 107.51 576.67 107.51 Z " fill-rule="evenodd" fill="rgb(255,255,255)"/><path d=" M 434.97 134.72 C 426.46 134.1 418.85 129.27 414.65 121.91 L 402.54 121.91 C 407.54 135.49 420.28 144.99 434.97 145.73 L 434.97 134.71 L 434.97 134.72 Z " fill-rule="evenodd" fill="rgb(255,255,255)"/><path d=" M 459.2 121.58 C 455.07 129.08 447.4 134.05 438.81 134.71 L 438.81 145.73 C 453.57 144.93 466.34 135.29 471.24 121.58 L 459.2 121.58 Z " fill-rule="evenodd" fill="rgb(255,255,255)"/><path d=" M 449.7 33.63 L 449.7 109.62 C 449.51 116.56 443.82 122.13 436.83 122.13 C 429.84 122.13 423.96 116.37 423.96 109.26 L 387.63 109.26 C 387.63 136.43 409.66 158.46 436.83 158.46 C 464 158.46 485.82 136.64 486.03 109.65 L 486.03 109.65 L 486.03 33.63 L 449.69 33.63 L 449.7 33.63 Z  M 436.83 150.05 C 417.18 150.05 400.78 136.16 396.9 117.67 L 417.27 117.67 C 420.53 125.24 428.06 130.54 436.83 130.54 C 445.6 130.54 453.34 125.1 456.53 117.33 L 476.82 117.33 C 473.07 136 456.58 150.05 436.83 150.05 Z  M 478.11 109.59 C 478.11 110.37 478.07 111.16 478.02 112.01 L 477.99 112.47 L 457.38 112.47 L 457.45 111.91 C 457.54 111.22 457.59 110.53 457.61 109.84 L 457.61 109.72 C 457.61 109.72 457.61 41.54 457.61 41.54 L 478.11 41.54 L 478.11 109.58 L 478.11 109.59 Z " fill-rule="evenodd" fill="rgb(255,255,255)"/><path d=" M 468.38 64.51 C 468.23 64.36 468.02 64.27 467.79 64.27 C 467.56 64.27 467.35 64.36 467.2 64.52 C 467.05 64.67 466.95 64.88 466.95 65.11 C 466.95 65.34 467.04 65.55 467.2 65.71 C 467.35 65.86 467.56 65.96 467.8 65.96 C 468.04 65.96 468.24 65.87 468.39 65.71 C 468.54 65.55 468.64 65.35 468.64 65.12 C 468.64 64.89 468.55 64.68 468.4 64.53 L 468.4 64.53 L 468.38 64.51 Z " fill-rule="evenodd" fill="rgb(255,255,255)"/><path d=" M 468.38 87.94 C 468.23 87.79 468.02 87.7 467.79 87.7 C 467.56 87.7 467.35 87.79 467.2 87.95 C 467.05 88.11 466.95 88.31 466.95 88.54 C 466.95 88.77 467.04 88.98 467.2 89.14 C 467.35 89.29 467.56 89.39 467.8 89.39 C 468.04 89.39 468.24 89.3 468.39 89.14 C 468.54 88.99 468.64 88.78 468.64 88.55 C 468.64 88.32 468.55 88.11 468.4 87.96 L 468.4 87.96 L 468.38 87.94 Z " fill-rule="evenodd" fill="rgb(255,255,255)"/><path d=" M 477.13 53.21 L 469.15 47.95 L 476.85 42.53 L 458.72 42.53 L 466.42 47.95 L 458.61 53.1 L 458.61 53.97 C 458.61 53.97 466.42 59.12 466.42 59.12 L 458.61 64.62 L 458.61 65.45 C 458.61 65.45 466.42 70.95 466.42 70.95 L 458.6 76.11 L 458.6 76.98 L 466.42 82.14 L 458.6 87.64 L 458.6 88.47 L 466.42 93.97 L 458.6 99.13 L 458.6 100 C 458.6 100 466.42 105.16 466.42 105.16 L 458.55 110.69 C 458.53 110.96 458.52 111.23 458.5 111.5 L 477.07 111.5 C 477.08 111.24 477.09 110.99 477.1 110.74 L 469.15 105.15 L 477.13 99.89 L 477.13 99.24 L 469.15 93.98 L 477.13 88.37 L 477.13 87.78 L 469.15 82.17 L 477.13 76.91 L 477.13 76.26 L 469.15 71 L 477.13 65.39 L 477.13 64.8 L 469.15 59.19 L 477.13 53.93 L 477.13 53.28 L 477.13 53.21 Z  M 469.4 99.92 C 469.4 100.81 468.68 101.53 467.79 101.53 C 466.9 101.53 466.18 100.81 466.18 99.92 C 466.18 99.03 466.9 98.31 467.79 98.31 C 468.68 98.31 469.4 99.03 469.4 99.92 Z  M 469.62 88.53 C 469.62 89.03 469.42 89.49 469.08 89.82 C 468.75 90.15 468.29 90.36 467.79 90.36 C 467.29 90.36 466.83 90.16 466.5 89.82 L 466.5 89.82 C 466.17 89.49 465.96 89.03 465.96 88.53 C 465.96 88.03 466.16 87.57 466.5 87.24 C 466.84 86.91 467.29 86.7 467.79 86.7 C 468.29 86.7 468.75 86.9 469.08 87.24 L 469.08 87.24 C 469.41 87.57 469.62 88.03 469.62 88.53 Z  M 469.4 76.79 C 469.4 77.68 468.68 78.4 467.79 78.4 C 466.9 78.4 466.18 77.68 466.18 76.79 C 466.18 75.9 466.9 75.18 467.79 75.18 C 468.68 75.18 469.4 75.9 469.4 76.79 Z  M 469.62 65.1 C 469.62 65.6 469.42 66.06 469.08 66.39 C 468.75 66.72 468.29 66.93 467.79 66.93 C 467.29 66.93 466.83 66.73 466.5 66.39 L 466.5 66.39 C 466.17 66.06 465.96 65.6 465.96 65.1 C 465.96 64.6 466.16 64.14 466.5 63.81 C 466.83 63.48 467.29 63.27 467.79 63.27 C 468.29 63.27 468.75 63.47 469.08 63.81 L 469.08 63.81 C 469.41 64.14 469.62 64.6 469.62 65.1 Z  M 467.79 54.97 C 466.9 54.97 466.18 54.25 466.18 53.36 C 466.18 52.47 466.9 51.75 467.79 51.75 C 468.68 51.75 469.4 52.47 469.4 53.36 C 469.4 54.25 468.68 54.97 467.79 54.97 Z " fill-rule="evenodd" fill="rgb(255,255,255)"/><path d=" M 26.97 158.54 L 66.59 84.42 L 66.59 33.89 L -0.04 158.54 L 26.97 158.54 Z  M 60.08 82.47 L 23.25 151.37 L 11.35 151.37 L 60.08 60.2 L 60.08 82.47 L 60.08 82.47 Z " fill="rgb(255,255,255)"/><path d=" M 71.77 33.89 L 71.77 84.42 L 111.39 158.54 L 138.4 158.54 L 71.77 33.89 L 71.77 33.89 Z  M 78.28 82.47 L 78.28 60.2 L 127.01 151.37 L 115.11 151.37 L 78.28 82.47 L 78.28 82.47 Z " fill="rgb(255,255,255)"/><path d=" M 44.9 148.58 L 55.16 145.62 L 50.51 136.95 L 60.68 134.56 L 55.86 125.03 L 66.14 123.27 L 61.98 113.26 L 75.94 113.13 L 72.15 123.27 L 82.83 124.44 L 77.6 134.56 L 87.91 136.21 L 83.13 145.62 L 92.99 149.03 L 87.14 158.07 L 105.31 158.07 L 69.18 90.46 L 33.04 158.07 L 51.14 158.07 L 44.9 148.58 L 44.9 148.58 Z " fill-rule="evenodd" fill="rgb(255,255,255)"/><path d=" M 84.51 144.41 L 89.39 134.81 L 79.1 133.16 L 84.36 122.97 L 73.52 121.79 L 77.36 111.5 L 60.54 111.65 L 64.78 121.87 L 54.41 123.65 L 59.27 133.25 L 49.07 135.65 L 53.74 144.37 L 43.36 147.36 C 45.71 150.93 48.06 154.5 50.41 158.07 L 51.86 158.07 L 69.19 125.66 L 86.51 158.07 L 87.89 158.07 L 94.49 147.86 L 84.51 144.41 Z  M 86.68 156.34 L 70.03 125.19 L 69.17 123.59 L 51.63 156.4 L 46.43 148.51 L 56.58 145.58 L 51.97 136.97 L 62.11 134.59 L 57.33 125.13 L 67.5 123.39 L 63.43 113.58 L 74.53 113.48 L 70.8 123.47 L 81.31 124.62 L 76.12 134.68 L 86.44 136.33 L 81.76 145.55 L 91.5 148.91 L 86.69 156.35 L 86.68 156.34 Z " fill-rule="evenodd" fill="rgb(255,255,255)"/><path d=" M 56.63 158.07 L 69.18 134.6 L 81.72 158.07 L 56.63 158.07 L 56.63 158.07 Z " fill-rule="evenodd" fill="rgb(255,255,255)"/><rect x="172.83" y="34.75" width="6.89" height="122.72" transform="matrix(1,0,0,1,0,0)" fill="rgb(255,255,255)"/><rect x="225.59" y="33.52" width="38.03" height="1.23" transform="matrix(1,0,0,1,0,0)" fill="rgb(255,255,255)"/><path d=" M 181.01 34.65 L 142.73 34.75 L 142.73 33.52 L 180.17 33.42 L 181.01 34.65 L 181.01 34.65 Z " fill-rule="evenodd" fill="rgb(255,255,255)"/><path d=" M 186.04 107.42 L 186.04 158.55 L 219.29 158.55 L 186.04 107.42 L 186.04 107.42 Z  M 192.52 130.58 L 206.49 152.07 L 192.52 152.07 L 192.52 130.58 Z " fill-rule="evenodd" fill="rgb(255,255,255)"/><path d=" M 185.81 33.69 L 220.6 85.09 L 220.6 33.69 L 185.81 33.69 Z  M 212.6 59 L 200.88 41.69 L 212.6 41.69 L 212.6 59 Z " fill-rule="evenodd" fill="rgb(255,255,255)"/><path d=" M 161.39 77.66 C 161.79 77.66 162.14 77.5 162.4 77.24 C 162.66 76.98 162.82 76.62 162.82 76.23 C 162.82 75.84 162.66 75.47 162.4 75.22 L 162.4 75.22 C 162.14 74.96 161.78 74.8 161.39 74.8 C 161 74.8 160.64 74.96 160.38 75.22 C 160.12 75.48 159.96 75.84 159.96 76.23 C 159.96 76.62 160.12 76.99 160.38 77.25 C 160.64 77.51 161 77.67 161.4 77.67 L 161.39 77.66 Z " fill-rule="evenodd" fill="rgb(255,255,255)"/><path d=" M 153.11 41.07 L 144.04 47.05 L 153.11 53.03 L 144.12 59.35 L 153.11 65.67 L 144.04 71.65 L 153.11 77.63 L 144.12 83.95 L 153.11 90.27 L 144.04 96.25 L 153.11 102.23 L 144.12 108.55 L 153.11 114.87 L 144.04 120.85 L 153.11 126.83 L 144.12 133.15 L 153.11 139.47 L 144.04 145.45 L 153.11 151.23 L 144.12 157.34 L 144.12 145.81 C 144.12 145.81 144.04 145.45 144.04 145.45 L 144.12 145.08 L 144.12 145.06 C 144.12 145.06 144.12 133.15 144.12 133.15 L 144.12 121.22 C 144.12 121.22 144.04 120.85 144.04 120.85 L 144.12 120.48 L 144.12 120.46 C 144.12 120.46 144.12 108.55 144.12 108.55 L 144.12 96.62 C 144.12 96.62 144.04 96.25 144.04 96.25 L 144.12 95.88 L 144.12 95.86 C 144.12 95.86 144.12 83.95 144.12 83.95 L 144.12 72.02 C 144.12 72.02 144.04 71.65 144.04 71.65 L 144.12 71.28 L 144.12 71.26 C 144.12 71.26 144.12 59.35 144.12 59.35 L 144.12 47.42 C 144.12 47.42 144.04 47.05 144.04 47.05 L 144.12 46.68 L 144.12 46.66 C 144.12 46.66 144.12 34.75 144.12 34.75 L 144.04 34.75 L 144.04 157.47 L 179.72 157.47 L 179.72 34.75 L 144.12 34.75 L 153.11 41.07 L 153.11 41.07 Z  M 161.38 138.37 C 159.87 138.37 158.63 137.14 158.63 135.62 C 158.63 134.1 159.86 132.87 161.38 132.87 C 162.9 132.87 164.13 134.1 164.13 135.62 C 164.13 137.14 162.9 138.37 161.38 138.37 Z  M 161.38 53.45 C 162.89 53.45 164.13 54.68 164.13 56.2 C 164.13 57.72 162.9 58.95 161.38 58.95 C 159.86 58.95 158.63 57.72 158.63 56.2 C 158.63 54.68 159.86 53.45 161.38 53.45 Z  M 159.17 74.02 C 159.73 73.46 160.51 73.11 161.38 73.11 C 162.25 73.11 163.02 73.46 163.58 74.02 L 163.58 74.02 C 164.14 74.59 164.49 75.37 164.49 76.22 C 164.49 77.07 164.14 77.86 163.58 78.43 C 163.02 78.99 162.24 79.34 161.38 79.34 C 160.52 79.34 159.74 78.99 159.18 78.43 L 159.18 78.43 C 158.62 77.86 158.27 77.08 158.27 76.22 C 158.27 75.36 158.62 74.58 159.18 74.02 L 159.17 74.02 Z  M 164.12 96.17 C 164.12 97.68 162.89 98.92 161.37 98.92 C 159.85 98.92 158.62 97.69 158.62 96.17 C 158.62 94.65 159.85 93.42 161.37 93.42 C 162.89 93.42 164.12 94.65 164.12 96.17 Z  M 159.17 113.99 C 159.73 113.43 160.51 113.08 161.38 113.08 C 162.25 113.08 163.02 113.43 163.58 113.99 L 163.58 113.99 C 164.14 114.56 164.49 115.34 164.49 116.19 C 164.49 117.04 164.14 117.83 163.58 118.39 C 163.02 118.95 162.24 119.3 161.38 119.3 C 160.52 119.3 159.74 118.95 159.18 118.39 L 159.18 118.39 C 158.62 117.82 158.27 117.04 158.27 116.19 C 158.27 115.34 158.62 114.55 159.18 113.99 L 159.17 113.99 Z " fill-rule="evenodd" fill="rgb(255,255,255)"/><path d=" M 161.39 117.62 C 161.79 117.62 162.14 117.46 162.4 117.2 C 162.66 116.94 162.82 116.58 162.82 116.19 C 162.82 115.8 162.66 115.43 162.4 115.18 L 162.4 115.18 C 162.14 114.92 161.78 114.76 161.39 114.76 C 161 114.76 160.64 114.92 160.38 115.18 C 160.12 115.44 159.96 115.8 159.96 116.19 C 159.96 116.58 160.12 116.95 160.38 117.21 C 160.64 117.47 161 117.63 161.4 117.63 L 161.39 117.62 Z " fill-rule="evenodd" fill="rgb(255,255,255)"/><path d=" M 243.02 74.7 C 243.28 74.44 243.64 74.28 244.03 74.28 C 244.42 74.28 244.78 74.44 245.04 74.7 C 245.3 74.96 245.46 75.32 245.46 75.71 C 245.46 76.11 245.3 76.47 245.04 76.73 C 244.78 76.99 244.42 77.15 244.02 77.15 C 243.62 77.15 243.27 76.99 243.01 76.73 C 242.75 76.47 242.59 76.11 242.59 75.72 C 242.59 75.32 242.75 74.96 243.01 74.71 L 243.01 74.71 L 243.02 74.7 Z " fill-rule="evenodd" fill="rgb(255,255,255)"/><path d=" M 225.7 34.24 L 225.7 152.06 C 225.7 152.06 230.83 156.96 230.83 156.96 L 261.38 156.96 C 261.38 156.96 261.38 34.24 261.38 34.24 L 261.3 34.24 C 261.3 34.24 261.3 46.15 261.3 46.15 L 261.3 46.17 C 261.3 46.17 261.38 46.54 261.38 46.54 L 261.3 46.91 L 261.3 46.93 C 261.3 46.93 261.3 58.84 261.3 58.84 L 261.3 70.75 C 261.3 70.75 261.3 70.77 261.3 70.77 L 261.38 71.14 L 261.3 71.51 L 261.3 71.53 C 261.3 71.53 261.3 83.44 261.3 83.44 L 261.3 95.35 C 261.3 95.35 261.3 95.37 261.3 95.37 L 261.38 95.74 L 261.3 96.11 L 261.3 96.13 C 261.3 96.13 261.3 108.04 261.3 108.04 L 261.3 119.95 C 261.3 119.95 261.3 119.97 261.3 119.97 L 261.38 120.34 L 261.3 120.71 L 261.3 120.73 C 261.3 120.73 261.3 132.64 261.3 132.64 L 261.3 144.55 C 261.3 144.55 261.3 144.57 261.3 144.57 L 261.38 144.94 L 261.3 145.3 L 261.3 145.32 C 261.3 145.32 261.3 156.83 261.3 156.83 L 252.31 150.72 L 256.05 148.34 L 261.38 144.94 L 252.31 138.96 L 261.3 132.64 L 252.31 126.32 L 261.38 120.34 L 252.31 114.36 L 261.3 108.04 L 252.31 101.72 L 261.38 95.74 L 252.31 89.76 L 261.3 83.44 L 252.31 77.12 L 261.38 71.14 L 252.31 65.16 L 261.3 58.84 L 252.31 52.52 L 261.38 46.54 L 252.31 40.56 L 261.3 34.24 L 225.7 34.24 L 225.7 34.24 Z  M 246.78 55.69 C 246.78 57.2 245.55 58.44 244.03 58.44 C 242.52 58.44 241.28 57.21 241.28 55.69 C 241.28 54.18 242.51 52.94 244.03 52.94 C 245.55 52.94 246.78 54.17 246.78 55.69 Z  M 241.28 135.11 C 241.28 133.6 242.51 132.36 244.03 132.36 C 245.55 132.36 246.78 133.59 246.78 135.11 C 246.78 136.62 245.55 137.86 244.03 137.86 C 242.52 137.86 241.28 136.63 241.28 135.11 Z  M 240.91 115.68 C 240.91 114.82 241.26 114.04 241.82 113.48 L 241.82 113.48 C 242.39 112.91 243.16 112.56 244.02 112.56 C 244.88 112.56 245.66 112.91 246.23 113.47 C 246.79 114.03 247.14 114.81 247.14 115.67 C 247.14 116.53 246.79 117.31 246.23 117.87 L 246.23 117.87 C 245.67 118.44 244.89 118.79 244.03 118.79 C 243.17 118.79 242.39 118.44 241.83 117.88 C 241.27 117.32 240.92 116.54 240.92 115.68 L 240.91 115.68 Z  M 244.03 98.4 C 242.52 98.4 241.28 97.17 241.28 95.65 C 241.28 94.14 242.51 92.9 244.03 92.9 C 245.55 92.9 246.78 94.13 246.78 95.65 C 246.78 97.16 245.55 98.4 244.03 98.4 Z  M 240.91 75.71 C 240.91 74.85 241.26 74.07 241.82 73.51 L 241.82 73.51 C 242.39 72.94 243.16 72.59 244.02 72.59 C 244.88 72.59 245.66 72.94 246.23 73.5 C 246.79 74.06 247.14 74.84 247.14 75.7 C 247.14 76.56 246.79 77.34 246.23 77.9 L 246.23 77.9 C 245.67 78.47 244.89 78.82 244.03 78.82 C 243.17 78.82 242.39 78.47 241.83 77.91 C 241.27 77.35 240.92 76.57 240.92 75.7 L 240.91 75.71 Z " fill-rule="evenodd" fill="rgb(255,255,255)"/><path d=" M 243.02 114.67 C 243.28 114.41 243.64 114.25 244.03 114.25 C 244.42 114.25 244.78 114.41 245.04 114.67 C 245.3 114.93 245.46 115.29 245.46 115.68 C 245.46 116.08 245.3 116.44 245.04 116.7 C 244.78 116.96 244.42 117.12 244.02 117.12 C 243.62 117.12 243.27 116.96 243.01 116.7 C 242.75 116.44 242.59 116.08 242.59 115.69 C 242.59 115.29 242.75 114.93 243.01 114.68 L 243.01 114.68 L 243.02 114.67 Z " fill-rule="evenodd" fill="rgb(255,255,255)"/><path d=" M 534.025 23.53 L 554.615 0 L 575.535 23.9 L 568.225 30.29 L 554.615 14.74 L 541.325 29.93 L 534.025 23.53 L 534.025 23.53 Z " fill-rule="evenodd" fill="rgb(255,255,255)"/><path d=" M 328.85 46.27 L 335.55 33.73 L 342.25 46.27 L 328.85 46.27 Z " fill-rule="evenodd" fill="rgb(255,255,255)"/><path d=" M 322.86 158.52 L 335.41 135.05 L 347.95 158.52 L 322.86 158.52 L 322.86 158.52 Z " fill-rule="evenodd" fill="rgb(255,255,255)"/><path d=" M 322.22 58.75 L 328.92 46.21 L 335.62 58.75 L 322.22 58.75 Z " fill-rule="evenodd" fill="rgb(255,255,255)"/><path d=" M 349.03 58.75 L 342.33 46.21 L 335.63 58.75 L 349.03 58.75 Z " fill-rule="evenodd" fill="rgb(255,255,255)"/><path d=" M 315.58 71.23 L 322.28 58.69 L 328.98 71.23 L 315.58 71.23 Z " fill-rule="evenodd" fill="rgb(255,255,255)"/><path d=" M 355.66 71.23 L 348.96 58.69 L 342.26 71.23 L 355.66 71.23 Z " fill-rule="evenodd" fill="rgb(255,255,255)"/><path d=" M 308.95 83.7 L 315.65 71.16 L 322.35 83.7 L 308.95 83.7 Z " fill-rule="evenodd" fill="rgb(255,255,255)"/><path d=" M 362.3 83.7 L 355.6 71.16 L 348.9 83.7 L 362.3 83.7 Z " fill-rule="evenodd" fill="rgb(255,255,255)"/><path d=" M 302.31 96.18 L 309.01 83.64 L 315.71 96.18 L 302.31 96.18 Z " fill-rule="evenodd" fill="rgb(255,255,255)"/><path d=" M 368.93 96.18 L 362.23 83.64 L 355.53 96.18 L 368.93 96.18 Z " fill-rule="evenodd" fill="rgb(255,255,255)"/><path d=" M 295.68 108.65 L 302.38 96.11 L 309.08 108.65 L 295.68 108.65 Z " fill-rule="evenodd" fill="rgb(255,255,255)"/><path d=" M 375.57 108.65 L 368.87 96.11 L 362.17 108.65 L 375.57 108.65 Z " fill-rule="evenodd" fill="rgb(255,255,255)"/><path d=" M 289.04 121.13 L 295.74 108.59 L 302.44 121.13 L 289.04 121.13 Z " fill-rule="evenodd" fill="rgb(255,255,255)"/><path d=" M 382.2 121.13 L 375.5 108.59 L 368.8 121.13 L 382.2 121.13 Z " fill-rule="evenodd" fill="rgb(255,255,255)"/><path d=" M 282.4 133.6 L 289.1 121.06 L 295.8 133.6 L 282.4 133.6 Z " fill-rule="evenodd" fill="rgb(255,255,255)"/><path d=" M 388.84 133.6 L 382.14 121.06 L 375.44 133.6 L 388.84 133.6 Z " fill-rule="evenodd" fill="rgb(255,255,255)"/><path d=" M 275.77 146.08 L 282.47 133.54 L 289.17 146.08 L 275.77 146.08 Z " fill-rule="evenodd" fill="rgb(255,255,255)"/><path d=" M 395.48 146.08 L 388.78 133.54 L 382.08 146.08 L 395.48 146.08 Z " fill-rule="evenodd" fill="rgb(255,255,255)"/><path d=" M 269.13 158.55 L 275.83 146.01 L 282.53 158.55 L 269.13 158.55 Z " fill-rule="evenodd" fill="rgb(255,255,255)"/><path d=" M 402.11 158.55 L 395.41 146.01 L 388.71 158.55 L 402.11 158.55 L 402.11 158.55 Z " fill-rule="evenodd" fill="rgb(255,255,255)"/><rect x="142.3" y="157.32" width="37.42" height="1.23" transform="matrix(1,0,0,1,0,0)" fill="rgb(255,255,255)"/><path d=" M 263.63 158.55 L 229.58 158.55 L 228.74 157.21 L 263.63 157.32 L 263.63 158.55 L 263.63 158.55 Z " fill-rule="evenodd" fill="rgb(255,255,255)"/><path d=" M 260.82 151.15 L 260.82 157.22 L 251.83 150.89 L 257.92 146.88 L 252.83 139.4 L 252.2 143 L 237.73 141.97 L 232.98 126.61 L 244.12 126.61 L 181.12 34.04 L 144.91 34.04 L 145.77 35.3 L 153.98 41.07 L 151.02 43.02 L 158.4 53.86 L 164.8 49.38 L 173.25 60.36 L 165.35 64.07 L 228.93 157.5 L 261.38 157.5 L 261.38 151.96 L 260.82 151.15 L 260.82 151.15 Z " fill-rule="evenodd" fill="rgb(255,255,255)"/></g></g></svg>