<!-- icon.svg -->
<svg id="Camada_1" xmlns="http://www.w3.org/2000/svg" viewBox="0 0 500 500">
  <defs>
    <style>.cls-1{stroke-width:0px;}</style>
  </defs>
  <g id="Grupo_646">
    <g id="Grupo_645">
      <path id="Caminho_4056" class="cls-1" d="M196.62,118.04c-1.09.08-2.16.32-3.18.71l-105.59,37.71c-4.5,1.59-7.52,5.83-7.54,10.61v203.62c.04,6.25,5.13,11.29,11.38,11.25,1.26,0,2.52-.23,3.71-.65l101.82-36.41,101.81,36.44c2.44.86,5.1.86,7.54,0l105.59-37.71c4.5-1.59,7.51-5.83,7.54-10.61v-203.64c-.03-6.25-5.12-11.28-11.37-11.25-1.26,0-2.52.23-3.71.65l-101.82,36.41-101.82-36.41c-1.39-.52-2.87-.77-4.36-.72M185.89,145.25v179.85l-82.96,29.58v-179.71l82.96-29.72ZM208.52,145.25l82.96,29.7v179.85l-82.96-29.7v-179.85ZM397.07,145.37v179.73l-82.96,29.7v-179.83l82.96-29.6Z"/>
    </g>
  </g>
</svg>
