<?xml version="1.0" encoding="UTF-8" standalone="no"?><!-- Generator: Gravit.io --><svg xmlns="http://www.w3.org/2000/svg" xmlns:xlink="http://www.w3.org/1999/xlink" style="isolation:isolate" viewBox="0 0 99.3 88.3" width="99.3pt" height="88.3pt"><defs><clipPath id="_clipPath_ltRkkR1qzlMCspFXxeMxU39nWP9SaNdl"><rect width="99.3" height="88.3"/></clipPath></defs><g clip-path="url(#_clipPath_ltRkkR1qzlMCspFXxeMxU39nWP9SaNdl)"><path d=" M 64.844 0 C 65.044 0 65.144 0 65.344 0.1 C 65.644 0.2 65.944 0.5 66.144 0.8 C 66.244 1 66.344 1.1 66.444 1.3 L 99.144 85.7 C 99.144 85.8 99.244 85.9 99.244 85.9 C 99.244 86.1 99.344 86.2 99.344 86.4 C 99.344 86.6 99.344 86.7 99.244 86.9 C 99.044 87.5 98.644 88 98.044 88.2 C 97.844 88.3 97.744 88.3 97.544 88.3 C 97.444 88.3 97.344 88.3 97.244 88.3 L 2.044 88.3 C 1.944 88.3 1.844 88.3 1.744 88.3 C 1.544 88.3 1.344 88.2 1.244 88.2 C 0.644 88 0.244 87.4 0.044 86.8 C 0.044 86.6 -0.056 86.4 0.044 86.3 C 0.044 86.1 0.044 85.9 0.144 85.8 C 0.144 85.7 0.244 85.6 0.244 85.6 L 33.344 16 C 33.344 15.9 33.444 15.8 33.444 15.8 C 33.544 15.7 33.644 15.5 33.744 15.4 C 34.144 15 34.644 14.9 35.244 14.9 C 35.444 14.9 35.644 14.9 35.744 15 C 35.944 15.1 36.044 15.1 36.244 15.2 C 36.444 15.3 36.644 15.5 36.844 15.8 C 36.844 15.9 36.944 16 36.944 16 L 48.044 39.2 L 62.644 1.3 L 62.744 1.1 C 62.844 0.9 62.944 0.8 63.044 0.7 C 63.244 0.4 63.644 0.3 63.944 0.2 C 64.144 0.1 64.244 0.1 64.444 0.1 C 64.644 0 64.744 0 64.844 0 Z  M 50.144 45 C 50.144 45.1 50.044 45.2 50.044 45.2 C 49.944 45.4 49.744 45.7 49.544 45.8 C 49.344 46 49.244 46.1 49.044 46.1 C 48.544 46.3 47.944 46.3 47.444 46.1 C 47.244 46 47.144 45.9 46.944 45.8 C 46.844 45.7 46.644 45.5 46.544 45.4 C 46.544 45.3 46.444 45.2 46.444 45.2 L 35.144 21.5 L 5.144 84.4 L 94.344 84.4 L 64.544 7.6 C 59.744 20 54.944 32.5 50.144 45 Z " fill="rgb(255,255,255)"/></g></svg>