<?xml version="1.0" encoding="UTF-8"?><svg id="Camada_1" xmlns="http://www.w3.org/2000/svg" xmlns:xlink="http://www.w3.org/1999/xlink" viewBox="0 0 1870 1160"><defs><style>.cls-1{fill:none;}.cls-1,.cls-2{stroke-width:0px;}.cls-2{fill:#fff;fill-rule:evenodd;}.cls-3{clip-path:url(#clippath);}</style><clipPath id="clippath"><rect class="cls-1" x="340" y="101.3" width="1190" height="957.4"/></clipPath></defs><g id="Grupo_262"><g class="cls-3"><g id="Grupo_261"><path id="Caminho_1821" class="cls-2" d="M1160.21,385.95c13.62-46.09,61.2-58.38,61.02-17.9-.07,24.38-25.83,65.86-67.07,79.01-2.12-20.57-.06-41.35,6.05-61.1M1048.42,403.93c-3.93-5.28-7.83-11.04-11.7-17.28-29.33-48.28-81.18-168.75-39.57-221.51,23.13-29.33,76.34,75.94,51.28,238.79M1354.52,387.24c-37.86-14.9-29.14-69.51,18.44-33.59,13.82,10.45,26.08,22.81,36.4,36.72-18.25,3.63-37.13,2.55-54.85-3.13M1481,272.34l-42.93,12.44c22.09,43.03,19.98,69.89,7.07,86.08-11.26-14.65-25.04-27.18-40.7-37-103.45-64.17-134.38,55.08-54.63,75.2,24.12,7.02,49.49,8.61,74.3,4.67,24.78,47.44,21.16,96.9-21.49,105.71-62.31,12.87-77.87-44.25-82.36-115.45l-41.02,7.46c9.74,118.11-61.08,123.25-84.47,109.14-19.51-13.44-33.02-33.96-37.65-57.19,36.2-10.15,67.08-33.91,86.16-66.3,55.58-88.22-71.66-131.36-108.31-21.17-7.7,24.14-10.98,49.47-9.68,74.77-18.6-.04-36.54-6.91-50.41-19.3,1.73-4.6,3.45-9.26,5.1-14.13,18.03-53.47,45.41-193.89,7.08-264.18-48.03-87.72-133.94-63.47-126.95,67.95,5.6,64.9,27.72,127.29,64.26,181.23,5.82,8.71,12.41,16.88,19.7,24.41-27.94,111.59-137.92,104.52-161.11,61.68-24.22-44.76-2.56-95.22,11.03-95.17,18.06,0,11.67,32.97,41.35,43.29,60.88,21.34,91.38-75.65,4-87.72-95.06-13.1-104.86,79.56-94.86,131.58,6.02,31.03,7.24,56.1-21.05,42.97-28.3-13.13-19.35-145.6-19.35-145.6l-19.74-3.47c-4.08,39.63-8.83,95.06-8.96,135.24-.12,40.19-36.34,40.61-49.34,22.53-12.99-18.07,10.86-194.52,10.86-194.52-29.53.39-59.06-.8-88.47-3.57l-.84,13.32c9.05.41,17.4.72,25.03.87-2.26,24.85-12.24,135.47-7.62,163.41,8.16,49.98,43.53,82.88,101.04,54.38,16.32-8.08,28.93-32.8,29.03-55.33,10.42,19.89,19.31,28.31,38.51,28.37,17.55,1.05,32.63-12.33,33.68-29.88.17-2.8-.04-5.61-.61-8.36,12.36,37.47,137.04,86.96,201.51-53.74,16.98,12.64,37.57,19.49,58.73,19.54,4.08,28.29,16.77,54.64,36.33,75.48,31.74,32.05,105.06,43.69,138.92-20.95,15.78,32.84,44.02,59.45,96.67,59.59,87.28.27,104.9-105.33,62.93-184.23,20.08-18.52,30.94-44.97,29.66-72.25v-1.17c-.05-17.41-3.56-34.64-10.34-50.67M781.12,316.79c2.96-6.34,7.22-11.28,15.84-5.62,3.99,2.74,6.75,10.78,20.34,15.25,42.22,14.05,64.51-51.8,11.22-61.43-68.12-12.24-80.66,88.47-80.66,88.47l27.21,3.19c-.02-13.51,2-26.95,6.01-39.86M1291.86,729.52c-26.7-4.7-28.89-41.76,6.4-33.05,12.29,5.5,22.04,15.46,27.26,27.88-10.49,4.92-22.18,6.71-33.66,5.16M1401,595.09l-39.68,1.17c12.73,54.06,4.77,87.46-10.11,107.46-90.69-105.31-179.63,39.9-62.4,49.16,15.85,1.62,31.87-.04,47.05-4.88,13.41,40.91,10.64,91.42-38.98,94.86-72.27,4.96-70.38-83.08-61.83-105.43l-22.55-5.6c-29.68,96.4,18.86,160.66,88.56,156.3,68.56-4.29,105.4-94.75,67.54-160.53,44.04-44.88,32.43-132.55,32.43-132.55M976.68,692.23c21.9-56.2,80.33-51.49,62.77-2.24-10.07,28.41-37.74,46.29-72.72,57.02-.49-18.75,2.89-37.4,9.95-54.77M645.38,783.38c-29.89,4.69-53.62-2.64,17.66-14.83,7.94-.96,15.96-1.07,23.93-.33-12.89,7.39-26.96,12.51-41.59,15.15M1227.7,630.98c23.82,53.04,88.37,13.43,52.38-32.39-34.83-44.39-104.04-13.97-111.93,63.14-3.65-22.36-8.81-46.27-15.65-72.07-.12,0-26.6,3.72-76.91,14.2l2.61,11.42c10.49-2.63,19.93-4.79,28.39-6.59,67.77,234.44-61.2,252.88-102.5,216.79-17.54-15.2-29.7-35.66-34.68-58.32,44.13-12.47,81.94-34.04,96.83-69.54,25.62-60.86-65.63-108.99-116.94-17.41-13.12,23.03-20.28,48.98-20.82,75.48-36.37,5.25-73.2,6.62-109.86,4.08-12.43-.83-24.08-1.92-35.11-3.21,68.29-63.49,123.63-142.8,182.58-154.73l10.91-33.75c-98.94,2.25-130.82,22.09-241.59,38.02-135.34,19.5-91.69-160.89-93.13-230.02-3.65-174.53-165.79-76.5-168.11,31.79-2.9-51.24-2.9-89.38-2.9-89.38-.16,0-58.43,8.33-115.05,11.22l.98,13.35c18.36-1.74,36.36-3.77,52.4-5.73,13.34,58.48,31.46,209.52,33.27,225.1-10.33,1.49-22.19,3.5-35.4,6.27l2.35,11.64c27.05-7.22,54.84-11.24,82.83-12h0l.2.05c-7.41-38.06-12.59-76.51-15.52-115.17-4.6-74.89,73.24-144.75,84.22-62.65,15.13,112.53-3.83,266.49,172.79,242.17,15.1-2.1,88.48-16.23,150.53-24.79-59,41.29-114.07,101.38-166.12,139.74-22.56-3.48-45.51-3.68-68.13-.59-115.75,18.12-109.35,109.02-1.26,87.6,41.5-9.76,79.88-29.79,111.62-58.25,17.78,2.04,36.24,3.96,54.16,5.1,38.2,2.3,76.53.45,114.33-5.51,3.66,28.9,14.38,56.45,31.21,80.22,63.36,90.53,225.7,82.17,213.96-136.68-2.74-80.13,38.65-120.46,53.04-88.48"/><path id="Caminho_1822" class="cls-2" d="M404.48,991.7v20.98h-.15c-2.28-3.61-6.35-5.69-10.61-5.44-9.25.5-16.35,8.4-15.86,17.65.02.4.06.8.11,1.2-1.1,8.72,5.08,16.69,13.8,17.79.37.05.74.08,1.11.1,4.99.19,9.66-2.46,12.05-6.84h.12l.26,6.12h5.75c-.2-2.42-.29-6-.29-9.07l.12-42.47-6.42-.02ZM404.32,1028.47c.02.91-.07,1.83-.26,2.72-.95,4.42-4.85,7.59-9.37,7.62-6.91,0-10.37-5.92-10.37-13.03,0-7.76,4-13.61,10.58-13.61,4.45.04,8.27,3.18,9.18,7.53.22.86.33,1.74.33,2.63l-.08,6.13Z"/><path id="Caminho_1823" class="cls-2" d="M477.17,1027.02c0-.67.23-1.63.27-2.91.95-8.17-4.91-15.56-13.08-16.51-.47-.06-.95-.09-1.43-.1-9.38.22-16.81,8-16.59,17.39.01.49.04.98.1,1.46-.87,8.97,5.69,16.95,14.67,17.82.84.08,1.69.1,2.53.05,4.01.11,7.99-.64,11.69-2.19l-1.1-4.61c-3.06,1.3-6.36,1.92-9.68,1.8-6.23.44-11.63-4.25-12.07-10.48-.04-.59-.04-1.18.01-1.76l24.68.04ZM452.62,1022.42c.1-5.49,4.37-9.99,9.84-10.38,5.03.12,9.02,4.3,8.9,9.34,0,.37-.04.73-.09,1.1l-18.65-.05Z"/><path id="Caminho_1824" class="cls-2" d="M519.22,1043.54l.11-35.07h-6.36l-.11,35.08h6.36ZM516.16,994.58c-2.19.05-3.92,1.86-3.87,4.04.04,2.05,1.64,3.72,3.69,3.86,2.18.15,4.07-1.5,4.22-3.68.15-2.18-1.5-4.07-3.68-4.22-.12,0-.24-.01-.36,0"/><path id="Caminho_1825" class="cls-2" d="M347.04,1040.59l.1-35.07h-6.36l-.09,35.05,6.35.02ZM343.98,991.63c-2.19.04-3.92,1.85-3.88,4.04.04,2.05,1.64,3.73,3.68,3.87,2.18.15,4.07-1.5,4.22-3.68.15-2.18-1.5-4.07-3.68-4.22-.12,0-.23-.01-.35,0"/><path id="Caminho_1826" class="cls-2" d="M582.15,1022.2c0-7.03-2.59-14.28-13.36-14.4-4.05-.07-8.04,1.01-11.5,3.12l1.45,4.18c2.74-1.69,5.9-2.58,9.12-2.57,4-.42,7.58,2.49,8,6.49.06.55.05,1.11-.02,1.67v.72c-13.59-.1-21.17,4.52-21.18,12.95-.1,5.5,4.28,10.04,9.78,10.14.31,0,.61,0,.92-.03,4.22.12,8.24-1.83,10.76-5.21h.27l.4,4.47,5.83.05c-.41-2.8-.59-5.62-.55-8.45l.08-13.15ZM575.93,1031.93c-.01.7-.15,1.39-.4,2.04-1.23,3.59-4.65,5.96-8.45,5.84-3.13.21-5.83-2.16-6.03-5.28-.02-.28-.02-.56,0-.84,0-6.81,7.88-8.03,14.91-7.84l-.04,6.08Z"/><path id="Caminho_1827" class="cls-2" d="M617.52,1042.19c2.99,1.67,6.36,2.53,9.78,2.51,8.38.06,13.2-4.37,13.2-10.54,0-5.23-3.06-8.26-9.18-10.63-4.55-1.77-6.64-3.06-6.64-6.01,0-2.59,2.12-4.75,5.93-4.7,2.52,0,4.99.71,7.14,2.04l1.55-4.68c-2.64-1.44-5.61-2.19-8.62-2.17-5.93-.73-11.33,3.48-12.06,9.4-.03.27-.06.53-.07.8-.05,4.23,2.95,7.73,9.25,9.99,4.74,1.75,6.51,3.46,6.51,6.48s-2.19,5.24-6.81,5.24c-3-.12-5.92-1.01-8.47-2.59l-1.51,4.87Z"/><path id="Caminho_1828" class="cls-2" d="M743.12,1058.65l6.32.05.19-39.86c0-3.62.06-6.7.24-9.68h-6.04l-.22,5.29h-.13c-2.09-3.98-6.31-6.37-10.79-6.12-9.29.41-16.48,8.28-16.07,17.56.02.45.06.89.11,1.34-1.01,8.8,5.31,16.76,14.12,17.76.24.03.48.05.71.07,4.68.24,9.1-2.15,11.48-6.19h.17l-.1,19.78ZM743.2,1029.99c-.03,1.04-.2,2.07-.53,3.06-1.16,4.11-4.91,6.94-9.18,6.93-7.05,0-10.35-6.12-10.3-13.11,0-7.91,4.08-13.5,10.59-13.47,4.38,0,8.19,3.01,9.18,7.28.18.89.27,1.8.27,2.7l-.02,6.61Z"/><path id="Caminho_1829" class="cls-2" d="M817.16,1009.39h-6.38l-.1,21.54c.02,1.11-.17,2.21-.56,3.25-1.39,3.47-4.73,5.75-8.47,5.77-5.76,0-7.79-4.52-7.79-11.22v-19.45h-6.38l-.05,20.55c-.04,12.39,6.56,15.38,12.13,15.45,4.77.07,9.22-2.42,11.64-6.54h.14l.36,5.77h5.63c-.2-2.76-.28-5.95-.26-9.58l.08-25.56Z"/><path id="Caminho_1830" class="cls-2" d="M883.46,1028.35c.15-.99.23-1.99.24-3,.92-8.17-4.96-15.54-13.13-16.46-.46-.05-.91-.08-1.37-.09-9.39.23-16.82,8.03-16.59,17.43.01.48.04.96.1,1.44-.84,8.97,5.75,16.93,14.72,17.78.82.08,1.65.09,2.48.04,4,.12,7.98-.62,11.66-2.18l-1.02-4.62c-3.06,1.3-6.37,1.91-9.7,1.8-6.18.47-11.57-4.16-12.03-10.34-.05-.63-.04-1.27.02-1.9l24.63.11ZM858.89,1023.7c.07-5.49,4.34-10.01,9.82-10.37,5.03.12,9.01,4.29,8.9,9.32,0,.37-.04.74-.09,1.11l-18.63-.05Z"/><path id="Caminho_1831" class="cls-2" d="M986.06,1039.01c-2.49,1.12-5.19,1.69-7.92,1.67-7.28-.75-12.58-7.27-11.83-14.55.66-6.36,5.76-11.35,12.13-11.86,2.59-.09,5.16.49,7.46,1.7l1.47-4.93c-2.8-1.24-5.82-1.88-8.88-1.88-9.89-.57-18.37,7-18.94,16.89-.03.57-.04,1.15-.02,1.73-.68,9.28,6.3,17.36,15.58,18.03.65.05,1.3.06,1.95.03,3.46.07,6.88-.65,10.02-2.1l-1.02-4.74Z"/><path id="Caminho_1832" class="cls-2" d="M1036.72,1009.29c-9.46-.24-17.32,7.24-17.56,16.7-.02.65,0,1.31.06,1.96-.81,9.16,5.96,17.25,15.12,18.06.56.05,1.13.07,1.7.06,9.49.2,17.34-7.34,17.54-16.83.01-.61,0-1.22-.06-1.82.82-9.17-5.95-17.26-15.12-18.08-.56-.05-1.13-.07-1.69-.06M1036.53,1014.09c7.53,0,10.5,7.55,10.5,13.48,0,7.96-4.62,13.68-10.71,13.68-6.25-.05-10.71-5.88-10.63-13.59,0-6.63,3.3-13.58,10.83-13.58"/><path id="Caminho_1833" class="cls-2" d="M1089.14,1045.41h6.2l.1-21.17c-.04-1.07.14-2.13.51-3.13.99-3.6,4.17-6.17,7.89-6.41,4.89,0,7.36,4.08,7.28,9.71v21.02h6.26v-21.62c0-1.1.18-2.19.51-3.23,1.07-3.34,4.12-5.65,7.62-5.78,5.1,0,7.56,4.08,7.51,10.86v19.83l6.25.07.04-20.66c.06-12.17-6.84-15.25-11.52-15.25-2.79-.12-5.53.73-7.76,2.41-1.59,1.23-2.92,2.77-3.91,4.53h-.18c-1.43-4.23-5.42-7.07-9.89-7.04-4.6-.17-8.88,2.33-11.01,6.42h-.23l-.32-5.65h-5.58c.24,2.93.34,5.87.34,9.53l-.12,25.56Z"/><path id="Caminho_1834" class="cls-2" d="M1206.72,1010.65h-6.35l-.05,21.55c0,1.12-.21,2.24-.62,3.28-1.43,3.43-4.76,5.69-8.48,5.74-5.8,0-7.81-4.52-7.75-11.22l.07-19.38h-6.43l-.06,20.42c0,12.31,6.57,15.36,12.09,15.37,4.75.08,9.18-2.37,11.64-6.44h.16l.31,5.69,5.67.06c-.21-2.78-.31-5.97-.23-9.64l.04-25.45Z"/><path id="Caminho_1835" class="cls-2" d="M1244.79,1045.92h6.36l.07-21.08c-.02-1.04.12-2.07.43-3.06,1.16-3.8,4.64-6.42,8.61-6.5,6.04,0,8.07,4.74,8.07,10.42l-.08,20.27h6.43l.06-21.01c.06-12.05-7.51-14.97-12.36-14.99-4.8-.14-9.28,2.37-11.66,6.54h-.13l-.38-5.76h-5.66c.24,2.92.3,5.93.3,9.48l-.05,25.7Z"/><path id="Caminho_1836" class="cls-2" d="M1319,1046.11l.09-35.08-6.41-.05-.07,35.08,6.39.05ZM1315.94,997.15c-2.17-.04-3.96,1.69-4,3.85,0,.04,0,.08,0,.12.11,2.18,1.97,3.86,4.15,3.75,2.03-.1,3.65-1.72,3.75-3.75.13-2.09-1.46-3.88-3.55-4-.12,0-.24,0-.36,0"/><path id="Caminho_1837" class="cls-2" d="M1381.15,1040.23c-2.46,1.16-5.16,1.74-7.88,1.69-7.27-.87-12.46-7.47-11.6-14.74.74-6.2,5.7-11.04,11.91-11.63,2.55-.09,5.09.48,7.36,1.64l1.5-4.93c-2.78-1.25-5.8-1.88-8.84-1.85-9.83-.6-18.28,6.88-18.89,16.71-.04.64-.04,1.29-.01,1.93-.75,9.19,6.08,17.24,15.27,18,.72.06,1.44.07,2.16.04,3.47.09,6.91-.61,10.08-2.04l-1.05-4.82Z"/><path id="Caminho_1838" class="cls-2" d="M1441.97,1024.94c.07-6.99-2.55-14.37-13.26-14.37-4.05-.08-8.05.98-11.53,3.06l1.42,4.14c2.78-1.66,5.95-2.53,9.18-2.54,3.97-.43,7.54,2.44,7.97,6.41.06.58.06,1.17-.02,1.75v.72c-13.62-.1-21.13,4.53-21.13,13.03-.09,5.5,4.29,10.04,9.8,10.13.29,0,.58,0,.86-.02,4.23.1,8.25-1.84,10.8-5.21h.19l.5,4.4h5.8c-.41-2.78-.59-5.59-.54-8.39l-.04-13.1ZM1435.85,1034.61c-.04.69-.17,1.38-.39,2.04-1.27,3.6-4.72,5.96-8.53,5.84-3.12.19-5.8-2.19-5.99-5.32-.02-.27-.01-.54,0-.8,0-6.81,7.93-8.05,14.89-7.86v6.1Z"/><path id="Caminho_1839" class="cls-2" d="M1479.79,1046.6h6.21l.1-21.13c0-1.04.15-2.07.45-3.06,1.03-3.59,4.21-6.15,7.94-6.4,4.89,0,7.34,4.08,7.34,9.7l-.07,21.01,6.23.05.07-21.7c.02-1.08.18-2.16.49-3.19,1.07-3.34,4.12-5.65,7.63-5.77,5.1,0,7.54,4.08,7.54,10.85l-.07,19.81,6.26.1.06-20.71c.06-12.24-6.87-15.25-11.5-15.25-2.79-.13-5.53.71-7.76,2.39-1.61,1.23-2.94,2.78-3.91,4.55h-.15c-1.46-4.23-5.46-7.06-9.93-7.04-4.59-.11-8.85,2.35-11.05,6.39h-.18l-.34-5.64-5.56-.05c.19,2.96.24,5.94.24,9.56l-.05,25.53Z"/></g></g></g></svg>