<?xml version="1.0" encoding="UTF-8"?><svg class="icon-white" id="Camada_1" xmlns="http://www.w3.org/2000/svg" viewBox="0 0 500 500"><defs><style>.cls-1{stroke:#000;stroke-width:3px;}</style></defs><g id="Grupo_581"><g id="Grupo_315"><g id="Grupo_314"><path id="Caminho_2062" class="cls-1" d="M318.49,99.4c.57.08,1.13.23,1.67.46,1.07.46,2,1.19,2.7,2.13.35.46.64.97.86,1.52l106.28,274.38c.08.27.19.56.26.8.76,3.13-.88,6.35-3.86,7.57-.52.21-1.07.35-1.62.43-.28.03-.56.03-.84.05H114.22c-.29,0-.56,0-.87-.06-3.56-.47-6.05-3.74-5.58-7.3.05-.38.14-.76.26-1.13.09-.28.22-.56.32-.81l107.72-226.11c.14-.25.26-.51.42-.75.31-.48.68-.92,1.11-1.3,2.68-2.39,6.79-2.16,9.18.51.22.24.42.5.6.78.16.24.28.5.42.75l36.16,75.59,47.6-123.4.37-.79c1.14-2.08,3.31-3.37,5.68-3.38l.87.06M270.66,245.66c-.12.27-.23.56-.37.81-1.66,3-5.36,4.2-8.46,2.74-1.08-.51-2-1.31-2.65-2.3-.16-.25-.29-.52-.44-.77l-36.79-76.91-97.42,204.52h289.89l-96.77-249.84c-15.66,40.59-31.32,81.18-46.98,121.77"/></g></g></g></svg>