<?xml version="1.0" encoding="UTF-8"?><svg id="Camada_1" xmlns="http://www.w3.org/2000/svg" viewBox="0 0 1870 2462.28"><defs><style>.cls-1,.cls-2{fill:#fff;stroke-width:0px;}.cls-2{fill-rule:evenodd;}</style></defs><path class="cls-2" d="M440.72,233.1h80.54c86.04,10.51,91.04,118.32,0,130.31l-30.33.34v80.6h-50.21v-211.25h0ZM490.94,270.71v55.21h22.35c37.73-5.63,35.7-54.21,0-54.93l-22.35-.28Z"/><polygon class="cls-2" points="642.59 233.1 531.1 444.35 583.55 444.35 641.06 325.07 697.39 444.35 751.29 444.35 642.59 233.1"/><polygon class="cls-2" points="1132.38 233.1 1062.98 364.59 1023.42 444.35 1073.34 444.35 1130.85 325.07 1187.2 444.35 1241.07 444.35 1132.38 233.1"/><polygon class="cls-2" points="759.95 444.35 812.54 444.35 821.19 400.75 769.64 400.75 769.64 239.46 718.75 239.46 718.75 363.15 759.95 444.35"/><polygon class="cls-2" points="866.34 444.35 820.85 444.35 864.81 233.1 867.97 233.1 944.12 364.19 1014.91 233.1 1019.22 233.1 1048.62 375.62 1014.18 444.35 996.96 362.4 942.77 453.68 884.4 362.4 866.34 444.35"/><path class="cls-2" d="M1249.45,277.59l-.42,163.32-49.56-95.26v-105.28h65.93c90.76,0,106.27,84.21,41.56,117.29l64.71,86.69h-58.8l-57.14-81.89v-28.82h18.48c41.03-11.07,28.93-56.05-5.45-56.05h-19.31Z"/><path class="cls-2" d="M1367.47,239.97h135.65l-8.59,41.24h-78.77v41.11h69.74l-8.58,41.23h-61.15v39.56h86.4l-8.58,41.25h-126.11v-204.39Z"/><path class="cls-2" d="M1569.05,273.59c16.23-7.37,36.69-.04,64.68,18.42v-47.63c-21.02-7.89-42.67-12.92-65.93-11.28-56.83,4-84.42,68.18-27.32,108.54l52.1,30.02c20.74,11.95,3.63,37.69-16.81,36.03l-64.27-5.2-8.82,41.85,69.31,5.77c72.44,6.08,105.06-75.29,54.59-111.68-17.09-12.31-36.42-22.04-58.79-34.42-15.52-8.56-14.11-23.43,1.25-30.43Z"/><path class="cls-2" d="M454.04,563.03v-48.22h34.68v8.16h-24.45v11.41h21.11v8.15h-21.11v20.5h-10.23ZM518.75,514.81h10.2v26.11c0,4.13.13,6.84.36,8.06.45,1.97,1.48,3.56,3.14,4.74,1.65,1.22,3.88,1.8,6.75,1.8s5.08-.55,6.55-1.69c1.49-1.11,2.37-2.51,2.66-4.15.29-1.63.45-4.38.45-8.19v-26.68h10.2v25.33c0,5.8-.27,9.88-.83,12.27-.55,2.39-1.56,4.4-3.05,6.03-1.49,1.65-3.45,2.96-5.94,3.94-2.48.98-5.73,1.45-9.76,1.45-4.81,0-8.49-.51-10.97-1.59-2.51-1.05-4.47-2.44-5.92-4.14-1.46-1.69-2.41-3.47-2.86-5.35-.68-2.74-.99-6.82-.99-12.23v-25.72h0ZM591.61,563.03v-48.22h9.93l20.7,32.19v-32.19h9.51v48.22h-10.27l-20.39-31.45v31.45h-9.48ZM664.15,514.81h18.68c4.22,0,7.41.3,9.64.92,2.96.83,5.5,2.3,7.61,4.43,2.12,2.13,3.72,4.73,4.85,7.81,1.08,3.09,1.65,6.87,1.65,11.41,0,3.96-.52,7.38-1.56,10.24-1.26,3.51-3.07,6.36-5.42,8.51-1.78,1.66-4.17,2.93-7.18,3.86-2.24.68-5.26,1.03-9.05,1.03h-19.22v-48.22h0ZM674.38,522.96v31.92h7.61c2.87,0,4.92-.12,6.18-.44,1.65-.39,3.05-1.06,4.13-2.01,1.1-.94,1.99-2.51,2.67-4.66.7-2.16,1.04-5.11,1.04-8.84s-.34-6.57-1.04-8.57c-.68-2.01-1.65-3.57-2.89-4.68-1.24-1.13-2.84-1.87-4.74-2.28-1.42-.32-4.2-.46-8.37-.46h-4.59ZM782.51,563.03h-11.13l-4.4-10.97h-20.23l-4.16,10.97h-10.84l19.71-48.22h10.79l20.25,48.22h0ZM763.7,543.96l-6.97-17.9-6.82,17.9h13.8ZM841.96,545.3l9.91,2.99c-1.53,5.26-4.06,9.17-7.58,11.73-3.52,2.55-8.01,3.82-13.44,3.82-6.7,0-12.26-2.17-16.56-6.55-4.34-4.37-6.48-10.35-6.48-17.92,0-8.05,2.17-14.27,6.5-18.71,4.36-4.44,10.07-6.66,17.16-6.66,6.19,0,11.22,1.74,15.08,5.24,2.3,2.05,4.02,5.01,5.19,8.87l-10.14,2.3c-.57-2.5-1.83-4.47-3.75-5.92-1.9-1.45-4.2-2.17-6.91-2.17-3.75,0-6.78,1.27-9.12,3.85-2.33,2.56-3.5,6.72-3.5,12.46,0,6.1,1.15,10.45,3.46,13.03,2.3,2.59,5.28,3.88,8.96,3.88,2.73,0,5.06-.81,7.02-2.47,1.94-1.65,3.35-4.24,4.2-7.76h0ZM820.49,576.27c1.51.35,3.76.53,6.75.53,4.15,0,7.34-.82,9.58-2.46,1.67-1.2,2.48-2.77,2.48-4.69,0-1.73-.72-3.2-2.24-4.42-1.48-1.21-3.68-1.81-6.54-1.81-2.08,0-4.02.3-5.8.89l-.91,3.25c1.53-.44,3.05-.64,4.52-.64s2.59.27,3.32.81c.7.55,1.06,1.18,1.06,1.95,0,.83-.39,1.52-1.13,2.02-.99.71-2.5,1.07-4.56,1.07s-4.15-.13-6.52-.37v3.88h0ZM927.92,563.03h-11.13l-4.4-10.97h-20.23l-4.18,10.97h-10.85l19.71-48.22h10.79l20.28,48.22h0ZM909.1,543.96l-6.97-17.9-6.84,17.9h13.81ZM894.23,512.14h-4.43c-.02-.5-.02-.89-.02-1.19,0-2.3.58-4.08,1.74-5.3,1.19-1.24,2.68-1.86,4.51-1.86.81,0,1.56.09,2.26.26.69.15,1.97.62,3.77,1.41,1.83.77,3.25,1.17,4.29,1.17.76,0,1.38-.22,1.85-.66.49-.45.84-1.18.95-2.2h4.5c-.03,2.95-.62,5.05-1.77,6.34-1.1,1.27-2.59,1.92-4.37,1.92-.79,0-1.56-.09-2.33-.25-.52-.13-1.83-.57-3.95-1.35-2.12-.77-3.66-1.14-4.62-1.14-.73,0-1.32.21-1.72.65-.43.41-.63,1.16-.65,2.21h0ZM952.91,539.22c0-4.92.76-9.05,2.32-12.39,1.13-2.45,2.71-4.65,4.7-6.6,1.99-1.94,4.16-3.4,6.53-4.34,3.18-1.28,6.8-1.9,10.93-1.9,7.44,0,13.41,2.19,17.88,6.62,4.47,4.4,6.73,10.52,6.73,18.36s-2.24,13.88-6.68,18.29c-4.44,4.39-10.36,6.57-17.79,6.57s-13.5-2.17-17.94-6.55c-4.46-4.37-6.66-10.39-6.66-18.06h0ZM963.43,538.9c0,5.45,1.34,9.58,3.98,12.41,2.64,2.81,6,4.21,10.07,4.21s7.41-1.38,10.03-4.18c2.62-2.8,3.9-6.98,3.9-12.57s-1.27-9.66-3.79-12.38c-2.56-2.71-5.92-4.08-10.14-4.08s-7.61,1.39-10.18,4.14c-2.58,2.74-3.86,6.88-3.86,12.45h0ZM1136.72,545.3l9.89,2.99c-1.52,5.26-4.03,9.17-7.57,11.73-3.53,2.55-8.01,3.82-13.43,3.82-6.72,0-12.26-2.17-16.59-6.55-4.29-4.37-6.48-10.35-6.48-17.92,0-8.05,2.19-14.27,6.53-18.71,4.36-4.44,10.07-6.66,17.16-6.66,6.19,0,11.2,1.74,15.09,5.24,2.3,2.05,4.01,5.01,5.17,8.87l-10.12,2.3c-.59-2.5-1.83-4.47-3.75-5.92-1.9-1.45-4.2-2.17-6.91-2.17-3.75,0-6.79,1.27-9.12,3.85-2.34,2.56-3.51,6.72-3.51,12.46,0,6.1,1.13,10.45,3.46,13.03,2.28,2.59,5.26,3.88,8.94,3.88,2.73,0,5.06-.81,7.03-2.47,1.93-1.65,3.37-4.24,4.22-7.76h0ZM1176.97,514.81h10.21v26.11c0,4.13.14,6.84.38,8.06.44,1.97,1.49,3.56,3.12,4.74,1.64,1.22,3.91,1.8,6.75,1.8s5.08-.55,6.57-1.69c1.48-1.11,2.35-2.51,2.65-4.15.29-1.63.46-4.38.46-8.19v-26.68h10.2v25.33c0,5.8-.26,9.88-.82,12.27-.55,2.39-1.58,4.4-3.07,6.03-1.48,1.65-3.45,2.96-5.93,3.94-2.48.98-5.73,1.45-9.73,1.45-4.85,0-8.5-.51-11.01-1.59-2.48-1.05-4.45-2.44-5.89-4.14-1.44-1.69-2.42-3.47-2.87-5.35-.66-2.74-1-6.82-1-12.23v-25.72h0ZM1250.02,563.03v-47.83h10.2v39.68h25.4v8.15h-35.6ZM1320.7,563.03v-40.07h-15.01v-8.16h40.19v8.16h-14.94v40.07h-10.24ZM1374.08,514.81h10.21v26.11c0,4.13.14,6.84.38,8.06.43,1.97,1.46,3.56,3.11,4.74,1.62,1.22,3.91,1.8,6.75,1.8s5.1-.55,6.54-1.69c1.49-1.11,2.38-2.51,2.67-4.15.32-1.63.43-4.38.43-8.19v-26.68h10.21v25.33c0,5.8-.26,9.88-.83,12.27-.54,2.39-1.55,4.4-3.04,6.03-1.47,1.65-3.47,2.96-5.93,3.94-2.49.98-5.74,1.45-9.77,1.45-4.8,0-8.46-.51-10.97-1.59-2.51-1.05-4.48-2.44-5.92-4.14-1.46-1.69-2.39-3.47-2.86-5.35-.67-2.74-1-6.82-1-12.23v-25.72h0ZM1446.87,563.03v-48.22h21.5c5.42,0,9.32.44,11.79,1.31,2.45.86,4.42,2.39,5.88,4.6,1.47,2.22,2.22,4.76,2.22,7.6,0,3.62-1.15,6.62-3.37,8.99-2.24,2.34-5.55,3.82-10,4.43,2.22,1.24,4.05,2.59,5.47,4.05,1.45,1.48,3.36,4.08,5.82,7.82l6.19,9.42h-12.2l-7.42-10.5c-2.61-3.76-4.4-6.12-5.37-7.08-.97-.98-1.99-1.64-3.09-2.01-1.06-.37-2.79-.55-5.15-.55h-2.05v20.13h-10.21ZM1457.08,535.2h7.56c4.9,0,7.98-.18,9.2-.58,1.22-.4,2.13-1.09,2.84-2.05.67-.96,1.06-2.17,1.06-3.63,0-1.61-.47-2.92-1.38-3.91-.9-1-2.2-1.63-3.86-1.91-.82-.09-3.3-.16-7.45-.16h-7.97v12.23h0ZM1565.17,563.03h-11.14l-4.42-10.97h-20.21l-4.18,10.97h-10.84l19.72-48.22h10.81l20.26,48.22h0ZM1546.33,543.96l-6.95-17.9-6.84,17.9h13.79ZM1592.5,563.03v-47.83h10.2v39.68h25.41v8.15h-35.61Z"/><path class="cls-2" d="M42.06,278.5v-45.4l161.98,53.86,161.94-53.86v45.4l-161.94,56.63-161.98-56.63h0ZM365.99,446.1l.03-44.47-133.44-48.34v208.39l37.55.29v-148.41l95.86,32.53h0ZM42.06,446.1v-44.47l133.44-48.34v208.39l-37.55.29v-148.41l-95.89,32.53Z"/><path id="Caminho_5139" class="cls-1" d="M321.59,967.57v-62.23l-25.71,47.21h-8.11l-25.85-47.21v62.23h-13.73v-87.34h14.77l28.89,53.4,28.89-53.4h14.78v87.34h-13.94Z"/><rect id="Retângulo_527" class="cls-1" x="379.77" y="880.23" width="13.76" height="87.34"/><path id="Caminho_5140" class="cls-1" d="M451.59,905.82v61.74h-13.76v-87.34h11.29l49.5,63.13v-63.01h13.86v87.22h-12.08l-48.82-61.74Z"/><rect id="Retângulo_528" class="cls-1" x="556.74" y="880.23" width="13.76" height="87.34"/><path id="Caminho_5141" class="cls-1" d="M666.47,900.78c-2.75-2.65-6.02-4.7-9.61-6.01-4.42-1.91-9.18-2.89-14-2.9-4.48-.32-8.95.78-12.76,3.15-2.81,2.08-4.4,5.43-4.23,8.92-.01,1.1.14,2.19.47,3.24.29.9.71,1.76,1.23,2.55.61.84,1.38,1.56,2.25,2.13.95.65,1.94,1.23,2.98,1.74,1.3.6,2.65,1.11,4.02,1.53,1.71.54,3.3.97,4.78,1.38l5.8,1.47c3.87.92,7.15,1.83,9.85,2.74,2.72.9,5.36,2.04,7.87,3.42,2.27,1.19,4.33,2.75,6.07,4.63,1.59,1.82,2.83,3.93,3.63,6.22.94,2.68,1.4,5.51,1.35,8.35.05,3.22-.51,6.42-1.65,9.43-1,2.65-2.55,5.06-4.53,7.09-2.03,2-4.39,3.63-6.97,4.83-2.79,1.32-5.73,2.28-8.77,2.83-3.33.6-6.71.89-10.09.87-6.56.02-13.09-1-19.33-3.04-6.04-1.92-11.71-4.86-16.76-8.7l6.31-11.83c3.59,3.28,7.79,5.84,12.34,7.54,5.57,2.4,11.57,3.63,17.63,3.63,4.38.25,8.74-.76,12.57-2.9,2.86-1.77,4.55-4.94,4.42-8.29.01-1.32-.21-2.63-.67-3.87-.48-1.23-1.27-2.31-2.28-3.15-1.04-.91-2.15-1.73-3.34-2.44-1.54-.86-3.16-1.57-4.83-2.11-2.1-.72-4.03-1.32-5.8-1.81-1.74-.48-4.09-1.1-7.06-1.87-3.88-.97-7.7-2.19-11.42-3.66-2.85-1.15-5.52-2.69-7.96-4.56-2.2-1.66-3.93-3.87-5.02-6.4-1.1-2.77-1.63-5.72-1.57-8.7-.06-3.93.77-7.83,2.44-11.39,1.54-3.28,3.84-6.16,6.7-8.38,3.01-2.29,6.41-4,10.03-5.05,4.08-1.19,8.32-1.78,12.57-1.74,10.64-.03,21,3.43,29.49,9.85l-6.17,11.25Z"/><path id="Caminho_5142" class="cls-1" d="M778.64,892.42h-29v75.14h-13.94v-75.14h-29.13v-12.19h72.08v12.19Z"/><path id="Caminho_5143" class="cls-1" d="M874.8,955.37v12.15h-59.93v-87.29h58.83v12.2h-45.05v24.82h38.98v11.47h-38.98v26.67l46.15-.03ZM850.35,871.21l-8.88-2.71,7.03-13.53h12.92l-11.06,16.24Z"/><path id="Caminho_5144" class="cls-1" d="M913.64,967.57v-87.34h38.03c3.76-.01,7.46.83,10.85,2.47,3.29,1.54,6.23,3.75,8.61,6.49,2.34,2.71,4.21,5.79,5.53,9.13,1.34,3.28,2.03,6.79,2.04,10.33.06,5.7-1.57,11.29-4.69,16.07-2.85,4.59-7.23,8.01-12.37,9.67l20.54,33.22h-15.47l-18.99-30.39h-20.3v30.39l-13.78-.02ZM927.39,924.98h24.17c3.73.04,7.25-1.74,9.43-4.78,2.54-3.32,3.86-7.42,3.73-11.6.09-4.21-1.42-8.29-4.21-11.45-2.36-2.97-5.94-4.72-9.73-4.78h-23.37l-.03,32.6Z"/><rect id="Retângulo_529" class="cls-1" x="1019.51" y="880.23" width="13.76" height="87.34"/><path id="Caminho_5145" class="cls-1" d="M1072.05,923.9c0-5.73,1.08-11.41,3.21-16.73,2.02-5.2,4.97-10,8.7-14.14,3.77-4.11,8.33-7.42,13.4-9.73,5.23-2.44,10.93-3.69,16.69-3.66,5.89-.03,11.71,1.29,17,3.87,5.08,2.4,9.59,5.85,13.24,10.12,3.58,4.24,6.41,9.05,8.38,14.24,4.13,10.58,4.08,22.33-.15,32.87-2.04,5.18-4.98,9.96-8.7,14.11-3.74,4.1-8.28,7.39-13.34,9.67-5.23,2.42-10.93,3.66-16.69,3.63-4.75.02-9.47-.8-13.94-2.44-4.23-1.53-8.16-3.8-11.6-6.7-3.35-2.86-6.28-6.17-8.7-9.85-2.47-3.73-4.36-7.81-5.62-12.1-1.28-4.28-1.93-8.72-1.93-13.19M1113.93,955.69c4.07.04,8.09-.91,11.72-2.76,3.44-1.74,6.44-4.23,8.77-7.3,2.31-3.08,4.11-6.52,5.32-10.18,1.27-3.74,1.92-7.65,1.93-11.6.01-4.06-.67-8.1-2.01-11.93-1.26-3.67-3.13-7.1-5.53-10.15-2.37-2.96-5.37-5.36-8.78-7.03-3.53-1.75-7.43-2.65-11.38-2.62-4.08-.04-8.1.9-11.75,2.74-3.46,1.72-6.48,4.2-8.85,7.24-2.35,3.06-4.18,6.49-5.4,10.15-1.28,3.73-1.94,7.65-1.93,11.6-.03,5.34,1.11,10.62,3.34,15.47,2.16,4.73,5.55,8.8,9.82,11.77,4.32,3.04,9.49,4.64,14.77,4.56"/><path id="Caminho_5146" class="cls-1" d="M1249.63,967.57v-87.33h30.99c6.32-.1,12.6,1.06,18.47,3.39,5.14,2.04,9.73,5.25,13.42,9.37,3.52,4.05,6.23,8.74,7.97,13.81,1.85,5.46,2.78,11.2,2.73,16.97.56,11.73-3.62,23.2-11.6,31.81-8.18,8.15-19.4,12.5-30.93,11.98h-31.04ZM1280.62,892.42h-17.25v62.95h17.25c5.47.14,10.87-1.31,15.52-4.18,4.29-2.71,7.69-6.63,9.76-11.26,2.24-5.09,3.35-10.6,3.25-16.16.37-8.24-2.34-16.32-7.6-22.67-5.31-5.9-13-9.1-20.94-8.7"/><path id="Caminho_5147" class="cls-1" d="M1384.36,880.23h13.03l33.94,87.33h-14.5l-9.18-23.72h-33.7l-9.14,23.72h-14.65l34.2-87.33ZM1404.91,933.63l-14.07-38.26-14.5,38.26h28.57Z"/><path id="Caminho_5148" class="cls-1" d="M526.92,1052.42c7.57-.15,15.05,1.63,21.74,5.17,5.96,3.12,10.85,7.95,14.06,13.87l-18.37,13.03c-.74-1.94-1.83-3.73-3.24-5.26-1.29-1.41-2.84-2.55-4.56-3.36-1.6-.76-3.28-1.32-5.02-1.68-1.69-.34-3.41-.51-5.13-.51-3.06-.05-6.09.64-8.84,2.01-2.48,1.24-4.62,3.08-6.22,5.35-1.55,2.23-2.73,4.7-3.51,7.3-.81,2.67-1.21,5.45-1.2,8.24-.15,5.92,1.78,11.7,5.46,16.34,3.48,4.43,8.87,6.94,14.5,6.77,2.29.01,4.57-.31,6.77-.97,2.29-.73,4.4-1.91,6.22-3.48,1.97-1.65,3.47-3.8,4.35-6.22l19.59,11.65c-1.82,4.36-4.81,8.14-8.62,10.93-4.09,3.16-8.72,5.55-13.66,7.06-4.9,1.53-10,2.31-15.14,2.32-6.11.04-12.16-1.28-17.7-3.87-5.31-2.43-10.07-5.91-14-10.24-3.81-4.27-6.83-9.18-8.94-14.5-2.14-5.23-3.26-10.83-3.28-16.48,0-5.41,1.06-10.76,3.09-15.77,2.04-5.11,4.97-9.82,8.65-13.91,3.95-4.3,8.78-7.7,14.15-9.97,5.91-2.56,12.3-3.85,18.74-3.78"/><path id="Caminho_5149" class="cls-1" d="M634.83,1140.96c-5.03.07-10.03-.7-14.81-2.28-4.09-1.34-7.88-3.46-11.17-6.24-3.07-2.7-5.64-5.91-7.6-9.49-2.05-3.7-3.55-7.67-4.45-11.8-.94-4.39-1.41-8.88-1.38-13.37v-44.87h24.02v44.87c-.02,2.81.27,5.61.87,8.35.53,2.43,1.42,4.77,2.64,6.94,1.15,2.01,2.82,3.68,4.83,4.83,4.43,2.38,9.77,2.38,14.2,0,2.03-1.19,3.7-2.9,4.83-4.96,1.22-2.18,2.11-4.53,2.65-6.97.6-2.69.89-5.44.87-8.2v-44.87h23.96v44.87c.06,5.78-.75,11.53-2.41,17.06-1.49,4.96-3.9,9.59-7.11,13.64-3.3,4.04-7.55,7.19-12.37,9.18-5.57,2.29-11.55,3.42-17.56,3.31"/><path id="Caminho_5150" class="cls-1" d="M712.66,1140.25v-87.34h23.96v66.39h39.63v20.9l-63.6.05Z"/><path id="Caminho_5151" class="cls-1" d="M865.52,1073.8h-25.09v66.43h-24.03v-66.43h-25.23v-20.9h74.31l.04,20.9Z"/><path id="Caminho_5152" class="cls-1" d="M936.97,1140.96c-5.03.07-10.03-.7-14.81-2.28-4.1-1.34-7.89-3.46-11.18-6.24-3.07-2.7-5.64-5.91-7.6-9.49-2.04-3.7-3.54-7.67-4.45-11.8-.94-4.39-1.41-8.88-1.38-13.37v-44.87h24.02v44.87c-.02,2.81.28,5.61.88,8.35.53,2.43,1.42,4.77,2.64,6.94,1.15,2.01,2.82,3.68,4.83,4.83,4.44,2.39,9.77,2.39,14.21,0,2.03-1.19,3.7-2.9,4.83-4.96,1.21-2.18,2.1-4.53,2.64-6.97.6-2.69.9-5.44.88-8.2v-44.87h23.96v44.87c.06,5.78-.74,11.53-2.4,17.06-1.49,4.95-3.9,9.58-7.11,13.64-3.3,4.04-7.56,7.2-12.38,9.18-5.57,2.3-11.55,3.42-17.56,3.31"/><path id="Caminho_5153" class="cls-1" d="M1014.8,1140.24v-87.33h40.12c4.07-.01,8.1.89,11.77,2.64,3.56,1.64,6.75,3.99,9.38,6.9,2.53,2.86,4.56,6.13,6,9.67,1.46,3.5,2.21,7.24,2.22,11.03.03,4.92-1.12,9.78-3.34,14.17-2.13,4.3-5.3,7.99-9.22,10.75l18.44,32.13h-26.31l-15.38-26.71h-9.73v26.79l-23.95-.04ZM1038.77,1092.48h15.15c1.74-.1,3.31-1.06,4.21-2.55,1.33-2,1.98-4.37,1.87-6.77.11-2.43-.64-4.83-2.11-6.77-1.04-1.52-2.72-2.47-4.56-2.58h-14.5l-.05,18.67Z"/><path id="Caminho_5154" class="cls-1" d="M1142.6,1052.9h26.79l27.81,87.33h-24.32l-5.28-17.07h-23.31l-5.17,17.12h-24.45l27.93-87.38ZM1163.74,1107.15l-7.73-30.76-8.11,30.76h15.84Z"/><path id="Caminho_5155" class="cls-1" d="M239.09,2179.16c.01,2.33-.16,4.65-.52,6.95-.34,2.17-.96,4.29-1.82,6.31-.8,1.92-1.91,3.7-3.29,5.26-1.42,1.54-3.16,2.74-5.09,3.53-4.57,1.75-9.62,1.75-14.19,0-1.92-.77-3.66-1.95-5.08-3.46-1.38-1.54-2.5-3.31-3.31-5.22-.88-2.04-1.51-4.17-1.87-6.36-.37-2.33-.55-4.68-.54-7.04v-33.14h-10.34v33.14c0,3.33.32,6.65.97,9.91.61,3.09,1.63,6.08,3.04,8.9,1.32,2.72,3.12,5.18,5.31,7.26,2.32,2.14,5.06,3.78,8.03,4.83,3.5,1.25,7.19,1.86,10.9,1.8,4.43.09,8.82-.78,12.88-2.56,3.53-1.56,6.58-4.02,8.86-7.12,2.24-3.13,3.91-6.63,4.92-10.34,1.11-4.12,1.66-8.38,1.61-12.65v-33.14h-10.48v33.15ZM327.16,2193.28l-37.05-47.26h-8.45v65.38h10.3v-46.23l36.56,46.23h9.08v-65.29h-10.43v47.17ZM370.66,2211.4h10.3v-65.38h-10.3v65.38ZM433.01,2146.02l-25.64,65.38h10.97l6.83-17.76h25.22l6.87,17.76h10.88l-25.4-65.38h-9.74ZM427.03,2185.99l10.84-28.64,10.53,28.64h-21.36ZM427.42,2137.32c.14-.5.32-.98.54-1.44.31-.62.79-1.13,1.39-1.48.74-.43,1.58-.64,2.43-.61,1.21.03,2.39.36,3.44.97,1.22.64,2.55,1.29,3.98,1.93,1.42.65,2.97.98,4.53.97,1.46.01,2.91-.32,4.21-.97,1.16-.56,2.19-1.35,3.03-2.32.75-.89,1.4-1.86,1.93-2.9.45-.86.81-1.76,1.08-2.7.17-.56.27-1.13.3-1.71h-5.8c0,.21-.03.42-.07.63-.09.38-.22.75-.39,1.1-.21.47-.49.9-.83,1.29-.42.44-.92.8-1.48,1.03-.7.31-1.46.46-2.22.44-1.3,0-2.59-.34-3.73-.97-1.26-.64-2.57-1.32-3.95-2.02-1.36-.65-2.85-.98-4.36-.97-1.37,0-2.72.33-3.93.97-1.09.54-2.06,1.3-2.84,2.24-.7.9-1.3,1.87-1.79,2.9-.42.87-.74,1.78-.97,2.72-.16.6-.25,1.22-.27,1.85h5.71c.01-.3.05-.59.13-.88M542.24,2156.1c-2.75-3.22-6.15-5.81-9.98-7.61-3.96-1.93-8.32-2.92-12.72-2.9-4.32-.02-8.59.92-12.5,2.75-3.8,1.73-7.21,4.21-10.03,7.28-2.81,3.12-5.02,6.72-6.53,10.63-1.6,3.99-2.42,8.26-2.41,12.57,0,3.34.49,6.67,1.44,9.87.94,3.21,2.36,6.27,4.21,9.06,1.81,2.75,4.01,5.24,6.52,7.38,2.58,2.17,5.53,3.87,8.7,5.02,3.34,1.22,6.87,1.84,10.43,1.82,4.32.02,8.58-.91,12.5-2.72,3.79-1.71,7.19-4.18,9.99-7.26,2.78-3.11,4.97-6.69,6.5-10.57,3.17-7.89,3.21-16.7.12-24.62-1.48-3.87-3.6-7.47-6.27-10.63M538.77,2187.52c-.9,2.74-2.25,5.31-3.98,7.62-1.75,2.29-3.99,4.16-6.56,5.46-6.37,3.18-13.96,2.66-19.84-1.35-3.19-2.23-5.73-5.27-7.35-8.82-1.67-3.64-2.52-7.6-2.49-11.6,0-2.96.48-5.9,1.44-8.7.92-2.74,2.29-5.31,4.05-7.6,3.72-4.76,9.43-7.52,15.47-7.47,2.95-.03,5.87.63,8.52,1.93,2.55,1.24,4.79,3.04,6.56,5.26,1.79,2.28,3.19,4.85,4.14,7.6,1.98,5.7,2.01,11.89.09,17.6M631.23,2182.38h29.14v-8.58h-29.18v-18.57h33.72v-9.13h-44.01v65.38h44.83v-9.13h-34.53l.05-19.97ZM781.07,2179.39c2.34-3.57,3.56-7.76,3.51-12.03,0-2.65-.53-5.28-1.53-7.73-.99-2.49-2.39-4.8-4.14-6.83-1.79-2.04-3.99-3.68-6.45-4.83-2.53-1.22-5.3-1.85-8.11-1.85h-28.49v65.38h10.25v-22.75h15.2l14.21,22.75h11.6l-15.38-24.87c3.84-1.23,7.13-3.79,9.26-7.21M764.19,2179.61h-18.08v-24.37h17.5c2.84.04,5.52,1.35,7.29,3.58,2.09,2.36,3.22,5.41,3.15,8.56.1,3.13-.88,6.21-2.78,8.7-1.63,2.27-4.26,3.6-7.06,3.58M825.38,2182.45h29.18v-8.58h-29.19v-18.57h33.73v-9.13h-44.03v65.38h44.83v-9.13h-34.52v-19.97ZM927.93,2198.16c-1.83,1.56-3.94,2.77-6.22,3.55-2.12.7-4.35,1.06-6.58,1.05-3.87.03-7.66-1.14-10.84-3.34-3.26-2.22-5.88-5.27-7.58-8.84-1.79-3.69-2.71-7.73-2.68-11.83,0-2.3.28-4.6.83-6.83.55-2.25,1.42-4.42,2.58-6.43,1.12-1.98,2.53-3.78,4.19-5.35,1.69-1.57,3.65-2.82,5.8-3.66,2.35-.93,4.85-1.39,7.38-1.37,3.31-.01,6.57.75,9.53,2.22,1.62.81,3.08,1.91,4.31,3.24,1.35,1.45,2.46,3.12,3.28,4.93l8.09-5.44c-2.19-4.32-5.58-7.92-9.77-10.36-4.58-2.65-9.79-3.99-15.08-3.87-3.72-.02-7.42.61-10.92,1.87-3.23,1.14-6.23,2.85-8.85,5.06-2.49,2.13-4.67,4.6-6.46,7.35-1.79,2.73-3.17,5.72-4.07,8.85-.89,3.08-1.35,6.26-1.35,9.46,0,4.19.8,8.35,2.34,12.25,1.5,3.94,3.65,7.59,6.36,10.82,2.74,3.24,6.12,5.87,9.94,7.73,3.91,1.93,8.21,2.92,12.57,2.9,3.56,0,7.1-.58,10.48-1.7,3.49-1.15,6.74-2.93,9.58-5.26,2.75-2.17,4.92-5,6.29-8.23l-8.58-4.83c-1.04,2.37-2.62,4.47-4.6,6.14M1018.17,2156.24c-2.73-3.2-6.11-5.78-9.91-7.58-3.97-1.93-8.32-2.92-12.73-2.9-4.32-.02-8.59.92-12.5,2.75-3.79,1.73-7.2,4.21-10.02,7.28-2.81,3.12-5.03,6.72-6.54,10.63-1.6,4-2.42,8.26-2.41,12.57,0,3.34.49,6.67,1.44,9.87.94,3.21,2.36,6.27,4.21,9.06,1.81,2.76,4.01,5.24,6.53,7.38,2.58,2.17,5.53,3.87,8.7,5.02,3.34,1.22,6.87,1.84,10.43,1.82,4.32.02,8.58-.91,12.5-2.72,3.79-1.71,7.19-4.18,9.99-7.26,2.78-3.11,4.98-6.69,6.5-10.57,3.17-7.89,3.22-16.7.12-24.62-1.48-3.87-3.6-7.47-6.27-10.63M1014.76,2187.69c-.9,2.74-2.25,5.31-3.98,7.62-3.64,4.78-9.32,7.56-15.32,7.53-3.96.06-7.83-1.14-11.07-3.42-3.2-2.23-5.73-5.27-7.35-8.82-1.67-3.64-2.52-7.6-2.49-11.6,0-2.96.48-5.9,1.44-8.7.92-2.74,2.28-5.31,4.04-7.6,3.72-4.76,9.43-7.52,15.47-7.47,2.95-.03,5.87.63,8.52,1.93,2.55,1.25,4.79,3.04,6.56,5.26,1.79,2.28,3.19,4.85,4.14,7.6,1.01,2.87,1.52,5.88,1.51,8.92,0,2.96-.48,5.9-1.42,8.7M1101.4,2193.53l-37.05-47.26h-8.51v65.38h10.3v-46.23l36.56,46.23h9.04v-65.29h-10.38l.05,47.17ZM1187.13,2182.63c-1.3-1.4-2.84-2.57-4.53-3.46-1.88-1.03-3.85-1.89-5.89-2.57-2.04-.64-4.5-1.32-7.38-2.04l-4.36-1.1c-1.11-.28-2.3-.63-3.58-1.03-1.03-.31-2.04-.7-3.02-1.15-.77-.38-1.51-.82-2.22-1.31-.66-.42-1.23-.96-1.68-1.6-.86-1.28-1.3-2.8-1.28-4.34-.12-2.61,1.07-5.12,3.17-6.67,2.85-1.77,6.2-2.6,9.55-2.36,3.6,0,7.17.73,10.48,2.16,2.68.99,5.13,2.52,7.19,4.5l4.68-8.46c-6.35-4.81-14.11-7.4-22.08-7.38-3.18-.03-6.35.41-9.4,1.31-2.71.78-5.26,2.06-7.51,3.77-2.14,1.67-3.86,3.82-5.01,6.27-1.24,2.66-1.87,5.58-1.83,8.52-.05,2.24.35,4.46,1.17,6.54.81,1.91,2.11,3.57,3.76,4.83,1.82,1.41,3.82,2.56,5.95,3.42,2.79,1.1,5.64,2.02,8.55,2.75,2.22.57,3.98,1.03,5.28,1.39,1.3.36,2.74.81,4.31,1.35,1.26.4,2.48.93,3.64,1.58.88.53,1.72,1.14,2.49,1.82.76.63,1.35,1.45,1.71,2.37.34.93.51,1.91.49,2.9.1,2.51-1.16,4.89-3.31,6.21-2.87,1.6-6.14,2.35-9.42,2.16-4.54,0-9.03-.92-13.2-2.72-3.41-1.27-6.55-3.19-9.24-5.64l-4.72,8.85c3.78,2.88,8.04,5.1,12.57,6.54,4.66,1.51,9.54,2.28,14.44,2.26,2.53.02,5.06-.2,7.55-.65,2.27-.42,4.48-1.13,6.56-2.12,1.93-.9,3.69-2.13,5.21-3.63,1.49-1.51,2.64-3.32,3.39-5.3.85-2.25,1.27-4.65,1.24-7.06.05-2.13-.28-4.24-.97-6.25-.61-1.71-1.53-3.29-2.73-4.66M1213.67,2155.43h21.81v56.25h10.43v-56.25h21.63v-9.13h-53.95l.08,9.13ZM1339.95,2179.59c2.33-3.57,3.56-7.76,3.51-12.03,0-2.65-.53-5.28-1.53-7.73-.99-2.49-2.39-4.8-4.14-6.83-1.8-2.04-3.99-3.68-6.46-4.83-2.53-1.22-5.31-1.85-8.12-1.85h-28.46v65.38h10.3v-22.75h15.2l14.21,22.75h11.6l-15.37-24.87c3.84-1.23,7.12-3.79,9.26-7.21M1323.14,2179.82h-18.08v-24.37h17.5c2.84.04,5.51,1.35,7.28,3.58,2.09,2.36,3.22,5.41,3.15,8.56.1,3.13-.88,6.21-2.78,8.7-1.63,2.27-4.26,3.6-7.06,3.58M1419.04,2179.51c0,2.33-.17,4.65-.52,6.95-.35,2.17-.96,4.29-1.83,6.31-.79,1.92-1.9,3.7-3.28,5.26-1.42,1.54-3.16,2.74-5.09,3.53-4.57,1.75-9.62,1.75-14.19,0-1.92-.77-3.66-1.95-5.08-3.46-1.39-1.54-2.51-3.31-3.31-5.22-.89-2.03-1.51-4.17-1.87-6.36-.37-2.33-.55-4.68-.54-7.04v-33.14h-10.42v33.14c-.02,3.32.29,6.64.92,9.91.61,3.09,1.63,6.08,3.04,8.9,1.32,2.72,3.12,5.18,5.31,7.26,2.32,2.14,5.05,3.78,8.02,4.83,3.5,1.25,7.19,1.86,10.9,1.8,4.43.09,8.83-.78,12.89-2.56,3.52-1.57,6.57-4.02,8.85-7.12,2.24-3.13,3.91-6.63,4.92-10.34,1.11-4.12,1.66-8.38,1.61-12.65v-33.14h-10.45l.11,33.15ZM1501.82,2198.37c-1.83,1.56-3.93,2.77-6.21,3.55-2.12.7-4.35,1.06-6.58,1.05-3.87.03-7.65-1.14-10.84-3.34-3.26-2.22-5.88-5.27-7.58-8.84-1.79-3.69-2.71-7.73-2.68-11.83,0-2.3.28-4.6.83-6.83.56-2.25,1.43-4.42,2.59-6.43,1.12-1.98,2.53-3.78,4.19-5.35,1.68-1.58,3.65-2.82,5.8-3.66,2.35-.93,4.85-1.39,7.38-1.37,3.31-.01,6.57.75,9.53,2.22,1.62.81,3.08,1.91,4.31,3.24,1.36,1.45,2.46,3.12,3.28,4.93l8.09-5.44c-2.2-4.32-5.59-7.92-9.78-10.36-4.58-2.65-9.79-3.99-15.08-3.87-3.72-.02-7.42.61-10.92,1.87-3.23,1.14-6.23,2.85-8.85,5.06-2.49,2.13-4.67,4.6-6.46,7.35-1.79,2.73-3.17,5.72-4.07,8.85-.89,3.08-1.35,6.26-1.35,9.46,0,4.01.73,7.98,2.14,11.74,1.38,3.79,3.36,7.32,5.87,10.48,2.54,3.14,5.66,5.77,9.19,7.73,3.59,2.05,7.59,3.28,11.72,3.6,3.3,2.16,4.95,4.44,4.95,6.83.07,1.25-.47,2.45-1.46,3.21-1.2.8-2.63,1.19-4.07,1.1-2.3-.08-4.54-.75-6.52-1.93l-2.56,5.44c3.35,1.74,7.06,2.65,10.84,2.65,2.68.16,5.32-.67,7.41-2.34,1.79-1.59,2.76-3.9,2.66-6.29-.13-3.52-1.87-6.79-4.72-8.85,4.79-.66,9.38-2.36,13.45-4.97,3.87-2.33,6.91-5.81,8.7-9.96l-8.58-4.83c-1.04,2.38-2.62,4.48-4.61,6.14M1560.92,2146.35l-25.64,65.38h10.97l6.83-17.76h25.22l6.88,17.76h10.88l-25.4-65.38h-9.74ZM1554.94,2186.32l10.84-28.64,10.52,28.64h-21.35ZM1555.34,2137.65c.14-.5.32-.98.54-1.44.31-.62.8-1.14,1.4-1.48.74-.43,1.58-.64,2.43-.61,1.21.03,2.39.36,3.44.97,1.21.64,2.54,1.29,3.97,1.93,1.43.65,2.98.98,4.54.97,1.46.01,2.9-.32,4.21-.97,1.16-.56,2.19-1.35,3.04-2.32.75-.89,1.4-1.86,1.93-2.9.45-.86.82-1.76,1.08-2.7.17-.56.27-1.13.3-1.71h-5.8c0,.21-.03.42-.07.63-.08.38-.21.75-.39,1.1-.21.47-.49.9-.83,1.29-.42.44-.92.8-1.48,1.03-.7.31-1.46.46-2.22.44-1.3,0-2.59-.34-3.73-.97-1.26-.68-2.58-1.35-3.95-2.02-1.36-.65-2.85-.98-4.36-.97-1.37,0-2.72.33-3.93.97-1.09.54-2.06,1.3-2.83,2.24-.71.89-1.31,1.87-1.8,2.9-.42.87-.74,1.78-.97,2.72-.16.6-.25,1.22-.27,1.85h5.71c.01-.3.06-.59.14-.88M1676.45,2167.09c-1.48-3.87-3.6-7.47-6.27-10.63-2.76-3.36-6.23-6.08-10.15-7.96-3.96-1.93-8.32-2.92-12.72-2.9-4.32-.02-8.59.92-12.5,2.75-3.8,1.73-7.2,4.21-10.02,7.28-2.81,3.12-5.03,6.72-6.54,10.63-1.6,4-2.42,8.26-2.41,12.57,0,3.34.49,6.67,1.44,9.87.94,3.21,2.36,6.27,4.21,9.06,1.81,2.75,4.01,5.24,6.52,7.38,2.58,2.17,5.53,3.87,8.7,5.02,3.34,1.22,6.87,1.84,10.43,1.82,4.32.02,8.58-.91,12.5-2.72,3.79-1.71,7.18-4.18,9.98-7.26,2.78-3.11,4.98-6.69,6.5-10.57,3.17-7.89,3.21-16.7.12-24.62M1666.54,2187.5c-.9,2.74-2.25,5.31-3.98,7.62-1.75,2.29-3.99,4.16-6.56,5.46-6.36,3.18-13.95,2.66-19.83-1.35-3.2-2.23-5.74-5.27-7.36-8.82-1.67-3.64-2.52-7.6-2.49-11.6,0-2.96.48-5.9,1.44-8.7.91-2.74,2.28-5.31,4.04-7.6,3.72-4.75,9.43-7.51,15.47-7.47,2.95-.03,5.87.63,8.52,1.93,2.55,1.24,4.79,3.04,6.56,5.26,1.8,2.28,3.2,4.85,4.14,7.6,1,2.87,1.51,5.89,1.5,8.92,0,2.96-.47,5.9-1.41,8.7"/><path id="Caminho_5156" class="cls-1" d="M229.44,1486.49h22.41c-2.78,6.48-9.41,10.43-16.43,9.8-11.35.4-20.88-8.49-21.28-19.84-.02-.56-.02-1.12,0-1.68-.72-11.5,8.03-21.4,19.53-22.12.47-.03.94-.04,1.41-.04,7.54-.19,14.57,3.81,18.24,10.4l19.1-11.39c-12.64-20.49-39.5-26.84-59.98-14.2-20.49,12.64-26.84,39.5-14.2,59.98,7.96,12.9,22.05,20.74,37.21,20.7,22.04.33,40.17-17.26,40.5-39.3.02-1.19-.02-2.37-.1-3.56v-6.49h-46.4v17.72ZM350.38,1430.91c-24.07-.05-43.63,19.43-43.68,43.5-.05,24.07,19.43,43.63,43.5,43.67,24.07.05,43.63-19.43,43.68-43.5,0-.03,0-.06,0-.09.11-23.97-19.23-43.48-43.2-43.59-.1,0-.2,0-.3,0M350.38,1495.06c-11.36.7-21.14-7.93-21.85-19.29-.7-11.36,7.93-21.14,19.29-21.85,11.36-.7,21.14,7.93,21.85,19.29.03.42.04.85.04,1.28.46,10.9-8.01,20.1-18.91,20.56-.14,0-.28.01-.43.01M458.47,1484.17l-19.33-51.3h-24.17l32.2,83.26h22.41l32.57-83.26h-24.1l-19.58,51.3ZM531.43,1516.11h59.63v-20.3h-37.08v-12.34h24.49v-17.87h-24.49v-12.36h37.1v-20.3h-59.64v83.18ZM694.74,1459.92c-.17-15.13-12.57-27.27-27.71-27.1-.35,0-.71.01-1.06.03h-40.26v83.25h22.16v-28.77h9.43l16.53,28.77h24.85l-18.49-32.06c9.04-4.65,14.68-14,14.57-24.17M663.54,1468.33h-15.67v-15.51h15.67c4.29-.43,8.12,2.7,8.55,7,.43,4.29-2.7,8.12-7,8.55-.52.05-1.04.05-1.55,0M782.05,1476.81l-33.67-43.96h-18.85v83.26h22.16v-43.83l33.54,43.83h18.98v-83.26h-22.16v43.96ZM880.23,1430.9c-24.07-.05-43.63,19.43-43.68,43.5-.05,24.07,19.43,43.63,43.5,43.67,24.07.05,43.63-19.43,43.68-43.5,0-.03,0-.06,0-.09.11-23.97-19.23-43.48-43.2-43.59-.1,0-.2,0-.3,0M880.23,1495.05c-11.36.7-21.14-7.93-21.85-19.29-.7-11.36,7.93-21.14,19.29-21.85,11.36-.7,21.14,7.93,21.85,19.29.03.42.04.85.04,1.28.46,10.9-8.01,20.1-18.91,20.56-.14,0-.28.01-.43.01M1011.1,1516.11h22.52v-30.36h24.44v-18.85h-24.49v-14.07h37.09v-19.96h-59.63l.06,83.25ZM1104.38,1516.11h59.63v-20.3h-37.1v-12.34h24.49v-17.87h-24.49v-12.36h37.1v-20.3h-59.64v83.18ZM1232.56,1432.86h-33.91v83.25h33.91c22.99,1.49,42.83-15.94,44.32-38.93,1.49-22.99-15.94-42.83-38.93-44.32-1.79-.12-3.59-.12-5.39,0M1231.46,1494.45h-10.16v-39.91h10.16c11.02-1.21,20.94,6.74,22.16,17.76,1.21,11.02-6.74,20.94-17.76,22.16-1.46.16-2.94.16-4.4,0M1309.32,1516.12h59.63v-20.3h-37.11v-12.35h24.49v-17.87h-24.49v-12.36h37.1v-20.3h-59.63v83.19ZM1472.63,1459.93c-.17-15.14-12.59-27.27-27.73-27.1-.35,0-.7.01-1.05.03h-40.28v83.25h22.16v-28.78h9.43l16.53,28.77h24.85l-18.49-32.07c9.04-4.65,14.68-14,14.57-24.17M1441.39,1468.31h-15.67v-15.49h15.67c4.29-.43,8.12,2.7,8.55,7,.43,4.29-2.7,8.12-7,8.55-.52.05-1.04.05-1.55,0M1535.89,1432.86l-34.8,83.25h23.38l5.8-14.33h32.93l5.88,14.33h23.26l-35.14-83.25h-21.31ZM1538.35,1481.96l8.32-20.45,8.32,20.45h-16.65ZM1645.21,1494.69v-61.87h-23.57v83.25h58.64v-21.42l-35.07.04Z"/><path id="Caminho_5157" class="cls-1" d="M1022.42,1916.13l74.2,124.77h61.34v-235.81h-135.54v111.03ZM1211.94,1769.67h-46.2v271.24h46.2c74.9,0,135.62-60.72,135.62-135.62s-60.72-135.62-135.62-135.62M1115.94,1797.32h42.02v-187.08h-41.99c-51.66.53-93.12,42.83-92.59,94.49.52,50.92,41.67,92.07,92.59,92.59M374.82,1619.44v247.8h160.97l-160.97-247.8ZM1532.56,1893.62h143.83v-283.4h-143.85l.02,283.4ZM1321.96,1610.22h-156.21v151.66h156.21v-151.66ZM1684.1,2040.91h143.83v-139.49h-143.8l-.04,139.49ZM1532.5,2040.91h143.83v-139.49h-143.8l-.04,139.49ZM1355.31,2040.91h143.83v-430.68h-143.8l-.04,430.68ZM1022.39,2040.91h65.16l-65.16-109.56v109.56ZM308.97,1694.31c-.04-46.43-37.67-84.07-84.1-84.1h-31.2v168.16h31.21c46.43-.04,84.07-37.67,84.1-84.1M42.06,1778.38h143.83v-168.15H42.06v168.15ZM42.06,2040.91h143.83v-254.76H42.06v254.76ZM239.62,1786.16h-45.96v254.75h45.96c70.35-.61,126.88-58.14,126.26-128.49-.61-69.48-56.78-125.66-126.26-126.26M612.67,1985.49l-32.96,55.42h69.01l-36.05-55.42ZM617.12,1978.02l40.88,62.89h11.86c2.3-90.46,77.51-161.92,167.96-159.62,87.22,2.22,157.4,72.4,159.62,159.62h17.21v-122.64l-181-304.32-216.53,364.08ZM671.47,1738.74c-.08-70.95-57.57-128.44-128.52-128.52h-164.9l167,257.01c70.04-1.4,126.17-58.45,126.41-128.5M833.65,1888.73c-84.64.1-153.81,67.57-156.02,152.18h312.05c-2.2-84.61-71.38-152.08-156.01-152.18M540.87,1875.05h-166.09v165.87h195.87l37.29-62.69-67.07-103.18Z"/></svg>