<?xml version="1.0" encoding="UTF-8"?><svg class="icon-white" id="Camada_1" xmlns="http://www.w3.org/2000/svg" viewBox="0 0 500 500"><defs><style>.cls-1{stroke-width:0px;}</style></defs><g id="Grupo_582"><g id="Grupo_299"><g id="Grupo_298"><path id="Caminho_2017" class="cls-1" d="M250.05,221.52c15.76-.03,28.55,12.73,28.58,28.48.03,15.76-12.73,28.55-28.48,28.58-7.59.01-14.86-3-20.23-8.36l-.03-.03c-11.12-11.08-11.15-29.07-.08-40.19.03-.03.05-.05.08-.08h0c5.34-5.36,12.6-8.37,20.17-8.36M391.64,261.18c-3.76,3.18-9.38,2.7-12.56-1.06-3.18-3.76-2.7-9.38,1.06-12.56l23.57-19.89c3.35-2.84,8.27-2.8,11.58.08l23.46,19.81c3.75,3.17,4.21,8.78,1.04,12.53-3.17,3.75-8.78,4.21-12.53,1.04h0l-8.2-6.91c-2.33,93.28-79.84,167-173.11,164.67-93.28-2.33-167-79.84-164.67-173.11,2.33-93.28,79.84-167,173.11-164.67,66.13,1.65,125.21,41.75,151.17,102.6,1.85,4.55-.34,9.73-4.89,11.57-4.44,1.8-9.51-.24-11.46-4.62-32.74-77-121.7-112.87-198.69-80.13-77,32.74-112.87,121.7-80.13,198.69,32.74,77,121.7,112.87,198.69,80.13,54.89-23.34,90.97-76.71,92.18-136.34l-9.63,8.13v.04ZM343.33,291.45c-3.49,2.31-7.1,4.41-10.84,6.3-8.03,4.01-16.42,7.26-25.06,9.71-2.45,8.64-5.7,17.03-9.71,25.07-1.89,3.72-4,7.33-6.31,10.81,23.11-10.29,41.59-28.78,51.87-51.9l.04.02ZM287.25,312.06c-24.59,4.14-49.7,4.14-74.29,0,1.54,4.25,3.34,8.41,5.37,12.45,8.63,17.04,19.9,27.57,31.78,27.57s23.14-10.55,31.78-27.57c2.03-4.04,3.83-8.2,5.39-12.45h-.02ZM192.74,307.44c-8.64-2.45-17.03-5.7-25.06-9.71-3.75-1.89-7.39-4-10.89-6.31,10.29,23.12,28.78,41.6,51.9,51.88-2.31-3.49-4.41-7.1-6.3-10.84-4-8.04-7.25-16.42-9.71-25.06M156.78,208.69c3.49-2.31,7.1-4.41,10.84-6.3,8.03-4.01,16.42-7.26,25.06-9.71,2.45-8.64,5.7-17.03,9.71-25.06,1.89-3.72,3.99-7.33,6.3-10.81-23.12,10.28-41.61,28.76-51.9,51.87M212.87,188.08c24.59-4.14,49.7-4.14,74.29,0-1.54-4.25-3.34-8.41-5.39-12.45-8.63-17.04-19.9-27.57-31.78-27.57s-23.14,10.55-31.78,27.57c-2.03,4.04-3.82,8.2-5.37,12.45h.02ZM307.38,192.69c8.64,2.44,17.03,5.69,25.06,9.71,3.74,1.88,7.36,3.98,10.86,6.29-10.29-23.11-28.77-41.58-51.87-51.87,2.31,3.49,4.41,7.1,6.3,10.84,4.01,8.03,7.26,16.43,9.71,25.07l-.04-.03ZM324.46,281.83c17.04-8.63,27.57-19.9,27.57-31.78s-10.55-23.14-27.57-31.78c-4.04-2.03-8.2-3.83-12.45-5.39,4.14,24.59,4.14,49.7,0,74.29,4.25-1.54,8.41-3.34,12.45-5.39v.03ZM292.81,207.31c-28.18-6.01-57.31-6.01-85.48,0-6.01,28.18-6.01,57.31,0,85.48,28.18,6.01,57.31,6.01,85.48,0,6.01-28.18,6.01-57.31,0-85.48M188.09,212.89c-4.25,1.54-8.41,3.34-12.45,5.39-17.04,8.63-27.57,19.9-27.57,31.78s10.55,23.14,27.57,31.78c4.04,2.03,8.2,3.83,12.45,5.39-4.16-24.59-4.16-49.7,0-74.29v-.03ZM250.05,130.24c66.17,0,119.81,53.63,119.82,119.8s-53.63,119.81-119.8,119.82c-66.17,0-119.81-53.63-119.82-119.8,0-31.78,12.62-62.25,35.09-84.73,22.44-22.51,52.93-35.14,84.71-35.09M257.62,242.47c-4.16-4.18-10.93-4.19-15.11-.03,0,0-.02.02-.03.03h0c-4.17,4.2-4.14,10.99.06,15.16,4.2,4.17,10.99,4.14,15.16-.06,1.98-2,3.1-4.69,3.11-7.51,0-2.84-1.12-5.57-3.14-7.57"/></g></g></g></svg>