<?xml version="1.0" encoding="UTF-8"?><svg id="Camada_1" xmlns="http://www.w3.org/2000/svg" viewBox="0 0 500 500"><defs><style>.cls-1{stroke-width:0px;}</style></defs><g id="Grupo_884"><g id="Grupo_637"><path id="Caminho_4046" class="cls-1" d="M250.01,250c30.11,0,54.52-24.41,54.52-54.52s-24.41-54.52-54.52-54.52-54.52,24.41-54.52,54.52h0c0,30.11,24.4,54.52,54.51,54.53h.01M250.01,156.55c21.51,0,38.94,17.44,38.94,38.95,0,21.51-17.44,38.94-38.95,38.94-21.5,0-38.94-17.44-38.94-38.94s17.43-38.94,38.94-38.94h0M342.69,330.46c-10.59-38.16-48.68-64.88-92.68-64.88s-82.09,26.71-92.68,64.88c-1.74,6.41-.39,13.27,3.66,18.53,5.08,6.42,12.84,10.13,21.03,10.04h135.98c8.19.08,15.95-3.63,21.03-10.04,4.05-5.27,5.4-12.12,3.66-18.53M326.58,339.57c-2.1,2.55-5.26,3.99-8.57,3.89h-136c-3.3.1-6.47-1.33-8.57-3.89-1.23-1.31-1.73-3.15-1.32-4.9,8.96-31.54,40.89-53.51,77.89-53.51s68.93,21.94,77.88,53.51c.47,1.75-.03,3.62-1.32,4.9"/></g></g></svg>