<?xml version="1.0" encoding="UTF-8" standalone="no"?><!-- Generator: Gravit.io --><svg xmlns="http://www.w3.org/2000/svg" xmlns:xlink="http://www.w3.org/1999/xlink" style="isolation:isolate" viewBox="0 0 24 28" width="24pt" height="28pt"><defs><clipPath id="_clipPath_dXVi9tV5STtTt8oJFCdj6MBBwATg3pVZ"><rect width="24" height="28"/></clipPath></defs><g clip-path="url(#_clipPath_dXVi9tV5STtTt8oJFCdj6MBBwATg3pVZ)"><path d=" M 11.977 14 C 15.877 14 18.977 10.9 18.977 7 C 18.977 3.1 15.877 0 11.977 0 C 8.077 0 4.977 3.1 4.977 7 C 4.977 10.9 8.077 14 11.977 14 Z  M 11.977 2 C 14.777 2 16.977 4.2 16.977 7 C 16.977 9.8 14.777 12 11.977 12 C 9.177 12 6.977 9.8 6.977 7 C 6.977 4.2 9.177 2 11.977 2 Z  M 23.877 24.3 C 22.477 19.4 17.577 16 11.977 16 C 6.377 16 1.477 19.4 0.077 24.3 C -0.123 25.1 0.077 26 0.577 26.7 C 1.177 27.5 2.177 28 3.277 28 L 20.777 28 C 21.877 28 22.777 27.5 23.477 26.7 C 23.877 26 24.077 25.2 23.877 24.3 Z  M 21.777 25.5 C 21.477 25.8 21.077 26 20.677 26 L 3.277 26 C 2.877 26 2.477 25.8 2.177 25.5 C 1.977 25.3 1.877 25.1 1.977 24.9 C 3.177 20.8 7.177 18 11.977 18 C 16.777 18 20.877 20.8 21.977 24.9 C 22.077 25.1 21.977 25.3 21.777 25.5 Z " fill="rgb(255,255,255)"/></g></svg>