<?xml version="1.0" encoding="UTF-8"?><svg id="Camada_1" xmlns="http://www.w3.org/2000/svg" viewBox="0 0 500 500"><defs><style>.cls-1{fill:#fff;stroke-width:0px;}</style></defs><g id="noun-zoom-6526344"><path id="Caminho_5357" class="cls-1" d="M411.45,192.71c-13.68.6-24.63,11.55-25.25,25.23v27.98c0,2.92-2.37,5.3-5.3,5.3s-5.3-2.37-5.3-5.3v-47c.32-13.94-10.72-25.5-24.66-25.82-13.94-.32-25.5,10.72-25.82,24.66,0,.39,0,.78,0,1.16v47.08c0,2.92-2.37,5.3-5.3,5.3s-5.3-2.37-5.3-5.3v-60.79c.32-13.94-10.72-25.5-24.66-25.82-13.94-.32-25.5,10.72-25.82,24.66,0,.39,0,.78,0,1.16v60.77c-.04,2.91-2.39,5.26-5.3,5.3-2.35-.01-4.4-1.59-5.01-3.86-.16-.46-.26-.95-.28-1.43V66.49c-.32-13.94-11.88-24.98-25.82-24.66-13.49.31-24.35,11.17-24.66,24.66v213.89h0v4.2c-.02,8.89-7.24,16.07-16.13,16.05-4.24-.01-8.31-1.7-11.31-4.69l-37.54-37.54c-5.14-5.13-12.11-8.03-19.37-8.04-5.66-.06-11.16,1.88-15.54,5.47-10.75,8.87-12.28,24.77-3.41,35.52.51.62,1.06,1.22,1.63,1.79l69.84,69.84c5.38,5.34,9.97,11.42,13.63,18.06,44.4,81.22,102.19,82.1,133.22,82.57,30.88.47,60.62-11.63,82.4-33.52,23.04-22.74,36.06-53.72,36.2-86.09v-126c.02-13.93-11.24-25.25-25.16-25.3Z"/><path id="Caminho_5358" class="cls-1" d="M138.84,98.97c.74.37,1.55.57,2.37.56,2-.02,3.82-1.14,4.73-2.92l20.65-41.04,4.21,10.55c1.51,2.55,4.8,3.39,7.35,1.88,2-1.19,3.01-3.53,2.49-5.8l-10.32-25.81-26.81,7.09c-2.87.58-4.72,3.38-4.13,6.25.58,2.87,3.38,4.72,6.25,4.13.19-.04.38-.09.57-.15l10.99-2.9-20.65,41.05c-1.28,2.6-.26,5.75,2.31,7.11Z"/><path id="Caminho_5359" class="cls-1" d="M104.75,214.1c-.78-2.8-3.64-4.47-6.46-3.77l-10.99,2.9,20.65-41.05c1.31-2.61.26-5.8-2.35-7.11-2.61-1.31-5.8-.26-7.11,2.35h0l-20.65,41.04-4.22-10.54c-1.08-2.72-4.17-4.04-6.88-2.96-2.72,1.08-4.04,4.17-2.96,6.88l10.32,25.82,26.81-7.09c2.84-.74,4.55-3.63,3.85-6.48Z"/></g></svg>