<?xml version="1.0" encoding="UTF-8"?><svg class="icon-white" id="Camada_1" xmlns="http://www.w3.org/2000/svg" viewBox="0 0 500 500"><defs><style>.cls-1{stroke-width:0px;}</style></defs><g id="Grupo_773"><g id="Grupo_641"><path id="Caminho_4048" class="cls-1" d="M416.37,411.25l-80.06-80.09c-4.35-4.36-6.81-10.27-6.82-16.44v-37.57c0-.27,0-.55-.04-.82l-13.53-125.22c-1.53-14.32-13.63-25.18-28.03-25.16-4.41,0-8.75,1.05-12.68,3.07v-37.96c0-8.56-6.94-15.51-15.5-15.51,0,0,0,0,0,0H127.89c-8.56,0-15.5,6.94-15.5,15.5h0v50.4h-3.89c-14.97-.01-27.12,12.12-27.14,27.09,0,7.31,2.94,14.32,8.18,19.43-10.71,10.43-10.93,27.56-.51,38.26.17.17.34.34.51.51-10.71,10.43-10.93,27.56-.51,38.26.17.17.34.34.51.51-10.72,10.45-10.94,27.62-.48,38.34,5.11,5.24,12.12,8.19,19.45,8.18h3.89v11.63c0,8.56,6.94,15.51,15.5,15.51h8.41l25.54,25.54c8.46,8.49,19.96,13.25,31.94,13.22,7.87-.01,15.42,3.11,20.97,8.68l35.59,35.54c3.12,2.92,8.01,2.76,10.92-.36,2.78-2.97,2.78-7.59,0-10.56l-12.68-12.72,79.9-53.27,76.93,76.92c3.02,3.02,7.91,3.02,10.93,0,3.02-3.02,3.02-7.91,0-10.93h0M112.39,296.55h-3.89c-6.42-.14-11.52-5.46-11.38-11.88.14-6.23,5.15-11.24,11.38-11.38h3.89v23.26ZM112.39,257.78h-3.89c-6.42-.14-11.52-5.46-11.38-11.88.14-6.23,5.15-11.24,11.38-11.38h3.89v23.26ZM112.39,219.01h-3.89c-6.42.14-11.74-4.95-11.88-11.38-.14-6.42,4.95-11.74,11.38-11.88.17,0,.34,0,.51,0h3.89v23.26ZM112.39,180.25h-3.89c-6.42-.14-11.52-5.46-11.38-11.88.14-6.23,5.15-11.24,11.38-11.38h3.89v23.26ZM127.89,91.06h131.81v232.61H127.89V91.06ZM237.4,387.36l-11.66-11.7c-8.46-8.49-19.96-13.25-31.94-13.22-7.87.01-15.42-3.12-20.97-8.7l-14.58-14.58h101.46c8.56,0,15.51-6.94,15.51-15.5h0v-169.53c.03-7,5.72-12.66,12.72-12.63,6.44.02,11.84,4.87,12.55,11.28l13.49,124.8v37.14c0,2.92.34,5.84,1.01,8.68.78,3.42,2.02,6.72,3.68,9.81l-81.27,54.16ZM216.3,201.55c11.8-12.42,11.29-32.05-1.13-43.85-12.42-11.8-32.05-11.29-43.85,1.13-11.37,11.97-11.37,30.75,0,42.72-14.82,8.19-24.02,23.78-24.04,40.71v15.51c0,4.29,3.48,7.77,7.77,7.77h77.5c4.29,0,7.77-3.48,7.77-7.77h0v-15.51c-.01-16.93-9.22-32.52-24.04-40.71M193.82,164.72c8.57,0,15.51,6.94,15.51,15.51s-6.94,15.51-15.51,15.51-15.51-6.94-15.51-15.51h0c0-8.56,6.94-15.51,15.5-15.51h.01M224.84,250.01h-62.05v-7.77c-.23-17.13,13.47-31.2,30.6-31.43,17.13-.23,31.2,13.47,31.43,30.6,0,.28,0,.55,0,.83l.02,7.77Z"/></g></g></svg>