<?xml version="1.0" encoding="UTF-8" standalone="no"?><!-- Generator: Gravit.io --><svg xmlns="http://www.w3.org/2000/svg" xmlns:xlink="http://www.w3.org/1999/xlink" style="isolation:isolate" viewBox="0 0 87 90" width="87pt" height="90pt"><defs><clipPath id="_clipPath_YZmc5GJ8M6qSdfNSdAWJTwK1LPsbXk6b"><rect width="87" height="90"/></clipPath></defs><g clip-path="url(#_clipPath_YZmc5GJ8M6qSdfNSdAWJTwK1LPsbXk6b)"><path d=" M 86.412 86.6 L 65.812 65.9 C 64.712 64.8 64.012 63.2 64.012 61.7 L 64.012 52 C 64.012 51.9 64.012 51.9 64.012 51.8 L 60.512 19.5 C 60.112 15.8 57.012 13 53.312 13 C 52.112 13 51.012 13.3 50.012 13.8 L 50.012 4 C 50.012 1.8 48.212 0 46.012 0 L 12.012 0 C 9.812 0 8.012 1.8 8.012 4 L 8.012 17 L 7.012 17 C 3.112 17 0.012 20.1 0.012 24 C 0.012 26 0.812 27.7 2.112 29 C 0.812 30.3 0.012 32 0.012 34 C 0.012 36 0.812 37.7 2.112 39 C 0.812 40.3 0.012 42 0.012 44 C 0.012 46 0.812 47.7 2.112 49 C 0.812 50.3 0.012 52 0.012 54 C 0.012 57.9 3.112 61 7.012 61 L 8.012 61 L 8.012 64 C 8.012 66.2 9.812 68 12.012 68 L 14.212 68 L 20.812 74.6 C 23.012 76.8 25.912 78 29.012 78 C 31.012 78 33.012 78.8 34.412 80.2 L 43.612 89.4 C 44.012 89.8 44.512 90 45.012 90 C 45.512 90 46.012 89.8 46.412 89.4 C 47.212 88.6 47.212 87.4 46.412 86.6 L 43.112 83.3 L 63.712 69.6 L 83.512 89.4 C 83.912 89.8 84.412 90 84.912 90 C 85.412 90 85.912 89.8 86.312 89.4 C 87.212 88.6 87.212 87.4 86.412 86.6 Z  M 8.012 57 L 7.012 57 C 5.412 57 4.012 55.7 4.012 54 C 4.012 52.3 5.412 51 7.012 51 L 8.012 51 L 8.012 57 Z  M 8.012 47 L 7.012 47 C 5.412 47 4.012 45.7 4.012 44 C 4.012 42.3 5.412 41 7.012 41 L 8.012 41 L 8.012 47 Z  M 8.012 37 L 7.012 37 C 5.412 37 4.012 35.7 4.012 34 C 4.012 32.3 5.412 31 7.012 31 L 8.012 31 L 8.012 37 Z  M 8.012 27 L 7.012 27 C 5.412 27 4.012 25.6 4.012 24 C 4.012 22.4 5.412 21 7.012 21 L 8.012 21 L 8.012 27 Z  M 12.012 64 L 12.012 4 L 46.012 4 L 46.012 64 L 12.012 64 Z  M 40.312 80.4 L 37.312 77.4 C 35.112 75.2 32.212 74 29.112 74 C 27.112 74 25.112 73.2 23.712 71.8 L 19.812 68 L 46.012 68 C 48.212 68 50.012 66.2 50.012 64 L 50.012 20.3 C 50.012 18.5 51.512 17 53.312 17 C 55.012 17 56.412 18.2 56.512 19.9 L 60.012 52.1 L 60.012 61.7 C 60.012 62.5 60.112 63.2 60.312 63.9 C 60.512 64.8 60.812 65.6 61.212 66.4 L 40.312 80.4 Z  M 34.812 32.5 C 36.212 31.1 37.012 29.1 37.012 27 C 37.012 22.6 33.412 19 29.012 19 C 24.612 19 21.012 22.6 21.012 27 C 21.012 29.1 21.812 31.1 23.212 32.5 C 19.512 34.5 17.012 38.5 17.012 43 L 17.012 47 C 17.012 48.1 17.912 49 19.012 49 L 39.012 49 C 40.112 49 41.012 48.1 41.012 47 L 41.012 43 C 41.012 38.5 38.512 34.5 34.812 32.5 Z  M 29.012 23 C 31.212 23 33.012 24.8 33.012 27 C 33.012 29.2 31.212 31 29.012 31 C 26.812 31 25.012 29.2 25.012 27 C 25.012 24.8 26.812 23 29.012 23 Z  M 37.012 45 L 21.012 45 L 21.012 43 C 21.012 38.6 24.612 35 29.012 35 C 33.412 35 37.012 38.6 37.012 43 L 37.012 45 Z " fill="rgb(255,255,255)"/></g></svg>