<?xml version="1.0" encoding="UTF-8" standalone="no"?><!-- Generator: Gravit.io --><svg xmlns="http://www.w3.org/2000/svg" xmlns:xlink="http://www.w3.org/1999/xlink" style="isolation:isolate" viewBox="0 0 50 50" width="50pt" height="50pt"><defs><clipPath id="_clipPath_EWVk6tr6J8d3buIPxSgRupReHJ6MXV3i"><rect width="50" height="50"/></clipPath></defs><g clip-path="url(#_clipPath_EWVk6tr6J8d3buIPxSgRupReHJ6MXV3i)"><path d="M 1.651 19.68 L 36.219 19.68 C 37.13 19.68 37.87 20.419 37.87 21.329 L 37.87 28.671 C 37.87 29.581 37.13 30.32 36.219 30.32 L 1.651 30.32 C 0.74 30.32 0 29.581 0 28.671 L 0 21.329 C 0 20.419 0.74 19.68 1.651 19.68 Z" style="stroke:none;fill:#FFFFFF;stroke-miterlimit:10;"/><path d=" M 49.364 26.325 L 42.441 32.367 L 35.519 38.408 C 34.68 39.14 34 38.83 34 37.718 L 34 25 L 34 12.282 C 34 11.17 34.68 10.86 35.519 11.592 L 42.441 17.633 L 49.364 23.675 C 50.202 24.406 50.202 25.594 49.364 26.325 Z " fill="rgb(255,255,255)"/></g></svg>