<?xml version="1.0" encoding="UTF-8" standalone="no"?><!-- Generator: Gravit.io --><svg xmlns="http://www.w3.org/2000/svg" xmlns:xlink="http://www.w3.org/1999/xlink" style="isolation:isolate" viewBox="0 0 50 50" width="50pt" height="50pt"><defs><clipPath id="_clipPath_sfeveFwCjiJl8gF7kxcvnRv7kyz2Oi4h"><rect width="50" height="50"/></clipPath></defs><g clip-path="url(#_clipPath_sfeveFwCjiJl8gF7kxcvnRv7kyz2Oi4h)"><path d="M 48.34 30.32 L 13.78 30.32 C 12.87 30.32 12.13 29.581 12.13 28.671 L 12.13 21.329 C 12.13 20.419 12.87 19.68 13.78 19.68 L 48.34 19.68 C 49.25 19.68 49.99 20.419 49.99 21.329 L 49.99 28.671 C 49.99 29.581 49.25 30.32 48.34 30.32 Z" style="stroke:none;fill:#FFFFFF;stroke-miterlimit:10;"/><path d=" M 0.629 23.675 L 7.551 17.633 L 14.474 11.592 C 15.312 10.86 15.993 11.17 15.993 12.282 L 15.993 25 L 15.993 37.718 C 15.993 38.83 15.312 39.14 14.474 38.408 L 7.551 32.367 L 0.629 26.325 C -0.21 25.594 -0.21 24.406 0.629 23.675 Z " fill="rgb(255,255,255)"/></g></svg>