<?xml version="1.0" encoding="UTF-8" standalone="no"?><!-- Generator: Gravit.io --><svg xmlns="http://www.w3.org/2000/svg" xmlns:xlink="http://www.w3.org/1999/xlink" style="isolation:isolate" viewBox="0 0 50 50" width="50pt" height="50pt"><defs><clipPath id="_clipPath_SoruAaXY3FuForwM57DZx5AjBk5zb3M3"><rect width="50" height="50"/></clipPath></defs><g clip-path="url(#_clipPath_SoruAaXY3FuForwM57DZx5AjBk5zb3M3)"><path d="M 48.208 31.28 L 16.202 31.28 C 15.241 31.28 14.46 30.499 14.46 29.537 L 14.46 20.363 C 14.46 19.401 15.241 18.62 16.202 18.62 L 48.208 18.62 C 49.169 18.62 49.95 19.401 49.95 20.363 L 49.95 29.537 C 49.95 30.499 49.169 31.28 48.208 31.28 Z" style="stroke:none;fill:#FFFFFF;stroke-miterlimit:10;"/><path d=" M 0.797 23.375 L 9.023 16.196 L 17.248 9.018 C 18.244 8.149 19.053 8.517 19.053 9.838 L 19.053 24.949 L 19.053 40.06 C 19.053 41.382 18.244 41.75 17.248 40.881 L 9.023 33.702 L 0.797 26.524 C -0.198 25.655 -0.198 24.244 0.797 23.375 Z " fill="rgb(255,255,255)"/></g></svg>