<?xml version="1.0" encoding="UTF-8" standalone="no"?><!-- Generator: Gravit.io --><svg xmlns="http://www.w3.org/2000/svg" xmlns:xlink="http://www.w3.org/1999/xlink" style="isolation:isolate" viewBox="0 0 50 50" width="50pt" height="50pt"><defs><clipPath id="_clipPath_xuMfvBAqwQ6NQ5znpB7YyBUKcmYn3yn6"><rect width="50" height="50"/></clipPath></defs><g clip-path="url(#_clipPath_xuMfvBAqwQ6NQ5znpB7YyBUKcmYn3yn6)"><path d="M 31.33 1.742 L 31.33 33.748 C 31.33 34.709 30.549 35.49 29.587 35.49 L 20.413 35.49 C 19.451 35.49 18.67 34.709 18.67 33.748 L 18.67 1.742 C 18.67 0.781 19.451 0 20.413 0 L 29.587 0 C 30.549 0 31.33 0.781 31.33 1.742 Z" style="stroke:none;fill:#FFFFFF;stroke-miterlimit:10;"/><path d=" M 23.425 49.152 L 16.247 40.926 L 9.069 32.701 C 8.2 31.705 8.567 30.897 9.889 30.897 L 25 30.897 L 40.111 30.897 C 41.433 30.897 41.8 31.705 40.931 32.701 L 33.753 40.926 L 26.575 49.152 C 25.706 50.148 24.294 50.148 23.425 49.152 Z " fill="rgb(255,255,255)"/></g></svg>