<?xml version="1.0" encoding="UTF-8" standalone="no"?><!-- Generator: Gravit.io --><svg xmlns="http://www.w3.org/2000/svg" xmlns:xlink="http://www.w3.org/1999/xlink" style="isolation:isolate" viewBox="0 0 50 50" width="50pt" height="50pt"><defs><clipPath id="_clipPath_rF4Ehs3bE4tNnTpejXDZCzHK225WGY9n"><rect width="50" height="50"/></clipPath></defs><g clip-path="url(#_clipPath_rF4Ehs3bE4tNnTpejXDZCzHK225WGY9n)"><path d="M 1.792 18.62 L 33.798 18.62 C 34.759 18.62 35.54 19.401 35.54 20.363 L 35.54 29.537 C 35.54 30.499 34.759 31.28 33.798 31.28 L 1.792 31.28 C 0.831 31.28 0.05 30.499 0.05 29.537 L 0.05 20.363 C 0.05 19.401 0.831 18.62 1.792 18.62 Z" style="stroke:none;fill:#FFFFFF;stroke-miterlimit:10;"/><path d=" M 49.203 26.524 L 40.977 33.702 L 32.752 40.881 C 31.756 41.75 30.947 41.382 30.947 40.06 L 30.947 24.949 L 30.947 9.838 C 30.947 8.517 31.756 8.149 32.752 9.018 L 40.977 16.196 L 49.203 23.375 C 50.198 24.244 50.198 25.655 49.203 26.524 Z " fill="rgb(255,255,255)"/></g></svg>