<?xml version="1.0" encoding="UTF-8"?><svg id="Camada_1" xmlns="http://www.w3.org/2000/svg" viewBox="0 0 1870 1160"><defs><style>.cls-1{fill:#fff;stroke-width:0px;}</style></defs><path class="cls-1" d="M422.77,457.14c-12.61-12.29-21.02-28.74-24.17-46.81-.42-2.4-.74-4.85-.97-7.25v-8.18h-63.76v253.07c-.09,29.48-24.07,53.37-53.6,53.37-8.69,0-16.87-2.08-24.12-5.73-18.09-9.1-29.5-27.62-29.48-47.87,0-29.57,23.98-53.6,53.6-53.6,5.68,0,11.14.88,16.26,2.5v-64.78c-5.31-.74-10.72-1.11-16.08-1.11-64.78.14-117.22,52.58-117.22,117.22,0,40.57,20.61,76.29,51.94,97.31,19.28,12.96,42,19.87,65.24,19.82,64.73,0,117.18-52.44,117.18-117.13v-129.33c25.77,18.43,56.66,28.32,88.35,28.28v-63.35c-9.75,0-19.41-1.57-28.56-4.67-6.42-2.17-18.57-6.05-34.65-21.76h.05Z"/><path class="cls-1" d="M1360.98,753.37c60.71,0,109.94-48.82,109.94-109.04s-49.23-109.04-109.94-109.04h-1.5c-60.71,0-109.93,48.83-109.93,109.04s49.22,109.04,109.93,109.04h1.5ZM1306.77,644.33c0-29.29,23.95-53.02,53.47-53.02s53.45,23.73,53.45,53.02-23.94,53.03-53.45,53.03c-29.53,0-53.47-23.74-53.47-53.03Z"/><polygon class="cls-1" points="544.19 541.27 608.93 541.27 608.93 751.87 673.69 751.87 673.69 542.76 726.39 542.76 744.47 486 544.19 486 544.19 541.27"/><rect class="cls-1" x="756.52" y="571.14" width="63.23" height="180.73"/><path class="cls-1" d="M788.12,486c-17.46,0-31.6,14.05-31.6,31.36s14.14,31.36,31.6,31.37c17.49,0,31.63-14.05,31.63-31.37s-14.15-31.36-31.63-31.36Z"/><polygon class="cls-1" points="1070.03 541.27 1134.77 541.27 1134.77 751.87 1199.54 751.87 1199.54 542.76 1252.24 542.76 1270.3 486 1070.03 486 1070.03 541.27"/><polygon class="cls-1" points="1050.14 547.23 973.34 547.23 910.11 609.96 910.11 486 846.86 486 846.86 751.87 910.11 751.87 910.11 683.17 929.69 665.23 991.42 753.36 1059.18 753.36 970.33 624.91 1050.14 547.23"/><polygon class="cls-1" points="1617.92 624.91 1697.73 547.23 1620.94 547.23 1557.69 609.96 1557.69 486 1494.43 486 1494.43 751.87 1557.69 751.87 1557.69 683.17 1577.26 665.23 1639 753.36 1706.77 753.36 1617.92 624.91"/></svg>