<?xml version="1.0" encoding="UTF-8"?><svg  id="Camada_1" xmlns="http://www.w3.org/2000/svg" viewBox="0 0 500 500"><defs><style>.cls-1{stroke-width:px;}</style></defs><g id="Grupo_579"><g id="Grupo_275"><g id="Grupo_274"><path id="Caminho_1960" class="cls-1" d="M157.93,127.51c-33.89.02-61.36,27.49-61.38,61.38v107.42c.02,33.89,27.49,61.36,61.38,61.38h184.14c33.89-.02,61.37-27.48,61.39-61.38v-107.42c-.02-33.9-27.5-61.37-61.39-61.38h-184.14ZM157.93,142.87h184.14c25.27-.15,45.89,20.21,46.04,45.49,0,.18,0,.36,0,.55v107.42c.15,25.27-20.22,45.88-45.5,46.03-.18,0-.36,0-.55,0h-184.14c-25.28.15-45.89-20.22-46.04-45.5,0-.18,0-.35,0-.53v-107.42c-.15-25.27,20.22-45.88,45.5-46.03.18,0,.36,0,.54,0M214.87,188.9c-4,.31-7.09,3.66-7.07,7.67v92.07c-.01,3.97,3,7.29,6.95,7.67,1.53.17,3.08-.13,4.44-.84l84.4-46.04c3.74-1.99,5.16-6.64,3.16-10.38-.72-1.34-1.82-2.44-3.16-3.16l-84.4-46.04c-1.32-.73-2.82-1.06-4.32-.96M223.15,209.64l60.52,32.97-60.52,33.09v-66.05Z"/></g></g></g></svg>