<?xml version="1.0" encoding="UTF-8" standalone="no"?><!-- Generator: Gravit.io --><svg xmlns="http://www.w3.org/2000/svg" xmlns:xlink="http://www.w3.org/1999/xlink" style="isolation:isolate" viewBox="0 0 171.6 128.7" width="171.6pt" height="128.7pt"><defs><clipPath id="_clipPath_WtvqEEAxBPIUnoDM5SSUXPUeeZVAaPD9"><rect width="171.6" height="128.7"/></clipPath></defs><g clip-path="url(#_clipPath_WtvqEEAxBPIUnoDM5SSUXPUeeZVAaPD9)"><clipPath id="_clipPath_5y5AZdydvATAqHGwZgW64GYcLO4jqgTE"><rect x="-0.04" y="-0.03" width="171.64" height="128.73" transform="matrix(1,0,0,1,0,0)" fill="rgb(255,255,255)"/></clipPath><g clip-path="url(#_clipPath_5y5AZdydvATAqHGwZgW64GYcLO4jqgTE)"><g><g><path d=" M 34.28 -0.03 C 15.33 -0.02 -0.04 15.35 -0.05 34.3 L -0.05 94.37 C -0.05 113.32 15.32 128.69 34.28 128.7 L 137.26 128.7 C 156.22 128.7 171.58 113.33 171.59 94.37 L 171.59 34.3 C 171.58 15.34 156.21 -0.02 137.26 -0.03 L 34.28 -0.03 L 34.28 -0.03 Z  M 34.28 8.56 L 137.26 8.56 C 151.39 8.47 162.92 19.86 163.01 34 C 163.01 34.1 163.01 34.2 163.01 34.31 L 163.01 94.38 C 163.09 108.51 151.7 120.04 137.57 120.12 C 137.47 120.12 137.37 120.12 137.26 120.12 L 34.28 120.12 C 20.14 120.2 8.62 108.81 8.53 94.67 C 8.53 94.57 8.53 94.47 8.53 94.37 L 8.53 34.3 C 8.45 20.17 19.84 8.64 33.97 8.56 C 34.07 8.56 34.17 8.56 34.27 8.56 M 66.11 34.3 C 63.87 34.47 62.15 36.35 62.16 38.59 L 62.16 90.08 C 62.16 92.3 63.84 94.16 66.04 94.37 C 66.9 94.46 67.76 94.3 68.52 93.9 L 115.72 68.15 C 117.81 67.03 118.6 64.44 117.49 62.34 C 117.09 61.59 116.47 60.97 115.72 60.57 L 68.52 34.82 C 67.78 34.41 66.94 34.23 66.1 34.29 M 70.73 45.89 L 104.58 64.33 L 70.73 82.83 L 70.73 45.89 Z " fill="rgb(232,236,224)"/></g></g></g></g></svg>