<?xml version="1.0" encoding="UTF-8"?><svg id="Camada_1" xmlns="http://www.w3.org/2000/svg" viewBox="0 0 500 500"><defs><style>.cls-1{stroke-width:0px;}</style></defs><path id="Caminho_5214" class="cls-1" d="M250.02,349.27c-117.26,0-235.99-24.35-235.99-70.89,0-29.01,44.87-45.95,82.52-55.04,5.64-1.31,11.28,2.2,12.59,7.84,1.29,5.57-2.11,11.15-7.66,12.55-45.67,11.04-66.47,25.7-66.47,34.65,0,20.35,83.75,49.91,214.99,49.91,5.79-.13,10.59,4.45,10.73,10.24.13,5.79-4.45,10.59-10.24,10.73-.16,0-.32,0-.48,0h.02Z"/><path id="Caminho_5215" class="cls-1" d="M325.53,345.8c-5.79.01-10.5-4.68-10.51-10.47,0-5.43,4.12-9.96,9.52-10.46,95.81-9.12,140.45-33.13,140.45-46.48,0-8.96-20.8-23.62-66.47-34.65-5.65-1.28-9.19-6.9-7.91-12.55,1.28-5.65,6.9-9.19,12.55-7.91.1.02.2.05.29.07,37.65,9.1,82.52,26.04,82.52,55.04,0,48.42-122.03,63.81-159.44,67.36-.34.03-.68.05-1,.05Z"/><path id="Caminho_5216" class="cls-1" d="M223.49,375.87c-5.79,0-10.49-4.7-10.48-10.5,0-2.78,1.11-5.44,3.07-7.4l19.18-19.19-19.18-19.18c-4.1-4.1-4.1-10.74,0-14.83,4.1-4.1,10.74-4.1,14.83,0l26.61,26.6c4.1,4.09,4.1,10.73,0,14.83,0,0,0,0,0,0l-26.61,26.61c-1.97,1.97-4.64,3.07-7.42,3.07Z"/><path id="Caminho_5217" class="cls-1" d="M167.03,232.29h-11.97c-5.79.13-10.59-4.45-10.73-10.24-.13-5.79,4.45-10.59,10.24-10.73.16,0,.32,0,.48,0h11.97c5.94,0,10.75-4.81,10.75-10.75s-4.81-10.75-10.75-10.75h-21.23c-5.79-.13-10.38-4.94-10.24-10.73.13-5.6,4.64-10.12,10.24-10.24h21.23c17.52,0,31.72,14.2,31.72,31.72s-14.2,31.72-31.72,31.72h0Z"/><path id="Caminho_5218" class="cls-1" d="M167.03,274.76h-21.23c-5.79.13-10.59-4.45-10.73-10.24-.13-5.79,4.45-10.59,10.24-10.73.16,0,.32,0,.48,0h21.23c5.93,0,10.74-4.81,10.74-10.74s-4.81-10.74-10.74-10.74h-11.97c-5.79-.13-10.38-4.94-10.24-10.73.13-5.6,4.64-10.12,10.24-10.24h11.97c17.52.23,31.53,14.62,31.3,32.14-.23,17.19-14.11,31.07-31.3,31.3h0Z"/><path id="Caminho_5219" class="cls-1" d="M242.65,274.76c-17.52,0-31.72-14.2-31.72-31.72,0-17.52,14.2-31.72,31.72-31.72,17.52,0,31.72,14.2,31.72,31.72h0c-.02,17.51-14.21,31.7-31.72,31.72ZM242.65,232.29c-5.93,0-10.74,4.82-10.74,10.75,0,5.93,4.82,10.74,10.75,10.74,5.93,0,10.74-4.81,10.74-10.74,0-5.93-4.82-10.74-10.75-10.74Z"/><path id="Caminho_5220" class="cls-1" d="M223.96,243.43c-5.79,0-10.49-4.7-10.49-10.49,0-1.38.27-2.76.81-4.03l22.34-53.6c2.23-5.35,8.37-7.88,13.72-5.65,5.35,2.23,7.88,8.37,5.65,13.72l-22.34,53.6c-1.63,3.91-5.45,6.46-9.69,6.46Z"/><path id="Caminho_5221" class="cls-1" d="M318.09,274.76c-17.51-.02-31.7-14.21-31.72-31.72v-42.47c.02-17.52,14.23-31.71,31.75-31.69,17.5.02,31.68,14.2,31.69,31.69v42.47c-.02,17.51-14.21,31.7-31.72,31.72ZM318.09,189.81c-5.93,0-10.74,4.81-10.75,10.74v42.49c0,5.94,4.81,10.75,10.75,10.75s10.75-4.81,10.75-10.75h0v-42.47c0-5.93-4.81-10.74-10.74-10.74v-.02Z"/><path id="Caminho_5222" class="cls-1" d="M377.63,159.81h0c6.94,0,12.57,5.62,12.57,12.56h0v9.77c0,6.94-5.62,12.57-12.56,12.57h-.01c-6.94,0-12.57-5.62-12.57-12.56h0v-9.78c0-6.94,5.63-12.56,12.57-12.57Z"/></svg>