<?xml version="1.0" encoding="UTF-8"?><svg id="Camada_1" xmlns="http://www.w3.org/2000/svg" xmlns:xlink="http://www.w3.org/1999/xlink" viewBox="0 0 1870 1160"><defs><style>.cls-1{fill:none;}.cls-1,.cls-2{stroke-width:0px;}.cls-2{fill:#fff;}.cls-3{clip-path:url(#clippath);}</style><clipPath id="clippath"><rect class="cls-1" x="141.06" y="152.39" width="1587.88" height="855.22"/></clipPath></defs><g id="Grupo_758"><path id="Caminho_5023" class="cls-2" d="M836.79,232.32l72.72,136.06-16.77,31.14-89.23-167.2h33.28Z"/><path id="Caminho_5024" class="cls-2" d="M963.93,371.51l-15.17,28h-33.01l89.18-167.2,59.56,111.61h-33.36l-26.2-49.12-26.33,49.11-14.67,27.6ZM1094.2,399.51h-33.23l-14.67-27.79h33.01l14.89,27.79Z"/><g id="Grupo_757"><g class="cls-3"><g id="Grupo_756"><path id="Caminho_5025" class="cls-2" d="M1476.55,256.98c32.55,28.8,35.59,78.54,6.79,111.09-2.12,2.4-4.39,4.66-6.79,6.79-35.49,32.85-90.28,32.85-125.77,0-32.55-29.17-35.29-79.2-6.12-111.75,1.93-2.15,3.97-4.2,6.12-6.12,35.49-32.85,90.28-32.85,125.77,0M1371.49,276.62c-21.76,20.21-23.02,54.23-2.81,75.98.9.97,1.84,1.91,2.81,2.81,23.93,21.45,60.17,21.45,84.1,0,21.76-19.83,23.32-53.54,3.49-75.3-1.11-1.22-2.27-2.38-3.49-3.49-23.82-21.73-60.28-21.73-84.1,0"/><path id="Caminho_5026" class="cls-2" d="M1551.12,319.02c-12.47-4.87-22.37-14.68-27.34-27.1-5.01-12.09-4.52-25.77,1.35-37.47,5.77-12.04,16.18-21.22,28.84-25.43,12.91-4.92,27.23-4.56,39.88,1l-12.26,25.54c-2.71-1.2-5.61-1.89-8.57-2.01-2.97-.15-5.95.31-8.73,1.36-2.65.96-5.09,2.42-7.2,4.3-2.06,1.86-3.73,4.12-4.89,6.64-2.55,4.95-2.85,10.75-.81,15.93,2.11,5.47,6.44,9.79,11.91,11.9l40.49,17.06c12.47,4.87,22.37,14.68,27.34,27.1,5.17,12,4.79,25.67-1.05,37.36-5.8,12.15-16.33,21.38-29.14,25.53-12.93,4.77-27.2,4.35-39.83-1.18l12.26-25.54c2.71,1.2,5.62,1.88,8.57,2,2.93.18,5.86-.21,8.64-1.17,2.68-.91,5.13-2.37,7.2-4.3,2.19-1.87,3.97-4.17,5.24-6.75,2.35-5.02,2.46-10.8.3-15.91-2.08-5.4-6.32-9.68-11.7-11.8l-40.51-17.06Z"/><path id="Caminho_5027" class="cls-2" d="M1206.16,314.83l-89.45-83.59v167.22h29.91v-100.16l59.55,56.06,59.74-55.8v99.9h29.44v-167.2l-89.19,83.57Z"/><path id="Caminho_5028" class="cls-2" d="M1598.65,564.26l-15.13,28h-33.01l89.23-167.2,59.56,111.61h-33.46l-26.1-49.11-26.33,49.11-14.76,27.58ZM1728.93,592.26h-33.26l-14.67-27.79h33.01l14.92,27.79Z"/><path id="Caminho_5029" class="cls-2" d="M1204.79,482.64c.04-6.48-1.33-12.9-4.01-18.8-2.62-5.86-6.42-11.13-11.15-15.47-4.85-4.6-10.55-8.21-16.77-10.66-6.4-2.49-13.21-3.77-20.08-3.76h-97.93v133.91h29.91v-36.26h68.02c3.05.03,6.07.59,8.92,1.67,2.58,1.08,4.93,2.64,6.92,4.6,1.99,1.89,3.59,4.17,4.68,6.69,2.38,5.03,2.38,10.86,0,15.89-1.1,2.52-2.69,4.79-4.68,6.69-2.05,2.09-4.57,3.66-7.34,4.6-2.71,1.01-5.59,1.51-8.48,1.47h-66.92v28h66.92c6.87.05,13.69-1.23,20.08-3.76,6.22-2.44,11.92-6.06,16.77-10.66,4.74-4.34,8.53-9.6,11.15-15.47,8.24-18.52,3.54-40.24-11.6-53.71,10.06-8.79,15.77-21.54,15.62-34.9M1173.37,490.84c-1.1,2.52-2.69,4.79-4.68,6.69-2.05,2.08-4.57,3.65-7.34,4.59-2.67,1.18-5.56,1.75-8.48,1.68h-68.02v-42.83l1.1,1.05h66.92c2.89-.04,5.77.45,8.48,1.47,2.77.94,5.28,2.51,7.34,4.59,1.99,1.89,3.58,4.17,4.68,6.69,1.14,2.49,1.75,5.2,1.78,7.94-.01,2.81-.62,5.59-1.78,8.15"/><path id="Caminho_5030" class="cls-2" d="M1004.54,532.65c-.37,10.82-5.19,21-13.32,28.15-17.83,16.44-45.29,16.44-63.12,0-8.25-7.47-12.89-18.13-12.71-29.26v-97.64h-29.67v97.6c-.2,18.78,7.68,36.75,21.63,49.32,29.81,27.02,75.25,27.02,105.06,0,13.83-12.21,21.77-29.76,21.81-48.21h0v-99.7h-29.9"/><rect id="Retângulo_518" class="cls-2" x="1253.19" y="432.95" width="29.91" height="161.42"/><path id="Caminho_5031" class="cls-2" d="M1452.86,515.09c6.95-9.04,10.65-20.16,10.48-31.56.09-14.98-6.24-29.29-17.4-39.29-11.29-10.73-26.35-16.59-41.92-16.31h-83.28v161.4h29.86v-133.39h53.45c7.72-.12,15.18,2.81,20.75,8.15,5.72,4.83,8.99,11.96,8.92,19.44.11,7.61-3.16,14.88-8.92,19.85-5.58,5.34-13.03,8.27-20.75,8.15l-26.55-.21,51.75,83.84h34.12l-36.59-59.98c10.48-3.97,19.56-10.95,26.1-20.06"/><path id="Caminho_5032" class="cls-2" d="M779.75,523.75c-12.47-4.4-22.58-13.74-27.94-25.82-5.37-11.73-5.37-25.22,0-36.95,5.24-12.04,15.16-21.42,27.48-25.98,12.56-5.26,26.68-5.37,39.32-.3l-11.14,25.56c-2.71-1.1-5.6-1.67-8.52-1.7-2.93-.06-5.85.5-8.55,1.62-2.57,1.04-4.92,2.55-6.93,4.46-1.97,1.9-3.53,4.18-4.59,6.71-2.33,4.97-2.4,10.7-.2,15.72,2.29,5.32,6.7,9.43,12.17,11.33l40.51,15.5c12.47,4.4,22.58,13.74,27.94,25.82,5.53,11.64,5.65,25.12.32,36.85-5.26,12.15-15.31,21.6-27.76,26.1-12.57,5.11-26.64,5.15-39.24.12l11.14-25.55c2.71,1.1,5.6,1.67,8.52,1.7,2.89.09,5.77-.4,8.47-1.44,2.6-.98,4.97-2.5,6.94-4.46,2.07-1.92,3.73-4.23,4.87-6.81,2.14-5.04,2.04-10.76-.28-15.72-2.24-5.25-6.58-9.33-11.96-11.25l-40.57-15.5Z"/><path id="Caminho_5033" class="cls-2" d="M1515.94,807.18l-15.17,28h-33.01l89.23-167.21,59.56,111.61h-33.46l-26.1-49.11-26.33,49.11-14.73,27.6ZM1646.21,835.18h-33.23l-14.67-27.79h33.01l14.89,27.79Z"/><path id="Caminho_5034" class="cls-2" d="M873.63,750.36c-13.98-4.41-25.53-14.35-31.98-27.51-6.45-12.74-7.04-27.66-1.61-40.87,5.28-13.51,15.86-24.26,29.28-29.74,13.69-6.29,29.3-6.94,43.46-1.8l-11.24,28.66c-3.04-1.11-6.25-1.64-9.48-1.56-3.26.03-6.47.75-9.43,2.1-2.8,1.25-5.34,3.03-7.47,5.24-2.09,2.18-3.72,4.76-4.78,7.59-2.36,5.59-2.2,11.93.44,17.39,2.76,5.79,7.8,10.17,13.93,12.07l45.44,15.64c13.98,4.41,25.53,14.35,31.98,27.51,6.61,12.63,7.32,27.52,1.93,40.72-5.3,13.63-16.01,24.45-29.59,29.88-13.71,6.12-29.26,6.69-43.38,1.59l11.24-28.66c3.04,1.11,6.26,1.65,9.5,1.57,3.19,0,6.35-.65,9.3-1.9,2.84-1.19,5.38-2.98,7.47-5.24,2.21-2.2,3.94-4.82,5.09-7.71,2.14-5.66,1.79-11.96-.99-17.34-2.7-5.73-7.66-10.08-13.7-12l-45.41-15.62Z"/><path id="Caminho_5035" class="cls-2" d="M1306.17,742.8c7.58-9.85,11.61-21.98,11.43-34.41.1-16.34-6.81-31.94-18.97-42.84-12.31-11.72-28.74-18.12-45.73-17.82h-85.39l.23.38h-.23v186.96h29.91v-156.77h55.47c8.42-.13,16.55,3.06,22.63,8.89,6.23,5.27,9.79,13.04,9.73,21.2.12,8.3-3.44,16.23-9.73,21.65-6.08,5.83-14.21,9.02-22.63,8.89l-28.95-.23,56.44,91.39h37.22l-39.89-65.41c11.44-4.33,21.34-11.95,28.47-21.88"/><path id="Caminho_5036" class="cls-2" d="M1442.16,742.8c7.58-9.85,11.61-21.98,11.43-34.41.1-16.34-6.81-31.94-18.97-42.84-12.31-11.72-28.74-18.12-45.73-17.82h-85.4l16.77,27.12,3.65,3.42h64.98c8.42-.13,16.55,3.06,22.63,8.89,6.23,5.27,9.79,13.04,9.73,21.2.12,8.3-3.44,16.23-9.73,21.65-6.08,5.83-14.21,9.02-22.63,8.89l-28.95-.23,56.43,91.39h37.22l-39.89-65.41c11.44-4.33,21.34-11.95,28.47-21.88"/><path id="Caminho_5037" class="cls-2" d="M1049.1,683.27h97.31v-30.54h-144.63v182.36h144.63v-30.54h-97.31l-17.41,15.08v-60.43h114.72v-30.31h-114.72v-62.01l17.41,16.39Z"/><path id="Caminho_5038" class="cls-2" d="M374.41,843.76c-.16-.17-.4-.24-.63-.18-.25-.01-.5.05-.72.18-.31.44-.47.97-.45,1.51l-5.04,48.33c-.12.53.02,1.09.37,1.51.36.47.69.53.99.18,2.97-17.03,4.8-34.25,5.49-51.52M537.09,882.75c.3.36.63.71.99,1.05.7.66,1.68.93,2.61.71-1.27-.42-2.48-1.02-3.59-1.78M566.16,886.82c.05.04.09.11.09.18.36-.71.84-1.34,1.44-1.87-1.99-2.39-4.5-4.31-7.34-5.6l5.75,7.34M317.91,666.35c.24-.36.51-.8.81-1.33-.33.06-.66.09-1,.09-1.62.17-3.06.29-4.32.36.16.82.4,1.63.72,2.4,1.46.41,3.01-.21,3.78-1.51M325.92,625.85c.47.05.94-.05,1.35-.26.42-.36.57-.68.45-.97-.55.48-1.16.9-1.8,1.25M246.64,499.6c-.42-1.46-1.43-2.68-2.79-3.37-2.34-1.31-5.76-.54-10.26,2.31l-25.2,16.49c-1.82,1.1-3.46,2.48-4.86,4.09-.84,1.36-1.5,2.37-1.98,3.02-1.09,1.03-2.01,2.23-2.7,3.55-.78,1.56-.68,3.42.27,4.88.77,1.53,2.26,2.57,3.96,2.76-.48.41-1.29,1.03-2.43,1.87-.82.6-1.6,1.26-2.34,1.96-.78.7-1.36,1.59-1.71,2.58-.31.97-.21,2.03.27,2.93.83,1.5,2.5,2.31,4.19,2.04,1.7-.28,3.35-.85,4.86-1.69,9.19-5.16,17.65-11.52,25.15-18.92,2.58-2.66,6.24-6.78,10.97-12.35,1.4-1.66,2.33-2.85,2.79-3.55.81-1.27,1.44-2.65,1.89-4.09.42-1.49.39-3.06-.09-4.53M148.92,370.8c-.68-.03-1.36.09-1.98.36-.64.15-1.15.63-1.35,1.25.03.54.25,1.04.63,1.43.36.45.82.81,1.35,1.05,2.22,1.03,4.59,1.69,7.02,1.95,1.4.17,3.35.29,5.85.36-.18.48-.28.99-.27,1.51-.07,0-.13.03-.18.08-.79.04-1.57.16-2.34.36-1.02.36-1.56.8-1.62,1.33v.41c-.12.05-.21.15-.27.26-.64.87-1.07,1.87-1.26,2.93-2.52-.12-4.01.5-4.5,1.87-.35,1.01-.06,2.12.72,2.84.73.84,1.71,1.43,2.79,1.69.12.06,1.17.24,3.14.53,1.05.15,2.05.51,2.97,1.05-.1.74.09,1.49.53,2.1.39.56.87,1.04,1.44,1.41-.22.07-.43.16-.63.26-.79.33-1.36,1.03-1.53,1.87-.15,1.06.44,2.09,1.44,2.48,1.04.51,2.18.78,3.33.8,8.08.18,16.16-.48,24.11-1.96,15.45-2.38,30.7-5.91,45.62-10.57-.66-.36-1.41-.54-2.16-.53-.72.02-1.44.08-2.16.18-3,.36-5.94.68-8.81.97.3-.55.3-1.22,0-1.77-.42-.12-3.63-1.3-9.63-3.55,2.79-1.48,4.42-2.31,4.86-2.48-.03-.97-.38-1.91-1-2.66-.56-.73-1.3-1.28-2.16-1.6-.86-.52-1.8-.88-2.79-1.05-.12,0-.25-.04-.36-.09,1.11-.53,1.91-1.55,2.16-2.76-.52-.8-1.33-1.38-2.25-1.6-.95-.2-1.91-.29-2.88-.26l-57.83-.41M225.96,239.59c-1.16-.18-2.34-.21-3.51-.09-1.18.09-2.31.52-3.24,1.25-.89.64-1.5,1.59-1.71,2.66-.41,1.07-.2,2.27.53,3.14.75.9,1.81,1.5,2.97,1.69,1.92.59,3.12.98,3.59,1.15.23.22.44.46.63.71-1.32-.41-3.24-.94-5.75-1.59-1.14-.29-1.87-.47-2.16-.53-.7-.06-1.4-.06-2.1,0-.28.05-.55.15-.79.31h-.08c-.33-.55-.75-1.03-1.26-1.41-.63-.45-1.38-.7-2.16-.71-.81-.05-1.63-.02-2.43.09-1.07.1-2.11.4-3.06.89-.97.29-1.72,1.06-1.98,2.04-.16.91.07,1.85.63,2.58.6.77,1.31,1.46,2.1,2.04,1.08.89,2.19,1.77,3.33,2.66-.76.04-1.46.42-1.89,1.05-.37.62-.4,1.39-.09,2.04.31.71.85,1.31,1.53,1.69.67.38,1.4.62,2.16.71.71.16,1.43.24,2.16.26,2.44.43,4.82,1.13,7.11,2.1.56.2,1.1.44,1.62.71,3.49,2.19,7.03,4.29,10.62,6.29,4.05,2.31,8.33,4.18,12.78,5.6,2.99.97,6.12,1.48,9.26,1.51,1.98.59,4.02,1.16,6.12,1.69,1.02.28,2.08.4,3.14.36.55-.02,1.09-.21,1.53-.53h.18c.66.53,1.38,1.12,2.16,1.78,1.6,1.16,3.32,2.14,5.13,2.93,1.85.75,3.86,1.06,5.85.89,1.94-.04,3.81-.78,5.24-2.1-1.46-3.78-4.89-6.44-8.91-6.93.68-3.64-.31-7.39-2.7-10.22-1.07-.92-2.33-1.59-3.69-1.95l-4.08-.87c-3.69-1.05-7.14-2.8-10.17-5.16-1.74-1.31-4.74-3.83-9-7.56-2.85-2.61-5.9-4.98-9.13-7.1-3.16-2.11-6.73-3.5-10.48-4.09M581.01,530.52c-1.49-.7-3.12-1.06-4.77-1.05-23.57-.78-50.03-.86-79.36-.26-18.59.36-45.05,1.24-79.36,2.66-36.47,1.48-62.93,2.4-79.37,2.76-29.51.77-55.97.86-79.36.26-.84-.01-1.68.02-2.52.09-.81.19-1.55.58-2.16,1.15-.53.52-.86,1.22-.9,1.96,0,.76.15,1.52.45,2.22.95,2.11,2.8,3.68,5.04,4.27l.53.18-.18.36c-.06.83-.06,1.66,0,2.48v.26c-.19-.31-.48-.56-.81-.71-.41-.35-1.02-.35-1.44,0-.38.2-.64.56-.72.97-.14.43-.2.88-.18,1.33,0,.07.04.13.09.18-.04.05-.11.09-.18.09-.38.32-.63.76-.72,1.25-.06.38-.06.77,0,1.15h-1.17c.12-2.37.18-4.41.18-6.13.18-1.31-.2-2.64-1.05-3.65-.68-.48-1.55-.61-2.34-.36-.89.17-1.66.72-2.1,1.51-.42.75-.72,1.56-.9,2.4-.42-.17-.87-.35-1.35-.53v.44c-.34,0-.67.07-.99.18-.03-.96-.15-1.91-.36-2.84-.09-.49-.35-.93-.72-1.25-.6-.51-1.4-.7-2.16-.53-.77.17-1.52.41-2.24.71-.52-.78-.75-1.73-.63-2.66.05-.89-.2-1.77-.72-2.48-.5-.36-1.15-.43-1.71-.18-.6.1-1.13.45-1.47.95-.38.46-.63,1.01-.72,1.6-.06.41-.12,1.01-.18,1.78-.26-.54-.76-.93-1.35-1.05-.63-.18-1.3-.11-1.89.18-.55.24-1.1.5-1.62.8-.55.35-1.16.59-1.8.71h-1.51c-.47,0-.93.2-1.26.53-.41.56-.6,1.26-.54,1.95-.18,13.56-.27,22.3-.27,26.2,0,9.83.15,18.56.45,26.2,0,.36,0,.89.09,1.6v15.31l-.54,1.6v72.7c.18.47.36.97.54,1.51v30.65c.18.59.36,1.16.53,1.69v17.76l.53,1.6v11.28h1.62v3.81c.18.53.36,1.05.53,1.51v4.88l.53,1.6,3.24.53.53-1.05.53-1.6v-4.88l.53-1.6v-18.48l.54-.36,1.05-1.6c.18-.48.36-1.01.53-1.6.18-.53.33-1.06.45-1.6v-1.59l.63-.63v-1.51c.18-.53.36-1.09.53-1.69v-6.49c.18-.48.36-.98.53-1.51v-48.42l.18.89c.12.65.24,1.18.36,1.6v27.63c.18.48.36,1.01.53,1.6v16.17c.18.48.36.98.54,1.51v8.08c-.18.53-.37,1.05-.54,1.69l.54,1.6h.62v47.25c.18.53.36,1.05.53,1.69l.53,1.6,2.7-.53.53-1.6v-1.69c.18-.53.36-1.05.53-1.51v-100.36c.61-.24,1.16-.59,1.62-1.05,1.81-1.94,2.72-4.55,2.52-7.19h1.44c.18-.41.33-.8.45-1.15.11-.4.27-.78.45-1.15v-1.29c.07-.4.19-.78.36-1.15v-3.55l.36-1.25v-.26c0-.07.04-.14.09-.18.11-.17.2-.35.27-.53v49.66c.18.59.36,1.16.53,1.69v9.68c.31,1.07.64,2.14,1,3.2h2.24c.19-.55.34-1.12.45-1.69.36-.53.75-1.03,1.17-1.51v-9.68c.18-.53.36-1.09.53-1.69v-15.97c0-.1.03-.19.09-.26.12-.36.24-.74.36-1.15v-11.82l-.36-1.25v-16.35c.88-2.67,1.58-5.41,2.1-8.17-.12,1.24-.24,2.55-.36,3.91-.4,5.01-.19,10.05.63,15.01h.18v7.11c.25.49.46.99.63,1.51v3.29c.35,1.07.7,2.13,1.05,3.2h2.1c.42-.53.81-1.05,1.17-1.6.12-.55.3-1.08.53-1.59v-3.29c.18-.53.34-1.05.45-1.51v-15.09c.08.21.17.42.27.62.24.36.51.74.81,1.15.62-.18,1.25-.33,1.89-.44.3-.36.57-.74.81-1.15.18-.41.33-.82.45-1.25v-2.31l.37-1.25v-3.49c.12.42.24.8.36,1.15h1.61c.18-.36.3-.75.36-1.15.18-.48.33-.89.45-1.25.12-.42.24-.8.36-1.15.16-.37.28-.76.36-1.15v-3.55c.18-.41.33-.82.45-1.25v-42.7c-.12-.36-.28-.71-.45-1.05v-20.22l60.28.36,62.18.36h50.47v.44h-17.62v.36h-3.87c-.53.24-1.05.5-1.62.8-.23.41-.5.79-.81,1.15v1.25c.42.41.81.83,1.17,1.25h-22.14c.06-2.79-.66-4.45-2.16-4.98-1.55-.14-3.08.42-4.19,1.51l-4.41,3.46h-112.51v.26h-1.05l-.9.44c-.24.3-.51.56-.81.8v2.4c.42.35.81.74,1.17,1.15,35.75.06,71.51.14,107.26.26l-4.05,3.02c-3.5,2.63-6.75,5.57-9.72,8.79-2.97,3.08-4.95,6.98-5.67,11.19v2.04c-.24.36-.48.74-.72,1.15-4.02,7.11-6.12,10.78-6.29,11.02-.24.36-.48.74-.72,1.15-3.21.76-6.18,2.32-8.64,4.53-4.31,3.97-8.01,8.56-10.97,13.62-3.36,5.39-11.7,18.98-25.02,40.77-.3.42-.57.8-.81,1.15-.66,1.07-1.5,2.49-2.52,4.27-4.56,7.34-9.62,15.57-15.21,24.69-7.2,9.42-13.89,18.42-20.07,27.01-1.83,2.37-2.98,5.2-3.33,8.17-.12.77-.09,1.55.09,2.31-20.7,29.79-41.48,61.23-62.36,94.33-5.76,9.18-11.64,18.69-17.64,28.52-1.2,1.89-2.43,3.79-3.69,5.68-3.36,5.2-6.79,10.54-10.28,16.04-4.98,7.69-11.01,17.12-18.09,28.3h3.33c-.97,1.18-2.13,2.2-3.42,3.02-2.88,1.96-4.32,2.96-4.32,3.02-2.11,1.84-3.95,3.95-5.49,6.29-1.53,2.36-3.21,4.62-5.04,6.75-.76.66-1.48,1.36-2.16,2.1-.7.73-1.18,1.66-1.35,2.66-.34,1.44.15,2.94,1.26,3.91,1.06,1.06,2.57,1.53,4.05,1.25-.06.12-.81,1.33-2.25,3.65-.84,1.02-1.22,2.33-1.05,3.64.22.84.73,1.58,1.44,2.1.75.48,1.62.73,2.52.71,1.72-.04,3.37-.67,4.68-1.78,2.11-1.97,3.98-4.17,5.58-6.57,1.59-2.41,3.56-4.53,5.85-6.29,1.51,1.17,3.41,1.71,5.31,1.51l9.99-11.63c.87-1.3,2.13-2.3,3.59-2.84,1.09-.42,2.25-.6,3.42-.53,2.3-.82,4.33-2.27,5.85-4.19,1.68-1.89,3.54-4.14,5.58-6.75h.23c-.7,1.6-1.3,3.08-1.8,4.44-1.53,4.18-2.32,8.6-2.34,13.06-.1,1.49.46,2.95,1.53,3.99,1.18.7,2.67.55,3.69-.36.9-.63,1.62-1.49,2.1-2.48l2.52.36c1.77-3.19,3.82-6.22,6.12-9.06,2.33-2.77,4.41-5.74,6.2-8.89.62-1.24,1.16-2.52,1.62-3.83l1.26.18,6.12-8.79c-1.08-.82-1.19-2.48-.36-4.98l1.44-3.73c1.86-2.13,3.72-4.32,5.58-6.57.07.31.22.58.45.8.15.26.33.5.53.71-1.14,2.66-2.22,5.27-3.24,7.82-.54,1.4-.9,2.86-1.05,4.35-4.62,7.46-8.4,13.8-11.34,19.01-1.41,1.74-1.88,4.06-1.26,6.22.31.93.99,1.69,1.89,2.1-.34,1.03-.46,2.12-.36,3.2.19,1.63.99,3.13,2.24,4.19,1.1,1.1,2.71,1.5,4.19,1.05,1.81-.65,3.23-2.09,3.87-3.91,1.38-2.78,2.23-5.79,2.52-8.88l-1.61.97c1.42-1.52,2.71-3.15,3.87-4.88,5.04-7.29,9.72-14.54,14.03-21.77,0,.06.06.15.18.26-1.08,2-2.01,4.08-2.79,6.22-1.1,2.65-1.53,5.53-1.26,8.38l4.19-.18,3.96-8c.61.39,1.28.69,1.98.89,1.48.51,3.11,0,4.05-1.25.72-.96.79-2.26.18-3.29-.48-1.12-1.57-1.85-2.79-1.87.3-.95.63-1.9,1-2.84.3-.42.57-.87.81-1.33-.05-.15-.11-.3-.18-.44.06-.3.16-.6.27-.89,2.21-4.62,4.43-9.27,6.66-13.95-.17.91-.29,1.83-.36,2.76,2.88,0,5.43-2.52,7.65-7.56,2.7-5.98,5.43-11.96,8.19-17.94-.84,2.1-1.74,4.14-2.7,6.13-.39.62-.55,1.37-.45,2.1.18.59.66,1.03,1.26,1.15.64.19,1.32.09,1.89-.26.54-.27,1-.67,1.35-1.15-.48.83-.93,1.66-1.35,2.48-3.49,6.75-5.89,11.84-7.2,15.28-2.04,5.14-3.02,10.64-2.88,16.17l4.95.53c.5-4.99,1.74-9.87,3.69-14.48,1.14-2.84,3.33-7.46,6.57-13.86,7.14-14.09,14.34-29.79,21.6-47.08-1.14,2.9-2.16,5.74-3.06,8.53-.84,2.4-1.26,4.92-1.26,7.46-.09,2.43,1.06,4.74,3.06,6.13,1.33-2.61,2.47-5.31,3.42-8.08,3.12-8.17,7.08-17.74,11.89-28.7-4.44,14.67-8.91,29.12-13.4,43.35-6.82,12.59-14.48,24.69-22.94,36.24-.99,1.28-1.67,2.77-1.98,4.36-.36,1.77.09,2.96,1.35,3.55,1.86.95,3.84-.12,5.94-3.2,3.06-4.44,6.09-9.09,9.09-13.95-.47,1.46-.87,2.94-1.17,4.44-.53,2.18-.65,4.44-.37,6.67l3.33.71c4.98-14.27,9.36-26.89,13.13-37.85,6.06-11.26,12-23.28,17.82-36.06,2.94-6.34,6.24-13.83,9.9-22.47-1.06,3.91-2.01,7.44-2.84,10.59-5.88,21.5-10.83,40.92-14.85,58.27-1.35,3.48-1.09,7.39.72,10.66,1.78-2.86,3.25-5.9,4.41-9.07.84-2.31,1.83-5.57,2.97-9.77l6.22-22.12c-.36,2.01-.63,3.85-.81,5.51l.9.09c-.06.89-.12,1.8-.18,2.76.42-.82.87-1.65,1.35-2.48l.53.08c.36-1.12.68-2.19.99-3.2,2.04-4.64,3.84-9.38,5.4-14.21,1.62-5.16,3.45-12.08,5.49-20.78,1.2-5.27,3.03-13.59,5.49-24.96,5.52-20.55,10.98-41.07,16.38-61.56l8.46-21.67c-.06.53-.13,1.05-.18,1.59l-36.89,148.53c-1.35,5.86-3.13,11.62-5.31,17.23-.8,1.72-1.46,3.51-1.98,5.33-.57,1.73-.43,3.61.37,5.24,3.18-3.32,5.71-7.21,7.46-11.46,1.73-4.25,3.18-8.61,4.32-13.06,1.26-4.86,3.87-15.25,7.83-31.18,1.5-6.1,3-12.26,4.5-18.48,2.7-10.01,5.14-19.06,7.34-27.18.9-3.37,1.77-6.72,2.61-10.04-.96,5.86-1.71,10.33-2.25,13.42-2.1,11.37-5.54,28.37-10.34,50.99-3.53,16.97-5.63,34.2-6.29,51.52,1.74.29,2.76.44,3.06.44,1.72-6.19,2.89-12.52,3.51-18.92.84-8.59,1.54-15.04,2.1-19.37.66-5.21,1.7-11.25,3.14-18.12l4.05-18.04c.06-.45.15-.89.27-1.33-.3,2.72-.6,5.54-.9,8.44-1.5,13.21-2.49,23.36-2.97,30.47-.77,10.17-.89,20.38-.36,30.56l4.67.53c5.52-60.7,11.81-121.41,18.87-182.11.9-4.26,1.62-7.46,2.16-9.59.96-4.19,2.01-8.19,3.14-11.99l-.36,13.32c-.78,9.78-1.53,19.82-2.25,30.11l-.36,2.66-4.5,39c-.59,2.59-.22,5.31,1.05,7.64l4.14-.36c-.7,30.5-1,54.87-.9,73.11h5.13c1.2-39.44,1.9-79.12,2.1-119.04.24-1.66.45-3.28.63-4.88.24,4.56.54,9.18.9,13.86,1.4,19.01,3.8,42.67,7.2,70.97,1.74,15.87,4.29,36.28,7.65,61.21.59-1.14.94-2.37,1.05-3.65.06-.7.09-2,.09-3.91-.6-17.65-2.94-48.5-7.02-92.56.3,2.19.63,4.42.99,6.67,1.86,11.79,4.56,28.21,8.1,49.26l.36.09.18,1.6,2.61-.53v-.62h.36c.46-3.34.34-6.74-.36-10.04-.06-.78-.18-1.55-.36-2.31-.36-9.36-.9-19.19-1.62-29.49.36,2.31.75,4.65,1.17,7.02l10.48,59.34c.63-1.39.84-2.93.63-4.44-.69-17.52-2.52-34.98-5.48-52.27l-8.38-46.2c-.54-9.95-1.29-23.07-2.25-39.35l-.63-9.59,4.19,14.21c1.02,9.59,1.74,15.93,2.16,19.01,2.28,16.7,6.42,39.47,12.42,68.31l12.15,59.74c.3.36.6.29.9-.18.4-.39.56-.96.45-1.51-2.88-25.11-5.61-44.15-8.19-57.12-.9-4.32-2.52-11.61-4.86-21.85-2.34-11.31-4.56-23.99-6.66-38.02,11.34,38.08,20.28,67.01,26.81,86.79.39.35.93.48,1.44.36.52-.16.95-.55,1.17-1.05.18-1.06.15-2.15-.09-3.2-5.82-20.49-13.86-49.22-24.11-86.17,8.52,25.11,17.58,50.67,27.18,76.67.96-.7,1.08-2.18.36-4.44-6.29-22.03-16.16-53.8-29.61-95.32.14.29.26.59.36.89l5.94,12.58c1.26,3.02,2.55,6.07,3.87,9.15,19.56,46.43,35.94,83.09,49.12,109.97.46,1.1,1.29,2.01,2.34,2.58,1.14.65,1.98.53,2.52-.36l-34.73-80.84c.53,0,1.04-.19,1.44-.53.84-.65.99-1.72.45-3.2,1.26,1.6,2.46,3.2,3.59,4.8,5.46,10.84,8.85,17.71,10.17,20.6.7,1.66,1.78,4.11,3.24,7.34,1.32,3.02,2.46,5.51,3.42,7.46,2.52,4.89,5.55,10.25,9.09,16.08l31.44,52.85c.6-.94.45-2.31-.45-4.09-1.84-3.75-3.94-7.38-6.29-10.84-3.36-5.28-5.52-8.8-6.48-10.57-1.5-2.61-3.75-7.02-6.75-13.24-2.79-5.69-5.08-10.04-6.84-13.06-.78-1.31-2.25-3.59-4.41-6.84.26-.47.41-.98.45-1.51.17-1.34-.05-2.69-.63-3.91-1.68-3.68-3.33-7.35-4.95-11.02l22.46,31.54c3.12,4.38,5.73,8.02,7.83,10.93.37-.84,1.04-1.51,1.89-1.87.98-.37,2.04-.46,3.06-.26-13.49-21.62-29.91-47.44-49.26-77.46-.84-1.54-1.65-3.08-2.43-4.62l-4.68-9.43c.19.19.37.4.53.62.31.48.58.99.81,1.51.1,0,.19-.04.27-.08,6.18,9.66,12.17,18.71,18,27.18,1.02,1.48,2.23,2.82,3.59,3.99,2.58,3.85,4.5,6.66,5.75,8.44.73,1.31,1.79,2.41,3.06,3.2.87.67,2,.9,3.06.62l2.16,2.93c.96,1.31,1.95,2.67,2.97,4.09l3.59,4.88c4.89,6.69,9.84,13.39,14.85,20.08-.12-1.36-.18-2.69-.18-3.99-.01-.13.02-.25.09-.36l-1.71-1.87c-1.32-1.48-2.58-2.93-3.78-4.35.89.24,1.83.2,2.7-.09-2.63-4.49-5.58-8.8-8.81-12.88-1.92-2.55-3.78-5.04-5.58-7.46,3.24,3.85,6.51,7.67,9.81,11.46,5.34,6.22,9.06,10.66,11.16,13.33,3.67,4.5,6.98,9.28,9.9,14.31.93,1.77,2.05,3.44,3.33,4.98,1.11,1.44,2.71,2.42,4.5,2.76.18-.31.34-.63.45-.97,1.8,2.66,3.56,5.27,5.3,7.82.9,1.2,1.89,2.33,2.97,3.37,1,.98,2.39,1.47,3.78,1.33-6.22-11.58-13.38-22.64-21.41-33.05.27-1.74-.05-3.52-.9-5.06-.71-1.41-1.56-2.74-2.52-3.99,2.7,3.37,5.55,6.84,8.55,10.4l17.46,20.96,2.97-.63c-.57-1.65-1.27-3.26-2.1-4.8l.09.09c2.54,3.13,5.24,6.13,8.1,8.97,1.26,1.19,3.21,2.91,5.85,5.16,3.07,2.74,5.99,5.64,8.73,8.71,1.44,1.66,3.51,4.23,6.2,7.72,2.04,2.6,4.27,5.06,6.67,7.34,1.44,1.39,3.16,2.46,5.04,3.14,1,.41,2.06.65,3.14.71,1.05.14,2.07.41,3.06.8,1.19.76,2.2,1.76,2.98,2.93.54.77,1.35,1.98,2.43,3.64,1.31,1.74,2.82,3.32,4.5,4.71,2.64,2.31,4.29,3.79,4.95,4.44,2.24,2.7,4.28,5.55,6.12,8.53,1.75,2.97,3.86,5.72,6.29,8.17.66.59,2.43,1.99,5.31,4.19,1.82,1.28,3.45,2.8,4.85,4.53,1.63,2.03,2.68,4.45,3.06,7.02.12.53.18,1.06.18,1.6h4.68c-14.67-18.54-26.31-33.31-34.91-44.33-8.34-10.54-13.88-17.61-16.64-21.23-28.73-36.95-53.86-70.57-75.4-100.83-.84-1.19-1.65-2.4-2.43-3.64-1.32-1.84-2.61-3.7-3.87-5.6l-15.29-22.12c-3.84-5.59-7.56-11.1-11.16-16.53-1.74-2.54-3.42-5.09-5.04-7.64-18.05-27.6-34.37-54.37-48.95-80.3,5.1,10.96,10.59,21.97,16.47,33.05-3-4.26-5.88-8.41-8.64-12.44-9.29-14.45-18.09-28.55-26.41-42.31-1.3-2.1-2.94-3.96-4.85-5.51.19-.33.35-.68.45-1.05.56-1.85.33-3.84-.63-5.51-.48-.65-1.02-1.25-1.62-1.78l60.56.18c6.9-.17,13.76-.32,20.6-.44.53-.18,1.07-.3,1.62-.36.1-.16.22-.31.36-.44.12-.24.27-.5.45-.8v-1.15c-.18-.41-.34-.8-.45-1.15-.37-.18-.69-.32-1-.44h40.58v2.4c-.12.36-.24.74-.36,1.15v21.32c-.11.4-.26.78-.45,1.15v45.07c.18.48.33.89.45,1.25v3.55l.36,1.25c.3.36.57.74.81,1.15h2.79c.18.24.39.53.63.89v50.03c.13.52.31,1.02.53,1.51.11.57.26,1.14.45,1.69.23.51.41,1.05.53,1.6l2.7-.53.53-1.6c.23-.51.42-1.05.54-1.59v-1.78c.24-.48.42-.99.53-1.51v-45.07c.48,0,.97-.06,1.44-.18.18-.36.3-.75.36-1.15.18-.48.33-.89.45-1.25.13-.42.24-.8.37-1.15v-23.74c.4-.05.79-.14,1.17-.26v24.87c.19.37.34.76.45,1.15.12.42.24.8.36,1.15.29.4.56.82.81,1.25.6-.12,1.14-.24,1.62-.36v31.26l.53,1.6v4.88c.18.53.39,1.05.63,1.6.24.56.27,1.05.45,1.6h2.16c.23-.28.44-.58.63-.89v7.34c.11.51.26,1.02.45,1.51v1.69l.53,1.59,2.16.36v1.25c.18.53.39,1.05.63,1.6v6.56c.12.54.27,1.07.45,1.59.18.53.36,1.09.53,1.69h2.22c.18-.59.36-1.16.53-1.69l.51-1.59.54-1.6v-4.88l.53-1.6v-2.1l.53,1.6c.53.36,1.05.74,1.61,1.15.54-.41,1.05-.8,1.62-1.15v33.94c.18.48.36,1.01.53,1.6v6.49c.36.53.71,1.03,1.05,1.51,1.09-.12,2.17-.3,3.24-.53l.53-1.6v-6.39c.18-.59.36-1.16.53-1.69v-8.17l.53-.36c.18-.59.36-1.16.53-1.69.17-.53.36-1.03.54-1.51v-90.15c.88.07,1.75.19,2.61.36,1.02-3.24,1.38-6.66,1.05-10.04-.42-4.5-.63-7.91-.63-10.22.03-2.26.18-4.51.45-6.75.48-2.96.78-5.18.9-6.67.3-2.43.51-5.18.63-8.26v-8.26c0-6.29-.03-12.12-.09-17.5l.72-.18c.78-.12,1.59-.21,2.43-.26.23-.17.47-.31.72-.44.12-.24.27-.5.45-.8l.36-1.25c-.42-.35-.81-.74-1.17-1.15-.96-.29-1.89-.56-2.79-.8-.24,0-.49-.03-.72-.09-.12-10.54-.21-19.04-.27-25.5,0-.45-.02-.89-.09-1.33-.05-.45-.2-.87-.45-1.25-.47-.38-1.03-.66-1.62-.8l-1.89-.62c-1.06-.57-1.86-1.52-2.25-2.66-.42-1.16-.52-2.42-.27-3.64.23-1.24.56-2.46.99-3.65.39-1.18.66-2.4.81-3.64.13-.8.07-1.62-.18-2.4-.04-.2-.13-.39-.27-.53h2.34c1.51.09,3.01-.16,4.41-.71,1.27-.48,2.15-1.66,2.25-3.02.06-1.47-.86-2.81-2.25-3.29M566.13,541.45v3.73c-1.72-.64-3.5-1.12-5.31-1.41.06-.2.09-.41.09-.62.42-.06.78-.12,1.05-.18,1.43-.4,2.83-.91,4.19-1.51M540.06,535.6c-1.32-.06-2.7-.09-4.19-.09l-4.95.26c-4.14.06-9.06.09-14.76.09-48.65-.06-85.15-.12-109.51-.18,50.15-1.36,102.2-1.92,156.16-1.69-6.78.83-14.4,1.37-22.86,1.6M556.42,548.18c-.23,1.04-.41,2.09-.53,3.14-.86-.42-1.87-.38-2.7.09-.92.38-1.69,1.07-2.16,1.95-.26.58-.47,1.17-.63,1.78h-.99v-7.46l7.02.53M545.81,550.98v3.14c-.3.18-.57.32-.81.44-.17.22-.32.46-.45.71-2.88.06-5.85.15-8.91.26v-.97c-.27-.79-.73-1.49-1.35-2.04-1.49-.89-3.21-1.35-4.95-1.33l-40.4-3.2c18.92-1.54,37.92-1.72,56.87-.53v3.55M549.77,560.24h.27v5.33c-.1,0-.2-.03-.27-.09v-5.24M549.77,569.57v-.36h.36v1.43l-.36-1.05M559.21,560.09h.45v6.13c.05.77-.1,1.54-.45,2.22v-.7c.08-.15.17-.3.27-.44v-4.8c-.11-.1-.2-.22-.27-.36v-2.22M533.48,563.91v.63c-3.78-.06-7.59-.15-11.42-.26h-34.9c6.72-.95,13.71-1.72,20.96-2.31,7.86-.7,16.56-1.2,26.1-1.51l-.18.36v1.15c-.08.28-.21.55-.37.8v1.15M544.01,562.77v2.1c-1.05,0-2.1-.06-3.14-.18h-.45v-.8c-.13-.41-.24-.8-.36-1.15-.17-.4-.29-.82-.36-1.25-.18.12-.33.27-.45.44h-.36c-.16.1-.31.22-.45.36-.12-.42-.24-.8-.36-1.15.12-.29.21-.59.27-.89l6.03-.18v.26c-.18.36-.3.75-.36,1.15v1.25M540.89,569.38c1.02-.06,2.07-.08,3.14-.08v4.71l-3.59.18v-4.66c.14-.06.3-.1.45-.09M533.33,574.58v.09l-27.35,2.4c-2.94,0-5.88.03-8.81.08-.08-.07-.17-.13-.27-.18-5.94-.17-11.88-.32-17.82-.44h-80.54c-20.7.12-41.42.27-62.17.44h-61.46v-.8c-.06-.4-.18-.79-.36-1.15v-3.29h1.53c.15,0,.31.04.45.09,2.94.12,5.85.27,8.73.44l11.53.36c9.18.12,18.42.27,27.71.44h181.83v-.41c.24-.24.53-.5.9-.8.07-.43.19-.85.37-1.25v-.8h16.19c3.3-.06,6.6-.09,9.89-.09v.09l-.36,1.25v3.55M532.87,582.88v.44h-32.4c1.98-.18,4.11-.39,6.39-.63l14.93.18h11.07M518.56,556.58c-3,.24-6.06.53-9.18.89-6.29.65-14.78,1.66-25.47,3.02-1.26.17-2.49.32-3.69.44l-5.13-.53c-2.52-.18-5.03-.3-7.56-.36-4.5-.17-9-.32-13.5-.44l-19.8-.36h-104.19v.36h-15.12c-3,.12-6.03.27-9.09.44-1.56.06-3.15.18-4.77.36-1.02.12-2.07.27-3.14.44-.29.06-.56.17-.82.3-.48.12-1.05.23-1.61.36-.24.29-.51.56-.81.8.43.12.85.27,1.26.44h5.13c1.32.06,2.64.17,3.96.36,3.3.12,6.6.27,9.89.44,5.04.06,10.08.17,15.12.36h104.2c6.66-.17,13.26-.29,19.8-.36,2.34-.06,4.65-.14,6.93-.26-.86.17-1.73.25-2.61.26-.73.08-1.45.2-2.16.36l-1.17.36h-132.18v.44h-48.32v-1.55c-.13-.42-.24-.8-.36-1.15v-.97c1.49.24,2.99.36,4.5.36,3.31.02,6.61-.16,9.89-.53,14.16-1.24,25.16-2.43,33.02-3.55l5.49-.89c8.94,0,22.01-.06,39.23-.18,7.08,0,13.14-.15,18.17-.44.24-.01.48-.04.72-.08h2.1l31.85.36h16.83c10.26,0,20.64.03,31.14.09,12.35.17,25.07.32,38.15.44h13.31M564.3,553.1c-.02-.67.1-1.33.36-1.95.17-.56.68-.94,1.26-.97-.48,2.54-.78,4.5-.9,5.86v.18c-.2-.1-.41-.19-.63-.26,0-1.01-.03-1.95-.09-2.84M564.47,559.24c.08-.07.17-.13.27-.18,0,.35.03.7.09,1.05-.12.05-.21.15-.27.26v1.33c-.06-.89-.09-1.72-.09-2.48M380.36,551.7c-7.8.17-15.6.29-23.39.36-.54.06-1.08.09-1.62.09,27.72-2.13,55.56-2.43,83.32-.89h-15.92v.44h-42.38M402.76,611.04c-.28.22-.55.46-.81.71-1.5-2.25-2.9-4.47-4.19-6.67.58-.35,1.22-.59,1.89-.71.84,2.01,1.89,4.23,3.14,6.67M388.72,623.88l3.59-4.88,1.05.44c-.14.23-.26.46-.36.71-.12,0-.25.03-.36.08-1.44.24-2.34,1.6-2.7,4.09-.04.79-.19,1.56-.45,2.31-.48.7-.95,1.4-1.44,2.1.18-1.89.39-3.49.63-4.8M409.65,622.88c-.15.16-.27.34-.36.53-.96-1.54-1.92-3.05-2.88-4.53l.09-.18c-.3-.92-.83-1.74-1.53-2.4.19-.14.35-.32.45-.53,0,.1.03.19.09.26,1.56,2.61,2.94,4.89,4.14,6.84M405.61,628.56c-.48.65-.96,1.35-1.44,2.1-.17-.69-.63-1.27-1.26-1.6l-2.34-3.65,1.71-1.95c1.14,1.72,2.25,3.44,3.33,5.16M414.63,631.75c-.34-.63-.73-1.22-1.17-1.78.05-.1.11-.18.18-.26.1.25.21.49.36.71.24.43.45.87.63,1.33M418.21,622.15c.07.13.16.25.27.36-.12.12-.22.27-.27.44-.06-.11-.09-.23-.09-.36,0-.15.04-.3.09-.44M423.7,656.74c-.56-.62-1.07-1.27-1.53-1.96l-1.53-2.66c.96,1.54,1.98,3.08,3.06,4.62M425.68,642.53l-1.35-4.35c3.3,5.04,7.02,10.52,11.16,16.43,1.44,2.01,6.78,9.62,16.01,22.83,4.32,6.16,8.67,12.31,13.05,18.48,5.1,8.82,10.05,17.74,14.85,26.74-12.18-18.06-30.09-44.77-53.72-80.12M422.35,686.15l3.14,11.28c-.24-.3-.45-.63-.63-.97l-7.56-17.5c1.68,2.42,3.36,4.82,5.04,7.19M433.96,706.48c.42.65.87,1.3,1.35,1.95,1.4,3.03,2.69,5.84,3.87,8.44-1.14-1.6-2.31-3.26-3.51-4.98-.6-1.84-1.17-3.64-1.71-5.42M438.01,719.97c.48.59,1.01,1.24,1.61,1.95-.37-.18-.77-.27-1.17-.26-.13-.53-.27-1.05-.45-1.69M414.91,642.88c-1.02-1.4-2.07-2.73-3.14-3.99-.87-1.2-1.9-2.28-3.06-3.2.29-.34.56-.69.81-1.05,1.8,2.72,3.6,5.48,5.4,8.26M392.9,639.71l-2.4,3.18c.42-1.24.93-2.55,1.53-3.91.12-.23.27-.5.45-.8.01-.07.05-.13.12-.17.06.53.15,1.09.27,1.69M383.24,644.85c-.01.09-.04.18-.09.26-.12.48-.33,1.22-.63,2.22v.18c-2.46,2.72-4.9,5.48-7.34,8.26,2.79-3.67,5.5-7.31,8.1-10.92M394.62,656.38c-.1-.35-.38-.62-.72-.71l1.17-2.1-.45,2.84M391.11,662.63c.06-.6.03-1.2-.09-1.78.29-.58.62-1.15.99-1.69l-.09,2.76c-.31.19-.58.43-.81.71M404.6,676.25l.81,2.84c.24,3.67.63,9.56,1.17,17.68v.26c-.12-.89-.24-1.72-.36-2.48-.96-7.87-1.83-14.62-2.61-20.25.3.65.63,1.3.99,1.95M371.85,650.05h-.09c3.07-5,6.22-10.04,9.43-15.1-.06.89-.06,1.78,0,2.66l-9.36,12.43M345.91,648.99c.48-.7.93-1.35,1.35-1.95-2.53,4.85-4.78,9.83-6.75,14.92-.35.75-.65,1.52-.9,2.31l-7.56,10.57c-2.34,2.84-4.5,5.42-6.48,7.72-2.79,3.37-5.5,6.72-8.1,10.04.42-.95.87-1.9,1.35-2.84,1.05-1.95,1.89-4,2.52-6.13,6.78-9.66,14.97-21.21,24.57-34.65M350.05,695.81c.37-.47.69-.92,1-1.33-.54.95-1.11,2-1.71,3.14l.72-1.78M359.59,703.48l.99-1.69,3.06-3.91c-.84,1.31-1.71,2.67-2.61,4.09-.66,1.12-1.36,2.22-2.1,3.29.24-.6.45-1.18.63-1.77M382.24,691.85c-.06.29-.13.62-.18.97l-1.98,4.71.9-3.37c.42-.83.84-1.6,1.26-2.31M401.59,698.69c.36,2.19.71,4.53,1.05,7.02.96,9.08,2.07,19.8,3.33,32.16l1.89,17.05c-.6-3.61-1.14-6.93-1.61-9.95-2.42-15.33-3.99-30.78-4.68-46.28M354.23,732.9c-.9,1.36-1.83,2.76-2.79,4.19l4.77-8.17c-.66,1.24-1.32,2.57-1.98,3.99M348.47,744.72c-.08.11-.14.23-.18.36v-.08c.05-.1.11-.18.18-.26M358.37,740.29l-5.48,22.29-13.86,33.14c-4.89,11.67-9.3,22-13.23,31,5.04-16.11,9.45-31.15,13.23-45.13,7.26-15.57,13.71-29.34,19.35-41.3M478.59,738.69c-.43-.61-.99-1.12-1.62-1.51-.15-.1-.3-.18-.45-.26-1.2-1.72-2.28-3.2-3.24-4.44-.17-.16-.32-.34-.45-.53-2.58-3.79-5.43-7.99-8.55-12.58,5.4,7.29,10.83,14.57,16.29,21.85-.19-.15-.4-.27-.63-.36-.48-.7-.93-1.4-1.35-2.1M447.89,737.25c.6,1.01,1.35,2.28,2.25,3.83l4.05,8.38-6.29-12.17M447,736.58c-.48-.24-.78-.21-.9.09,2.04,5.62,4.89,12.26,8.54,19.91-1.44-1.66-2.88-3.28-4.32-4.88-.23-.46-.44-.94-.63-1.43l.36-.53c-3.12-5.86-6.21-11.8-9.26-17.82.08-1.26-.07-2.53-.45-3.73-.36-1.24-.68-2.43-.99-3.55,2.34,3.08,4.79,6.61,7.34,10.57.31.61.66,1.21,1.05,1.78-.2-.21-.45-.36-.72-.44M266.53,547.31c-.06-.5-.09-1-.09-1.51l8.64.18c-2.52.36-5.37.8-8.55,1.33M269.75,552.46v-.89c.34-.11.69-.17,1.05-.18,5.52-.89,9.71-1.45,12.58-1.69,3.96-.36,8.67-.53,14.13-.53,3.12,0,7.79.06,14.03.18,8.64.12,17.33-.18,26.1-.89,1.92-.17,3.69-.35,5.31-.53l1.98.08c-2.58.36-5.1.68-7.56.97l-48.77,2.93c-3.84.29-6.86.59-9.09.89h-2.21c-.3.18-.57.32-.81.44-.28,0-.55.07-.81.18-1.4-.12-2.78-.18-4.14-.18l-1.53-.18c-.11-.2-.2-.41-.27-.62M267.77,551.83c-.12.36-.24.68-.36.97h-.8v-.79l1.17-.18M267.44,557.44v7.34h-.72c-.06-2.61-.09-5.05-.09-7.34.27,0,.54.03.81.09M270.21,558.42v-.8c.66,0,1.35,0,2.1.09-.13-.01-.25.02-.36.09-.61.21-1.19.51-1.71.89v-.26M253.88,556.66c.84,0,1.68.06,2.52.18.06,2.66.15,5.39.27,8.17-1.05,0-2.1.06-3.14.18.18-3.14.3-5.98.37-8.53M270.26,560.93v-.84l1.62.53c-.15.07-.3.13-.45.18-.13.36-.24.74-.37,1.15v2.76h-.81v-3.91M246.5,565.51c-.18-3.44-.33-6.75-.45-9.95h.27c.34.31.8.47,1.26.44-.06,3.26-.09,6.42-.09,9.51h-.99M246.85,578.08c0-2.19-.03-4.36-.09-6.49h.72v4.71c-.08.07-.17.13-.27.18.12.12.22.27.27.44-.06,3.32-.09,6.46-.09,9.43-.05.15-.11.3-.18.44v7.11c0,.1-.03.19-.09.26-.12-6.69-.21-12.05-.27-16.08M252.87,582.35v33.84l-.18.53c-.24-10.42-.33-17.71-.27-21.85.06-3.32.18-7.64.36-12.96h.09v.44M267.09,571.77v5.15h-.26v-5.24h.27v.09M270.61,572.57v-.89h.41v3.29c-.12.36-.27.74-.45,1.15v-3.46M232.52,554.68c.3.12.45.53.45,1.25v12.7h-.45v-13.95M261.59,800.75l-1.35,2.31c-2.79,3.79-5.59,7.63-8.38,11.53,3.36-4.89,6.6-9.51,9.72-13.86M324.39,759.22l9.36-14.92c-2.21,5.09-4.22,9.65-6.03,13.68-4.26,7.64-8.45,15.33-12.58,23.06,2.28-5.21,5.37-12.47,9.26-21.77M313.68,727.38c-1.2,2.19-2.43,4.53-3.69,7.02-4.32,5.93-9.06,12.53-14.22,19.81,3.36-5.45,6.85-11.07,10.48-16.87l7.34-9.95M275.79,781.49c2.79-4.38,5.7-8.79,8.73-13.24.36-.02.72-.11,1.05-.26-3.18,4.32-6.45,8.82-9.81,13.5M282.15,810.19c2.52-3.73,5.01-7.37,7.47-10.93l-4.05,7.02-5.4,10.12c-8.76,13.86-16.68,26.35-23.76,37.49,8.82-14.51,17.39-29.08,25.73-43.7M296.91,803.52l-1.61,3.73c-2.16,5.09-4.26,10.1-6.29,15.01-2.7,3.37-5.1,6.42-7.2,9.15,1.56-3.26,3.18-6.6,4.86-10.04,1.26-2.25,2.52-4.47,3.78-6.67l6.48-11.19M332.84,776.5c-.36.7-.71,1.44-1.05,2.22-7.62,15.69-13.14,27.39-16.56,35.09-.48,1.12-.96,2.22-1.44,3.29,2.46-6.29,5.22-13.57,8.28-21.85,3.96-7.99,8.22-16.58,12.78-25.76-.66,2.31-1.32,4.65-1.98,7.02M273.75,857.21c-.39.67-.72,1.37-.99,2.1-.84,1.19-1.71,2.46-2.61,3.83-7.74,11.55-13.68,20.98-17.82,28.3,6-11.88,11.43-22.77,16.29-32.69,3.84-5.09,7.49-10.01,10.97-14.75-1.98,4.56-3.93,9-5.85,13.32M245.11,910.2c-1.38,1.43-2.67,2.94-3.87,4.53-.9,1.24-1.83,2.61-2.79,4.09l9-17.82c-1.19,2.93-1.98,6.01-2.34,9.15M206.78,928.68c.3-.7.63-1.44,1-2.22,1.14-1.89,2.28-3.73,3.42-5.5l-4.41,7.72M586.17,502c-3.07-1.62-5.96-3.56-8.64-5.77-.66-.59-3-2.88-7.02-6.84-2.26-2.35-4.84-4.38-7.65-6.04-2.83-1.64-6.16-2.17-9.36-1.51-1.57.48-2.98,1.41-4.05,2.66-1.04,1.24-1.55,2.83-1.44,4.44.11,1.77.85,3.44,2.1,4.71.7.7,2.08,1.94,4.14,3.73,1.4,1.19,3.98,3.82,7.73,7.9,2.51,2.71,5.28,5.17,8.28,7.34,2.99,2.28,6.53,3.72,10.26,4.19,3.59.66,7.29-.25,10.17-2.48,2.25,2.71,6.03,3.62,9.26,2.22.8-.69,1.26-1.7,1.26-2.76.06-1.07-.22-2.12-.81-3.02-1.3-1.7-3-3.04-4.95-3.91-4.14-2.1-7.24-3.72-9.28-4.88M551.9,379.82c-1.19.29-2.32.81-3.33,1.51-1.06.78-1.81,1.91-2.1,3.2-.35,1.2-.08,2.5.72,3.47.77.94,1.92,1.5,3.14,1.51.51.06,1.02.06,1.53,0,.39.86,1.1,1.53,1.98,1.87,1.16.39,2.38.57,3.61.53,1.4.06,3.11.12,5.13.18-.24.46-.33.99-.27,1.51,0,.58.12,1.16.36,1.69-4.26,0-8.91.03-13.95.08-1.24-.08-2.49.16-3.61.71-.58.28-1.02.8-1.17,1.43-.31.54-.24,1.22.18,1.69,2,.71,4.09,1.13,6.2,1.25,1.4.12,3.56.18,6.48.18l7.56.18c0,.54.16,1.06.45,1.51.46.99,1.26,1.78,2.25,2.22,1.01.38,2.07.58,3.14.62.78,0,1.86-.06,3.24-.18,1.86-.29,3.63-.53,5.31-.71.92.4,1.89.67,2.88.8,1.38.05,2.77,0,4.14-.18l4.19-.53c4.53.11,9.04.58,13.5,1.41,4.37.93,8.9.84,13.23-.26,1.26-2.23,1.68-4.83,1.17-7.34,1.56-.41,2.43-.65,2.61-.71.87-.34,1.71-.76,2.52-1.25.75-.5,1.36-1.17,1.8-1.95.51-.76.7-1.68.53-2.58-6.66-.77-13.35-1.39-20.07-1.87,1.2-.65,2.67-1.42,4.41-2.31.71-.39,1.37-.85,1.97-1.38.64-.46,1.07-1.17,1.17-1.95.12-.73-.04-1.48-.45-2.1-.37-.6-.9-1.09-1.53-1.41-1.38-.53-2.85-.77-4.32-.71-1.8-.12-3.48-.18-5.04-.18.17-.27.27-.57.27-.89-.04-.83-.52-1.57-1.26-1.95-.77-.46-1.63-.76-2.52-.89-4.02-.61-8.09-.79-12.15-.53-2.76.12-6.87.53-12.33,1.25-7.92,1.01-13.88,1.77-17.9,2.31-1.27.17-2.54.41-3.78.71M596.27,388.82l-1.98.26c-1.08-.06-2.12-.08-3.14-.08l5.13-.18M359.66,272.99c-.95-.24-1.94-.24-2.88,0-5,.97-9.84,2.62-14.4,4.88-4.61,2.22-8.93,5-12.87,8.26-1.02.82-2.01,1.68-2.97,2.58-3.69,2.03-7.06,4.61-9.99,7.64-1.84,1.91-3.52,3.96-5.04,6.13-.3.41-.63.86-.99,1.33-2.18,1.22-4.15,2.78-5.85,4.62-1.4,1.48-2.87,3.23-4.41,5.24l-4.05,5.68c-1.8,2.66-3.24,4.91-4.32,6.75-1.44,2.25-2.67,4.63-3.69,7.11-.01.09-.04.18-.09.26-1.62,2.19-3.24,4.56-4.85,7.11-2.22,3.44-4.02,6.4-5.4,8.89-1.63,2.97-3.03,6.05-4.19,9.23-1.6,5.17-2.6,10.5-2.97,15.9-.3,3.79-.42,9.18-.36,16.17.06,12.58.45,22.08,1.17,28.52.93,14.44,5.44,28.43,13.13,40.69,1.8,2.96,4.52,7.11,8.19,12.44,2.88,4.09,5.07,7.02,6.57,8.79,2.2,2.87,4.71,5.49,7.47,7.82,2.62,2.16,5.45,4.03,8.46,5.6,2.52,1.31,5.58,2.73,9.18,4.27,12.83,5.43,26.17,9.57,39.83,12.35,13.61,2.8,27.5,3.99,41.39,3.55,13.93-.6,27.71-3.14,40.94-7.56,13.19-4.39,25.56-10.94,36.62-19.37,6.38-4.82,12.15-10.4,17.19-16.61,8.57-10.85,14.55-23.52,17.46-37.04,3.07-13.64,3.71-27.71,1.89-41.58-2.02-13.7-5.8-27.09-11.25-39.83-5.42-12.79-11.93-25.09-19.44-36.78-3.82-6.22-8.06-12.17-12.68-17.82-4.54-5.64-9.83-10.63-15.72-14.84-9.09-6.08-19.31-10.28-30.05-12.35-10.89-2.05-21.95-3.06-33.02-3.02-5.01-.15-10.03,0-15.03.44-4.94.44-9.81,1.5-14.48,3.14-2.43.87-4.8,1.87-7.11,3.02-.02-.31-.11-.62-.27-.89-.28-.4-.7-.68-1.17-.8M355.16,278.16c-1.92,1.24-4.23,2.78-6.93,4.62-1.5.41-3,.86-4.5,1.33-.07,0-.13-.03-.18-.08l-.18-.18c3.75-2.24,7.69-4.14,11.78-5.69M361.28,282.07c3.64-2.62,7.82-4.38,12.24-5.15,4.42-.83,8.91-1.27,13.4-1.33,8.46-.24,15.72-.21,21.78.08,7.23.33,14.42,1.22,21.51,2.66,7.1,1.45,13.99,3.77,20.51,6.93,6.52,3.1,12.53,7.17,17.82,12.08,2.69,2.56,5.19,5.32,7.47,8.26-1.54-1.45-3.23-2.73-5.04-3.83-.42-.48-.84-.92-1.26-1.33-5.11-4.98-11.17-8.87-17.82-11.46-6.78-2.55-13.76-4.51-20.88-5.86-11.53-2.42-23.24-3.88-35.01-4.36-11.67-.43-23.35.67-34.73,3.29M464.76,323.99c-1.4-1.54-2.79-2.99-4.19-4.35,1.92,1.6,3.84,3.38,5.75,5.33,3.67,3.93,6.9,8.27,9.6,12.92l.18.89c-.05-.04-.09-.11-.09-.18-3.32-5.21-7.08-10.12-11.25-14.67M486.62,325.72c-.54-1.72-1.11-3.38-1.71-4.98-.42-1.31-.87-2.58-1.35-3.83.07.13.16.25.27.36,1.68,2.9,3.66,6.39,5.94,10.48l2.1,5.33c.96,2.54,1.74,4.79,2.34,6.75.13.19.22.41.27.63-.84-1.66-1.68-3.35-2.52-5.06-1.32-2.55-3.09-5.78-5.31-9.68M418.53,308.13c1.44.29,2.91.64,4.41,1.05-1.98-.36-3.99-.62-6.03-.8-.6-.29-1.2-.56-1.8-.8.3.06.6.08.9.08.84.18,1.68.32,2.52.44M431.93,316.11c.27,0,.54.03.81.08,1.61.58,3.38.51,4.95-.18.9.59,1.8,1.24,2.69,1.95,4.27,3.07,8.32,6.43,12.15,10.04,1.02,1.01,1.98,2.08,2.88,3.2.36,1.48.71,3.02,1.05,4.62.06.18.12.39.18.62-5.95-6.5-12.63-12.28-19.91-17.23-1.62-1.12-3.24-2.17-4.85-3.14M487.11,346.63c.3.23.57.5.81.8.12.82.21,1.68.27,2.58-.36-1.07-.71-2.19-1.05-3.37M465.13,347.07c-.36-1.4-.68-2.79-.99-4.19,2.49,3.9,4.71,7.97,6.66,12.17,1.36,2.92,2.56,5.92,3.59,8.97-.48-1.12-.99-2.28-1.53-3.47-2.2-4.71-4.79-9.22-7.73-13.5M459.74,350.6c1.4,7.29,2.36,13.86,2.88,19.72,1.14,11.57.53,23.26-1.8,34.65-2.13,9.84-5.8,19.29-10.89,27.98-4.89,8.19-10.88,15.66-17.82,22.21-2.73,1.06-5.53,1.92-8.38,2.58-5.19,1.23-10.51,1.8-15.84,1.69-13.93.34-27.79-2.1-40.76-7.19-11.77-4.62-22.31-11.92-30.77-21.32-1.66-1.75-3.23-3.59-4.68-5.51-1.98-2.54-3.48-4.44-4.5-5.68l-3.33-4.44c-.3-2.19-.65-4.63-1.05-7.34-1.08-6.34-1.59-12.76-1.53-19.19,1.05-12.88,5.24-25.31,12.21-36.19,2.94-4.99,6.38-9.66,10.26-13.95,6.05-6.03,12.86-11.25,20.25-15.54.84-.48,1.65-.92,2.43-1.33,6.17-2.48,12.55-4.39,19.07-5.69,5.92-1.29,11.94-2.06,18-2.31,2.58.06,4.74.14,6.48.26,1.81.05,3.61.19,5.4.44,4.66,2.14,9.17,4.59,13.5,7.34,12.08,7.51,22.55,17.35,30.81,28.93M477.31,356.41c.36.7.69,1.44,1,2.22.36.94.71,1.92,1.05,2.93,0,.7.03,1.4.09,2.1-.54-2.28-1.2-4.54-1.98-6.75,0-.05,0-.1.02-.15-.05-.11-.08-.23-.09-.36M380.67,290.67c-4.07,2.04-8,4.32-11.79,6.84-2.16.7-4.17,1.44-6.03,2.22-1.43.54-2.83,1.16-4.19,1.87-2.22.57-4.39,1.34-6.48,2.31-1.16.12-2.3.36-3.42.71-2.7.92-5.24,2.24-7.56,3.91-1.8.77-3.54,1.6-5.24,2.48,2.77-2.49,5.79-4.69,9-6.57,1.34-.91,2.6-1.92,3.78-3.02,2.92-1.3,5.93-2.4,9-3.29l.53-2.1c1.94-.85,3.92-1.59,5.94-2.22,5.34-1.71,10.87-2.78,16.47-3.2M352.4,320.83c1.68-.83,4.13-2.16,7.34-3.99,2.4-1.36,4.77-2.64,7.11-3.83.55.19,1.13.25,1.71.18-9.61,4.2-18.93,9.04-27.9,14.48-.78.43-1.53.9-2.25,1.41,1.6-1.88,3.31-3.66,5.13-5.33l.36-.36c1.4-1.19,2.79-2.31,4.19-3.37-1.22,1.25-2.3,2.62-3.24,4.09,2.61-.88,5.14-1.98,7.56-3.29M484.4,390.64c.59-5.22.92-10.47.99-15.72.6,2.25,1.3,4.7,2.1,7.34v4.27c-.03,4.06-.45,8.11-1.26,12.08-.44,2.33-1.08,4.62-1.89,6.84-.12.48-.51,1.66-1.17,3.55.75-3.8,1.21-7.66,1.35-11.53.12-2.25.08-4.5-.09-6.75M475.78,404.4c-.24.83-.45,1.66-.63,2.48-1.64,6.23-3.78,12.32-6.39,18.2-1.08,1.66-2.21,3.26-3.42,4.8-1.5,1.84-2.4,2.96-2.7,3.37-.87,1.17-1.51,2.5-1.89,3.91.35,0,.7.03,1.05.08-4.45,6.37-9.65,12.19-15.48,17.32,1.09-1.56,2.08-3.19,2.97-4.88-1.44.41-2.85.95-4.19,1.6,2.52-3.08,4.89-6.23,7.11-9.43,5.77-8.53,10.17-17.91,13.05-27.81,4.36-15.9,5.41-32.54,3.06-48.86,4.51,9.01,7.17,18.82,7.83,28.87.18,3.44.06,6.89-.36,10.3M486.4,416.02c.19.48.66.8,1.17.8.3,0,.61-.03.9-.09-.07.07-.1.17-.09.26-.84,1.6-1.71,3.17-2.61,4.71-2.24,4-4.74,7.85-7.47,11.53.9-2.67,1.6-5.4,2.1-8.17.18-1.4.36-2.94.53-4.62,3.33-7.98,5.95-16.25,7.83-24.69-.41,6.79-1.19,13.55-2.34,20.26M488.4,430.2h.18c.24-.29.48-.62.72-.97-4.37,7.05-9.39,13.66-15.01,19.77-5.14,5.74-10.87,10.92-17.09,15.46.6-.7,1.17-1.44,1.71-2.22,4.96-3.66,9.62-7.7,13.95-12.08,5.95-5.98,11.15-12.67,15.48-19.91M471.2,442.04l-1.53,1.69,2.34-4.8c.66-1.48,1.36-2.9,2.1-4.27-.9,2.54-1.86,4.99-2.88,7.34M455.84,457.46c.04-.05.11-.09.18-.09-.42.59-.84,1.16-1.26,1.69-.84.65-1.65,1.3-2.43,1.95,1.19-1.24,2.37-2.43,3.51-3.55M489.76,444.87c-.7.77-1.24,1.36-1.61,1.78-.52.64-.94,1.34-1.26,2.1-.78,1.36-1.2,2.1-1.26,2.22-.68,1.57-2.1,2.71-3.78,3.02-.13-.77.42-1.62,1.61-2.58,1.19-1.18,2.25-2.49,3.14-3.91.6-.89,1.5-2.25,2.7-4.09.54-.53.96-.8,1.26-.8.05.85-.24,1.68-.81,2.31M484.64,444.04c-.13.17-.25.35-.36.53.08-.22.21-.43.36-.62v.08M475.63,459.23c.39-.35.74-.73,1.05-1.15.36-.41.75-.8,1.17-1.15.81-.66,1.85-.94,2.88-.8-1.38.46-2.5,1.49-3.06,2.84-.51,1.29-1.11,2.53-1.8,3.73-.84,1.01-1.77,1.93-2.79,2.76-3.18,2.49-5.4,4.17-6.66,5.06-1.85,1.73-4.16,2.87-6.66,3.29,3.66-2.73,7.16-5.66,10.48-8.79l2.79-2.76c.99-.9,1.86-1.91,2.61-3.02M506.97,359.57c1.58,3.21,2.98,6.5,4.19,9.86.79,2.6,1.46,5.24,1.98,7.91.36,1.6.87,4.23,1.53,7.9,1.02,5.69,1.74,10.01,2.16,12.96.57,4.33.84,8.69.81,13.06-.03,5.01-.51,10-1.44,14.92-.91,4.98-2.11,9.91-3.59,14.75-1.22,4.43-2.69,8.8-4.41,13.06-1.68,4.28-3.83,8.36-6.39,12.17-4.4,6.32-9.81,11.87-16.01,16.43-6.25,4.63-12.88,8.71-19.83,12.21-5.49,2.95-11.13,5.59-16.92,7.9-17.34,6.07-35.82,8.17-54.08,6.13,37.12-3.42,71.13-22.15,93.85-51.7,2.87-3.83,5.4-7.9,7.56-12.17,1.42-3.27,2.57-6.66,3.42-10.12.66-2.9,1.36-6.45,2.1-10.66,1.95-11.54,3-23.21,3.14-34.91.13-10.89-1.28-21.75-4.19-32.25-.18-1.31-.39-2.61-.63-3.91-.54-3.48-1.29-6.92-2.25-10.3,1.2,2.31,2.55,4.83,4.05,7.56,2.04,3.61,3.69,6.69,4.95,9.23M494,380.87c.15.93.46,1.83.9,2.66.8,2.25,1.15,4.64,1.05,7.02-.55-2.96-1.24-5.95-2.1-8.97-.3-1.72-.63-3.68-.99-5.87.42,1.36.84,2.78,1.26,4.27-.12.28-.18.59-.18.89M502.67,401.92c.12,3.2.12,5.69,0,7.46-.23,2.43-.87,4.8-1.89,7.02-.12-1.4-.18-3.59-.18-6.57.06-1.6.18-3.58.36-5.95.25-1.98.4-3.96.45-5.95.36-4.89.53-12.29.53-22.21.12,5.86.36,14.6.72,26.2M491.25,408.67c-.11.58-.29,1.15-.53,1.69.24-1.3.42-2.63.53-3.99v2.31M494.76,418.54v1.69c-.13.07-.25.16-.36.26.12-.71.24-1.36.36-1.95M438.44,467.57c-.48.36-.99.71-1.53,1.05.22-.21.46-.39.72-.53.26-.19.53-.37.81-.53M443.11,472.71c-1.19.7-2.42,1.38-3.69,2.04-2.76,1.27-5.62,2.32-8.55,3.14.19-.15.4-.27.63-.36,4.62-1.96,9.06-4.09,13.32-6.39-.6.53-1.17,1.07-1.71,1.6M425.3,493c.67-.47.99-1.3.81-2.1-.07-.74-.39-1.42-.9-1.96,3.85-1.15,7.64-2.51,11.34-4.09,4.23-1.79,8.32-3.89,12.24-6.29,3.02-1.14,6.16-1.95,9.36-2.4-3.03,3.01-6.48,5.56-10.26,7.56-2.46,1.31-6.39,3.11-11.79,5.42-3.96,1.66-6.63,2.72-8.01,3.2-2.67.97-5.4,1.74-8.19,2.31-1.04.24-2.09.42-3.14.53-4.56.18-8.78.18-12.68,0-1.32-.06-2.64-.14-3.96-.26h3.78c5.1-.12,12.24-.74,21.41-1.87M410.46,479.38c.5-.18,1.01-.33,1.53-.44,1.44-.06,2.88-.17,4.32-.36-1.93.41-3.88.67-5.85.8M403.71,474.85l-1.17-.18,2.16-.36c-.36.18-.69.36-.99.53M403.8,467.3c-1.08.17-2.19.32-3.33.44-12.21,1.46-24.59.06-36.17-4.08-5.58-2.01-10.94-4.57-16.01-7.64-4.67-4.95-8.85-10.34-12.5-16.08,8.67,8.7,18.93,15.64,30.24,20.44,9.26,3.48,18.96,5.64,28.82,6.42,3.12.24,6.12.36,9,.36M381.89,475.25c-.37.19-.66.5-.81.89-2.68-.35-5.32-.89-7.92-1.6-3.59-1.1-7.09-2.47-10.48-4.09-1.2-.59-2.85-1.42-4.95-2.48,1.86.77,3.75,1.47,5.67,2.1,9.35,3.15,19.12,4.86,28.98,5.06h1.89c.48.17.99.35,1.53.53.59.27,1.19.51,1.8.71-.84.12-1.71.21-2.61.26-2.21.12-4.43.18-6.66.18-.54-.23-1.05-.47-1.53-.71-.51-.31-1.05-.58-1.61-.8-.52-.29-1.11-.44-1.71-.44-.58-.07-1.16.09-1.62.44M360.8,494.57c-.82-.76-1.69-1.46-2.61-2.1.27-.06.54-.06.81,0,4.02,1.19,8.04,2.17,12.05,2.93-.42.12-.78.23-1.05.36-1.87-.04-3.73-.22-5.58-.53-1.19-.18-2.39-.42-3.59-.71M356.69,485.99c-2.28-.77-4.29-1.54-6.03-2.31-4.41-1.79-8.56-4.18-12.33-7.11-.7-.59-1.51-1.29-2.43-2.1-1.5-1.72-3.18-3.7-5.04-5.95l-.9.26c0-.07-.04-.13-.09-.18-5.64-5.74-8.91-9.12-9.81-10.12-1.6-1.63-3.28-3.17-5.04-4.62-.54.12-1,.48-1.26.97-.29.51-.42,1.1-.36,1.69.17,1.16.64,2.26,1.35,3.2,1.8,2.56,3.75,5.01,5.85,7.34,1.4,1.54,3.56,3.76,6.48,6.67,2.34,2.31,4.11,3.99,5.3,5.06,1.84,1.68,3.79,3.22,5.85,4.62l.72.44c-.24-.05-.49-.1-.72-.18-4.47-2.63-8.77-5.53-12.87-8.71-4.21-3.28-7.83-7.24-10.71-11.73-1.63-2.64-2.96-5.45-3.96-8.38-.9-2.49-1.8-5.48-2.7-8.97,4.44,2.59,8.71,5.47,12.78,8.62,5.1,5.45,7.98,8.47,8.64,9.07,3.25,3.07,6.67,5.95,10.26,8.62l1.35,1.51c2.04,2.07,4.27,3.94,6.67,5.6,4.71,2.78,9.85,4.76,15.21,5.86l.63.44c-2.27.23-4.55.35-6.83.36M319.88,317.98c-2.04.9-3.83,2.27-5.24,3.99-1.45,1.75-2.75,3.62-3.87,5.6-3.24,5.69-5.73,10.25-7.47,13.68-.36.53-.71,1.03-1.05,1.51.24-1.07.51-2.13.81-3.2,1.8-3.85,3.81-7.64,6.03-11.37,4.28-5.35,9.17-10.18,14.58-14.39-1.32,1.4-2.55,2.85-3.69,4.36-.05-.04-.09-.11-.09-.18M333.2,315.89c-2.16,2.45-4.11,5.06-5.85,7.82-1.32,1.3-2.4,2.35-3.24,3.14-.42.41-1.05,1.05-1.98,1.87,1.39-2.62,2.96-5.15,4.68-7.56,1.55-2.18,3.23-4.25,5.04-6.22,0,.31.06.61.18.89.39.06.78.09,1.17.08M283.18,350.89c-.54,1.89-1.11,3.67-1.71,5.32-.5,1.25-.92,2.52-1.26,3.83-.14,1.28-.45,2.53-.9,3.73-.42.71-.74,1.25-.99,1.6-.26.53-.44,1.1-.53,1.69-.06.44-.06.89,0,1.33.06.47.06.95,0,1.43-.22.67-.56,1.3-1,1.87-.41.58-.74,1.2-.99,1.87-.79-4.54.11-9.22,2.52-13.15.67-.72,1.19-1.56,1.53-2.48.07-.41.1-.83.09-1.25-.02-.45.01-.89.09-1.33.31-1.17.86-2.26,1.61-3.2.39-.55.92-.98,1.53-1.25M294.98,363.16c.12,1.96.27,3.91.45,5.86-.18,1.12-.42,2.28-.72,3.47-.6,3.37-1.11,6.66-1.53,9.86-.12.47-.21.95-.27,1.43l-.53-4.62c-.36-3.2-.66-7.35-.9-12.44,0-.77,0-1.48.09-2.1v-.71c.24-.7.57-1.56,1-2.58.06,1.31.17,2.61.36,3.91.95-.39,1.71-1.15,2.1-2.1M302.47,370.95c.7-2.89,1.57-5.74,2.61-8.53,1.11-2.69,2.52-5.26,4.19-7.64-.24,2.54-.45,5.57-.63,9.07v.18c-2.8,6.24-5.03,12.72-6.66,19.37l-.72,3.55-.18-1.05c-.24-2.31-.42-4.59-.54-6.84.54-2.72,1.17-5.42,1.89-8.08M329.88,340.77c.29-.58.62-1.15.99-1.69.41-.17.83-.32,1.26-.44-.84.77-1.59,1.47-2.24,2.1M316.2,346.87c.48-.42,1.05-.86,1.61-1.33-.12.41-.21.83-.27,1.25-.67,1.02-1.27,2.09-1.8,3.2.12-1.12.27-2.17.45-3.14M323.75,358.21c.06-.42.12-.8.18-1.15.24-.48.48-.92.72-1.33.78-1.36,1.62-2.69,2.52-3.99-.24.53-.51,1.07-.81,1.6-.95,1.58-1.82,3.21-2.61,4.88M320.69,364.89c-.24.6-.45,1.15-.63,1.69-.14.22-.23.46-.27.71.06-.57.15-1.13.27-1.69.12-.55.3-1.09.53-1.6,0,.3.03.6.09.89M309.27,399.18c0,.3.04.6.09.89h-.09c-.34.44-.53.99-.51,1.55.07,1.07.41,2.11,1,3.02.15.36.33.71.53,1.05.66,3.73,1.53,8.05,2.61,12.96.06.18.12.39.18.63-.24-.29-.42-.5-.53-.63-1.96-3.01-3.65-6.19-5.04-9.51-1.39-3.28-2.59-6.63-3.59-10.04.6-7.48,2.08-14.87,4.41-22.01-.2,7.39.14,14.78,1,22.12M275.65,380.56c.12,1.72.12,5.36,0,10.93-.18,3.66.06,7.32.72,10.92.37,1.42.83,2.82,1.35,4.19.3.83.81,2.13,1.53,3.91.6,1.84,1.38,4.32,2.34,7.46,2.28,7.17,4.77,15.34,7.47,24.51,1.62,5.45,2.94,9.39,3.96,11.81,1.35,3.06,2.94,6,4.77,8.79.78,1.31,2.6,4.06,5.48,8.26,2.28,3.14,3.87,5.23,4.77,6.29,1.54,2.08,3.22,4.04,5.04,5.87,3.17,2.86,6.63,5.36,10.34,7.46,2.46,1.36,6.27,3.23,11.42,5.6-4.88-.84-9.67-2.15-14.31-3.91-4.23-1.56-8.14-3.88-11.53-6.84-1.31-1.33-2.51-2.75-3.59-4.27-.48-.77-1.52-2.37-3.14-4.8l-5.24-7.11c-2.46-3.07-4.11-5.21-4.95-6.39-1.19-1.8-2.27-3.67-3.24-5.6-1.8-3.08-3.39-5.95-4.77-8.62-2.28-3.6-4.2-7.41-5.75-11.37-.86-2.39-1.52-4.84-1.98-7.34-.32-2.18-.53-4.37-.63-6.57-.96-14.38-.99-28.8-.09-43.18M298.94,405.37c-.6-1.6-1.14-3.08-1.62-4.44.12-1.6.27-3.2.45-4.8.6,2.74,1.38,5.44,2.34,8.08,0,1.19.06,2.37.18,3.55h-.53v.09c-.3-.83-.57-1.66-.81-2.48M297.14,436.29c-.07-.77-.28-1.53-.63-2.22-.54-1.54-.96-2.7-1.26-3.46-.42-1.12-.42-2.35,0-3.47.4,1.11.95,2.17,1.61,3.14.65.99,1.19,2.04,1.62,3.14.34.79.59,1.63.72,2.48.36,1.4.57,2.26.63,2.58.42,1.57,1.03,3.09,1.8,4.53.54,1.01,1.38,2.46,2.52,4.35.63.96,1.17,1.97,1.61,3.02.45,1.04.7,2.16.72,3.29-.32-.14-.58-.39-.72-.71l-.53-.8c-2.04-3.44-3.57-5.98-4.59-7.64-.61-.94-1.15-1.92-1.62-2.93-.53-.97-.98-1.98-1.35-3.02-.12-.41-.3-1.15-.54-2.22M305.41,432.71c-.18.12-.33.26-.45.44-3.69-4.18-6.1-9.33-6.93-14.84,1.5,1.54,3.12,3.29,4.85,5.24.6,2.61,1.44,5.66,2.52,9.15M310.17,436.69l-.27-.26c-.36-.53-.66-1.09-.9-1.69,0-.21-.04-.42-.09-.62-.04-.34-.13-.67-.27-.97-.08-.32-.32-.59-.63-.71-.48-1.36-.93-2.81-1.35-4.35,2.4,3.02,4.97,6.39,7.73,10.12.84,1.12,1.68,2.22,2.52,3.29-1.65-1.37-3.4-2.62-5.24-3.73-.78-.53-1.29-.89-1.53-1.05M322.09,428.34c.24.41.48.86.72,1.33,3,5.62,5.86,10.48,8.55,14.57-1.56-1.19-3.03-2.4-4.41-3.65-1.5-3.26-2.85-6.6-4.05-10.04-.24-.7-.51-1.44-.81-2.22M390.57,370.31c-.78.33-1.53.71-2.24,1.15-.75.43-1.45.94-2.1,1.51-1.98,1.36-3.9,2.76-5.75,4.19-1.08.89-1.89,1.59-2.43,2.1-1.04,1-1.95,2.14-2.7,3.37l-.99,1.69-.81,1.6c-.25.93-.43,1.88-.54,2.84-.06.77-.09,1.78-.09,3.02.06,2.25.15,3.94.27,5.06.13,1.68.52,3.33,1.17,4.88.27.88.66,1.72,1.17,2.48.36.53.87,1.27,1.53,2.22.54.7.93,1.2,1.17,1.51.34.57.8,1.06,1.35,1.43.48.39.99.74,1.53,1.05l1.62.71c2.31,1,4.73,1.74,7.2,2.22,2.41.52,4.87.73,7.34.62,2.5-.05,4.98-.5,7.34-1.33,2.37-.78,4.59-1.95,6.57-3.47,1.16-.85,2.21-1.84,3.14-2.93,1.53-1.95,2.57-4.24,3.06-6.67.6-2.47.75-5.03.45-7.56-.42-2.44-1.13-4.83-2.1-7.11-1.01-2.27-2.18-4.47-3.51-6.57-.69-1.14-1.44-2.24-2.25-3.29-.87-.98-1.84-1.87-2.88-2.66-1.65-1.07-3.48-1.82-5.4-2.22-1.96-.39-3.95-.57-5.94-.53-1.08,0-1.95.03-2.61.08-.92.1-1.82.28-2.7.53M397.78,370.96c1.3.1,2.59.28,3.87.53,1.28.26,2.52.68,3.69,1.25,1.21.54,2.3,1.29,3.24,2.22.87.76,1.6,1.66,2.16,2.66.3.48.65,1.1,1.05,1.87-.14-.19-.32-.34-.53-.44-.13-.2-.26-.4-.37-.62-.29-.52-.62-1.03-.99-1.51-.31-.54-.71-1.02-1.17-1.43-.93-.91-2.03-1.62-3.24-2.1-1.19-.49-2.43-.87-3.69-1.15-2.07-.45-4.17-.71-6.29-.8-2.09-.02-4.17.22-6.2.71.62-.51,1.37-.85,2.16-.97.77-.14,1.55-.22,2.34-.26,1.56-.06,2.88-.06,3.96,0M415.54,386.11c.33.58.58,1.21.72,1.87.2.42.36.87.45,1.33.06.29.15.77.27,1.41.18,1.05.3,1.8.37,2.4.06.83.09,1.6.09,2.31,0,.92-.07,1.84-.18,2.76-.14.87-.35,1.74-.63,2.58-.3.94-.57,1.71-.81,2.31-.31.78-.7,1.53-1.17,2.22-.77,1.18-1.74,2.2-2.88,3.02-1.12.77-2.3,1.47-3.51,2.1-.98.55-2.01,1.02-3.06,1.41-3.12,1.09-6.44,1.45-9.72,1.05,3.29-.23,6.49-1.2,9.36-2.84,2.4-1.31,4.56-3.02,6.39-5.06l.72-.53c.64-.42,1.24-.9,1.8-1.43.55-.51.96-1.15,1.17-1.87.17-.76.05-1.56-.36-2.22,0-.05-.03-.09-.07-.09,0,0-.02,0-.02,0,.05-.39.15-.78.27-1.15.33-2.08.51-4.18.53-6.29.01-1.43-.11-2.86-.36-4.27v-2.48c.24.53.45,1,.63,1.41M413.68,392.71v.8c-.1.65-.16,1.3-.18,1.95-.08.34-.12.7-.09,1.05v1.05c0,.12-.03.25-.09.36-.15-.05-.3-.08-.45-.08.05-1.51.28-3.01.69-4.46.05-.2.09-.41.09-.62M414.65,393c.06-.77.09-1.89.09-3.37.06,1.07.12,2.43.18,4.09v1.33c-.05.45-.2.87-.45,1.25v-1.15c0-.35.04-.7.09-1.05.05-.35.08-.7.09-1.05M381.61,379.82c-.12.06-.18.12-.18.18-1.32,1.37-2.28,3.05-2.79,4.88-.1.14-.19.29-.27.44-.24.42-.42.86-.53,1.33-.18.59-.33,1.19-.45,1.78-.12.59-.21,1.19-.27,1.78-.18,1.41-.24,2.84-.18,4.27-.12-.25-.18-.52-.18-.8-.08-.29-.11-.59-.09-.89v-3.14c-.06-.44-.06-.89,0-1.33,0-.48.05-.95.18-1.41.08-.22.17-.43.27-.63.15-.21.24-.46.27-.71.08-.26.14-.53.18-.8.12-.36.21-.65.27-.89.27-.65.6-1.27.99-1.87.92-1.39,2.03-2.66,3.29-3.75-.17.33-.3.68-.37,1.05-.05.15-.11.3-.18.44M384.63,410.66c-.9-.1-1.78-.34-2.61-.71-.8-.21-1.54-.6-2.16-1.15-.17-.3-.38-.56-.63-.8-.09-.34-.28-.65-.54-.89l-.9-1.25c-.25-.39-.55-.74-.9-1.05l-.53-1.05c-.3-.53-.6-1.05-.9-1.51-.48-.83-.84-1.51-1.05-2.1-.12-.44-.22-.88-.27-1.33-.06-.41-.09-.83-.09-1.25-.24-2.57-.24-5.16,0-7.72v1.95c-.07.65-.04,1.31.09,1.95.02.27.08.54.18.8l.36.71c.06.29.18.74.36,1.33.42,1.24.87,2.7,1.35,4.36.3.94.54,1.64.72,2.1.23.57.53,1.11.9,1.6l.99,1.51c.24.37.51.72.81,1.05.3.42.6.8.9,1.15.59.49,1.22.94,1.89,1.33l2.1.89M398.62,410.41h-1c.48-.14.93-.35,1.35-.62l1.89-.18c1.13-.23,2.24-.53,3.33-.89-.44.21-.89.39-1.35.53-.72.29-1.21.5-1.44.62-.46.21-.94.36-1.44.44-.45.06-.9.09-1.35.08M411.32,401.17c.06.11.09.23.09.36-.37.42-.79.86-1.26,1.33-.56.4-1.21.64-1.89.71.14-.22.23-.46.27-.71.06-.22.15-.43.27-.62.18-.25.33-.51.45-.8.05-.11.08-.23.09-.36.06-.18.15-.26.27-.26.09-.1.22-.17.36-.18.4-.07.81-.01,1.17.18.08.1.14.23.18.36M374.78,385.28c.06-.19.15-.37.27-.53.11-.1.23-.19.36-.26-.09.34-.21.66-.36.97-.12.29-.21.53-.27.71,0,.24-.03.48-.09.71l-.27.26c-.01.09-.04.18-.09.26.01.09.04.18.09.26,0,.1-.03.19-.09.26-.03.13-.09.25-.18.36-.06.11-.09.23-.09.36-.15-.82-.03-1.66.36-2.4.24-.18.36-.29.36-.36v-.62M417.42,163.36c.15-.94.24-1.89.27-2.84-.02-.86-.24-1.71-.63-2.48-.47-.82-1.25-1.43-2.16-1.69-.87-.2-1.78.07-2.39.71-.43.62-.68,1.34-.72,2.1-.3,2.54-.57,4.77-.81,6.67-.1-.43-.26-.85-.45-1.25-.4-1.27-1.19-2.39-2.25-3.2-.99-.8-2.24-1.21-3.51-1.15-.84,5.09-2.07,12.78-3.69,23.06l-.21-27.29c.02-.6-.04-1.2-.18-1.78-.09-.58-.41-1.1-.9-1.43-.72-.54-1.71-.54-2.43,0-.82.46-1.51,1.13-1.98,1.95-.89,1.55-1.52,3.23-1.89,4.98l-.18.53c-1.05.51-1.94,1.27-2.61,2.22-1.01,1.31-1.6,2.88-1.71,4.53-.24-2.19-.54-4.18-.9-5.95-.24-.77-.42-1.32-.54-1.68-.25-.56-.55-1.1-.9-1.6-.44-.45-1.01-.76-1.62-.89-.56-.3-1.24-.3-1.8,0-.81.4-1.35,1.2-1.44,2.1-.18,1-.18,2.02,0,3.02,1.42,8.97,2.39,18.01,2.89,27.08.24,5.69.48,9.36.72,11.02.4,3.64,1.34,7.21,2.79,10.57.6-.01,1.2.02,1.8.09.58-1.52.97-3.1,1.17-4.71v2.31c.06,1.19.12,2.08.18,2.66.15.81.42,1.58.81,2.31.46.76,1.16,1.35,1.98,1.69l.09.09c.24,3.47.12,6.95-.36,10.4,1.97.59,3.99,1.01,6.03,1.25.06-4.32.12-8.56.18-12.7l1.26-.26,2.16-7.72c-.19,1.05-.1,2.14.27,3.14.42,1.12,1.08,1.66,1.98,1.6.86-.04,1.61-.61,1.89-1.43.4-.77.64-1.62.72-2.48.12-1.77.24-3.46.36-5.06.32,1.5.86,2.93,1.61,4.27.74,0,1.44-.29,1.98-.8.5-.51.9-1.12,1.17-1.78.28-.67.46-1.38.53-2.1.06-.48.12-1.17.18-2.1.54-11.61,1.62-23.57,3.24-35.89M404.13,186.9v3.65c.07.68-.09,1.37-.45,1.95v-5.6h.45M517.59,268.45c-.6,1.01-1.14,1.89-1.62,2.66-1.56,1.31-2.96,2.43-4.19,3.37-1.05.68-1.82,1.73-2.16,2.93-.05.35-.02.71.09,1.05-.7.41-1.54.92-2.52,1.51-1.24.7-2.44,1.47-3.59,2.31-1.14.81-2.04,1.92-2.61,3.2-.65,1.23-.75,2.68-.27,3.99,2.54.04,5.05-.51,7.34-1.6,2.39-1.17,4.89-2.09,7.46-2.76.54-.12,1.71-.27,3.51-.44.63,0,1.27-.05,1.89-.18.31.14.65.23.99.26l-10.62,7.46c-.75.4-1.4.98-1.89,1.69-.24.34-.39.74-.45,1.15-.06.42,0,.86.18,1.25,1.43.82,3.15.95,4.68.36.56-1.23,1.55-2.21,2.79-2.76,2.58-1.6,5.02-3.29,7.34-5.06.15.94.63,1.79,1.35,2.4.79.96,2.18,1.19,3.24.53,3.45-4.65,7.65-8.7,12.42-11.99l7.02-5.33c2.35-1.77,4.58-3.7,6.67-5.77.96-.95,2.34-2.46,4.14-4.53,1.45-1.52,3.01-2.92,4.68-4.19.61-.45,1.19-.95,1.71-1.51.55-.49.79-1.23.63-1.95-.13-.54-.52-.97-1.05-1.15-.09-.1-.22-.17-.36-.18.24-.53.45-1.03.63-1.51-1.44-1.19-2.49-2.02-3.14-2.48.97-.3,1.76-1.02,2.16-1.95.49-.98.58-2.1.27-3.14-.63-2.01-2.11-3.63-4.05-4.44-1.33-.7-2.82-1.01-4.32-.89-1.33.27-2.54.92-3.51,1.87-1.4,1.36-2.45,2.37-3.14,3.02-1.01.83-2.1,1.58-3.24,2.22-1.14.59-2.04,1.1-2.7,1.51-3.24,1.36-6.12,2.72-8.64,4.09-6.79,3.57-12.64,8.68-17.09,14.92"/><path id="Caminho_5039" class="cls-2" d="M968.33,963.03h8.82l18.63,43.79h-10l-3.97-9.75h-18.38l-3.97,9.75h-9.75l18.61-43.79ZM978.39,988.63l-5.77-14.1-5.77,14.1h11.55Z"/><path id="Caminho_5040" class="cls-2" d="M1046.02,963.38h9.57v34.79h21.67v8.69h-31.24v-43.47Z"/><path id="Caminho_5041" class="cls-2" d="M1142.9,963.03h8.82l18.63,43.79h-9.98l-3.97-9.75h-18.38l-3.97,9.75h-9.75l18.59-43.79ZM1152.97,988.63l-5.77-14.1-5.77,14.1h11.55Z"/><path id="Caminho_5042" class="cls-2" d="M1215.88,985.27v-.13c-.1-12.32,9.82-22.39,22.14-22.49.22,0,.44,0,.66,0,6.26-.33,12.39,1.81,17.08,5.96l-6.03,7.27c-3.06-2.91-7.15-4.5-11.37-4.41-7.18.31-12.75,6.36-12.48,13.54v.13c-.42,7.18,5.06,13.35,12.24,13.77.31.02.62.03.94.02,3.2.1,6.35-.82,9-2.61v-6.2h-9.63v-8.26h18.86v18.86c-5.15,4.47-11.75,6.92-18.57,6.9-12,.6-22.22-8.64-22.82-20.64-.03-.57-.03-1.15-.02-1.72"/><path id="Caminho_5043" class="cls-2" d="M1308.11,985.27v-.13c.43-12.76,11.13-22.75,23.89-22.32,12.1.41,21.84,10.09,22.31,22.19v.13c-.43,12.76-11.13,22.75-23.89,22.32-12.1-.41-21.84-10.09-22.31-22.19M1344.32,985.27v-.13c.23-7.29-5.49-13.39-12.78-13.62-.13,0-.26,0-.38,0-7.18-.03-13.03,5.77-13.06,12.95,0,.2,0,.39.01.59v.13c-.23,7.29,5.49,13.39,12.78,13.62.13,0,.26,0,.39,0,7.18.03,13.03-5.77,13.06-12.95,0-.2,0-.39-.01-.59"/><path id="Caminho_5044" class="cls-2" d="M1418.47,963.03h8.82l18.63,43.79h-10l-3.97-9.75h-18.38l-3.97,9.75h-9.75l18.61-43.79ZM1428.53,988.63l-5.77-14.1-5.77,14.1h11.55Z"/><path id="Caminho_5045" class="cls-2" d="M1492.57,1000.52l5.65-6.77c3.55,3.26,8.17,5.12,12.99,5.24,3.91,0,6.29-1.55,6.29-4.11v-.13c0-2.42-1.5-3.66-8.76-5.52-8.76-2.23-14.41-4.66-14.41-13.29v-.13c.23-7.52,6.52-13.43,14.04-13.2.39.01.79.04,1.18.09,5.86-.09,11.58,1.86,16.15,5.53l-4.97,7.2c-3.25-2.54-7.19-4.03-11.3-4.29-3.67,0-5.6,1.68-5.6,3.79v.13c0,2.86,1.87,3.78,9.43,5.71,8.82,2.31,13.79,5.47,13.79,13.05v.13c0,8.64-6.58,13.48-15.96,13.48-6.79.02-13.36-2.45-18.45-6.96"/></g></g></g></g></svg>