<?xml version="1.0" encoding="UTF-8" standalone="no"?><!-- Generator: Gravit.io --><svg xmlns="http://www.w3.org/2000/svg" xmlns:xlink="http://www.w3.org/1999/xlink" style="isolation:isolate" viewBox="0 0 90 70" width="90pt" height="70pt"><defs><clipPath id="_clipPath_pAnPKgoD8SEld5VfLRrBLOuvPaME4j9H"><rect width="90" height="70"/></clipPath></defs><g clip-path="url(#_clipPath_pAnPKgoD8SEld5VfLRrBLOuvPaME4j9H)"><g><g><path d=" M 30.8 0 C 30.5 0 30.2 0.1 30 0.2 L 2 10.2 C 0.8 10.6 0 11.7 0 13 L 0 67 C 0 68.7 1.4 70 3 70 C 3.3 70 3.7 69.9 4 69.8 L 31 60.1 L 58 69.8 C 58.6 70 59.4 70 60 69.8 L 88 59.8 C 89.2 59.4 90 58.3 90 57 L 90 3 C 90 1.3 88.6 0 87 0 C 86.7 0 86.3 0.1 86 0.2 L 59 9.9 L 32 0.2 C 31.6 0 31.2 -0.1 30.8 0 Z  M 28 7.2 L 28 54.9 L 6 62.7 L 6 15 L 28 7.2 Z  M 34 7.2 L 56 15.1 L 56 62.8 L 34 54.9 L 34 7.2 Z  M 84 7.2 L 84 54.9 L 62 62.8 L 62 15.1 L 84 7.2 Z " fill="rgb(255,255,255)"/></g></g></g></svg>