<?xml version="1.0" standalone="no"?>
<!DOCTYPE svg PUBLIC "-//W3C//DTD SVG 20010904//EN"
 "http://www.w3.org/TR/2001/REC-SVG-20010904/DTD/svg10.dtd">
<svg version="1.0" xmlns="http://www.w3.org/2000/svg"
 width="593.000000pt" height="801.000000pt" viewBox="0 0 593.000000 801.000000"
 preserveAspectRatio="xMidYMid meet">

<g transform="translate(0.000000,801.000000) scale(0.100000,-0.100000)"
fill="#ffff" stroke="none">
<path d="M1823 7205 c-103 -28 -196 -112 -233 -211 -19 -53 -20 -75 -20 -763
l0 -709 -46 -16 c-198 -67 -361 -312 -444 -666 -63 -270 -61 -244 -70 -1460
-5 -613 -18 -1556 -29 -2095 -11 -539 -21 -1046 -21 -1127 l0 -148 940 0 940
0 1 253 c1 138 5 488 8 777 l6 525 90 6 c216 16 420 102 590 249 25 22 53 40
61 40 38 0 216 276 254 392 11 38 12 38 66 38 137 0 262 91 315 229 l17 46 61
7 c124 14 223 81 281 190 29 54 35 75 38 150 8 166 -32 233 -233 384 l-144
109 -1 58 0 57 50 0 c113 0 242 86 297 198 25 51 28 67 28 162 0 95 -3 110
-28 160 -38 73 -69 104 -219 217 l-128 95 0 53 0 52 58 7 c123 14 240 96 291
205 23 49 26 68 26 161 0 91 -3 111 -24 150 -42 80 -70 109 -212 216 l-139
105 0 807 c0 713 -2 815 -16 862 -30 100 -93 172 -194 219 l-55 26 -1055 2
c-884 2 -1063 0 -1107 -12z m2195 -2452 l-3 -1698 -722 -3 -723 -2 0 85 0 85
163 0 c184 0 242 11 352 65 132 65 240 188 292 335 24 67 27 93 31 243 l4 167
-533 0 c-580 0 -617 -3 -720 -56 -69 -35 -168 -134 -202 -204 -30 -61 -138
-220 -149 -220 -5 0 -8 653 -8 1450 l0 1450 1110 0 1110 0 -2 -1697z"/>
<path d="M2755 5774 c-82 -18 -116 -38 -176 -99 -84 -87 -149 -219 -149 -304
0 -42 42 -220 64 -272 23 -54 60 -94 124 -133 100 -60 207 -65 382 -16 85 24
115 40 148 81 12 15 40 38 61 50 22 12 44 33 51 47 6 14 14 93 17 176 5 134 3
159 -15 224 -12 41 -29 90 -40 110 -26 51 -92 89 -177 102 -38 6 -90 17 -115
25 -75 23 -102 24 -175 9z m55 -62 c0 -4 -33 -24 -74 -44 -40 -20 -101 -62
-134 -93 -52 -48 -64 -65 -78 -116 -20 -71 -34 -84 -34 -33 0 49 31 112 86
173 55 61 94 86 165 105 65 18 69 18 69 8z m-73 -113 c-58 -44 -103 -194 -78
-261 18 -49 85 -128 131 -158 95 -60 219 -75 297 -35 59 30 76 -17 21 -58 -57
-43 -100 -59 -165 -65 -78 -6 -139 10 -187 50 -39 32 -148 187 -172 244 -33
79 2 219 55 219 15 0 27 8 32 23 5 12 23 31 41 42 43 26 61 25 25 -1z m291
-26 c46 -22 98 -87 118 -146 21 -62 13 -185 -12 -204 -26 -19 -124 -36 -172
-29 -36 5 -152 59 -152 70 0 2 32 1 70 -2 59 -4 74 -2 92 14 32 29 48 77 48
144 0 71 -17 119 -54 147 -14 12 -26 24 -26 28 0 9 46 -2 88 -22z m-161 -14
c44 -16 113 -89 113 -119 -1 -22 -2 -23 -11 -7 -12 21 -80 57 -108 57 -11 0
-34 -12 -51 -26 -37 -32 -53 -22 -44 24 7 32 45 82 63 82 5 0 22 -5 38 -11z
m-150 -166 c-2 -16 -4 -3 -4 27 0 30 2 43 4 28 2 -16 2 -40 0 -55z m166 54
c18 -8 38 -22 46 -31 12 -15 11 -20 -13 -45 -37 -39 -60 -43 -84 -17 -32 34
-36 62 -13 85 25 25 23 25 64 8z m346 -94 c1 -24 -3 -43 -9 -43 -6 0 -10 29
-9 68 1 49 3 60 9 42 4 -14 8 -44 9 -67z m-246 8 c-3 -11 -14 -28 -26 -38 -22
-19 -21 -14 5 39 14 29 29 29 21 -1z m-412 -158 c28 -41 38 -70 20 -59 -24 15
-71 102 -70 130 l1 31 10 -30 c6 -16 24 -49 39 -72z"/>
<path d="M3410 5475 c0 -3 14 -36 31 -74 l31 -70 -9 -120 c-9 -112 -13 -127
-51 -203 -58 -117 -179 -246 -275 -295 -148 -74 -211 -87 -327 -67 -310 53
-382 102 -501 338 -57 113 -71 150 -70 186 0 66 17 133 51 200 36 71 37 80 8
80 -13 0 -44 -23 -79 -57 -49 -50 -60 -69 -80 -133 -32 -107 -33 -285 -2 -385
33 -105 88 -190 161 -251 127 -105 252 -151 437 -160 61 -3 130 -12 154 -20
69 -22 170 -18 243 10 116 44 174 76 252 141 43 36 82 65 86 65 17 0 112 95
137 137 24 42 72 241 73 305 0 30 -29 98 -42 98 -4 0 -8 -37 -8 -83 0 -58 -5
-89 -15 -103 -13 -17 -14 -14 -15 42 0 69 -23 204 -46 276 -17 51 -63 116 -97
135 -23 13 -47 17 -47 8z m100 -546 c-26 -86 -75 -192 -100 -214 -19 -17 -90
-38 -99 -29 -3 2 16 26 41 52 56 58 117 151 148 228 31 76 38 52 10 -37z
m-955 -342 c156 -68 163 -80 32 -52 -83 17 -197 76 -237 122 -46 51 -36 56 33
16 34 -20 112 -59 172 -86z m734 17 c-25 -30 -236 -127 -305 -140 -41 -8 -47
11 -6 21 15 3 62 29 105 56 99 64 132 78 181 79 34 0 37 -2 25 -16z"/>
</g>
</svg>
